<?xml version="1.0" encoding="UTF-8"?><svg id="Layer_2" xmlns="http://www.w3.org/2000/svg" viewBox="0 0 704.92 297.38"><defs><style>.cls-1{fill:#fff;}</style></defs><g id="Layer_2-2"><path class="cls-1" d="m.07,142.1c0-28.91,0-57.82-.01-86.73,0-1.14.11-1.83,1.47-2.31,16.6-5.87,33.16-11.86,49.75-17.8,19-6.8,38.01-13.57,57.02-20.37,13.66-4.89,27.32-9.81,41-14.64.99-.35,2.32-.35,3.31,0,17.98,6.36,35.93,12.78,53.88,19.21,16.85,6.04,33.69,12.14,50.54,18.19,14.48,5.19,28.97,10.36,43.47,15.48,1.09.39,1.43.86,1.43,1.98-.03,57.99-.03,115.99,0,173.98,0,1.07-.41,1.53-1.3,1.92-18.19,8.07-36.37,16.15-54.55,24.25-13.09,5.83-26.17,11.7-39.26,17.53-12.08,5.39-24.17,10.75-36.25,16.13-5.98,2.66-11.97,5.31-17.92,8.02-1.16.53-2.13.6-3.32.06-15.2-6.84-30.43-13.63-45.65-20.42-13.36-5.95-26.73-11.88-40.09-17.83-16.89-7.52-33.78-15.04-50.67-22.56-3.58-1.59-7.11-3.32-10.76-4.74C.42,230.8,0,229.89,0,228.12c.06-28.67.04-57.35.04-86.02h.03Zm106.32-50.55c-1.13-.84-1.53-1.95-1.46-3.36.1-1.81.02-3.63.02-5.45,0-2.31,0-4.63,0-7.21-1.71.64-3.15,1.09-4.51,1.74-.38.18-.69.9-.69,1.38-.06,3.22-.06,6.45-.01,9.67,0,.46.23,1.21.53,1.31,2.03.7,4.1,1.27,6.16,1.87,1.51.93,2.97,2.1,4.88,1.03.19.4.28.97.59,1.16,1.08.66,4.48-1.44,4.48-2.73.02-6.03.02-12.06,0-18.09,0-.49-.12-.97-.22-1.7-1.8.69-3.35,1.28-4.95,1.89,0,4.33.04,8.54-.01,12.75-.04,3.21-1.78,5.2-4.82,5.72Zm61.56,41.72c.9-1.85,2.23-3.62,2.64-5.58,1.19-5.83-1.12-10.06-8.2-7.91-3.73,1.13-7.36,2.6-10.98,3.9v32.22c.36,0,.62.07.81,0,3.92-1.52,7.92-2.88,11.74-4.64,3.46-1.59,5.84-4.4,7.19-8.01,1.75-4.7.51-8.35-3.2-9.97Zm-16.52,138.8c3.77-1.63,7.33-3.2,10.91-4.71,9.63-4.08,15.73-16.07,13.01-27.33-1.21-5.01-4.83-7.39-9.74-5.9-4.62,1.4-9.06,3.44-13.53,5.3-.42.18-.76,1.09-.77,1.67-.05,9.78-.05,19.56-.05,29.34,0,.44.08.89.15,1.64Zm92.78-58.84c-2.34-1.64-4.41-1.61-6.94.01-5.33,3.41-8.4,10.7-7.14,16.94.96,4.73,4.68,6.64,8.94,4.28,1.94-1.08,3.5-2.86,5.09-4.21.63,3.33-.89,6.97-4.02,8.46-.98.46-2.71.74-3.34.2-1.01-.85-1.65-.74-2.59-.28-.79.38-1.59.74-2.42,1.03-1.03.36-1.12,1.01-.83,1.94.8,2.57,3.12,3.69,6.26,2.99,6.98-1.57,12.19-8.03,12.22-15.23.03-6.27,0-12.53,0-18.8,0-.55-.08-1.11-.12-1.69-3.93.92-4.63,1.52-5.1,4.36ZM115.02,56.05c1.65-.63,2.94-1.04,4.13-1.63.46-.23.99-.89,1-1.37.06-4.74.15-9.49-.05-14.23-.17-4.12-2.93-5.75-6.65-3.97-1.37.65-2.45,1.91-3.64,2.92-.32.27-.54.65-1.12,1.35v-11.67c-1.27.41-2.29.82-3.35,1.07-1.5.35-1.92,1.17-1.9,2.72.09,8.96.04,17.92.04,26.88,0,.63,0,1.25,0,2.22,1.41-.53,2.51-1.1,3.67-1.34,1.44-.3,1.67-1.12,1.65-2.39-.06-3.57-.2-7.16.06-10.71.11-1.58.84-3.28,1.77-4.58.51-.71,2.12-1.11,3.06-.89.61.14,1.22,1.64,1.26,2.56.15,3.51.06,7.03.07,10.54,0,.74,0,1.47,0,2.51Zm139.03,61.42c1.45-.55,2.51-1.04,3.63-1.34,1.27-.34,1.6-1.09,1.55-2.32-.08-2.22,0-4.45-.03-6.68-.04-2.63.01-5.28-.26-7.89-.28-2.68-1.83-3.74-4.49-3.48-2.16.21-3.87,1.24-5.21,2.92-.4.5-.79,1.02-1.18,1.54-.13-.05-.26-.09-.39-.14v-11.19c-1.43.49-2.55.96-3.71,1.24-1.19.29-1.5.91-1.5,2.12.06,9.32.04,18.63.04,27.95,0,.44.05.88.08,1.55,1.31-.49,2.42-1.04,3.6-1.3,1.42-.32,1.63-1.13,1.59-2.42-.08-3.4-.09-6.8,0-10.19.03-1.2.31-2.44.7-3.58.54-1.55,2.58-2.93,3.79-2.62,1.9.49,1.67,2.14,1.77,3.58.02.29,0,.59,0,.88,0,3.68,0,7.37,0,11.4Zm-56.15,128.31c-2.65,1.05-5.07,1.11-6.56,3.61-.74,1.23-2.45,2.05-3.89,2.64-1.19.49-2.54-.75-2.91-2.17-.37-1.45.82-1.43,1.62-1.78,3.05-1.33,6.11-2.65,9.16-3.97,3.61-1.56,2.98-.57,2.85-4.53-.19-5.67-4.4-8.17-9.65-5.95-7.07,2.99-11.37,11.42-9.68,18.94.89,3.96,4.04,5.97,7.86,4.79,5.58-1.72,9.22-5.46,11.2-11.58Zm16.97-44.63c-2.28.75-4.76.69-6.17,3.35-.63,1.18-2.55,1.93-4.03,2.33-1.36.37-2.14-.89-2.54-2.15-.44-1.41.76-1.48,1.56-1.82,3.57-1.47,7.14-2.93,10.73-4.36.86-.34,1.37-.78,1.22-1.81-.15-1.09-.09-2.23-.3-3.31-.89-4.52-3.8-6.3-8.22-5.11-7.23,1.95-12.08,10.37-10.67,18.53.73,4.25,3.73,6.39,7.87,5.24,5.54-1.54,9.08-5.23,10.55-10.89Zm-40.74-15.65c4.59-.51,5.64-1.62,5.64-5.76,0-.7.01-1.41,0-2.11-.08-3.63-.02-7.27-.29-10.89-.19-2.57-2.2-3.89-4.72-3.51-2.82.43-4.99,1.87-6.59,4.22-.27.4-.59.78-1.06,1.4-.09-.9-.14-1.46-.21-2.18-1.39.5-2.64.98-3.91,1.39-.99.31-1.33.88-1.32,1.94.06,6.45.04,12.9.07,19.35,0,.37.13.75.22,1.28,1.41-.55,2.62-1.12,3.9-1.49,1.2-.34,1.49-1.03,1.47-2.19-.05-3.75-.04-7.51.02-11.26.03-1.99.57-3.91,2.23-5.12.85-.62,2.23-1.17,3.1-.9.69.22,1.33,1.72,1.38,2.68.17,3.33.06,6.68.06,10.02,0,1.03,0,2.07,0,3.13Zm-12.08,43.59c1.6-.67,2.86-1.27,4.18-1.72,1-.35,1.32-.91,1.3-1.96-.06-3.69-.18-7.39.05-11.07.1-1.67.76-3.39,1.54-4.91.69-1.35,2.12-2.15,3.71-1.72,1.61.44,1.41,2.01,1.44,3.24.07,3.87.03,7.73.05,11.6,0,.37.12.74.21,1.32,1.51-.61,2.89-1.08,4.16-1.74.51-.26,1.12-.95,1.12-1.45.08-4.98.16-9.96-.01-14.94-.13-3.74-2.74-5.25-6.34-4.02-2.67.91-4.45,2.82-6.07,5.37-.11-.88-.18-1.42-.28-2.21-1.63.63-3.12,1.13-4.53,1.81-.37.18-.66.91-.67,1.39-.04,6.44-.02,12.89,0,19.33,0,.44.07.89.14,1.66Zm25.56-55.49c-.95.36-1.92.73-2.9,1.09-2.4.89-2.88,2.26-1.18,4.23.68.79,1.92,1.42,2.97,1.53,5.23.53,11.65-3.87,12.87-8.96,1.22-5.12-.31-7.45-5.69-6.71-.58.08-1.14.25-1.72.33-.87.12-1.75.3-2.61.27-1.33-.05-1.72-.86-1.09-2.01,1.33-2.43,4.39-2.67,5.95-.41,1.02-.4,2.05-.81,3.08-1.23,2.22-.91,2.7-2.41,1-4.17-.83-.86-2.33-1.54-3.5-1.49-1.81.08-3.73.58-5.36,1.4-4.02,2.02-6.63,5.17-6.56,9.95.04,2.79,1.39,4.13,4.15,4.03,1.86-.07,3.71-.46,5.57-.62,1.41-.12,1.97.71,1.42,1.96-1.17,2.65-4.69,3.14-6.4.8Zm-38.21-99.9c-2.22.7-4.42.62-5.71,3.03-.58,1.09-2.2,1.85-3.51,2.25-1.3.41-2.36-.78-2.67-2.39-.27-1.43.98-1.23,1.67-1.52,2.48-1.04,4.99-2,7.49-2.99,3.63-1.43,3.97-2.06,3.17-5.91-.02-.11-.07-.22-.09-.34-1.07-4.36-4.37-6.05-8.54-4.37-6.54,2.64-10.56,10.45-8.95,17.41.76,3.29,2.55,5.12,5.21,5.32,4.95.37,11.38-5.14,11.93-10.5Zm139.08,61.31c-2.29.87-4.55.81-5.89,3.27-.59,1.09-2.35,1.85-3.72,2.15-1.37.3-2.02-1.04-2.38-2.3-.42-1.46.83-1.29,1.53-1.57,3.15-1.27,6.31-2.53,9.49-3.71,1.15-.42,1.79-.99,1.57-2.29-.1-.57-.06-1.17-.12-1.75-.61-5.9-4.69-8.1-9.97-5.39-6.21,3.18-9.63,11.61-7.4,18.23.89,2.63,2.84,4.09,5.33,4.01,5.21-.17,10.61-4.97,11.55-10.64Zm-47.04,50.43c0,.53-.02,1.05,0,1.58.3,5.6,4.11,8.05,9.29,5.99.54-.21,1.07-.47,1.56-.77,6.06-3.82,8.18-9.46,7.5-16.36-.49-4.96-4.31-7.21-8.91-5.33-5.8,2.38-9.42,8.07-9.45,14.88Zm-35.63,56.41c-1.19.46-2.16.84-3.13,1.22-2.35.92-2.8,2.59-1,4.43.66.68,1.79,1.19,2.74,1.26,5.15.39,11.42-4.29,12.7-9.31,1.33-5.22-.76-7.44-5.99-6.39-1.26.25-2.52.57-3.79.65-1.37.09-1.76-.66-1.16-1.91,1.17-2.48,4.06-2.83,5.97-.68,1.32-.58,2.68-1.11,3.98-1.77.38-.19.79-.73.82-1.14.16-1.86-1.59-4.02-3.45-3.89-1.94.13-3.96.52-5.73,1.3-4.64,2.04-7.34,6.64-6.8,11.03.26,2.11,1.35,3.15,3.48,3.16,1.05,0,2.1-.14,3.14-.28,1.1-.14,2.19-.44,3.28-.48.4-.01,1.08.49,1.18.87.28,1.12-1.47,2.96-3.26,3.49-1.36.41-2.6.32-2.96-1.57Zm49.44-109.28c-1.29.49-2.18.95-3.13,1.17-1.62.38-2.03,1.31-1.97,2.9.12,3.57.07,7.14,0,10.71-.04,1.95-.76,3.72-2.42,4.82-.69.45-1.9.72-2.56.41-.62-.29-1.09-1.46-1.13-2.26-.14-2.75-.06-5.5-.06-8.25,0-1.61,0-3.22,0-5.08-1.4.51-2.46.97-3.56,1.27-1.34.36-1.82,1.06-1.78,2.5.11,4.15.02,8.31.06,12.47,0,.93.11,1.88.36,2.77.62,2.26,2.17,3.26,4.49,2.79,1.06-.21,2.17-.6,3.05-1.21,1.45-1,2.72-2.24,3.89-3.23.01.05.15.57.32,1.18.92-.35,1.65-.74,2.44-.91,1.83-.39,2.25-1.47,2.21-3.25-.12-5.5-.03-11.01-.04-16.51,0-.67-.08-1.34-.14-2.28ZM88.62,59.65c.04-.15.09-.31.13-.46-.55.17-1.11.31-1.65.5-.93.34-1.89.64-2.77,1.09-.29.15-.52.75-.5,1.13.09,2.29,1.73,4.16,4.03,3.99,2.1-.15,4.29-.68,6.19-1.58,3.45-1.63,5.73-4.43,6.28-8.33.55-3.92-1.13-5.64-5.05-5.34-1.52.12-3.03.38-4.54.45-.5.02-1.35-.26-1.46-.59-.16-.5.02-1.3.35-1.74,1.6-2.17,3.81-2.12,5.5.12.89-.37,1.8-.74,2.72-1.12,2.31-.96,2.72-2.35.96-4.21-.72-.77-1.95-1.38-3-1.47-4.86-.39-10.14,3.49-11.45,8.2-1.34,4.82.96,7.43,5.92,6.74,1.1-.15,2.2-.37,3.3-.4,1.37-.03,2.06.94,1.22,1.85-.96,1.05-2.32,1.92-3.67,2.36-.64.21-1.66-.76-2.51-1.2Zm145.46,50.26c-.04.14-.08.28-.12.42.97-.37,1.95-.73,2.92-1.1,2.31-.89,2.72-1.87,1.17-3.84-.71-.9-2.04-1.7-3.17-1.81-4.98-.5-10.49,3.49-11.53,8.43-.93,4.41.41,7.15,5.51,6.45,1.27-.18,2.56-.4,3.83-.4.45,0,1.27.6,1.28.95.09,1.79-1.38,2.49-2.67,3.1-1.06.49-2.25.64-3.1-.67-.21-.33-.89-.55-1.33-.5-.68.07-1.34.4-2,.64-2.35.85-2.82,1.98-1.21,3.95.75.93,2.15,1.75,3.32,1.84,5.24.4,10.73-3.74,12.1-8.85,1.24-4.64-.76-6.98-5.47-6.38-1.33.17-2.67.44-4,.49-1.43.06-2.15-1.01-1.26-1.98.89-.96,2.19-1.72,3.45-2.07.59-.16,1.51.85,2.28,1.33Zm19.05,118.32c1.23-.5,2.11-1,3.05-1.21,1.88-.42,2.26-1.57,2.18-3.33-.14-3.1-.08-6.21-.02-9.31.04-2.14.35-4.29,2.17-5.69.73-.57,1.94-.97,2.78-.78.55.12,1.13,1.41,1.19,2.22.17,2.21.07,4.45.08,6.67,0,2.08,0,4.17,0,6.53,1.71-.7,3.17-1.25,4.57-1.9.27-.13.51-.65.51-.99.02-4.98.16-9.96-.08-14.93-.16-3.35-2.56-4.65-5.72-3.49-.65.24-1.3.55-1.85.96-1.4,1.08-2.74,2.23-4.11,3.35.09.13.19.26.28.39-.05-.48-.1-.96-.17-1.67-1.5.62-2.86,1.12-4.15,1.76-.36.18-.68.81-.68,1.24-.04,6.61-.03,13.23-.03,20.18Zm-148.25-23.6c-.01,6.99,3.68,12.57,9.24,14.45,4.16,1.41,7.03-.11,7.95-4.21,1.45-6.44-2.54-13.98-8.66-16.36-4.32-1.68-7.65-.05-8.41,4.16-.14.8-.1,1.63-.12,1.97Zm85.36-9.25v-5.79c-4.83.84-5.39,1.47-5.39,5.91,0,.23-.03.47,0,.7.16,1.09-.24,1.75-1.32,2.1-.43.14-1.01.6-1.05.96-.13,1.3-.05,2.63-.05,4.11.93-.2,1.58-.35,2.32-.51.03.46.08.79.08,1.13.02,3.81,0,7.62.06,11.42.03,2.1,1.24,3.26,3.25,2.83,1.62-.35,3.15-1.16,4.7-1.79.16-.06.3-.37.3-.56.03-1.42.01-2.84.01-4.31-1.03.2-1.75.34-2.66.53-.07-.82-.16-1.45-.16-2.07-.02-2.52.1-5.05-.05-7.56-.1-1.62.4-2.51,1.96-2.92.37-.1.88-.54.9-.86.1-1.31.04-2.63.04-4.13-1.05.29-1.81.5-2.95.81ZM62.7,47.8c0,1.51-.05,2.97.02,4.42.05,1.15-.03,2.06-1.42,2.34-.37.07-.9.54-.93.87-.11,1.31-.04,2.63-.04,4.14.95-.25,1.59-.42,2.41-.63,0,4.08-.09,8.05.03,12.01.09,3.25,1.47,4.18,4.56,3.28.94-.28,1.86-.69,2.74-1.14.35-.18.76-.62.78-.96.09-1.31.04-2.63.04-3.97q-2.78.44-2.78-2.36c0-2.46.08-4.92-.03-7.37-.05-1.22.36-1.79,1.48-2.16.53-.18,1.21-.76,1.29-1.25.19-1.18.06-2.41.06-3.76-1.01.18-1.82.33-2.84.51v-5.88c-1.92.69-3.59,1.29-5.36,1.93Zm144.42,70.47c2.93-1.1,3.61-2.74,2.41-5.62-.75.19-1.5.38-2.54.64v-5.74c-5.07.87-5.35,1.17-5.35,5.77,0,.12-.01.24,0,.35.14,1.17-.11,2.03-1.45,2.36-.36.09-.82.67-.86,1.06-.11,1.2-.04,2.41-.04,3.81.9-.16,1.55-.28,2.18-.4.07.19.14.3.14.41.02,3.51-.03,7.03.05,10.54.1,4.46,1.83,5.52,5.91,3.76.54-.23,1.09-.45,1.57-.77.31-.2.69-.57.71-.89.08-1.36.03-2.73.03-4.14-1.19.05-2.65,1.41-2.73-.69-.13-3.5-.04-7.02-.04-10.47Zm2.75,25.91c-.38,0-.56-.03-.72,0-4.54,1.06-4.71,1.25-4.68,5.86,0,1.24.02,2.33-1.53,2.69-.33.08-.76.62-.78.98-.1,1.25-.04,2.51-.04,3.92.91-.2,1.56-.35,2.39-.53,0,4.11-.04,8.09.02,12.07.03,1.49.31,3,2.13,3.4,1.37.3,5.51-1.26,5.91-2.16.07-.15.08-.34.08-.52,0-1.32,0-2.64,0-3.98-1.08-.08-2.51,1.6-2.64-.4-.24-3.6-.07-7.22-.07-10.75,3.04-1.06,3.37-1.88,2.44-5.61-.74.21-1.49.42-2.5.7v-5.68Zm-58.26,50.5c1.65-.62,2.92-1.18,4.25-1.58,1.25-.38,1.67-1.04,1.66-2.39-.05-9.89,0-19.78,0-29.67,0-.26-.11-.52-.22-.96-1.38.52-2.6,1.08-3.88,1.44-1.42.4-1.86,1.17-1.85,2.66.07,9.6.04,19.19.04,28.79,0,.45,0,.91,0,1.71Zm5.77,3.96c-1.55.6-2.75,1.2-4.02,1.53-1.39.37-1.78,1.11-1.78,2.51.06,9.72.02,19.45.03,29.17,0,.42.12.85.21,1.43,1.54-.64,2.86-1.25,4.24-1.72,1.12-.38,1.47-.99,1.46-2.19-.06-9.61-.03-19.21-.04-28.82,0-.51-.05-1.03-.1-1.92Zm69.71-50.3c.14.23.24.32.24.42,0,3.16.09,6.32-.01,9.48-.18,5.58,1.48,6.47,6.88,4.1.16-.07.33-.16.44-.29.24-.3.62-.63.64-.96.07-1.31.03-2.63.03-3.91-.98.12-1.73.22-2.68.34,0-3.71-.05-7.15.06-10.59.01-.47.78-.94,1.24-1.37.44-.41,1.27-.73,1.34-1.17.18-1.27.06-2.59.06-4.03-1.06.3-1.77.5-2.7.76,0-1.12,0-2.05,0-2.97s0-1.8,0-2.91c-.59.19-.86.27-1.11.37-4.16,1.5-4.21,1.5-4.14,5.88.02,1.26-.14,2.16-1.57,2.41-.28.05-.71.41-.72.65-.07,1.41-.03,2.82-.03,4.31.9-.24,1.49-.39,2.05-.54Zm-94.9,62.83c.72.24,1.1.38,1.48.49.37.11.75.19,1.13.29.7-3.04.38-3.38-1.77-5.04-.68-.52-.56-2.15-.62-3.28,0-.13,1.16-.34,1.79-.49.21-.05.43,0,.63,0,.81-4.04.04-5.16-3.79-5.69-2.07-.29-3.4.72-3.61,2.83-.14,1.37-.17,2.74-.26,4.23-.79-.22-1.43-.4-2.27-.63,0,1.08-.13,2.02.05,2.9.12.62.55,1.49,1.05,1.66,1.17.41,1.28,1.16,1.28,2.17-.02,3.99-.03,7.97.02,11.96,0,.58.15,1.46.53,1.68,1.29.73,2.71,1.23,4.37,1.94v-15.01Zm128.88-75.85c0,.9,0,1.59,0,2.28.01,3.28-.04,6.56.06,9.83.08,2.5,1.46,3.54,3.83,2.79,1.32-.42,2.94-1.04,3.6-2.09.61-.97.13-2.64.13-4.05-2.45.54-2.55.47-2.56-1.74-.01-2.52.03-5.04-.02-7.55-.02-1.13.22-1.89,1.46-2.21.46-.12,1.09-.68,1.14-1.09.15-1.23.05-2.5.05-3.87-1.02.25-1.72.42-2.63.64,0-1.09,0-1.96,0-2.83s0-1.8,0-2.84c-.59.17-.86.24-1.13.32-3.93,1.22-3.97,1.22-3.93,5.32.01,1.31,0,2.45-1.59,2.85-.29.07-.67.56-.69.87-.08,1.24-.03,2.5-.03,3.88.86-.19,1.42-.31,2.31-.51Zm-138.98-61.44c0,3.55.1,6.82-.03,10.09-.17,4.25.59,6.67,6.44,3.78.51-.25,1.17-.79,1.24-1.26.18-1.23.06-2.51.06-3.81q-2.67.46-2.67-2.11c0-2.52.04-5.04-.02-7.56-.02-.97.29-1.47,1.23-1.81.57-.2,1.3-.78,1.4-1.29.21-1.16.07-2.38.07-3.72-1.05.26-1.79.44-2.71.66v-5.74c-.55.19-.92.31-1.29.44-3.75,1.32-3.79,1.32-3.68,5.28.04,1.34-.02,2.44-1.62,2.78-.27.06-.64.45-.65.7-.07,1.3-.03,2.6-.03,4.06.87-.19,1.42-.31,2.29-.51Zm58.33,49.48c-1.31.44-2.34.86-3.4,1.11-1.45.35-1.84,1.19-1.82,2.63.08,6.04.03,12.08.04,18.12,0,.56.06,1.12.11,1.91,1.46-.54,2.68-1.1,3.96-1.45,1.13-.31,1.43-.95,1.41-2.05-.06-2.93-.05-5.86-.02-8.79.04-3.72,1.49-6.56,5.11-8.03.42-.17,1-.62,1.02-.98.11-1.72.05-3.45.05-5.39-3.3.83-4.82,3.11-6.22,6.05-.09-1.25-.15-2.04-.23-3.13Zm38.48,82.19c1.59-.64,2.79-1.22,4.05-1.6,1.11-.34,1.38-.99,1.35-2.07-.06-3.1-.08-6.2,0-9.3.09-3.3,1.52-5.79,4.64-7.18.44-.2,1.11-.59,1.13-.93.11-1.76.05-3.53.05-5.47-3.24.99-4.64,3.3-6.1,5.69-.05-.82-.11-1.63-.17-2.62-1.2.45-2.16.87-3.16,1.15-1.37.39-1.88,1.14-1.83,2.63.12,3.86.04,7.72.04,11.58,0,2.57,0,5.13,0,8.12Zm44.01-18.16c1.46-.59,2.6-1.15,3.81-1.52,1.06-.32,1.26-.96,1.25-1.95-.05-2.81-.05-5.62,0-8.43.05-3.53,1.29-6.37,4.76-7.85.33-.14.8-.49.81-.76.07-1.72.04-3.44.04-5.33-3.11.85-4.33,3.16-5.67,5.76-.08-1.11-.13-1.89-.2-2.89-1.04.39-1.88.81-2.77,1-1.79.39-2.1,1.46-2.06,3.15.12,5.56.04,11.12.04,16.68,0,.62,0,1.24,0,2.13Zm-72.67-45.93c1.62-.57,2.85-1.08,4.12-1.43,1.09-.3,1.43-.89,1.42-2.02-.05-6.26-.02-12.51-.03-18.77,0-.43-.1-.87-.18-1.53-1.43.52-2.65,1.06-3.93,1.41-1.1.3-1.46.87-1.45,2.01.06,5.67.03,11.35.03,17.02,0,.98,0,1.96,0,3.32Zm28.79-32.32c-1.29.46-2.4.95-3.56,1.24-1.31.32-1.73.99-1.72,2.34.07,6.08.03,12.17.04,18.25,0,.49.09.97.15,1.57,1.31-.47,2.39-.93,3.51-1.23,1.34-.37,1.78-1.12,1.76-2.53-.08-5.97-.03-11.93-.03-17.9,0-.51-.08-1.01-.14-1.74Zm-144.1-38.04c1.46-.54,2.58-1.04,3.75-1.35,1.18-.31,1.52-.91,1.51-2.12-.06-6.14-.02-12.28-.02-18.41,0-.5-.1-1-.16-1.57-1.38.51-2.57,1-3.79,1.37-1.06.31-1.44.83-1.43,2,.07,6.08.03,12.16.04,18.24,0,.5.05,1.01.1,1.85Zm146.43,170.84c1.39-.59,2.58-1.2,3.83-1.61,1.08-.36,1.4-.96,1.39-2.07-.05-6.2-.02-12.4-.03-18.59,0-.38-.1-.77-.18-1.33-1.26.52-2.35,1.09-3.5,1.42-1.38.4-1.73,1.19-1.71,2.58.08,6.08.03,12.16.04,18.24,0,.38.08.76.15,1.36Zm.37-96.41c-1.46.54-2.57,1.04-3.74,1.35-1.31.35-1.67,1.09-1.66,2.4.06,6.04.02,12.07.03,18.11,0,.49.09.98.16,1.66,1.62-.63,3.05-1.12,4.42-1.76.37-.17.75-.78.75-1.19.05-6.73.03-13.47.03-20.58Zm11.52,54.14c1.42-.59,2.4-1.13,3.45-1.4,1.56-.4,1.87-1.34,1.85-2.82-.08-5.9-.03-11.81-.04-17.71,0-.43-.09-.86-.15-1.52-1.23.47-2.22.97-3.26,1.23-1.45.36-1.9,1.16-1.87,2.64.08,5.49.03,10.99.03,16.49,0,.92,0,1.84,0,3.1ZM56.53,73.76v-17.45c-1.47.53-2.7,1.08-3.98,1.41-1.09.28-1.32.93-1.31,1.92.03,2.63,0,5.26,0,7.89q0,4.94,4.77,6.23c.11.03.23,0,.51,0Zm37.09.26c-.43.04-.73.01-.99.1-4.24,1.32-4.27,1.32-4.23,5.79.01,1.27-.06,2.24-1.6,2.62-1.18.29-1.19,1.63-.44,1.99,2.26,1.07,4.69,1.79,7.35,2.76-.34-2.04.1-3.18,1.88-3.46.29-.05.71-.52.73-.81.08-1.3.03-2.6.03-4.08-1.06.29-1.81.49-2.73.73v-5.64Zm-52.18-12.12c-1.29.43-2.43.83-3.58,1.18-1.09.34-1.75.8-1.71,2.19.04,1.38.68,1.79,1.82,2.08,1.01.26,1.99.64,2.95,1.06,1.09.47,1.81.38,2.65-.66.77-.95,1.99-1.53,3.02-2.27.41-.3,1.17-.56,1.19-.88.11-1.86.06-3.74.06-5.68-3.21.88-4.69,3.12-6.16,5.9-.1-1.23-.15-1.97-.23-2.92Zm-22.74-2.04c.02.21.05.41.07.62,4.25,1.51,8.51,3.02,12.78,4.53,1.02-4.66-1.39-7.74-5.7-7.16-2.43.33-4.77,1.32-7.15,2.01Zm177.4,51.17c.04-1.75-.7-2.68-2.19-2.73-1.96-.07-4.03,2.25-4.11,4.62-.06,1.72.73,2.79,2.12,2.87,2.03.12,4.12-2.26,4.18-4.76ZM50.76,52.14c.24.39.52,1.52,1.18,1.81.76.34,2.03.26,2.76-.17,1.63-.97,2.51-2.57,2.4-4.57-.12-2.04-1.8-3.05-3.58-2.05-1.7.95-2.57,2.5-2.76,4.98Zm168.81,50.49c.05-1.8-.83-2.94-2.25-2.93-1.77.02-3.82,2.4-3.93,4.57-.09,1.71.82,2.83,2.32,2.86,1.84.04,3.81-2.25,3.87-4.5Zm2.58,36.21c0-1.57-.85-2.57-2.2-2.6-1.9-.03-4.02,2.47-4.03,4.76,0,1.67.85,2.69,2.29,2.7,1.88.01,3.94-2.53,3.95-4.86Zm4.76,72.28c-.18-.32-.44-1.38-1.06-1.67-.71-.33-1.95-.3-2.61.13-1.58,1.03-2.47,2.63-2.48,4.6,0,2.03,1.75,3.06,3.51,2.01,1.68-1.01,2.51-2.55,2.64-5.06ZM80.61,40.94c0-1.76-.79-2.63-2.34-2.59-1.88.05-3.85,2.45-3.88,4.73-.01,1.55,1.02,2.71,2.37,2.66,1.92-.08,3.85-2.49,3.84-4.79Zm2.54,35.91c-.18-.3-.49-1.24-1.13-1.76-.98-.79-2.79-.08-3.78,1.25-1.32,1.79-1.68,4.13-.75,5.02.21.19.5.31.76.42,2.27,1,4.85-1.28,4.89-4.93Zm155.82,92.28c-.23-.39-.52-1.47-1.19-1.8-.67-.34-1.86-.2-2.56.2-1.69.96-2.47,2.61-2.36,4.57.11,2.03,1.69,2.92,3.45,1.91,1.64-.94,2.4-2.48,2.66-4.88Z"/><path class="cls-1" d="m382.43,257.04c-2.63,0-5.03.04-7.42-.04-.32-.01-.79-.57-.88-.95-.15-.61-.05-1.28-.05-1.93,0-72.89,0-145.77,0-218.66q0-4.01,4.08-4.01,4.27,0,4.27,4.19c0,73.06,0,146.13,0,219.19v2.21Z"/><path class="cls-1" d="m491.89,133.13c-2.35,0-4.51.06-6.67-.05-.51-.03-1.15-.52-1.46-.98-3.95-5.79-7.86-11.62-11.77-17.44-1.19-1.76-2.38-3.52-3.91-5.14v23.44h-8.39v-36.89c2.56,0,5.11-.04,7.66.05.36.01.77.6,1.04,1,4.74,7.08,9.47,14.17,14.2,21.26.22.33.47.63,1.08.88v-23.1h8.22v36.97Z"/><path class="cls-1" d="m586.31,185.89h-8.35v-37.07c2.52,0,4.97-.06,7.41.05.47.02,1.02.63,1.34,1.1,4.69,6.97,9.35,13.96,14.02,20.95.28.42.61.82,1.21,1.64.07-.93.14-1.4.14-1.88,0-6.74.04-13.49-.02-20.23-.01-1.33.41-1.75,1.71-1.69,1.7.09,3.4.04,5.1,0,.98-.03,1.5.2,1.5,1.35-.03,11.49-.03,22.98,0,34.48,0,1.09-.44,1.39-1.46,1.43-6.08.22-6.06.22-9.45-4.89-3.98-5.99-8.01-11.94-12.02-17.91-.25-.37-.54-.71-1.13-1.47v24.13Z"/><path class="cls-1" d="m498.47,132.86c0-.55,0-1.07,0-1.58-.01-11.13,0-22.26-.06-33.39,0-1.45.38-1.94,1.86-1.89,5.67.18,11.4-.22,17.01.47,9.23,1.13,14.62,7.47,15.03,16.76.31,6.9-1.46,13-7.71,16.76-2.34,1.41-5.16,2.56-7.84,2.74-5.99.4-12.03.13-18.29.13Zm8.58-29.35v21.93c2.72,0,5.31.22,7.85-.05,4.33-.47,7.34-3.22,8.27-7.45.36-1.63.43-3.39.27-5.06-.5-5.42-4.03-8.9-9.45-9.34-2.26-.18-4.55-.03-6.95-.03Z"/><path class="cls-1" d="m678.92,186c-3.12,0-5.81.05-8.49-.05-.46-.02-1.07-.62-1.33-1.11-1.92-3.69-3.76-7.42-5.63-11.13-.6-1.2-4.05-2.09-5-1.22-.31.28-.37.94-.38,1.43-.03,3.46-.05,6.92.01,10.38.02,1.25-.29,1.83-1.67,1.72-1.57-.12-3.17-.13-4.74,0-1.42.11-1.79-.39-1.78-1.77.06-8.56.03-17.12.03-25.68,0-2.81.03-5.63-.01-8.44-.02-.99.34-1.35,1.32-1.33,4.81.06,9.62-.07,14.42.16,5.3.25,9.24,3.38,10.63,8.01,1.49,4.99-.19,10.14-4.34,13.29-.37.28-.73.57-1.18.92,2.66,4.84,5.3,9.63,8.15,14.82Zm-20.83-25.4h0c0,1.29-.07,2.58.04,3.86.04.41.55,1.09.86,1.1,1.81.06,3.63.08,5.43-.12,1.76-.19,2.97-1.27,3.53-2.98.68-2.06.44-4.04-1.18-5.5-2.37-2.13-5.35-1-8.09-1.15-.2,1.42-.4,2.84-.59,4.27-.02.17,0,.35,0,.53Z"/><path class="cls-1" d="m670.79,133.12c-3.09,0-5.93.06-8.76-.06-.43-.02-.94-.79-1.21-1.31-1.79-3.49-3.53-7.01-5.28-10.51-.72-1.45-3.69-2.46-5.05-1.61-.32.2-.46.89-.47,1.36-.04,3.52-.06,7.03,0,10.55.02,1.2-.35,1.7-1.59,1.64-1.75-.08-3.52-.07-5.27-.02-1.03.03-1.45-.25-1.45-1.38.04-11.43.05-22.86.03-34.29,0-1.08.36-1.47,1.4-1.46,4.81.04,9.62-.11,14.41.12,5.3.25,9.33,3.44,10.63,7.99,1.45,5.08-.24,10.28-4.48,13.4-.97.71-.89,1.27-.36,2.16,1.27,2.17,2.46,4.4,3.68,6.6,1.21,2.18,2.41,4.35,3.78,6.82Zm-20.78-20.42c2.17,0,4.04.11,5.9-.03,2.47-.18,4.13-2.08,4.19-4.55.07-2.91-1.34-4.88-3.91-5.16-1.68-.18-3.4-.13-5.09-.04-.38.02-1.04.62-1.05.97-.09,2.86-.05,5.72-.05,8.8Z"/><path class="cls-1" d="m530.98,171.2c2.7,4.88,5.35,9.67,8.16,14.76-3.13,0-5.96.03-8.79-.04-.31,0-.7-.53-.89-.9-1.86-3.58-3.77-7.15-5.47-10.8-.7-1.5-1.51-2.23-3.19-1.94-.73.12-1.49.02-2.44.02,0,3.63.02,7.06,0,10.5-.03,3.72.47,3.17-3.12,3.18-1.58,0-3.16,0-4.91,0v-36.97c.16-.05.38-.18.59-.18,4.86,0,9.73-.13,14.58.08,5.83.25,9.86,3.36,11.13,8.48,1.19,4.83-.31,10.42-5.09,13.31-.15.09-.26.23-.55.49Zm-12.53-5.67c1.85,0,3.59,0,5.34,0,.35,0,.7-.07,1.04-.13,2.19-.43,3.51-2.05,3.66-4.49.14-2.22-1.01-4.42-2.99-4.78-2.3-.42-4.69-.33-7.05-.47v9.88Z"/><path class="cls-1" d="m567.94,96.05c0,2.99,0,5.67,0,8.36,0,4.75,0,9.5,0,14.25-.03,9.5-5.97,15.41-15.5,15.46-5.67.03-10.61-1.66-13.52-6.82-1.19-2.11-1.49-4.73-2.17-7.13-.09-.33-.02-.7-.02-1.05,0-7.56,0-15.13,0-23.04,2.59,0,5.18-.04,7.76.07.24.01.63.99.63,1.52.04,5.63,0,11.26.03,16.89,0,1.82,0,3.64.16,5.45.33,3.83,2.83,6.02,6.8,6.08,4.11.06,6.89-2.06,7.06-5.95.26-5.91.17-11.84.22-17.76.01-1.58.05-3.17,0-4.75-.04-1.07.23-1.63,1.45-1.59,2.28.07,4.56.02,7.1.02Z"/><path class="cls-1" d="m626.16,178.55h17.91v7.45c-.62,0-1.14,0-1.65,0-7.68,0-15.36,0-23.04.03-1.14,0-1.86-.07-1.85-1.55.05-11.55.03-23.1.04-34.65,0-.23.05-.46.09-.85h25.18v7.16h-16.72v7.21h13.02c0,2.2.07,4.18-.06,6.15-.03.37-.88.97-1.37.99-3.16.09-6.33.05-9.5.05-.64,0-1.27,0-2.05,0v8.02Z"/><path class="cls-1" d="m468.75,185.99c1.33-3.59,2.55-6.93,3.79-10.26,3.16-8.48,6.36-16.95,9.47-25.45.42-1.15.97-1.55,2.16-1.5,2.16.09,4.33.05,6.5.03.84,0,1.32.2,1.66,1.12,4.2,11.59,8.46,23.16,12.69,34.73.13.36.13.77.22,1.34-2.75,0-5.37.05-7.99-.05-.45-.02-1.09-.6-1.27-1.07-.77-2.02-1.42-4.09-2.06-6.15-.29-.92-.78-1.28-1.78-1.26-3.51.06-7.03.08-10.54,0-1.08-.02-1.41.47-1.68,1.34-.62,2.01-1.26,4.01-1.98,5.99-.17.46-.68,1.12-1.05,1.13-2.62.1-5.24.05-8.14.05Zm22.63-15.13c-1.47-4.62-2.85-8.97-4.23-13.31-.13-.01-.26-.03-.4-.04-1.44,4.37-2.89,8.75-4.41,13.35h9.03Z"/><path class="cls-1" d="m572.05,127.82c1.78-1.92,3.47-3.75,4.96-5.36,2.35,1.3,4.43,2.68,6.69,3.62,2.03.85,4.26.84,6.3-.23,2.88-1.52,3.07-4.81.23-6.36-1.87-1.02-3.98-1.64-6.04-2.26-2.72-.82-5.34-1.76-7.36-3.86-4.86-5.04-3.13-13.59,3.39-16.86,6.23-3.12,15.11-1.6,20.1,3.52-1.37,1.55-2.69,3.17-4.17,4.63-.26.26-1.28.11-1.71-.19-2.17-1.51-4.45-2.58-7.16-2.41-.46.03-.94.09-1.37.24-1.46.54-2.93,1.16-3.12,2.96-.2,1.86,1,2.97,2.55,3.58,1.95.77,3.98,1.35,5.99,1.96,4.18,1.27,7.84,3.22,9.36,7.67,1.85,5.41-.35,10.81-5.43,13.59-6.54,3.58-16.55,2.28-21.99-2.88-.41-.39-.76-.85-1.22-1.38Z"/><path class="cls-1" d="m443.66,148.81c2.84,0,5.41,0,7.97,0,2.46.01,4.92-.03,7.38.09,5.76.29,11.44,4.44,11.21,12.29-.18,6.45-4.82,11.31-11.44,11.63-1.75.09-3.52.12-5.27.05-1.27-.05-1.75.28-1.71,1.67.1,3.73.04,7.47.04,11.44-2.53,0-4.91.07-7.28-.08-.33-.02-.86-1.08-.87-1.66-.06-6.33-.04-12.65-.04-18.98,0-5.38,0-10.76,0-16.44Zm8.15,17.22c1.93,0,3.62.07,5.3-.02,2.94-.15,4.62-2.01,4.67-5.02.05-2.99-1.76-5.11-4.62-5.31-1.39-.1-2.81-.1-4.2.03-.41.04-1.08.69-1.1,1.08-.09,2.97-.05,5.94-.05,9.24Z"/><path class="cls-1" d="m540.77,156.2v-7.27h32.25v7.25h-11.85v29.71h-8.47c0-9.19,0-18.26,0-27.32q0-2.37-2.39-2.37c-3.1,0-6.2,0-9.55,0Z"/><path class="cls-1" d="m636.05,96.19v7.26c-2.88,0-5.67,0-8.46,0q-3.42,0-3.42,3.39c0,7.97,0,15.95,0,23.92,0,.69,0,1.38,0,2.36-2.65,0-5.15.04-7.64-.06-.29-.01-.76-.8-.78-1.24-.09-2.05-.05-4.1-.05-6.15,0-6.68,0-13.37,0-20.05,0-.64,0-1.27,0-2.12h-11.95v-7.31h32.3Z"/><path class="cls-1" d="m670.45,96.07c3.25,0,6.1-.05,8.95.05.42.01.93.63,1.2,1.09,2.43,4.11,4.81,8.24,7.33,12.58.41-.54.75-.91,1-1.34,2.06-3.67,4.13-7.33,6.13-11.04.54-1,1.15-1.45,2.32-1.41,2.39.09,4.79.03,7.54.03-.61,1.04-1.05,1.82-1.51,2.59-3.59,5.95-7.2,11.89-10.74,17.86-.42.71-.64,1.64-.65,2.47-.07,4.16-.07,8.32-.01,12.49.02,1.26-.35,1.78-1.7,1.72-2.21-.1-4.42-.03-6.86-.03,0-1.53,0-2.86,0-4.19,0-1.58-.2-3.19.04-4.74.75-4.99-1.22-9.04-3.86-13.05-3.14-4.78-5.95-9.76-9.16-15.08Z"/><path class="cls-1" d="m443.89,96.13h8.21c0,.9,0,1.7,0,2.5,0,10.84-.04,21.68.04,32.53.01,1.68-.52,2.12-2.09,2-1.69-.13-3.4.06-5.09-.08-.46-.04-1.24-.73-1.24-1.13-.06-11.72-.03-23.44-.02-35.16,0-.16.09-.33.2-.67Z"/><path class="cls-1" d="m157.27,148.15c0-2.54-.02-4.86.02-7.19,0-.3.24-.77.47-.85,1.87-.64,3.74-1.44,5.68-1.72,1.56-.23,2.38,1.2,2.2,2.55-.18,1.37-.67,2.92-1.55,3.93-1.69,1.94-4.2,2.55-6.83,3.28Z"/><path class="cls-1" d="m157.27,134.81c0-2.46-.01-4.66.02-6.86,0-.25.17-.67.36-.73,1.81-.6,3.62-1.3,5.48-1.58.52-.08,1.65,1.08,1.78,1.81.43,2.39-.84,4.44-3.26,5.62-1.3.63-2.69,1.08-4.38,1.75Z"/><path class="cls-1" d="m157.37,263.82c-.07-.81-.14-1.27-.14-1.73,0-5.8.05-11.59-.02-17.39-.02-1.39.43-2.17,1.75-2.57,1.73-.53,3.38-1.32,5.13-1.74,2.28-.54,4.03.44,4.96,2.57,2.45,5.63-.13,15.97-6.8,18.75-1.55.64-3.08,1.33-4.88,2.11Z"/><path class="cls-1" d="m244.28,221.35c-.05,3.15-.93,5.87-3.86,7.57-2.39,1.38-4.47.39-4.86-2.35-.42-2.94.22-5.59,2.25-7.81,1.25-1.37,2.87-2.38,4.68-1.66,1.74.7,1.83,2.55,1.79,4.25Z"/><path class="cls-1" d="m184.63,244.56c-.09-2.76,2.32-5.92,4.81-6.42,1.39-.28,2.97.73,3.09,2.15.03.41-.54,1.08-.99,1.29-2.26,1.05-4.58,1.99-6.91,2.99Z"/><path class="cls-1" d="m202.19,199.14c.2-2.72,1.99-5.14,4.29-5.89,1.15-.37,2.17-.22,2.95.82,1.05,1.39.87,2.06-.75,2.69-2.01.78-4.01,1.57-6.01,2.34-.1.04-.23.02-.48.03Z"/><path class="cls-1" d="m137.64,71.66c.04-2.7,1.92-5.21,4.08-5.74,1.45-.36,2.89.56,3.1,2.05.05.33-.12.92-.34,1.02-2.23.93-4.49,1.77-6.84,2.68Z"/><path class="cls-1" d="m276.5,133.17c.39-3.22,2.17-5.41,4.46-5.81,1.31-.23,2.82.85,2.9,2.14.02.33-.23.87-.49.98-2.2.91-4.43,1.75-6.87,2.69Z"/><path class="cls-1" d="m254.62,180.58c-.08,2.68-.7,5.11-2.92,6.87-1.96,1.56-3.62,1.09-4.48-1.26-1.09-2.97.08-8.04,2.24-9.77,2.47-1.97,4.49-1.22,4.98,1.88.12.75.12,1.52.18,2.27Z"/><path class="cls-1" d="m117.16,210.27c-.06.48,0,1.23-.26,1.85-.37.84-.91,2.13-1.53,2.23-1,.15-2.35-.24-3.16-.89-2.19-1.78-3.01-6.46-1.86-9.1.7-1.6,1.84-2.02,3.39-1.15,2.69,1.5,3.26,4.07,3.42,7.07Z"/></g></svg>