<?xml version="1.0" encoding="UTF-8"?><svg id="Layer_2" xmlns="http://www.w3.org/2000/svg" viewBox="0 0 482.34 530.76"><g id="Layer_1-2"><path d="M240.32,148.05c-74.21,0-148.41,0-222.62,0-15.31,0-19.07-4.57-16.24-19.68,5.54-29.56,23.31-51.33,45.66-69.69C85.22,27.38,130.16,12.12,178.2,4.61,205.17,.4,232.35-.76,259.55,.45c54.83,2.44,107.38,13.64,154.56,43.35,26.41,16.63,48.71,37.43,61.39,66.67,3.09,7.13,4.81,15.1,5.73,22.86,1.26,10.67-2.68,14.54-13.4,14.7-12.56,.19-25.12,.09-37.68,.09-63.27,0-126.55,0-189.82,0v-.07Z"/><path d="M241.24,445.89c74.42,0,148.84,.24,223.26-.19,16.94-.1,19.86,8.01,14.58,21.68-5.81,15.04-17.81,24.76-31.15,32.75-22.35,13.39-47.32,19.04-72.66,22.82-62.59,9.33-125.65,8.39-188.63,6.8-35.97-.91-71.95-3.42-107.1-12.25-24.38-6.12-47.9-14.26-65.21-33.7-5.24-5.89-9.57-13.23-12.21-20.66-4.06-11.4,.94-17.23,13.06-17.24,75.35-.02,150.7,0,226.05-.01Z"/><path d="M262.73,365.18c-.36,2.36-1.02,4.72-1.04,7.09-.13,10.46,.13,20.93-.15,31.39-.48,17.7-11.88,27.33-29.26,25.06-10.99-1.44-19.48-10.75-19.62-23.63-.38-33.94-.34-67.89,.07-101.83,.15-11.95,7.8-20.74,18.41-23.54,10.81-2.85,22.02,.89,28.33,11.47,8.43,14.14,15.55,29.06,23.31,43.61,1.65,3.1,3.63,6.03,5.45,9.04,.75-.18,1.51-.35,2.26-.53,.44-2.5,1.21-5,1.25-7.51,.17-11.16-.17-22.33,.26-33.48,.44-11.32,7.35-19.73,17.61-22.53,9.78-2.67,21.04,.47,25.92,8.84,3.01,5.16,4.98,11.69,5.07,17.65,.48,31.85,.27,63.71,.2,95.56-.03,13.13-6.56,23.15-16.8,26.26-12.45,3.78-23.94-.16-31.09-12.4-8.42-14.42-15.64-29.55-23.46-44.32-1.24-2.34-2.93-4.44-4.41-6.66-.77,.15-1.53,.31-2.3,.46Z"/><path d="M.25,353.72c0-16.5-.26-33.01,.07-49.5,.38-18.51,16.58-29.61,33.93-23.65,9.67,3.32,15.77,12.17,16.19,23.76,.18,5.11-.09,10.23,.14,15.33,.08,1.68,1.09,3.32,1.68,4.97,1.77-.76,4.21-1.03,5.2-2.37,6.2-8.39,12.08-17.03,18.08-25.58,2.26-3.23,4.24-6.72,6.89-9.59,8.27-9,20.66-10.53,31.1-4.17,10.62,6.47,14.56,17.62,10.21,29.51-4.54,12.42-13.82,21.31-23.03,30.19-6.51,6.28-6.86,7.3-1.19,14.4,7.98,9.97,16.59,19.45,24.44,29.51,8.66,11.08,8.1,23.99-.77,33.72-9.43,10.35-23.7,12.09-35.27,3.7-13.41-9.72-20.55-24.29-28.49-38.21-1.79-3.14-4.52-5.74-6.81-8.59-.71,3.42-1.77,6.82-2.03,10.28-.35,4.62-.07,9.29-.09,13.94-.07,17.17-9.85,27.9-25.29,27.77-15.62-.13-24.92-10.53-24.97-28.01-.05-15.8,0-31.61,0-47.41h.03Z"/><path d="M440.85,338.7c36.06-1.16,47.85,23.72,38.32,54.38-6.28,20.22-25.06,33.89-47.24,35.53-46.95,3.46-79.07-25.84-78.45-72.85,.16-12.28,2.13-25.28,6.65-36.6,11.73-29.31,42.09-44.54,76.19-39.23,9.67,1.51,19.39,4.84,28.19,9.16,11.84,5.81,15.45,18.31,9.99,28.87-5.4,10.46-17.14,13.53-29.51,7.73-17.01-7.99-32.16-4.88-40.73,8.34-7.58,11.69-7.15,32.46,.91,43.77,5.85,8.22,18.4,13.37,26.96,10.31,2.52-.9,4.21-4.15,6.28-6.32-2.19-1.3-4.24-3.37-6.59-3.79-11.57-2.04-18.21-6.73-19.86-14.68-2.53-12.23,4.59-22.37,17.06-24,3.9-.51,7.88-.43,11.83-.62Z"/><path d="M194.36,354.73c0,15.81,.28,31.63-.07,47.43-.41,18.06-12.97,28.69-30.77,26.65-12.48-1.43-21.98-10.99-22.18-24.66-.5-33.24-.55-66.5,.02-99.74,.27-15.58,11.6-25.41,26.76-25.28,14.86,.12,25.62,10.42,26.09,26.08,.49,16.49,.11,33.01,.11,49.52,.02,0,.04,0,.06,0Z"/><path d="M243.6,216.89c.96-17.28,5.89-32.52,21.07-42.71,15.45-10.37,40.63-10.26,54.8,.17,6,4.41,8.26,10.58,6.05,17.06-2.02,5.93-6.43,9.46-12.52,9.3-3.73-.1-7.43-2.19-11.09-3.54-7.63-2.8-14.99-2.29-20.79,3.49-7.66,7.64-8.28,17.36-5.67,27.32,1.98,7.53,6.56,12.77,14.66,14.04,1.8,.28,3.92,.64,5.45-.03,1.87-.82,3.27-2.7,4.88-4.12-1.55-1.08-2.96-2.76-4.67-3.15-9.35-2.14-13.69-6.68-13.09-14.18,.63-7.83,6.18-12.33,15.55-12.63,18.63-.58,28.49,5.1,31.12,17.93,3.44,16.83-5.49,34.24-20.94,40.8-28.79,12.24-60.1-6.32-63.94-37.96-.48-3.91-.6-7.87-.89-11.81Z"/><path d="M198.34,234.31c-.33,2.37-.86,4.74-.96,7.12-.21,5.1,.19,10.26-.36,15.31-.87,7.98-6.09,12.6-13.85,13.01-8.19,.44-13.87-3.68-15.65-11.69-.6-2.69-.75-5.52-.75-8.28-.05-20.91-.06-41.82,.03-62.73,.06-13.85,5.62-19.58,19.44-19.53,9.02,.03,18.27-.31,27.02,1.47,25.01,5.09,33.88,33.82,16.41,52.52-3.38,3.62-3.14,6.23-.8,9.61,3.04,4.39,6.17,8.71,9.24,13.07,5.79,8.25,5.22,17.42-1.36,22.49-6.91,5.32-17.26,4.29-22.74-3.78-4.46-6.56-6.94-14.47-10.23-21.81-1.04-2.33-1.86-4.75-2.78-7.13-.88,.11-1.76,.23-2.64,.34Zm-2.62-31.72c.1,3.51-1.24,8.67,6.02,8.25,5.79-.33,8.32-3.66,8.4-9.01,.08-5.66-3.13-8.46-8.66-8.66-6.58-.24-5.79,4.49-5.75,9.42Z"/><path d="M438.68,234.28c-.37,2.1-.98,4.2-1.06,6.31-.17,4.41,.07,8.83-.1,13.24-.4,10.05-5.66,15.71-14.65,15.98-9.34,.28-15.2-5.24-15.6-15.7-.43-11.37-.19-22.76-.2-34.14-.01-11.15-.06-22.3,.06-33.45,.14-13.48,5.6-19.04,19.24-18.97,9.25,.05,18.77-.4,27.69,1.57,24.62,5.43,33.13,33.79,15.97,52.28-3.28,3.53-3.42,6.13-1.01,9.6,3.18,4.57,6.45,9.07,9.59,13.67,5.49,8.06,4.86,16.86-1.5,21.92-6.61,5.26-16.74,4.65-22.28-3.1-4.73-6.61-7.32-14.77-10.76-22.29-1.07-2.34-1.83-4.83-2.73-7.25-.89,.1-1.77,.2-2.66,.31Zm-2.78-31.88c.19,3.69-1.11,8.57,5.67,8.46,5.54-.09,9.31-3.65,9.01-9.24-.3-5.58-3.59-8.36-9.08-8.44-6.61-.1-5.53,4.79-5.6,9.22Z"/><path d="M61.45,214.63c14.25,15.76,15.03,33.15,2.47,45.6-6.12,6.06-13.77,8.6-22.1,8.92-8.36,.33-16.75,.29-25.11,.03-10.92-.35-16.62-6.31-16.66-17.2-.07-22.56-.09-45.12,.02-67.68,.05-9.73,4.93-15.91,14.3-16.46,10.17-.6,20.61-.99,30.6,.6,21.67,3.47,30.36,25.32,18.08,43.56-.51,.76-.96,1.56-1.6,2.62Zm-34.51,20.35c-.04,10.14,.47,10.94,6.38,10.92,6.23-.02,9.99-3.7,9.99-9.8,0-5.71-3.63-8.96-9.73-9.3-7.19-.4-6.91,4.29-6.64,8.18Zm.01-35.13c.19,3.54-1.1,8.39,5.64,8.29,5.39-.08,9.45-3.81,9.1-9.13-.35-5.47-3.45-8.3-9.04-8.37-6.61-.09-5.62,4.65-5.7,9.21Z"/><path d="M156.7,211.46c0,7.91,.05,15.82-.01,23.72-.14,17.88-9.09,29.94-26.5,33.3-7.77,1.5-16.35,1.37-24.13-.21-16.05-3.25-25.38-14.78-25.83-31.11-.49-17.66-.29-35.35,.01-53.02,.18-10.38,5.5-16.3,14.01-16.79,9.83-.56,16.28,5.21,16.48,15.52,.29,15.11,.11,30.23,.14,45.35,0,2.09-.11,4.2,.11,6.27,.49,4.71,2.7,8.19,7.9,7.86,5-.32,7.19-3.58,7.18-8.54-.03-16.28-.1-32.56,.06-48.84,.1-10.43,4.99-16.66,13.28-17.56,9.68-1.05,16.84,4.86,17.17,14.74,.32,9.76,.07,19.53,.07,29.3,.02,0,.04,0,.06,0Z"/><path d="M337.19,218.2c0-10.92-.2-21.85,.06-32.77,.3-12.2,6.01-17.71,18.26-17.91,9.53-.16,19.06-.18,28.59-.01,10.27,.18,15.87,5.49,15.76,14.54-.1,8.7-5.56,13.66-15.6,14.01-4.18,.14-8.47-.54-12.5,.26-1.91,.38-3.32,3.34-4.95,5.13,1.74,1.36,3.32,3.54,5.25,3.92,3.83,.74,7.9,.12,11.77,.72,7.52,1.17,10.98,5.73,10.5,13.04-.43,6.69-4.67,10.76-11.85,11.18-3.48,.2-7.12-.49-10.4,.36-2.02,.53-3.49,3.19-5.21,4.9,1.72,1.63,3.27,4.36,5.2,4.67,4.53,.75,9.29,.03,13.9,.46,9.33,.87,14.21,6.32,13.92,14.98-.27,7.97-5.74,13.28-14.7,13.53-10.22,.28-20.46,.32-30.67-.02-11.39-.38-17.03-6.16-17.28-17.52-.24-11.15-.05-22.31-.05-33.47Z"/></g></svg>