<?xml version="1.0" encoding="UTF-8"?><svg id="Layer_1" xmlns="http://www.w3.org/2000/svg" viewBox="0 0 356.88 117.49"><defs><style>.cls-1{fill:#4285f4;}.cls-2{fill:#fbbc05;}.cls-3{fill:#34a853;}.cls-4{fill:#ea4335;}</style></defs><path class="cls-1" d="m67.26,41.71c6.66,0,13.33.01,19.99-.01.75,0,.99.13,1.12.99.37,2.52.58,5.04.47,7.58-.13,2.98-.42,5.94-1.01,8.89-.79,3.92-2.03,7.64-3.87,11.18-1.18,2.27-2.59,4.41-4.3,6.3-2.58,2.84-5.33,5.51-8.58,7.61-.69.44-1.46.74-2.16,1.12-.68.37-1.31.88-2.02,1.24-2.12,1.06-4.29,1.95-6.62,2.56-1.6.42-3.19.9-4.83,1.2-1.08.2-2.23.2-3.25.42-1.73.38-3.44.22-5.15.33-2.15.13-4.32.08-6.44-.28-1.83-.31-3.7-.48-5.5-.99-2.72-.76-5.39-1.66-7.95-2.85-10.44-4.85-18.15-12.46-23.11-22.86-1.33-2.79-2.31-5.71-3.04-8.7-.31-1.27-.62-2.56-.84-3.84-.11-.63-.14-1.43-.16-2.16-.05-2.84.06-5.68-.02-8.52-.02-.93.32-2.01.56-3.01.53-2.23.97-4.49,1.75-6.64C5.98,21.17,12.26,13.14,21.33,7.32c3.62-2.32,7.48-4.12,11.63-5.3,3.02-.87,6.1-1.37,9.22-1.75C44.3,0,46.42-.09,48.54.11c1.81.17,3.63.43,5.43.61,2.75.28,5.27,1.26,7.89,1.95,1.62.43,3.1,1.26,4.6,2.02,2.55,1.29,4.98,2.79,7.22,4.57,1.13.9,2.2,1.88,3.31,2.81.42.35.43.65.02,1.03-2.72,2.48-5.32,5.09-7.81,7.8-.33.36-.53.42-.92.06-1.91-1.74-3.99-3.25-6.24-4.51-1.98-1.11-4.07-2.04-6.22-2.7-1.6-.49-3.31-.75-5.03-.91-1.93-.19-3.85-.37-5.79-.32-1.07.03-2.15.41-3.16.32-1.74-.16-3.24.63-4.86.88-.92.14-1.95.44-2.84.98-1.18.72-2.52,1.1-3.73,1.81-1.77,1.03-3.44,2.18-5.03,3.47-2.65,2.16-4.82,4.74-6.66,7.61-2.38,3.71-3.88,7.77-4.76,12.05-.63,3.1-.5,6.29-.33,9.42.09,1.7.54,3.41.98,5.1,1.26,4.84,3.54,9.11,6.67,12.98,1.97,2.43,4.34,4.4,6.9,6.16,2.33,1.6,4.87,2.75,7.5,3.74,3.82,1.44,7.77,1.7,11.8,1.67,4.31-.04,8.44-.89,12.36-2.61,3.2-1.4,6.1-3.28,8.63-5.71,2.67-2.57,4.63-5.54,5.83-9.07.72-2.13,1.16-4.31,1.63-6.49.17-.81-.32-.65-.74-.65-9.24,0-18.49,0-27.73,0-1.34,0-1.21.19-1.21-1.18,0-3.48.02-6.96-.02-10.44,0-.67.18-.85.85-.84,6.72.03,13.45.02,20.17.02Z"/><path class="cls-1" d="m277.28,61.61c0,7.92,0,15.84,0,23.77,0,.84.04,1.69-.04,2.52-.27,2.58-.18,5.2-.74,7.75-.56,2.6-1.29,5.15-2.45,7.56-3.28,6.78-8.58,11.08-15.82,13.1-2.03.57-4.11,1.08-6.17,1.15-4.7.17-9.36-.22-13.78-2.17-5.81-2.56-10.21-6.63-13.43-12.05-.47-.79-.88-1.62-1.25-2.46-.19-.43-.2-.66.31-.86,3.38-1.38,6.76-2.78,10.12-4.22.65-.28.7.14.87.5,1.95,4,4.85,7.02,9.03,8.72,2.6,1.05,5.31,1.18,8.03.81,1.74-.24,3.48-.61,5.1-1.44,4.02-2.06,6.29-5.37,7.28-9.7.71-3.1.69-6.25.68-9.4,0-.21.14-.51-.2-.61-.28-.08-.45.11-.6.3-1.06,1.3-2.38,2.33-3.76,3.21-1.22.77-2.61,1.3-3.97,1.84-1.17.47-2.44.57-3.66.83-2.22.48-4.4.32-6.6.28-1.36-.02-2.66-.45-3.95-.82-7.94-2.31-13.81-7.19-17.79-14.38-1.44-2.61-2.35-5.4-3-8.33-.65-2.91-.67-5.85-.36-8.72.47-4.4,1.8-8.6,4.2-12.43,2.79-4.45,6.4-7.99,10.99-10.53,2.69-1.49,5.54-2.5,8.59-2.96,2.48-.37,4.93-.61,7.41-.02.63.15,1.44-.17,1.94.12.79.44,1.64.6,2.46.88,2.8.96,5.3,2.38,7.29,4.61.12.13.26.25.38.38.13.15.3.21.48.14.23-.08.16-.29.16-.46,0-1.17.03-2.34,0-3.51-.02-.59.16-.77.76-.77,3.57.03,7.14.03,10.71,0,.63,0,.8.17.8.8-.02,5.07-.01,10.14-.01,15.21,0,3.78,0,7.56,0,11.34Zm-27.52,18.09c.82.01,1.38-.09,1.93-.15,4.54-.48,8.09-2.66,10.76-6.27,2.85-3.85,3.92-8.92,3.27-13.8-.13-.95-.11-1.88-.49-2.84-.5-1.3-.8-2.67-1.44-3.94-1.94-3.86-4.87-6.59-9.02-7.91-1.92-.61-3.88-.78-5.94-.62-2.51.19-4.8.91-6.84,2.19-2.11,1.32-3.9,3.08-5.22,5.29-1.61,2.7-2.33,4.65-2.79,7.97-.07.52.07,1.03-.05,1.54-.22.9-.13,1.87-.13,2.73,0,.93.39,2.03.66,3.04.62,2.29,1.64,4.4,3.11,6.28,3.16,4.04,7.26,6.29,12.17,6.5Z"/><path class="cls-2" d="m186.79,91.15c-2.42-.06-4.87-.06-7.19-.84-1.95-.66-4.02-1.03-5.84-2.03-2.21-1.23-4.33-2.59-6.3-4.23-3-2.5-5.31-5.51-7-8.93-.87-1.77-1.86-3.58-2.03-5.7-.06-.75-.38-1.65-.58-2.47-.54-2.15-.43-4.37-.37-6.58.05-1.78.29-3.52.66-5.27,1.01-4.71,3.13-8.86,6.24-12.5,4.02-4.71,9.12-7.73,15.1-9.21,2.98-.74,6.03-1.04,9.1-.84,6.13.41,11.75,2.27,16.65,6.07,4.25,3.29,7.34,7.45,9.2,12.48.77,2.09,1.28,4.26,1.6,6.49.44,3.11.32,6.15-.17,9.25-.89,5.57-3.09,10.5-6.9,14.65-2,2.18-4.27,4.08-6.86,5.6-2.62,1.54-5.41,2.6-8.32,3.35-2.28.59-4.63.78-6.99.72Zm16.64-28.93c-.05-2.77-.44-5.05-1.23-7.32-1.14-3.3-3.22-5.84-5.94-7.85-3.15-2.33-6.76-3.12-10.71-2.87-4.02.25-7.3,1.93-10.13,4.59-1.02.96-1.79,2.2-2.54,3.45-.75,1.25-1.22,2.56-1.69,3.89-.45,1.26-.53,2.61-.67,3.95-.23,2.08-.32,4.16.2,6.11.68,2.59,1.69,5.08,3.47,7.25,1.46,1.78,3.07,3.26,5.11,4.26,2.96,1.45,6.01,2.39,9.4,1.87,2.51-.39,4.85-1.15,6.94-2.56,5.38-3.61,7.68-8.82,7.8-14.76Z"/><path class="cls-4" d="m123.29,91.15c-4.19.03-8.2-.82-12.04-2.48-4.89-2.11-8.86-5.38-12.01-9.67-1.66-2.26-2.96-4.74-3.81-7.36-1.11-3.39-1.72-6.9-1.57-10.54.43-10.32,4.75-18.4,13.42-24.09,2.8-1.84,5.88-3.06,9.16-3.75,1.64-.35,3.33-.45,5-.63,1.84-.21,3.66-.17,5.42.11,2.1.34,4.23.61,6.28,1.34,2.54.91,4.98,2,7.15,3.55,2.94,2.1,5.56,4.53,7.56,7.62,1.61,2.49,2.93,5.08,3.7,7.93.32,1.19.59,2.39.63,3.67.02.83.36,1.73.44,2.64.57,6.61-.85,12.76-4.44,18.35-4.07,6.33-9.85,10.35-17.09,12.32-2.56.7-5.16.97-7.8.99Zm-16.45-28.79c-.13,2.2.44,4.18,1.09,6.14,1.9,5.75,8.32,11.94,17.01,11.02,2.56-.27,4.92-1.11,7.06-2.5,4.12-2.68,6.46-6.53,7.49-11.3.52-2.42.51-4.84.24-7.23-.15-1.27-.66-2.57-1.15-3.82-2.51-6.47-8.32-10.5-14.93-10.6-5.47-.09-9.91,2.06-13.27,6.42-1,1.29-1.82,2.7-2.37,4.18-.93,2.48-1.51,5.09-1.17,7.69Z"/><path class="cls-4" d="m331.83,79.56c5.18.14,9.39-1.88,12.82-5.71.55-.62,1.14-1.17,1.47-1.95.18-.42.47-.38.8-.15,3.07,2.05,6.13,4.1,9.21,6.13.46.3.23.5.04.77-1.26,1.74-2.75,3.26-4.3,4.76-2.06,1.98-4.36,3.53-6.88,4.81-2.52,1.28-5.19,2.18-7.95,2.6-2.46.38-4.96.38-7.49.17-2.43-.2-4.75-.57-7.05-1.34-3.89-1.31-7.37-3.31-10.36-6.1-3.64-3.39-6.23-7.48-7.76-12.21-.63-1.95-1.18-3.95-1.32-5.97-.19-2.73-.24-5.49.14-8.24.65-4.64,2.21-8.95,4.8-12.81,2.24-3.34,5.19-6.02,8.66-8.12,2.66-1.61,5.53-2.7,8.53-3.22,3.49-.61,7.02-.68,10.59.05,4.84.98,8.87,3.22,12.42,6.59,4.09,3.89,6.57,8.71,8.53,13.9.31.83.18,1.07-.6,1.39-12.47,5.13-24.91,10.3-37.38,15.42-.82.34-.82.58-.45,1.32,1.21,2.47,3.1,4.38,5.33,5.79,2.25,1.41,4.82,2.3,7.59,2.15.21-.01.42,0,.63,0Zm-.79-35.74c-.43.02-1.04,0-1.63.1-8.33,1.36-13.55,8.11-13.81,16.08-.01.31-.14.71.22.9.37.19.47-.27.71-.4.1-.05.21-.11.32-.15,3.1-1.12,6.09-2.47,9.14-3.72,5.07-2.08,10.11-4.21,15.19-6.27.73-.3.71-.59.38-1.16-.56-.97-1.24-1.84-2.11-2.55-2.39-1.97-5.18-2.79-8.41-2.84Z"/><path class="cls-3" d="m297.47,46.39c0,13.92,0,27.85,0,41.77q0,1.22-1.22,1.22c-3.39,0-6.78-.03-10.17.02-.87.01-1.18-.16-1.18-1.12.03-27.82.02-55.64.02-83.45,0-1.48,0-1.48,1.49-1.48,3.36,0,6.72.03,10.08-.02.82-.01.99.26.98,1.02-.02,14.01-.02,28.03-.02,42.04Z"/></svg>