<?xml version="1.0" encoding="UTF-8"?><svg id="Layer_2" xmlns="http://www.w3.org/2000/svg" viewBox="0 0 224.1 224.1"><g id="Layer_2-2"><path d="m0,111.96C.07,50.04,50.29-.1,112.15,0c61.93.1,112.08,50.36,111.95,112.18-.13,62.01-50.36,112.03-112.41,111.92C50.01,224-.07,173.72,0,111.96Zm115.64-55.96c-5.98,36.22-11.95,72.41-17.95,108.75h1.13c11.71,0,23.42.05,35.13-.03,3.46-.03,6.96-.19,10.38-.72,15.77-2.43,28.47-10.18,38.2-22.75,7.79-10.06,12.4-21.47,13.83-34.13.83-7.33.45-14.58-1.59-21.69-2.91-10.11-8.57-18.2-17.77-23.56-7.28-4.24-15.25-5.85-23.57-5.88-12.29-.05-24.58-.02-36.86-.02-.28,0-.57.03-.91.05Zm-4.89.22h-26.02c-.05.25-.11.46-.14.68-1.04,6.86-1.9,13.75-3.17,20.57-1.92,10.34-4.73,20.46-8.67,30.24-3.2,7.94-7.08,15.5-12.74,22.01-6.28,7.21-13.85,11.92-23.74,12.03-.64,0-.7.33-.76.84-.87,6.69-1.76,13.38-2.63,20.08-.22,1.68-.42,3.36-.64,5.1.64.07,1.18.15,1.72.18,8.25.43,15.93-1.61,23.2-5.35,9.1-4.68,16.37-11.51,22.56-19.56,7.33-9.53,12.68-20.15,17.02-31.31,4.52-11.61,7.83-23.59,10.34-35.78,1.34-6.51,2.44-13.07,3.68-19.72Z"/><path d="m126.87,139.73c1.64-9.96,3.25-19.78,4.86-29.61,1.58-9.61,3.18-19.21,4.73-28.82.14-.84.4-1.16,1.3-1.22,5.86-.41,11.63,0,17.26,1.78,3.19,1.01,6.13,2.49,8.66,4.71,3.92,3.43,6.06,7.84,6.52,12.95.85,9.59-1.2,18.57-6.7,26.55-4.73,6.87-11.53,10.74-19.51,12.69-5.13,1.26-10.34,1.6-15.61,1.16-.47-.04-.95-.13-1.5-.2Z"/></g></svg>