<?xml version="1.0" encoding="UTF-8"?><svg id="Layer_2" xmlns="http://www.w3.org/2000/svg" viewBox="0 0 842.78 851.74"><g id="Layer_1-2"><g><path d="M87.1,538.6c-25.06,2.59-47.08-4.29-65.03-22.29C8.22,502.43,.88,485.4,.07,465.82c-1.67-40.17,28.41-76.88,73.55-79.8-.58-.54-.88-.93-1.26-1.16-11.55-6.73-20.02-16.37-26.49-27.91-6.75-12.04-10.8-25.03-13.37-38.51-2.1-11.05-3.13-22.21-3.3-33.46-.04-2.45,.83-3.88,2.8-5.27,7.18-5.07,14.18-10.38,21.29-15.54,2.48-1.8,3.76-3.87,3.38-7.15-.38-3.31-.08-6.7-.08-10.65-1.89,.67-3.09,1.1-4.3,1.51-9.7,3.31-19.79-.68-23.63-9.41-2.04-4.65-2.24-9.41-.43-14.21,1.6-4.25,4.16-7.81,7.32-11.07,14.88-15.34,29.68-30.76,44.49-46.17,1.03-1.07,1.91-2.28,2.85-3.43,3.72-4.55,8.57-6.97,14.36-7.38,5.09-.35,9.19,1.79,12.45,5.62,3.97,4.67,6.11,10.16,7.05,16.13,.54,3.42,.79,6.89,1.23,10.93,1.24-1.53,2.24-2.71,3.17-3.93,34.85-45.63,77.62-81.95,128.5-108.57,10.51-5.5,21.53-10.06,32.38-14.88,2.33-1.04,3.48-2.22,3.94-4.89,1.53-8.83,4.23-17.34,8.89-25.08,9.37-15.56,24.41-24.58,45.51-19.98,12.49,2.72,23.63,8.37,34.2,15.31,4.51,2.96,8.84,6.2,13.66,9.59,.71-1.1,1.44-2.15,2.08-3.25,5.28-9.16,10.89-18.11,18.72-25.36,2.55-2.36,5.46-4.43,8.47-6.19,4.23-2.47,8.71-2.21,12.54,.84,3.15,2.51,6.13,5.34,8.68,8.44,5.28,6.4,9.04,13.76,12.56,21.25,.63,1.33,1.27,2.65,1.92,4.01,5.86-3.99,11.45-8.03,17.27-11.71,9.19-5.81,18.98-10.24,29.64-12.73,20.12-4.7,35.52,2.91,45.42,18.41,5.17,8.1,8.12,17.07,9.7,26.47,.44,2.63,1.63,3.9,4.02,4.87,47.39,19.16,88.97,47.09,125.25,83.02,14.07,13.93,26.99,28.82,38.73,44.75,.48,.64,.93,1.3,1.85,2.58,.11-1.35,.2-2.03,.21-2.71,.1-6.24,.52-12.44,2.86-18.32,.7-1.75,1.47-3.49,2.41-5.12,6.74-11.55,19.69-12.75,28.84-2.99,14.62,15.59,29.42,30.99,44.17,46.46,1.59,1.66,3.36,3.15,4.92,4.83,4.1,4.41,6.46,9.57,6.77,15.65,.8,15.63-13.78,22.02-24.65,18.13-1.13-.4-2.23-.87-3.85-1.51-.1,4.16,.11,8.04-.37,11.83-.46,3.57,.73,5.8,3.59,7.79,6.55,4.55,12.92,9.36,19.41,13.99,1.51,1.08,2.52,2.12,2.5,4.21-.28,24.33-3.95,47.94-15.06,69.91-6.35,12.55-15.1,23.03-27.27,30.41-.44,.27-.82,.63-1.85,1.43,27.76,1.75,49.11,13.68,63.66,36.75,9.89,15.69,13.26,33.03,10.44,51.35-3.24,21.06-13.64,37.98-30.86,50.53-17.19,12.52-36.57,16.46-56.92,13.72,1.59,1.91,3.18,4.08,5.03,6,11.15,11.52,17.25,25.28,18.87,41.2,1.51,14.73-1.99,28.43-7.93,41.71-8.61,19.27-20.14,36.72-33.36,53.08-32.12,39.76-71.39,70.56-117.04,93.42-22.39,11.21-45.4,20.85-69.31,28.29-2.15,.67-3.25,1.89-4.1,3.92-3.83,9.17-8.66,17.7-15.85,24.77-10.12,9.95-22.32,13.24-36.1,11.55-13.55-1.67-24.56-7.87-32.92-19.27-.75,1.37-1.33,2.4-1.88,3.44-2.71,5.17-5.96,9.94-10.03,14.18-14.23,14.82-38.78,15.03-53.61,.2-3.96-3.96-7.2-8.41-9.96-13.25-.46-.81-.92-1.62-1.49-2.64-1.77,1.71-3.33,3.39-5.08,4.86-15.09,12.61-31.96,16.46-50.66,9.57-8.24-3.04-14.49-8.98-19.27-16.21-3.27-4.94-6.05-10.23-8.68-15.55-1.07-2.16-2.33-3.31-4.57-3.97-33.67-10.05-65.73-23.92-96.08-41.59-45.11-26.26-82.79-60.64-111.88-104.14-9.04-13.52-16.93-27.71-21.77-43.34-5.91-19.07-4.57-37.63,4.78-55.41,3.62-6.88,8.4-12.9,14.26-18.05,.61-.53,1.18-1.11,1.75-1.68,.06-.06-.02-.24-.07-.72ZM506.46,266.09c-4.67,0-8.86-.09-13.03,.04-2.03,.06-3.28-.64-4.14-2.46-1.2-2.54-2.58-4.99-4.23-8.13-1.42,2.63-2.74,4.53-3.52,6.64-1.17,3.15-3.13,4.25-6.45,3.99-3.72-.29-7.48-.07-11.09-.07-1.07,5.42-.81,35.98,.37,39.21h16.15c.14,3.05,.63,5.67-.35,8.34h-40.76v-8.33c5.77-.45,11.29,.18,16.62-.4,.84-6.51,.55-35.52-.42-38.79h-15.08c-1.97-3.52-3.76-6.71-5.82-10.39-2.1,3.87-3.83,7.05-5.7,10.48h-15.27c-1.04,4.5-.89,35.54,.23,39h16.21v8.14c-4.64,.91-38.89,.75-41.97-.16-.25-2.6-.79-5.24,.54-8.21h15.95c1.05-5.42,.76-35.86-.41-39.02h-15c-1.91-3.51-3.62-6.67-5.65-10.42-1.52,2.9-2.9,5.08-3.84,7.43-1.03,2.57-2.68,3.31-5.33,3.17-4-.21-8.03-.05-11.91-.05-1.07,5.23-.83,35.92,.35,39.21h16.37v8.32c-.89,.13-1.41,.28-1.95,.28-10.15,.03-20.3,.06-30.45,.04-1.06,0-2.14-.28-3.19-.52-9.09-2.09-18.18-4.2-27.27-6.28-1.37-.31-2.77-.47-4.66-.78,2.02,6.57,3.82,12.46,5.64,18.38-5.02,.95-41.58,.73-44.8-.29v-5.11c0-22.87,0-45.73-.02-68.6,0-1.36,.44-2.89-.88-4.43-2.05,1.83-3.85,3.66-5.87,5.2-2.18,1.66-2.67,3.72-2.67,6.35,.05,107.97,.05,215.94-.01,323.92,0,2.74,.59,4.7,3.17,5.84,.61,.27,1.15,.71,1.72,1.07,43.93,28.18,87.87,56.37,131.8,84.55,6.93,4.44,13.87,8.86,20.8,13.29,52.58-33.72,104.92-67.29,157.34-100.91,0-1.63,0-3.11,0-4.59,.05-107.02,.09-214.05,.14-321.07,0-1.35,.06-2.71-.04-4.06-.06-.78-.12-1.8-.61-2.25-2.52-2.32-4.8-4.95-8.49-7.23v26.66c0,8.66,0,17.32,0,25.98-.01,8.61-.04,17.21-.06,25.99h-58.18v-11c-7.36-.07-14.17-.14-20.85-.21-.85-4.5-.81-5.42,.42-8.79h16.16v-38.95Zm79.24-5.17c-.38,.16-.76,.31-1.13,.47v327.69c-21.05,13.5-41.76,26.77-62.46,40.07-20.7,13.3-41.48,26.48-61.93,40.22,.97,.27,1.77,.27,2.55,.12,20.21-3.99,39.8-10.01,58.72-18.14,55.28-23.74,101.88-59.29,141.68-104.1,3.49-3.93,7.14-7.81,11.2-11.13,12.12-9.92,26.39-13.13,41.75-12.49,.98,.04,1.96,0,3.4,0-21.72-18.01-32.28-40.53-29.75-68.15,2.53-27.57,17.2-47.66,41.25-61.3-4.9-.95-9.42-1.59-13.82-2.71-14.45-3.7-26.78-11.39-38.12-20.8-15.74-13.05-28.83-28.53-40.59-45.15-11.57-16.35-23.39-32.49-36.79-47.42-5.22-5.82-10.64-11.46-15.97-17.18ZM124.28,523.05c.43,.3,.53,.43,.63,.43,2.43,.05,4.87,0,7.3,.13,12.44,.66,24.05,3.93,33.84,11.89,4.49,3.65,8.59,7.85,12.43,12.2,29.35,33.21,62.95,61.27,101.26,83.6,28.29,16.49,58.19,29.08,90.21,36.36,3.61,.82,7.26,1.46,10.89,2.19,.1-.25,.21-.5,.31-.75-.85-.6-1.67-1.24-2.54-1.8-31.3-20.07-62.61-40.13-93.92-60.2-8.54-5.47-17.05-10.99-25.64-16.37-1.84-1.15-2.72-2.46-2.44-4.61,.12-.93,.02-1.89,.02-2.84V265.83c0-1.55,0-3.11,0-5.5-1.68,1.55-2.67,2.39-3.59,3.32-12.89,12.98-24.71,26.9-35.63,41.57-8.15,10.96-15.94,22.19-24.3,32.99-11.05,14.28-23.39,27.35-38.1,37.98-11.64,8.42-24.23,14.72-38.61,16.94-1.61,.25-3.21,.52-5.31,.86,50.47,26.55,56.81,93.95,13.19,129.07ZM417.13,41.35c-16.94,.1-37.42,1.61-57.72,5.01-34.58,5.79-67.67,16.31-99.12,31.89-49.87,24.7-92.21,58.8-127.12,102.07-8.32,10.31-15.8,21.28-23.77,31.87-20.42,27.15-42.56,52.6-71.41,71.31-1.9,1.23-2.27,2.73-2.2,4.75,.35,10.02,1.28,19.98,3.23,29.81,2.82,14.29,7.32,27.96,15.26,40.34,15.4,24.01,41.34,33.52,67.87,26.9,13.93-3.47,25.73-11.1,36.59-20.25,14.06-11.84,26.01-25.63,36.66-40.53,11.88-16.62,23.78-33.21,37.28-48.58,22.65-25.77,47.97-48.39,77.74-65.74,29.28-17.06,60.72-27.5,94.57-29.98,14.29-1.04,28.62-.67,42.91,1.23,19.82,2.63,38.86,7.93,57.19,15.82,30.82,13.26,57.55,32.57,81.61,55.74,20.45,19.69,38.14,41.69,54.35,64.94,10.78,15.47,22.55,30.09,36.51,42.84,9.34,8.54,19.41,16.04,31.15,20.95,19.64,8.21,39,7.9,57.61-2.99,11.95-6.99,20.04-17.59,25.93-29.92,9.08-19.02,12.31-39.34,13.1-60.19,.1-2.58-.61-4.14-2.84-5.62-11.3-7.48-21.87-15.9-31.59-25.38-18.17-17.75-33.82-37.6-48.48-58.25-36.16-50.93-81.99-90.74-137.59-119.16-51.48-26.31-106.37-38.64-167.73-38.88Zm15.66,645.32c.06,.24,.12,.48,.19,.72,.51,.05,1.03,.15,1.54,.14,1.22-.02,2.44-.05,3.65-.15,21.65-1.91,42.77-6.42,63.39-13.25,39.57-13.1,75.46-33.08,108.59-58.2,24.35-18.46,46.26-39.51,66.38-62.5,12.51-14.29,28.59-18.33,46.42-13.62,27.18,7.19,45.14,33.11,38.22,65.37-2.46,11.48-7.89,21.87-13.82,31.91-24.6,41.66-57.91,75.05-98.11,101.58-35.13,23.19-73.3,39.99-113.67,51.8-28.4,8.3-57.41,13.36-86.92,15.39-21.09,1.45-42.17,1.28-63.26-.5-20.53-1.73-40.8-4.9-60.84-9.59-36.43-8.53-71.01-21.92-104.07-39.36-46.89-24.73-86.13-58.24-116.76-101.62-9.63-13.63-18-27.98-23.49-43.86-3.69-10.65-3.99-21.44-1.55-32.38,5.66-25.32,32.46-45.02,59.93-39.56,10.88,2.16,19.26,8.04,26.4,16.27,26.31,30.34,56.21,56.61,89.93,78.46,32.94,21.35,68.14,37.64,106.38,47.02,13.95,3.42,28.1,5.66,42.42,6.76,1.5,.11,3.02,.02,4.52,.02-3.83-3.36-7.62-6.24-11.82-8.3-2.43-1.19-5.51-1.07-8.3-1.52-1.73-.28-3.48-.49-5.2-.8-20.82-3.67-41.04-9.44-60.6-17.45-56.21-23.02-103.77-58.21-144.61-102.84-3.47-3.79-6.81-7.71-10.41-11.38-12.07-12.3-27.15-16.45-43.77-14.86-13.9,1.33-26,7.46-35.76,17.43-18.08,18.47-22.26,40.53-15.16,64.85,4.28,14.65,11.88,27.82,20.24,40.51,21.75,33.03,49.11,60.69,80.94,84.01,24.11,17.67,50.37,31.53,77.76,43.34,33.77,14.56,68.87,24.58,105.2,30.21,17.78,2.76,35.7,4.24,53.68,4.72,21.93,.58,43.77-.77,65.53-3.62,17.83-2.33,35.43-5.78,52.81-10.35,31.74-8.34,62.07-20.32,91.25-35.31,44.32-22.75,82.38-53.16,113.34-92.27,12.63-15.96,23.78-32.87,31.73-51.71,3.43-8.13,6.1-16.48,6.53-25.4,.82-16.74-3.2-32.07-14.39-44.8-14.88-16.93-33.49-24.7-56.17-20.99-12.38,2.03-22.44,8.29-30.61,17.7-11.1,12.78-22.82,24.95-35.35,36.34-36.28,32.98-76.71,59.35-122.66,76.9-20.38,7.78-41.32,13.44-63.02,16.1-1.72,.21-3.61,.43-5.06,1.26-3.96,2.28-7.74,4.89-11.59,7.37Zm114.54-457.22c-24.77-18.33-51.79-31.53-81.85-38.26-30.03-6.72-60.04-6.79-90.03,.08-27.86,6.38-73.99,28.08-81.52,38.18h253.4Zm219.03,163.23c-36.9-.9-69.99,29.55-70.5,68.93-.52,39.87,32.29,70.8,69.8,70.98,37.35,.18,70.22-30.05,70.5-69.48,.29-40.79-33.69-71.07-69.81-70.43ZM76.51,532.59c38.16,.61,69.94-30.99,70.37-69.1,.44-38.88-31.54-70.32-69.15-70.84-36.83-.51-70.92,28.74-71.17,69.63-.25,40.38,32.91,70.7,69.95,70.31Zm269.3,219c-.96-1.97-1.52-3.01-1.98-4.1-1.63-3.86-3.22-7.74-4.82-11.62-5.39-12.99-10.77-25.99-16.21-38.97-.55-1.32-1.26-3.18-2.34-3.56-4.65-1.66-9.42-3.05-14.64-3.85-6.22,23.17-12.33,45.96-18.54,69.09,5.81,1.55,11.09,2.96,16.65,4.44,4.65-16.03,8.41-31.84,13.42-47.43,1.13,1.56,1.84,3.12,2.51,4.69,6.43,15.34,12.86,30.69,19.26,46.04,2.9,6.96,2.88,6.98,10.36,8.9,2.42,.62,4.87,1.16,7.59,1.81,6.27-23.29,12.48-46.05,18.52-69.21-5.84-1.54-11.12-2.93-16.76-4.41-4.36,16.13-8.57,31.7-13.02,48.16Zm-116.38-102.49c-.87,1.44-1.6,2.54-2.24,3.69-4.41,7.91-8.82,15.83-13.2,23.76-2.94,5.33-6.06,10.57-8.7,16.05-5.68,11.78-3.67,22.78,5.74,31.84,7.38,7.11,16.17,11.83,26.2,13.85,9.44,1.91,17.73-.58,24.2-7.96,1.86-2.12,3.55-4.46,4.93-6.91,7.17-12.72,14.23-25.51,21.3-38.29,.5-.9,.83-1.89,1.36-3.11-5.74-3.15-11.25-6.18-17.02-9.34-.96,1.65-1.72,2.9-2.44,4.18-6.52,11.7-12.96,23.43-19.58,35.07-1.79,3.16-3.96,6.13-6.24,8.97-1.88,2.34-4.34,4.1-7.42,4.65-9.86,1.77-18.63-7.62-15.91-17.25,.95-3.35,2.45-6.6,4.12-9.67,6.26-11.53,12.69-22.96,19.04-34.44,.97-1.75,1.88-3.52,3-5.63-5.83-3.22-11.35-6.26-17.16-9.46Zm373.02,91.04c10.57-6.34,20.53-12.31,30.47-18.32,.92-.56,1.73-1.3,2.55-2,6.41-5.51,11.28-12.01,13.27-20.39,3.32-14-3.23-31.24-15.07-39.49-4.55-3.17-9.62-4.81-15.2-4.96-7.79-.22-15.08,1.83-21.83,5.4-9.79,5.19-19.32,10.87-28.96,16.36-.34,.2-.64,.48-1.32,1,11.95,20.67,23.84,41.22,36.09,62.4Zm-36.17-495.28l.49-.82c-1.75-1.39-3.59-2.7-5.24-4.2-3.06-2.78-6.5-3.7-10.69-3.69-86.34,.11-172.69,.09-259.03,.09q-7.99,0-14.14,5.11c-1.13,.94-2.74,1.57-3.1,3.51h291.72Zm-57.92,453.44c.38,4.54,20.38,65.35,22.44,68.21,14.32-4.66,28.83-9.11,43.4-14.2-1.16-3.3-2.12-6.04-3.19-9.08-8.75,2.8-17.07,5.45-25.81,8.24-2.39-7.38-4.66-14.37-7.02-21.66,7.23-2.4,13.99-4.63,21.13-7-1.06-3.21-2-6.06-3.05-9.24-7.25,2.31-14.01,4.46-21.17,6.75-2.07-6.32-3.99-12.16-6.05-18.45,7.4-2.44,14.39-4.74,21.76-7.17-1.05-3.19-1.95-5.94-3.01-9.18-13.44,4.36-26.48,8.59-39.42,12.79Zm-16.79,5.09c-19.79,2.57-39.1,5.3-58.75,8.21,.54,3.45,.98,6.29,1.48,9.45,6.93-.91,13.29-1.74,19.94-2.62,2.93,20.59,5.79,40.74,8.72,61.38,6.45-.9,12.38-1.73,18.85-2.64-2.89-20.71-5.71-40.86-8.53-61.1,6.64-1.91,13.25-1.56,19.64-3.59-.45-3-.84-5.64-1.35-9.08ZM750.83,195.09c.9,1.56,1.52,2.74,2.23,3.87,9.31,14.71,20.92,27.46,33.69,39.19,1.54,1.42,3.56,2.52,5.55,3.2,7.78,2.65,14.32-.78,15.88-8.34,1.26-6.08-1.07-11.16-5.24-15.43-10.95-11.2-21.97-22.32-32.95-33.48-1.78-1.81-3.5-3.66-5.61-5.87-2.26,7.63-6.55,13.11-13.55,16.85ZM78.21,178.45c-.9,.73-1.35,1.02-1.72,1.4-12.4,12.65-24.81,25.28-37.17,37.97-3.65,3.75-5.57,8.28-5.24,13.59,.4,6.57,5.46,11.24,11.79,10.8,3.86-.27,7.34-1.57,10.26-4.29,10.02-9.33,19.37-19.26,27.46-30.33,2.85-3.91,5.42-8.02,8.34-12.37-7.07-3.68-11.43-9.15-13.71-16.77Zm662.67,14.15c3.92-2.29,7.14-3.99,10.17-5.98,3.78-2.48,6.2-5.96,6.92-10.53,.81-5.15-1.74-9.94-6.61-12.3-5.28-2.55-9.14-1.83-13.12,2.48-2.43,2.64-4.25,5.7-4.94,9.19-.86,4.35-1.38,8.79-1.84,13.21-.72,6.98,1.06,13.1,5.2,19.01,12.25,17.48,26.42,33.22,41.61,48.12,.45,.44,1.02,.76,2.27,1.67,.07-4.43,0-8.16,.24-11.87,.17-2.67-.75-4.55-2.7-6.36-9.43-8.78-17.93-18.43-25.42-28.91-4.07-5.69-7.76-11.66-11.77-17.72Zm-639.06-.13c-1.34,2.3-2.5,4.41-3.78,6.45-9.32,14.87-20.5,28.2-33.13,40.35-.94,.9-2.32,2-2.38,3.06-.25,4.49-.08,9.01-.06,14.24,1.32-1.1,1.97-1.55,2.51-2.11,13.5-13.69,26.45-27.85,37.89-43.34,8.85-11.97,9.39-14.03,8.13-28.87-.01-.13-.01-.27-.03-.4-.74-5.57-2.13-10.88-5.94-15.26-3.71-4.27-7.29-5.26-12.27-3.35-5.05,1.94-7.93,6.05-7.8,11.17,.13,5.29,2.57,9.32,6.94,12.16,3.04,1.97,6.23,3.72,9.91,5.89ZM416.11,712.14c-6.58-.35-12.57-.67-18.99-1.01-1.36,24.06-2.68,47.61-3.7,71.74,6.53,.31,12.51,.59,18.95,.9,1.26-24.09,2.49-47.65,3.74-71.63ZM375.95,37.31c.08-.33,.17-.66,.25-.98-2.38-1.72-4.7-3.53-7.15-5.15-10.59-7.03-21.9-12.27-34.67-13.85-5.67-.7-11.06,.09-16.05,2.93-3.11,1.77-5.24,4.43-5.18,8.14,.02,1.47,.69,3.24,1.68,4.31,1.92,2.07,4.27,1.16,4.84-1.63,.77-3.77,3.97-5.94,7.74-5.16,3.2,.66,5.2,2.66,6.23,5.74,1,3.02,.39,5.63-1.95,7.75-4.96,4.51-10.84,5.81-17.32,4.71-6.16-1.05-10.36-4.38-11.84-10.67-.03-.14-.37-.21-.56-.31-4.39,5.78-8.19,16.57-8.17,23.57,26.7-9.66,54.07-16.05,82.15-19.4Zm163.16-4.72c-1.2,4.23-2.76,7.13-5.65,9.15-6.51,4.54-18.09,3.59-23.77-1.94-2.11-2.06-3.07-4.43-2.25-7.33,.86-3.04,2.53-5.31,5.8-6.15,4.26-1.09,7.4,.8,8.33,5.15,.5,2.37,2.37,3.19,4.42,1.86,1.9-1.23,2.53-3.14,2.24-5.29-.38-2.81-1.77-5.15-4.11-6.72-1.66-1.11-3.51-2.08-5.4-2.69-5.54-1.78-11.27-1.54-16.84-.44-13.84,2.74-25.45,10.15-36.66,18.26-.08,.05-.04,.26-.12,.86,28.15,3.35,55.61,9.77,82.93,19.63-1.09-8.91-3.9-16.45-8.92-24.33Zm-84.58,788.47c-3.69-.58-6.1,.25-7.9,3.6-1.5,2.79-3.84,5.18-6.05,7.53-1.99,2.12-4.63,3.28-7.52,3.63-3.63,.44-6.86-1.87-7.17-4.99-.33-3.26,2.19-5.89,6.02-6.22,1.21-.1,2.45,.07,3.64-.11,1.92-.28,3.88-.61,5.07-2.68h-49.46c3.87,10.7,15.92,23.68,31.8,23.63,15.07-.04,26.78-11.77,31.57-24.4Zm-94.06-1.85l-.24-1.05c-8.6-1.49-17.24-2.77-25.78-4.52-8.44-1.72-16.79-3.9-25.19-5.88-.18,.27-.36,.53-.54,.8,2.32,3.78,4.46,7.69,7,11.32,4.53,6.44,10.34,11.4,17.94,13.97,14.97,5.06,32.92-.08,43.66-12,.32-.35,.43-.88,.66-1.35-3.8-1.32-6.69-.98-9.51,2.13-3.03,3.34-7.18,5.45-11.78,5.73-2.3,.14-4.8-.51-6.98-1.39-1.89-.76-2.48-3.1-1.86-4.84,.7-1.98,2.02-2.73,4.46-2.5,1.08,.1,2.16,.39,3.22,.32,1.66-.12,3.3-.48,4.94-.73Zm106.9,1.17c11.45,12.21,24.66,17.37,40.34,14.62,15.31-2.68,23.28-13.91,30.05-27.75-17.34,4.89-34,8.66-51.03,10.59-.34,.04-.63,.44-1.11,.79,2.71,1.89,5.39,1.24,8.02,.99,2.5-.24,3.89,.42,4.63,2.24,.75,1.87,.08,4.07-1.92,5.25-2.26,1.33-4.73,1.83-7.4,1.35-4.56-.81-8.51-2.92-11.67-6.12-2.23-2.25-4.41-3.23-7.42-2.37-.5,.14-1.03,.18-2.49,.41ZM323.25,304.41c8.06,1.99,15.3,3.79,22.56,5.59,.45-.78,.79-1.21,.97-1.7,3.75-10.41,7.52-20.82,11.2-31.26,1-2.84,.61-5.76,.35-8.64-.29-.14-.58-.27-.87-.41-11.2,11.92-22.4,23.85-34.21,36.42ZM444.64,35.06c-4.22-9.12-8.68-17.69-15.62-24.73-.38-.38-.81-.72-1.23-1.05-3.55-2.74-6.71-2.82-10.39-.18-1.09,.78-2.16,1.67-3,2.7-.51,.63-.83,1.67-.71,2.44,.06,.38,1.28,.75,2.02,.84,5.75,.67,7.93,4.58,5.11,9.66-2.6,4.69-6.72,7.38-12.12,7.64-2.8,.13-5.63-.25-8.89-.42-.48,.78-1.14,1.86-1.9,3.11h46.75Z"/><path d="M306.79,446.25c-1.06-7-1.48-13.11-3-18.93-1.5-5.76-4.09-11.23-6.48-17.55,1.75,.44,2.88,.64,3.95,1,2.56,.88,5.06,1.91,7.63,2.74,6.01,1.94,9.75,.33,12.58-5.44,1.79-3.64,3.44-7.35,5.17-11.02,.58-1.22,1.15-2.45,1.8-3.64,1.96-3.59,3.61-4.4,7.64-3.32,2.2,.59,4.33,1.51,6.41,2.45,5.13,2.33,6.54,1.93,9.63-2.93,.68-1.07,1.47-2.07,2.82-3.95,.76,1.96,1.26,2.95,1.54,4,1.59,6.01,2.91,12.1,4.77,18.01,1.21,3.84,2.99,7.55,4.9,11.11,3.84,7.15,6.48,9.5,16.13,15.34-1.69,3.46-3.34,6.99-5.14,10.44-1.68,3.24-3.47,6.43-5.31,9.58-2.03,3.48-3.19,7.28-3.19,11.2-.02,13.94,.84,27.84,3.04,41.62,.23,1.45,.69,2.92,1.37,4.21,1.53,2.91,4.14,3.55,6.75,1.58,1.25-.95,2.38-2.26,3.11-3.65,2.68-5.16,5.18-10.41,7.73-15.63,2.09-4.28,1.8-8.32-1.05-12.21-1.84-2.51-3.51-5.14-5.27-7.7-6.53-9.51-5.83-20.07,1.98-28.61,1.55-1.69,3.22-3.31,5.02-4.71,3.8-2.96,5.07-6.72,3.38-11.13-2.45-6.43-4.78-12.98-7.99-19.03-3.98-7.51-8.8-14.57-13.26-21.83-1.05-1.71-2.14-3.4-3.46-5.49,1.26-.25,2.1-.55,2.95-.57,2.84-.06,5.7-.22,8.52,.02,3.13,.27,4.94-.75,6.2-3.79,2.13-5.11,4.76-10.01,7.2-14.99,.4-.82,.91-1.58,1.66-2.86,1.18,2.19,2.15,3.93,3.08,5.69,2.41,4.54,4.84,9.07,7.17,13.65,.83,1.64,1.94,2.28,3.81,2.35,9.1,.34,9.1,.4,13.76-7.62,2.04-3.51,4.03-7.04,6.07-10.55,.52-.9,1.17-1.73,2.05-3.01,.79,1.58,1.42,2.74,1.97,3.94,2.07,4.56,4.24,9.07,6.12,13.71,1.06,2.61,2.49,3.81,5.43,3.59,3.62-.27,7.27-.06,11.55-.06-.87,1.29-1.36,2.16-1.98,2.92-7.17,8.83-11,18.86-10.85,30.28,.09,6.65,0,13.25-2.14,20.02,2.46,1.91,4.89,3.8,7.33,5.69,2.67,2.07,5.39,4.1,8.01,6.23,2.73,2.21,2.84,3.59,.1,5.78-2.2,1.76-4.77,3.06-7.15,4.6-1.24,.8-2.53,1.58-3.6,2.59-1.16,1.08-1.64,2.53-.73,4.04,.83,1.38,2.17,1.52,3.57,1.12,1.56-.45,3.13-.89,4.61-1.52,2.61-1.11,5.2-2.29,7.74-3.56,6.34-3.19,12.84-5.77,20.12-5.52,.51,.02,1.04-.22,1.88-.41v-11.23c-7.51-.98-15.2,.17-23.21-.69-.13-1.64-.37-3.2-.37-4.76-.03-9.74-.1-19.48,.03-29.22,.04-3.11-.42-5.96-2.47-8.32-1.94-2.24-1.56-4.22-.09-6.56,2.31-3.66,4.3-7.51,6.46-11.26,.66-1.15,1.41-2.24,2.48-3.92,2,3.55,3.71,6.59,5.43,9.62,.6,1.06,1.09,2.21,1.82,3.16,2.88,3.74,3.54,7.38,.02,11.15-.6,.64-1.02,1.71-1.03,2.58-.09,6.19-.05,12.39-.05,18.91,4.21,.63,8.03,.46,12.19,.17,.13-1.58,.32-2.89,.33-4.2,.04-3.65-.12-7.31,.06-10.96,.16-3.25-.36-6.22-2.55-8.69-1.83-2.07-1.62-3.93-.2-6.19,2.38-3.77,4.43-7.75,6.65-11.62,.65-1.13,1.39-2.21,2.42-3.82,3.44,6.08,6.54,11.6,9.68,17.1,.72,1.26,.48,2.38-.37,3.37-3.06,3.56-3.34,7.77-3.14,12.2,.18,4.14,.04,8.3,.04,12.75h11.97c.14-1.39,.33-2.56,.36-3.73,.06-2.16-.02-4.33,.03-6.49,.11-5.82,.76-11.76-4.37-16.27,3.57-6.33,6.94-12.29,10.54-18.68,.73,.81,1.23,1.2,1.52,1.7,2.69,4.7,5.28,9.45,8.04,14.1,1.12,1.89,1.19,3.49-.25,5.16-2.36,2.73-2.81,5.92-2.74,9.45,.17,9.47,.08,18.94,.1,28.41,0,1.47,0,2.93,0,4.96-8.03,.09-15.66,.17-23.48,.26-.2,1.45-.44,2.48-.46,3.52-.06,2.7,.14,5.42-.07,8.11-.29,3.81,.66,6.92,3.14,10.04,3.92,4.91,6.12,10.76,7.23,17.01,.73,4.11,0,7.85-2.59,11.07-1.13,1.41-1.43,2.66-1.13,4.42,1.26,7.41-.08,14.31-4.86,20.26-1.73,2.15-2.25,4.42-2.24,7.11,.06,28,.04,56.01,.04,84.01,0,1.08,.01,2.17-.01,3.25-.02,.67,0,1.37-.17,2.01-.64,2.47-3.88,3.97-7.81,3.67-4.07-.31-6.23-1.85-6.51-4.75-.12-1.21-.05-2.43-.05-3.65,0-27.46-.05-54.93,.06-82.39,.01-3.33-.97-5.58-3.67-7.49-7.71-5.45-16.3-9-25.12-12.13-1.79-.63-2.82,.08-3.83,1.3-4.97,5.99-8.56,12.74-11.34,20.03,2.48,2.34,4.97,1.43,7.29,.45,1.45-.62,2.77-1.67,3.99-2.72,2.15-1.85,4.6-2.26,7.22-1.69,3.02,.66,4.19,2.59,3.58,5.68-.78,3.98-1.75,7.93-2.4,11.92-.7,4.32,.5,5.68,4.83,6.02,.27,.02,.54,.02,.81,.04,7.92,.47,11.59,4.76,10.68,12.83-.58,5.1-1.6,10.15-2.29,15.24-1.04,7.57-.51,15.1,.72,22.62,.52,3.19,.95,6.41,1.14,9.63,.12,2.03-.24,4.23-2.51,5.08-2.25,.84-3.9-.6-5.33-2.09-6.63-6.95-13.24-13.92-19.83-20.9-10.31-10.92-20.6-21.85-30.91-32.77-.91-.96-1.88-1.86-3.13-3.09-1.2,2.45-1.06,4.63-.4,6.58,1.48,4.33,2.92,8.74,5.03,12.78,2.31,4.41,5.34,8.45,8.09,12.62,.74,1.13,1.66,2.14,2.45,3.23,4.78,6.58,3.88,11.56-2.95,16.03-2.26,1.48-4.69,2.7-6.94,4.2-3.39,2.26-4.02,4.04-2.81,7.94,1.75,5.62,4.85,10.55,8.1,15.39,1.89,2.8,3.98,5.47,5.95,8.21,4,5.58,3.49,10.56-1.75,15.02-6.24,5.31-13.78,7.95-21.61,9.74-2.74,.62-5.62,.95-8.42,.88-4.26-.1-6.7-2.55-7.17-6.81-.18-1.59,0-3.24,.15-4.85,.21-2.29,.63-4.56,.8-6.85,.4-5.25-.41-10.26-3.44-14.72-2.35-3.47-4.7-6.94-7.18-10.32-2.81-3.82-4.7-8-4.5-12.77,.27-6.61,.86-13.2,1.37-19.8,.6-7.68,1.28-15.35,1.88-23.03,.11-1.47,.02-2.95,.02-4.85-1.41-.12-2.56-.28-3.71-.31-4.05-.12-8.11-.17-12.17-.28-6.26-.18-10.34-3.5-12.78-9.05-1.98-4.52-2.81-9.32-2.93-14.22-.35-13.93-.56-27.86-.97-41.78-.35-11.76-.85-23.52-1.38-35.27-.25-5.61-2.11-7.82-7.54-9.71-1.69-.59-4-.49-4.15-3.12-.14-2.38,1.95-2.92,3.36-4.12,2.86-2.43,5.98-4.75,8.17-7.73,3.62-4.93,1.41-9.26-4.7-9.98-6.73-.8-13.04,.81-18.53,4.55-4.67,3.18-8.82,7.1-13.21,10.7-1.2,.98-2.4,1.95-4.13,3.35Zm178.02,46.42c0-3.36-.25-6.18,.06-8.94,.4-3.62-1.47-5.54-4.32-6.99-4.89-2.48-9.99-2.04-15.03-.77-5.98,1.5-6.76,4.28-2.51,8.7,5.71,5.95,13.04,7.69,21.8,8.01Zm-75.14-61.61c1.87,6.19,4.02,11.7,7.68,17.45,3.47-5.89,5.83-11.3,7.41-17.45h-15.09Zm22.53-35.87c-4.58,2.08-7.26,4.85-8.42,8.9-.73,2.56,.15,4.35,2.02,5.03,1.89,.68,4.02-.08,4.99-2.26,1.53-3.43,2.12-7.06,1.41-11.68Zm-31.06,.65c-.7,3.38-.44,6.43,.39,9.4,.31,1.1,1.03,2.18,1.82,3.03,1.09,1.17,2.57,1.4,4.07,.76,1.58-.67,2.01-2.04,2-3.61-.03-3.74-3.89-8.35-8.29-9.58Z"/><path d="M272.85,355.1v-18.6c3.28-1,290.94-1.23,295.94-.21,.33,6.15,.27,12.42,0,18.59-3.34,1.03-291.01,1.25-295.93,.22Z"/><path d="M420.37,49.86c68.44-.09,131.78,17.76,189.66,54.36,41.78,26.42,77.08,59.76,105.71,100.12,14.26,20.1,29.44,39.47,46.9,56.96,9.59,9.6,19.85,18.38,31.09,25.99,1.76,1.19,3.01,2.36,2.88,4.84-1.03,19.22-4.37,37.89-13.23,55.21-4.55,8.91-10.47,16.79-18.85,22.47-15.54,10.53-32.2,11.69-49.56,5.31-11.88-4.36-21.92-11.68-31.22-20.07-13.63-12.31-25.12-26.48-35.58-41.52-16.1-23.15-33.65-45.1-53.86-64.85-24.79-24.22-52.35-44.46-84.23-58.45-31.09-13.65-63.61-20.12-97.56-18.84-41.41,1.56-79.33,14.31-114.28,36.3-30.9,19.45-57.1,44.16-79.97,72.42-9.86,12.19-18.94,25.02-28.24,37.65-12.48,16.95-25.88,33.02-42.9,45.68-8.65,6.43-17.98,11.53-28.58,14.01-21.82,5.11-42.87-2.91-55.33-21.47-3.37-5.02-6.31-10.45-8.66-16.02-6.38-15.12-8.96-31.12-9.92-47.42-.12-1.96,.01-3.57,1.95-4.88,26.26-17.73,46.92-41.1,66-66.01,8.55-11.17,16.42-22.88,25.26-33.81,45.85-56.74,102.76-97.87,172.31-120.86,21.51-7.11,43.55-11.84,66.06-14.54,14.67-1.76,29.37-2.58,44.14-2.6Zm-219.11,217.18c-18.59-15.56-36.7-30.71-55.51-46.45-.82,1.23-1.34,2.19-2.02,3.02-2.75,3.34-5.43,6.75-8.39,9.91-2.14,2.29-2.44,4.19-.97,7.14,7.14,14.27,13.99,28.67,20.94,43.04,.56,1.16,1.05,2.36,1.93,4.35-18.23-5.92-35.63-11.57-53.13-17.26-3.96,4.7-7.67,9.1-11.6,13.76,18.54,15.51,36.74,30.74,55.24,46.22,2.78-3.76,5.97-6.46,8.06-10.34-12.28-10.36-24.39-20.57-36.5-30.78,.14-.21,.27-.42,.41-.62,16.53,5.33,33.05,10.67,49.45,15.96,1.09-1.2,1.85-1.97,2.53-2.8,3.52-4.29,3.48-3.04,1.01-8.01-6.56-13.2-13.18-26.37-19.77-39.55-.58-1.16-1.09-2.36-1.63-3.54,.18-.16,.36-.32,.54-.47,12.26,10.25,24.53,20.5,37.13,31.04,4.17-4.96,8.05-9.58,12.27-14.61Zm122.15-102.51c-12.83-20.48-25.38-40.5-38.14-60.87-5.11,3.06-9.86,6-14.77,9.24,8.79,14.08,17.28,27.67,25.77,41.26-.19,.24-.37,.48-.56,.73-1.35-.46-2.71-.88-4.04-1.38-16.72-6.23-33.43-12.48-50.17-18.67-1.47-.54-3.46-1.38-4.59-.82-4.43,2.18-8.56,4.94-12.86,7.89,12.82,20.45,25.35,40.46,38.1,60.81,5.08-3.16,9.74-6.05,14.73-9.15-8.88-14.21-17.57-28.11-26.26-42.01,1.52-.22,2.52,.07,3.49,.43,5.2,1.91,10.4,3.85,15.59,5.77,12.42,4.61,24.84,9.23,37.27,13.81,1.47,.54,2.92,1.46,4.61,.37,3.74-2.41,7.53-4.73,11.84-7.42Zm139.23-15.61c.07-23.84,1.23-47.39,.94-71.25-6.54-.24-12.51-.86-18.67-.27-.3,9.79-.59,19.07-.89,28.84-9.39-.1-18.34,.1-27.54-.44-.34-9.93,.49-19.36-.08-29.02-6.47-.18-12.45-.8-18.34-.22-1.03,7.4-1.73,68.88-.89,71.28,4.61,.86,14.99,.8,18.31-.2,.19-10.37,.38-20.85,.58-31.73,9.56,.11,18.55-.14,27.81,.49,0,5.68-.05,10.93,.01,16.18,.06,5.33-.97,10.68-.06,16.33h18.81Zm211.31,157.46c7.36-6.56,14.18-12.63,21.22-18.9,2.26,2.51,4.13,4.59,6.05,6.73-4.51,10.13-8.89,19.99-13.23,29.74,3.64,4,13.13,11.37,16.25,12.54,3.54-10.43,7.07-20.85,10.57-31.17,.97,.06,1.38,.03,1.76,.12,9.42,2.26,17.05-1.03,23.35-7.83,3.91-4.22,5.25-9.32,3.94-15.05-1.18-5.13-3.58-9.67-6.97-13.58-6.91-7.96-14.04-15.74-21.09-23.57-.25-.28-.67-.41-1.46-.88-17.56,15.77-35.2,31.62-53.12,47.73,4.37,4.84,8.4,9.31,12.74,14.13ZM174.22,190.78c11.52,22.84,22.87,45.35,34.5,68.39,1.59-1.66,2.79-2.89,3.96-4.14q4.62-4.94,1.58-10.83c-2.08-4.05-4.13-8.11-6.23-12.24,5.6-5.97,10.94-11.67,16.43-17.54,6.37,2.63,12.57,5.18,18.83,7.76,4.77-4.96,9.3-9.66,13.83-14.96-23.82-10.01-47.07-19.78-70.48-29.61-4.15,4.4-8.11,8.6-12.42,13.17Zm430.03-51.58c-.29-1.13-.35-1.68-.57-2.15-6.13-13.79-17.29-20.81-31.77-22.58-8.71-1.07-15.1,3.61-18.24,11.77-2.36,6.12-1.51,11.97,1.36,17.62,2.14,4.21,4.66,8.24,6.77,12.46,1.32,2.63,2.45,5.42,3.23,8.25,1,3.64-.49,6.61-3.4,8.89-3.66,2.87-7.55,2.64-11.4,.56-4.81-2.61-8.16-6.58-10.11-11.72-.46-1.21-.97-2.4-1.59-3.94-3.28,1.43-6.2,2.71-9.24,4.04,.41,1.4,.56,2.49,1.02,3.43,6.57,13.42,17.38,21.43,32.11,22.99,15.41,1.63,26.78-13.19,21.91-27.89-1.39-4.19-3.64-8.11-5.61-12.1-1.73-3.51-3.7-6.9-5.39-10.43-1.31-2.76-1.29-5.58,.98-7.91,2.17-2.22,4.89-2.73,7.86-1.97,5.32,1.36,9.04,4.66,11.48,9.51,.76,1.52,1.51,3.06,2.36,4.79,2.88-1.26,5.44-2.38,8.24-3.61Zm99.49,89.53c-9.24-10.92-17.97-21.49-27.11-32.13-18.56,15.54-36.66,30.7-55.12,46.16,10.04,11.94,19.83,23.58,29.87,35.53,2.62-2.2,4.93-4.15,7.51-6.32-5.97-7.15-11.64-13.93-17.45-20.88,6.01-5.02,11.59-9.68,17.51-14.62,4.89,5.75,9.57,11.26,14.45,16.99,2.62-2.22,4.86-4.12,7.45-6.32-4.82-5.78-9.44-11.33-14.25-17.1,5.18-4.31,9.99-8.31,14.91-12.39,5.31,5.91,9.72,11.83,14.93,17.31,2.58-2.19,4.7-4.01,7.29-6.21Zm-198.3-102.32c7.32,2.45,14.04,4.7,21.09,7.06,1.15-3.3,2.11-6.03,3.19-9.12-7.16-2.52-13.86-4.88-20.92-7.37,1.95-6.35,4.04-12.23,6.35-18.31,7.38,2.49,14.25,4.8,21.58,7.27,1.1-3.22,2.06-6.05,3.12-9.15-13.53-4.63-26.5-9.08-39.81-13.64-7.88,22.85-15.57,45.15-23.42,67.9,14.83,5.09,29.2,10.02,43.9,15.07,1.12-3.27,2.06-6.03,3.15-9.21-8.59-3.02-16.92-5.94-25.64-9.01,2.53-7.33,4.89-14.19,7.41-21.49Zm-130.96-44.13c-3.3-.79-6.12-1.78-9.01-2.08-11.61-1.23-22.3,1.76-32.07,7.9-13.64,8.56-19.65,22.81-15.95,38.47,3.54,14.98,12.1,25.61,27.78,28.97,10.62,2.28,21.01,.63,31.02-3.3,4.43-1.74,8.26-4.5,11.6-8.32-2.16-2.44-4.18-4.73-6.36-7.19-1.44,1.23-2.54,2.19-3.67,3.11-10.13,8.27-24.79,7.35-33.3-2.27-6.22-7.03-8.96-15.45-8.18-24.74,1.41-16.8,16.36-26.85,32.52-22.15,1.01,.29,2.04,.51,3.37,.84,.72-2.94,1.38-5.66,2.25-9.24Zm254.54,81.87c-13.94,15.47-27.65,30.69-41.55,46.13,4.86,4.36,9.35,8.38,14.16,12.69,14.07-15.55,27.79-30.72,41.66-46.04,5.12,4.56,9.85,8.76,14.87,13.22,2.22-2.49,4.24-4.74,6.47-7.23-14.84-13.34-29.29-26.32-44-39.54-2.29,2.51-4.32,4.74-6.52,7.15,5.19,4.74,9.95,9.09,14.91,13.63Z"/><path d="M766.71,522.17c-32.97,.01-59.65-27.81-58.93-60.54,.7-32.04,27.86-58.54,60.01-58.03,33.1,.53,59.13,27.58,58.7,60.98-.42,31.93-27.51,58.03-59.78,57.59Zm36.98-41.67c-.4-17.25-4.12-32.84-12.75-47.08-2.61-4.31-5.31-5.49-10.21-4.22-5.75,1.48-11.47,3.07-17.18,4.67-3.46,.97-4.41,2.56-3.41,6.01,.67,2.33,1.66,4.57,2.55,6.83,8.39,21.24,8.36,42.67,1.52,64.27-.33,1.03-.7,2.06-.85,3.12-.31,2.19,.35,3.04,2.48,3.31,.8,.1,1.62,.03,2.43,0,7.93-.37,15.4-2.53,22.69-5.6,4.43-1.87,7.21-4.98,8.88-9.39,2.76-7.31,3.52-14.94,3.88-21.92Zm-69.25-60.47c-6.38,4.9-11.19,10.02-14.8,16.36-2.5,4.4-2.61,8.71-.54,13.18,.8,1.71,1.64,3.42,2.65,5.01,5.09,7.94,12.08,13.8,20.37,18.13,4.63,2.41,9.67,3.5,14.85,3.7,4.78,.18,7.28-2.43,7.16-7.2-.03-1.21-.13-2.44-.35-3.63-1.71-9.23-4.82-18-8.74-26.51-1.49-3.23-3.75-5.58-7.32-6.48-.91-.23-1.79-.6-2.67-.97-5.04-2.1-9.48-4.81-10.62-11.59Zm-18.88,31.49c-.99,1.69-1.7,2.4-1.84,3.21-.45,2.66-.92,5.35-.98,8.03-.45,22.85,14.72,44.14,36.78,51.74,4.34,1.5,5.56,1.14,8.33-2.47,2.45-3.19,3.8-6.88,4.57-10.74,.9-4.5,1.71-9.04,2.19-13.6,.46-4.28-.86-5.63-4.98-6.08-2.28-.25-4.6-.37-6.85-.8-15.29-2.95-26.55-11.56-34.48-24.77-.74-1.23-1.49-2.44-2.76-4.52Zm53.56-42.55c-11.1,.34-19.33,1.85-27.06,6.01-4.61,2.48-4.23,8.72-.61,11.09,1.34,.88,2.76,1.86,4.28,2.23,3.26,.81,6.59,1.65,9.92,1.78,9.37,.38,18.08-2.74,26.75-5.8,.99-.35,1.9-1.04,2.73-1.71,1.9-1.53,2.98-3.45,2.53-6.02-.48-2.69-2.02-4.45-4.66-4.98-5.41-1.09-10.84-2.05-13.87-2.61Zm37.2,89.25c.34,.2,.68,.4,1.02,.6,1.27-1.27,2.76-2.39,3.78-3.84,9.9-13.88,12.13-29.19,8.22-45.56-.25-1.06-1-2.01-1.8-3.55-3.67,4.68-7.02,8.71-10.04,12.97-.74,1.04-.73,2.86-.57,4.27,1.17,10.55,.81,21.06-.58,31.57-.15,1.16-.02,2.36-.02,3.54Zm-13.53-82.16c-1.12,4.74-2.67,8.8-.49,12.59,4.25,7.4,8.59,14.7,11.04,22.97,.61,2.06,2.2,2.55,3.75,1.07,3.88-3.71,6.82-8.08,7.09-13.65,.07-1.4-.44-2.99-1.14-4.23-3.78-6.69-8.68-12.41-15.35-16.41-1.34-.8-2.83-1.35-4.9-2.33Z"/><path d="M136.54,463.17c.06,33.08-26.29,59.55-59.42,59.67-33.15,.12-60.01-26.31-60.05-59.09-.05-33.3,26.4-60.08,59.47-60.2,33.19-.13,59.93,26.45,60,59.62Zm-96.73,17.56c.25,5.73,.95,12.85,3.16,19.73,.45,1.41,1.08,2.77,1.68,4.12,1.31,2.95,3.42,5.07,6.39,6.47,7.28,3.44,14.85,5.7,22.92,6.28,6.51,.46,7.24-.49,5.27-6.67-6.78-21.32-6.75-42.51,1.42-63.51,.93-2.39,1.97-4.76,2.69-7.21,1.04-3.56,.2-5.03-3.31-6.02-5.71-1.62-11.43-3.2-17.18-4.68-5.14-1.32-7.61-.2-10.44,4.49-8.44,14.01-12.16,29.34-12.6,47.01Zm69.25-60.66c-1.09,6.32-5.06,9.17-9.85,11.23-.99,.43-1.98,.93-3.02,1.17-3.92,.89-6.51,3.35-7.85,6.97-2.76,7.47-5.41,14.98-7.9,22.54-.71,2.15-.93,4.51-1.07,6.79-.31,5.23,2.33,8.1,7.5,7.55,4.13-.44,8.41-1.12,12.2-2.71,10.24-4.32,18.33-11.37,23.9-21.09,1-1.75,2.03-3.65,2.32-5.58,.36-2.46,.65-5.28-.19-7.51-2.99-7.94-8.8-13.74-16.04-19.37Zm19.69,32.36c-.45-.02-.91-.04-1.36-.06-.88,1.46-1.75,2.93-2.63,4.38-7.21,11.81-17.31,19.9-30.8,23.35-3.63,.93-7.45,1.24-11.21,1.58-2.33,.21-3.4,1.39-3.73,3.49-.15,.92-.31,1.91-.15,2.81,.98,5.57,1.75,11.21,3.2,16.66,.77,2.9,2.5,5.67,4.28,8.16,2.11,2.95,3.59,3.2,7.04,1.93,16.52-6.07,28.28-17.09,34.4-33.71,2.98-8.11,3.94-16.52,2.24-25.1-.24-1.2-.83-2.32-1.26-3.48Zm-54.2-43.46c-2.99,.55-8.61,1.3-14.08,2.69-5.26,1.33-6.42,7.1-2.35,10.68,1.19,1.04,2.65,2,4.15,2.43,6.49,1.84,12.96,3.84,19.58,5.08,6.05,1.14,12.16,.34,17.84-2.29,2.93-1.36,5.17-3.39,5.2-7.06,.03-3.48-2.36-4.91-4.94-6.25-7.12-3.71-14.8-4.93-25.4-5.27Zm-38.14,90.14c.55-1.3,.81-1.65,.83-2.01,.04-.8,.02-1.62-.08-2.42-1.41-10.61-1.71-21.25-.49-31.9,.23-2.03-.18-3.77-1.39-5.31-2.73-3.5-5.51-6.97-8.31-10.42-.21-.26-.69-.29-1.51-.6-.56,1.38-1.22,2.64-1.6,3.98-1.73,6.2-1.83,12.57-1.2,18.89,.93,9.28,3.86,17.92,9.57,25.44,1.09,1.43,2.5,2.62,4.18,4.34Zm14.4-82.81c-1.36,.4-2.03,.49-2.61,.77-8.13,4.08-13.99,10.49-18.03,18.47-.93,1.84-1.1,4.68-.38,6.59,1.26,3.35,3.2,6.54,5.37,9.41,2.26,2.99,4.22,2.49,5.33-1.01,2.22-6.99,5.41-13.55,9.49-19.58,3.23-4.79,2.01-9.35,.84-14.65Z"/><path d="M587.77,676.48c5.52-3.19,10.29-6.46,16.08-7.83,6.02-1.42,11.41-.16,15.79,4,7.47,7.1,12.22,15.82,13.21,26.18,.58,6.02-1.86,11.23-6.55,14.99-3.65,2.93-7.76,5.29-12.12,8.21-8.91-15.37-17.55-30.27-26.41-45.56Z"/><path d="M702.41,280.88c5.97-5.36,11.67-10.46,17.66-15.84,4.15,4.05,8.42,7.7,7.8,13.99-.46,4.67-5,9.53-9.61,10.4-7.23,1.36-11.54-3.06-15.86-8.55Z"/><path d="M191.96,199.78c7.59,3.4,15.18,6.8,23.39,10.48-4.14,4.46-7.92,8.52-12.12,13.05-4.14-7.95-8.02-15.41-11.9-22.86,.21-.22,.41-.45,.62-.67Z"/></g></g></svg>