<?xml version="1.0" encoding="UTF-8"?><svg id="Layer_2" xmlns="http://www.w3.org/2000/svg" viewBox="0 0 751.83 591.34"><g id="Layer_1-2"><g><path d="M230.29,0c18.81,45,37.63,90,56.43,135.01,19.53,46.74,39.04,93.49,58.56,140.24,.4,.96,.84,1.9,1.52,3.41,.64-1.35,1.14-2.28,1.54-3.25,9.15-21.76,18.25-43.54,27.48-65.27,.99-2.32,.91-4.21-.06-6.5-20.75-49.17-41.43-98.38-62.12-147.58-.47-1.13-.9-2.28-1.44-3.65,31.14-15.09,62.03-30.06,93.23-45.18,62.03,147.93,123.93,295.55,186.01,443.58h-3.53c-34.74,0-69.48-.03-104.22,.07-2.64,0-3.76-.88-4.76-3.24-28.18-66.68-56.43-133.32-84.68-199.96-.43-1.02-.93-2.02-1.62-3.5-5.51,13.02-10.8,25.51-16.09,38.01-4.36,10.29-8.66,20.61-13.12,30.86-.91,2.09-.85,3.83,.04,5.91,18.11,42.58,36.14,85.19,54.19,127.8,.53,1.24,1.02,2.49,1.71,4.2-1.24,.07-2.22,.17-3.19,.17-34.84,0-69.69-.02-104.53,.06-2.4,0-3.41-.83-4.31-2.97-26.02-61.69-52.12-123.35-78.21-185.01-.49-1.15-.99-2.29-1.68-3.88-.5,1.05-.85,1.72-1.14,2.42-15.62,36.93-30.7,74.11-47.05,110.72-11.92,26.69-26.9,51.79-46.32,73.89-17.09,19.45-37.99,33.02-63.5,38.48-24.46,5.24-47.52,.74-69.44-11.59,.44-1.07,.79-2,1.21-2.91,14.24-30.59,28.54-61.15,42.66-91.8,1.29-2.79,2.77-3.11,5.48-2.91,21.19,1.53,41.65-1.36,60.09-12.47,13.98-8.42,25.55-19.89,36.37-32.05,27.86-31.28,47.8-67.39,64.3-105.6,1.31-3.03,1.34-5.47,.04-8.52-24.31-56.86-48.51-113.76-72.73-170.65-.4-.95-.78-1.91-1.3-3.16,6.26-2.88,12.39-5.72,18.54-8.53,24.23-11.08,48.46-22.15,72.68-33.24,.82-.37,1.54-.94,2.31-1.41,.21,0,.42,0,.63,0Z"/><path d="M208.96,520.28c1.04,23.21,2.07,46.04,3.11,69.09h-12.1c-.77-15.54-1.53-31.02-2.3-46.49-.21-.05-.42-.1-.63-.15-2.36,3.89-4.72,7.77-7.09,11.66-2.71,4.46-5.42,8.93-8.15,13.39-1.92,3.13-6.64,3.19-8.61,.07-4.63-7.33-9.23-14.69-13.85-22.03-.52-.83-1.12-1.62-2.22-3.21-.73,16.16-1.42,31.36-2.12,46.74h-11.69c1.02-22.96,2.03-45.78,3.06-69.06,3.68,0,7.2-.14,10.7,.1,.84,.06,1.8,1.23,2.34,2.12,5.51,9,10.94,18.05,16.4,27.08,.59,.97,1.24,1.9,2.03,3.11,6-10.02,11.92-19.73,17.61-29.58,1.29-2.22,2.69-3.1,5.18-2.9,2.59,.2,5.21,.04,8.33,.04Z"/><path d="M530.94,554.95c.8-11.87,4.99-21.77,14.06-29.33,13.83-11.53,34.88-9.53,46.41,4.29,11.81,14.15,12.11,34.97,.7,48.84-16.84,20.47-48.44,15.13-57.84-9.91-1.66-4.42-2.25-9.25-3.33-13.88Zm34.77-24.66c-5.78-.23-10.79,2.2-14.81,6.74-8.21,9.27-8.09,26.01,.18,35.23,8.75,9.74,23.58,9.18,31.19-1.5,6.1-8.56,6.64-18.01,2.8-27.68-3.22-8.12-10.27-12.76-19.37-12.79Z"/><path d="M326.09,520.51c10.12,0,20.07-.44,29.96,.13,8.48,.5,14.82,6.67,16.98,14.93,2.3,8.81-.78,18.38-7.54,23.36-.83,.61-1.69,1.19-2.66,1.86,5.02,9.58,9.99,19.05,15.24,29.06-4.69,0-8.83,.11-12.96-.1-.81-.04-1.83-1.2-2.28-2.09-3.84-7.65-7.62-15.33-11.28-23.07-.8-1.69-1.77-2.28-3.58-2.2-3.12,.14-6.25,.04-9.74,.04-.06,1.25-.16,2.35-.16,3.44-.01,7.11-.07,14.23,.03,21.34,.03,2.08-.68,2.76-2.72,2.67-3.01-.13-6.03-.03-9.31-.03v-69.36Zm12.45,11.14v19.54c5.11,0,10.01,.22,14.89-.07,4.39-.26,7.76-4.63,7.86-9.48,.1-5.1-2.87-9.59-7.23-9.91-5.06-.37-10.18-.09-15.52-.09Z"/><path d="M442.92,560.8c5.04,9.61,9.97,19,15.24,29.04-4.82,0-9.06,.12-13.27-.11-.76-.04-1.65-1.41-2.11-2.34-3.72-7.47-7.43-14.96-10.98-22.51-.89-1.89-1.95-2.61-4.04-2.48-3.01,.2-6.04,.05-9.46,.05v27.22h-11.97v-69.05c10.29,0,20.46-.69,30.5,.2,9.11,.81,14.76,7.24,16.67,16.35,1.78,8.5-1.76,17.54-8.75,22.32-.51,.35-1.01,.72-1.82,1.31Zm-24.48-9.61c5.16,0,10.08,.23,14.96-.07,4.22-.26,7.57-4.54,7.82-9.24,.24-4.57-2.51-9.53-6.46-9.94-5.33-.55-10.76-.14-16.32-.14v19.39Z"/><path d="M299.71,589.57c-4.23,0-7.89-.09-11.54,.04-1.77,.07-2.6-.55-3.11-2.23-1.33-4.39-2.89-8.71-4.22-13.1-.49-1.61-1.14-2.42-3.01-2.38-6.69,.11-13.39,.1-20.08,0-1.67-.03-2.41,.61-2.88,2.1-1.41,4.47-2.83,8.95-4.45,13.35-.33,.91-1.52,2.06-2.38,2.12-3.53,.24-7.09,.1-11.05,.1,.36-1.3,.58-2.36,.95-3.36,7.7-21.06,15.45-42.1,23.07-63.19,.77-2.14,1.77-2.93,4.01-2.77,3.22,.23,7.25-.96,9.47,.58,2.2,1.52,2.65,5.64,3.75,8.66,6.82,18.83,13.6,37.67,20.39,56.51,.38,1.06,.66,2.16,1.09,3.58Zm-31.41-55.15c-3.06,9.26-5.87,17.79-8.74,26.47h17.32c-2.85-8.79-5.59-17.26-8.58-26.47Z"/><path d="M638.92,589.34v-57.58h-22.17v-11.18h56.8v11.01h-21.84v57.75h-12.78Z"/><path d="M729.79,589.47h-12.47v-57.72h-22.29v-11.3h56.8v11.11h-22.04v57.91Z"/><path d="M501.42,520.53v68.88h-12.13v-68.88h12.13Z"/></g></g></svg>