<?xml version="1.0" encoding="UTF-8"?><svg id="Layer_2" xmlns="http://www.w3.org/2000/svg" viewBox="0 0 326.57 152.91"><g id="Layer_2-2"><path d="m0,.01C14.27.01,28.53.01,42.8,0c.56,0,.9.15,1.23.64,14.53,21.36,29.07,42.71,43.62,64.05.13.19.26.37.49.68V.08c.2-.03.34-.07.48-.06,3.93.08,7.87,0,11.79.29,6.68.5,13.01,2.24,18.56,6.2,5.32,3.8,8.63,9,10.38,15.22,1.16,4.14,1.49,8.39,1.49,12.68,0,.68-.02,1.36-.02,2.04,0,38.26,0,76.51,0,114.77v1.03c-.28,0-.51,0-.73,0-13.86,0-27.73,0-41.59.01-.55,0-.83-.2-1.11-.62-14.7-21.65-29.42-43.29-44.13-64.94-.15-.23-.31-.45-.57-.82v66.3c-.23.03-.39.06-.55.06-3.78-.07-7.57-.01-11.34-.26-5.67-.37-11.12-1.69-16.14-4.47-6.71-3.72-10.93-9.4-13.08-16.7-.84-2.85-1.22-5.77-1.44-8.72-.02-.23-.08-.46-.12-.68C0,80.95,0,40.48,0,.01Zm35.48,145.53V62.51c.22.31.36.48.48.67,18.41,27.09,36.82,54.19,55.22,81.29.3.44.6.6,1.13.6,10.18-.02,20.37-.01,30.55-.01h.76v-.93c0-33.49,0-66.99,0-100.48,0-2.76-.02-5.53.02-8.29.05-3.37-.19-6.71-.92-10-1.66-7.42-5.75-12.96-12.81-16.09-3.99-1.77-8.22-2.38-12.54-2.47-.67-.01-1.34,0-2.07,0v81.83c-.25-.36-.39-.56-.53-.77C76.55,61.16,58.34,34.47,40.14,7.77c-.29-.43-.59-.62-1.12-.61-10.35.02-20.71.01-31.06.01h-.76c0,.38,0,.69,0,1.01,0,35.68,0,71.37,0,107.05,0,.38,0,.77-.01,1.15-.12,3.54.14,7.05.87,10.52,1.03,4.89,3.23,9.17,7.03,12.49,5.83,5.09,12.88,6.23,20.39,6.16Z"/><path d="m272.39,152.91c-.91-.2-1.84-.35-2.72-.62-4.23-1.32-6.88-4.69-6.96-9.12-.1-5.63-.04-11.26-.05-16.89,0-1.25,0-2.5,0-3.8h3.97c0,.25,0,.5,0,.75,0,6.18-.01,12.37.01,18.55,0,.93.08,1.88.29,2.78.56,2.37,2.05,3.91,4.41,4.56,1.72.48,3.45.48,5.16-.05,2.67-.82,4.05-2.75,4.43-5.44.1-.67.12-1.35.12-2.03,0-5.38,0-10.75,0-16.13,0-2.02.93-2.99,2.94-3.03.32,0,.63,0,1.03,0v.72c0,6.25.02,12.5-.02,18.74,0,1.22-.12,2.48-.43,3.65-1.08,4.07-3.94,6.24-7.94,7.1-.43.09-.87.17-1.3.26h-2.93Z"/><path d="m191.5,152.91c-.7-.15-1.41-.26-2.1-.45-4.68-1.26-7.48-4.72-7.55-9.66-.09-6.71-.03-13.43-.03-20.14,0-.04.02-.08.02-.12,2.31-.64,3.94.62,3.94,3.05,0,5.4-.02,10.8.01,16.19,0,.97.12,1.96.34,2.9.57,2.35,2.1,3.83,4.43,4.46,1.72.47,3.45.44,5.16-.08,2.73-.83,4.41-3.17,4.45-6.37.06-5.27.02-10.54.03-15.81,0-1.44,0-2.89,0-4.39h3.96c0,.21,0,.44,0,.66,0,6.27,0,12.54,0,18.81,0,1.81-.21,3.57-.99,5.21-1.47,3.14-4.08,4.78-7.37,5.48-.45.1-.91.17-1.37.26h-2.93Z"/><path d="m217.14,152.91c-1.02-.26-2.06-.46-3.07-.78-2.07-.67-3.89-1.78-5.53-3.3.77-.96,1.51-1.89,2.29-2.86.28.26.5.48.74.68,3.54,3.01,7.56,3.72,11.92,2.29,2.39-.79,3.51-2.86,3.1-5.26-.19-1.08-.73-2-1.64-2.55-1.17-.71-2.41-1.32-3.68-1.84-1.77-.72-3.6-1.27-5.38-1.96-.73-.28-1.41-.69-2.08-1.09-4.93-2.94-4.06-9.93-.36-12.53,1.56-1.09,3.29-1.65,5.16-1.85,4.37-.46,8.31.54,11.64,3.52.22.2.47.36.67.5-.91.91-1.7,1.7-2.52,2.52-1.59-1.58-3.51-2.66-5.77-3.1-1.69-.33-3.38-.35-5.04.21-2.4.82-3.66,3.07-3.01,5.3.3,1.04.98,1.84,1.9,2.29,1.58.77,3.22,1.41,4.84,2.07,1.71.7,3.47,1.27,5.13,2.06,1.95.93,3.5,2.32,4.21,4.46,1.22,3.71-.28,7.6-3.69,9.53-1.52.86-3.17,1.3-4.89,1.54-.21.03-.41.08-.62.13h-4.34Z"/><path d="m146.54,44.68c1.57,0,3.1-.06,4.63.02,1.33.07,2.43.72,3.27,1.77.46.58.9,1.18,1.29,1.82,2.44,4.03,5.05,7.96,6.88,12.33.28.68.57,1.35.96,2.01v-17.97h6.88v29.71c-1.94-.09-3.93.3-5.83-.42-1.23-.47-2.04-1.43-2.7-2.52-1.43-2.36-2.91-4.69-4.23-7.12-1.39-2.57-2.62-5.23-3.92-7.85-.07-.15-.13-.3-.31-.44v18.32h-6.91v-29.65Z"/><path d="m273.67,83.66c.14-.02.26-.06.38-.06,4.51.02,9.01-.01,13.52.09,2.33.05,4.54.69,6.43,2.15,2.54,1.96,3.33,4.67,3.21,7.73-.13,3.37-1.61,5.88-4.72,7.33-.07.03-.13.1-.23.17,2.25,4.1,4.48,8.19,6.78,12.37-2.51.32-4.91.63-7.24-.34-1.41-.59-2.29-1.73-2.94-3.05-1.19-2.42-2.39-4.83-3.54-7.27-.23-.48-.49-.64-1.01-.62-.97.04-1.95.01-3.01.01v11.27h-7.62v-29.79Zm7.66,5.86v6.91c1.76,0,3.48.1,5.18-.03,1.89-.14,2.94-1.43,3.02-3.39.08-1.86-.89-3.25-2.76-3.45-1.78-.19-3.6-.04-5.45-.04Z"/><path d="m268.62,98.53c-.01,2.58-.27,5.13-1.16,7.58-1.66,4.59-5,7.09-9.75,7.77-2.31.33-4.62.29-6.91-.2-4.38-.94-7.36-3.54-8.72-7.78-1.59-4.99-1.6-10.05.08-15.02,1.51-4.46,4.78-6.93,9.38-7.7,2.48-.41,4.96-.38,7.41.18,4.88,1.11,7.78,4.25,8.93,9,.49,2.01.63,4.1.92,6.15-.06,0-.13.02-.19.03Zm-19.71,0c.17,1.6.25,3.22.54,4.8.62,3.45,2.58,4.94,6.04,4.7,2.03-.14,3.48-1.17,4.12-3.08.43-1.29.71-2.67.82-4.03.23-2.71.23-5.43-.53-8.09-.41-1.43-1.12-2.66-2.53-3.35-3.23-1.58-6.7-.07-7.72,3.36-.55,1.85-.63,3.76-.75,5.69Z"/><path d="m154.15,113.36h-7.63v-29.71h7.6v11.43h10.19v-11.44h7.61v29.7h-7.55v-12.31h-10.21v12.33Z"/><path d="m275.74,74.5c-1.78,0-3.42.08-5.04-.02-1.91-.12-3.24-1.17-3.94-2.96-.77-1.95-1.52-3.92-2.27-5.88-.27-.69-.51-1.4-.8-2.08-.07-.17-.29-.39-.45-.4-.99-.04-1.99-.02-3.07-.02v11.26h-7.41v-29.76c.12-.02.23-.06.35-.06,4.25.01,8.5-.01,12.75.06,2,.03,3.92.54,5.65,1.57,2.54,1.51,3.85,3.81,4.03,6.7.08,1.27-.02,2.6-.3,3.85-.54,2.37-2.03,4.07-4.22,5.14-.15.07-.29.16-.49.26,1.72,4.08,3.44,8.13,5.21,12.33Zm-15.57-16.94c1.79-.07,3.55-.01,5.28-.26,1.8-.25,2.73-1.63,2.71-3.53-.02-1.74-.98-3.04-2.78-3.25-1.71-.19-3.46-.04-5.21-.04v7.07Z"/><path d="m239.62,44.53h7.47v.68c0,6.37.03,12.75-.02,19.12-.01,1.32-.16,2.68-.5,3.96-.79,3-2.79,4.97-5.71,5.92-3.58,1.17-7.2,1.18-10.78,0-3.77-1.24-5.71-4.01-6.16-7.88-.09-.82-.11-1.65-.11-2.48,0-6.14,0-12.28,0-18.42v-.85c1.85.02,3.66-.19,5.31.77,1.4.82,1.88,2.19,2.05,3.69.08.69.1,1.4.1,2.1,0,4.29,0,8.58,0,12.87,0,.53,0,1.07.07,1.59.37,2.56,2.05,3.79,4.71,3.47,2.19-.26,3.36-1.51,3.53-3.8.04-.47.03-.93.03-1.4,0-6.18,0-12.36,0-18.55v-.81Z"/><path d="m304,74.38c-1.95,0-3.84,0-5.73,0-.63,0-1.43.17-1.84-.14-.38-.29-.36-1.12-.51-1.72-.23-.93-.47-1.85-.65-2.79-.08-.39-.22-.52-.63-.52-2.66.02-5.31.02-7.97,0-.44,0-.57.18-.65.57-.32,1.52-.67,3.02-1.01,4.57h-7.47c.25-.97.5-1.9.75-2.83,2.37-8.74,4.74-17.48,7.09-26.23.14-.51.33-.71.89-.7,2.95.03,5.91.02,8.86,0,.41,0,.6.12.71.52,2.68,9.6,5.36,19.2,8.05,28.81.03.12.06.25.11.48Zm-10.33-11.04c-1.03-4.37-2.04-8.7-3.06-13.02-.04,0-.09,0-.13-.01-.99,4.33-1.97,8.65-2.97,13.03h6.16Z"/><path d="m200.67,74.38c-2.45,0-4.83,0-7.21-.02-.16,0-.41-.25-.46-.43-.39-1.41-.75-2.83-1.1-4.25-.08-.31-.18-.47-.54-.47-2.8.01-5.61,0-8.49,0-.26,1.16-.52,2.31-.79,3.46-.13.55-.11,1.31-.47,1.6-.36.29-1.09.11-1.67.11-1.87,0-3.73,0-5.67,0,.03-.21.04-.37.08-.52,2.45-9.55,4.9-19.1,7.33-28.66.12-.47.32-.63.82-.62,2.95.03,5.91.02,8.86,0,.41,0,.64.08.77.53,2.79,9.59,5.61,19.17,8.41,28.76.04.14.07.29.12.51Zm-10.39-11.04c-1.09-4.42-2.15-8.75-3.22-13.08-.05,0-.1,0-.16.01-.93,4.34-1.87,8.69-2.81,13.07h6.18Z"/><path d="m213.98,86.5c-.94,1.74-1.84,3.42-2.76,5.13-1.68-1.32-3.49-2.22-5.51-2.66-1.46-.32-2.94-.51-4.41-.09-.98.28-1.73.8-1.92,1.89-.19,1.1.25,1.99,1.17,2.48,1.31.69,2.7,1.22,4.07,1.76,1.77.7,3.62,1.24,5.34,2.05,3.12,1.46,4.97,3.87,4.97,7.44,0,3.61-1.7,6.23-4.85,7.93-1.69.91-3.52,1.34-5.42,1.54-4.99.52-9.51-.7-13.56-3.68-.12-.09-.23-.18-.4-.32,1.02-1.69,2.04-3.38,3.08-5.11.18.13.33.23.47.34,3.02,2.35,6.41,3.44,10.24,2.92.62-.08,1.26-.28,1.81-.57,1.57-.82,1.85-2.83.47-3.92-.88-.69-1.96-1.18-3.01-1.59-1.93-.76-3.94-1.34-5.87-2.09-1.54-.59-2.94-1.46-4.03-2.72-3.17-3.69-2.18-9.69,2.04-12.43,1.77-1.15,3.74-1.71,5.82-1.89,4.24-.37,8.15.56,11.63,3.07.21.15.4.31.65.5Z"/><path d="m306.22,142.1c1.56-3.58,3.06-7.02,4.56-10.47,1.25-2.86,2.5-5.71,3.72-8.58.21-.49.47-.64.99-.62,1.55.04,3.09.01,4.68.01v29.77h-3.87v-24.65c-.12.11-.19.14-.2.19-1.14,4.09-3.06,7.86-4.79,11.71-1.24,2.77-2.51,5.52-3.75,8.29-.18.41-.43.49-.86.56-1.3.21-1.9-.34-2.41-1.54-2.2-5.22-4.53-10.38-6.78-15.58-.45-1.05-.75-2.16-1.12-3.25-.04-.13-.1-.25-.27-.36v24.64h-3.92v-29.78c.18,0,.39,0,.59,0,1.38,0,2.76.03,4.14-.02.54-.02.76.19.96.66,2.63,6.07,5.28,12.14,7.92,18.21.1.23.21.45.38.81Z"/><path d="m160.55,142.1c1.5-3.43,2.95-6.75,4.4-10.08,1.32-3.03,2.65-6.07,3.96-9.11.16-.37.35-.5.75-.49,1.61.02,3.22,0,4.87,0v29.78h-3.91v-24.72c-.06-.04-.12-.09-.19-.13-.02.08-.03.17-.05.25-1.4,4.97-3.83,9.52-5.84,14.23-.84,1.97-1.75,3.91-2.61,5.88-.17.4-.39.52-.83.59-1.33.21-1.93-.34-2.45-1.57-2.18-5.18-4.5-10.3-6.73-15.46-.52-1.21-.88-2.5-1.42-3.74v24.67h-3.94v-29.73c.18-.01.38-.03.58-.03,1.38,0,2.76.03,4.14-.02.54-.02.76.19.97.66,2.65,6.11,5.32,12.22,7.98,18.32.08.19.17.38.32.7Z"/><path d="m316.49,113.39h-7.57v-.78c0-2.83.01-5.65-.01-8.48,0-.38-.1-.8-.28-1.15-3.16-6.2-6.33-12.4-9.5-18.6-.11-.22-.22-.44-.36-.72.27-.01.46-.03.64-.03,2.36,0,4.72.01,7.08-.01.45,0,.67.15.84.56,1.65,3.84,3.33,7.67,5,11.5.09.21.19.41.34.73.17-.36.3-.6.4-.84,1.66-3.79,3.32-7.58,4.96-11.38.18-.42.4-.56.84-.55,2.36.02,4.72,0,7.08.01.18,0,.37.02.62.03-.13.27-.22.47-.32.68-3.13,6.15-6.27,12.29-9.38,18.45-.23.45-.36,1-.37,1.5-.03,2.78-.02,5.57-.02,8.35v.73Z"/><path d="m232.18,113.37h-7.61v-23.73h-7.45v-6.01h22.95c-.15,1.22-.16,2.42-.45,3.55-.44,1.66-1.84,2.21-3.38,2.33-1.33.1-2.67.02-4.07.02v23.84Z"/><path d="m213.76,74.35h-7.42v-23.72h-7.02v-6h21.72c.01,1.25.09,2.46-.32,3.62-.55,1.56-1.85,2.09-3.33,2.25-1.18.12-2.37.13-3.63.19v23.67Z"/><path d="m307.44,44.63h7.37v23.73h10.62v5.99h-17.98v-29.72Z"/><path d="m241.65,134.89h12.46v3.19h-12.43v10.87h15.23v3.26h-19.24v-29.74h18.55c.44,1.58-.42,2.89-2.06,3.13-.46.07-.93.07-1.4.07-3.44,0-6.89,0-10.33,0h-.77v9.22Z"/><path d="m186.1,113.38h-7.57v-29.71h7.57v29.71Z"/></g></svg>