<?xml version="1.0" encoding="UTF-8"?><svg id="Layer_2" xmlns="http://www.w3.org/2000/svg" viewBox="0 0 1063.25 240.26"><g id="Layer_1-2"><g><path d="M964.14,106.82c8.9-11.64,19.63-9.67,29.75-9.74,15.02-.1,15.65-.58,15.55-15.65-.19-30.57,3.93-27.65-27.89-27.68-14.6-.01-15.09,.62-15.18,15.97-.06,10.12,1.77,20.84-9.62,28.99-7.39-7.66-15.21-15.18-22.3-23.33-5.04-5.8-4.99-12.84,.37-18.36,17.25-17.8,34.69-35.43,52.49-52.68,6.15-5.96,13.86-5.72,20.06,.35,17.22,16.84,34.2,33.92,51.04,51.14,6.46,6.61,6.44,14.28,.1,20.83-16.76,17.29-33.81,34.31-50.97,51.21-6.6,6.5-13.99,6.37-20.85,.17-7.59-6.86-14.91-14.01-22.55-21.21Z"/><path d="M370.06,131.64h-21.37c-.35-5.34-.67-10.15-1.02-15.44h-61.51c-.41,4.77-.82,9.54-1.31,15.16h-21.51c0-18.77-.22-37.11,.31-55.43,.06-2.09,4.1-5.46,6.67-5.87,30.99-4.96,62.07-4.98,93.05,.06,2.5,.41,6.33,4,6.4,6.2,.52,18.31,.29,36.64,.29,55.31Zm-22.81-32.63c.84-1.04,1.68-2.07,2.52-3.11-2.26-3.73-4.36-10.57-6.81-10.69-17.51-.92-35.11-.68-52.65-.11-1.7,.06-4.36,4.82-4.5,7.5-.1,2.05,3.04,6.09,4.81,6.13,18.87,.45,37.75,.28,56.63,.28Z"/><path d="M811.51,116.07c-.31,5.72-.56,10.26-.84,15.47h-21.36c0-18.53-.14-37.13,.22-55.72,.04-1.89,2.93-5.06,4.87-5.37,33.7-5.5,67.37-5.76,101.26,.87v39.55c-3.28,1.1-6.83,2.28-11.59,3.88,3.43,5.41,6.69,10.56,10.54,16.62-12.71,1.44-24.4,3.98-31.91-9.56-1.45-2.61-5.29-5.37-8.13-5.49-14.03-.56-28.1-.26-43.06-.26Zm30.98-16.85c7.74,0,15.56,.62,23.19-.31,2.93-.36,5.44-4.23,8.14-6.5-2.35-2.69-4.61-7.61-7.08-7.71-16.14-.69-32.33-.41-48.49-.27-5.03,.04-8.69,2.78-6.81,7.88,1.05,2.87,4.93,6.22,7.87,6.58,7.63,.92,15.45,.31,23.19,.33Z"/><path d="M131.85,178.44c35.89-6.87,70.86-6.77,106.96-.04,0,17.59,.24,34.84-.3,52.06-.07,2.15-4.05,5.63-6.6,6.04-30.91,4.89-61.92,5-92.83,.03-2.7-.44-6.81-4.4-6.9-6.84-.61-16.88-.32-33.8-.32-51.24Zm22.07,13.35c0,8.96-.52,16.38,.29,23.66,.27,2.42,3.88,6.3,6.07,6.37,16.59,.53,33.21,.48,49.81,.04,2.19-.06,5.96-3.23,6.14-5.22,.71-7.91,.29-15.91,.29-24.85h-62.61Z"/><path d="M631.51,238.24c-13.87,2.25-26.08,2.79-33.32-11.4-.9-1.77-3.88-3.47-5.94-3.52-14.08-.31-28.18-.16-43.58-.16-.39,4.64-.81,9.7-1.28,15.35h-19.97v-60.09c34.24-7.19,69.08-6.4,105.36-.3,0,12.2,.57,24.16-.4,36-.24,2.94-5.47,5.47-9.92,9.59,2.16,3.46,5.51,8.83,9.06,14.53Zm-81.99-46.47c-3.47,10.61-.86,14.64,8.57,14.4,15.19-.39,30.41,.07,45.58-.55,2.64-.11,5.13-3.77,7.69-5.79-2.32-2.68-4.56-7.61-6.98-7.69-18.26-.65-36.55-.36-54.86-.36Z"/><path d="M395.34,191.39v-13.06c35.03-6.74,69.7-6.54,105.84-.11,0,17.76,.12,35.36-.19,52.95-.03,1.7-2.54,4.57-4.24,4.86-33.73,5.73-67.42,5.73-101.2-.71-.27-2.18-.55-3.54-.58-4.92-.07-3.17-.02-6.34-.02-10.06,2.76-.34,5.29-.65,9.26-1.14-3.75-8.77,5.11-20.37-8.86-27.82Zm84.46,.15h-52.81v30.61c15.63,0,30.39,.32,45.11-.29,2.64-.11,7-3.78,7.34-6.25,.99-7.21,.35-14.64,.35-24.07Z"/><path d="M263.34,178.45c33.84-6.59,66.85-6.85,99.85-1.01,2.67,.47,6.38,5.18,6.52,8.07,.69,14.48,.67,29.02,.08,43.51-.11,2.63-3.76,6.95-6.29,7.36-30.94,5.06-62.01,5.23-92.95,.05-2.76-.46-6.78-5-6.9-7.78-.66-16.23-.32-32.51-.32-50.2Zm22.13,13.37c0,8.95-.52,16.36,.29,23.63,.27,2.42,3.91,6.29,6.12,6.37,16.58,.53,33.2,.52,49.78-.02,2.24-.07,5.94-3.88,6.21-6.27,.82-7.26,.3-14.68,.3-23.69h-62.7Z"/><path d="M658.12,127.59c0-17.12-.23-33.71,.25-50.27,.07-2.48,3.22-6.68,5.42-7.02,33.36-5.24,66.71-5.63,100.26,1.04v55.51c-19.58,7.99-78.57,8.54-105.93,.75Zm23.38-13.1h61.34c0-7.55-.42-13.2,.1-18.76,.76-8.06-2.18-11.79-10.53-11.69-9.53,.11-19.08-.92-28.59-.58-27.12,.97-27.29,1.37-23.71,28.82,.04,.32,.36,.6,1.38,2.21Z"/><path d="M658.14,179.44c24.13-8.02,81.23-8.03,106.28-.05,0,16.63,.23,33.55-.27,50.45-.07,2.33-3.53,6.18-5.87,6.56-31.27,5.09-62.64,5.03-93.91,.03-2.37-.38-5.88-4.25-5.95-6.58-.51-16.9-.27-33.81-.27-50.4Zm21.37,12.32c0,8.64,.37,14.98-.1,21.26-.48,6.4,2.24,9.23,8.33,9.24,15.86,.03,31.74,.34,47.56-.39,2.59-.12,6.64-4.66,7.11-7.62,1.06-6.82,.34-13.91,.34-22.49h-63.23Z"/><path d="M831.3,221.93v-31.11c13.68,6.87,28.71,10.8,21.87,30.14,18.02,4.06,20.7,2.02,20.7-14.36,0-10.22,0-20.43,0-31.52h21.6v61.31c-17.22,1.32-34.38,3.54-51.57,3.67-15.5,.12-31.05-1.69-46.49-3.49-2.94-.34-7.65-4.53-7.75-7.09-.68-17.61-.36-35.25-.36-52.86,18.41-.3,21.8,2.86,21.79,19.48,0,3.18,0,6.37,0,9.55,0,17.69,.14,17.81,20.21,16.27Z"/><path d="M84.62,221.11v-46.15h21.6c0,18.79,.11,37.76-.21,56.72-.03,1.58-2.84,4.22-4.65,4.5-33.74,5.31-67.45,5.83-101.36-.99v-60.34c6.27,1.82,12.16,2.96,17.47,5.37,2.08,.94,3.78,4.65,4.05,7.26,.6,5.96,.2,12.01,.2,18.03-.01,17.63,.42,18.02,19.93,16.51v-31.07c14.47,6.67,28.85,11.15,21.61,32.21,8.33-.8,14.41-1.39,21.37-2.06Z"/><path d="M527.22,67.89h21.74v44.06h83.22v19.47h-104.96v-63.53Z"/><path d="M238.24,71.35v17.8c-13.83-1.23-27.04-2.41-41.45-3.7v46.13h-22.87v-46.1c-14.44,1.27-27.63,2.42-41.47,3.64v-17.94c35.35-6.45,70.53-6.63,105.8,.17Z"/><path d="M459.91,131.75h-23.22c5.3-15.64-6.74-20.67-15.81-27.59-9.83-7.5-19.71-14.93-30.42-23.03,5.68-5.17,10.97-9.98,16.73-15.21,13.82,10.39,27.04,20.34,41.02,30.85,13.57-10.21,27.03-20.34,41.11-30.93,5.29,4.88,10.41,9.6,16.51,15.22-10.41,7.97-20.32,15.63-30.32,23.18-9.15,6.92-20.62,12.29-15.6,27.51Z"/></g></g></svg>