<?xml version="1.0" encoding="UTF-8"?><svg id="Layer_2" xmlns="http://www.w3.org/2000/svg" viewBox="0 0 1034.75 726.22"><g id="Layer_1-2"><g><path d="M462.69,173.57c-11.2,1.38-21.35,3.03-31.57,3.79-14.5,1.08-29.05,1.88-43.59,2.1-9.05,.14-14.69-7.02-21.09-12.11-5.46-4.34-10.5-9.2-15.77-13.78-13.43-11.66-29.64-18.08-46.05-23.89-8.39-2.97-17.24-4.6-25.83-7.03-7.58-2.14-9.39-5.78-6.35-12.97,2.97-7.02,6.07-14.01,9.5-20.82,14.88-29.6,38.05-50.25,68.5-62.97,9.64-4.02,19.07-8.6,28.89-12.1,8.37-2.99,17.12-4.97,25.78-7.08C429.8,.69,455.1,.52,480.26,.04c17.39-.33,34.82,1.41,52.23,2.08,9.65,.37,19.34,.05,28.96,.7,19.51,1.31,39.01,2.8,58.46,4.73,16.62,1.65,33.23,3.66,49.75,6.16,19.68,2.97,39.23,7.12,57.42,15.33,19.82,8.95,36.21,22.37,45.08,42.9,2.97,6.88,3.9,14.64,5.8,21.99,2.73,10.57,5.88,21.05,8.13,31.72,2.73,12.92,4.77,25.99,6.98,39.02,.75,4.39,1.05,8.85,1.67,13.26,.91,6.45-2.31,12.46-8.24,13.48-23.13,4-43.4,14.93-64.02,25.31-18.62,9.37-35.67,21.05-52.73,32.85-19.61,13.57-37.39,29.23-54.26,45.98-5.55,5.51-11.85,8.53-19.74,6.47-8.93-2.33-14.1-9.58-14.7-20.12-.25-4.31-.49-8.62-.84-12.92-.76-9.32-9.65-14.97-20.82-13.3-7.54,1.13-9.85-.69-10.4-8.28-.16-2.16,.13-4.38-.29-6.47-1.84-9.23-9.86-13.75-20.16-12.08-4.96,.8-10.13,1.23-15.11,.79-5.23-.47-7.57-4.41-7.44-9.55,.13-4.97,.64-9.93,.8-14.9,.49-15.82-5.63-24.67-20-27.46-8.25-1.6-16.56-2.88-24.11-4.17Z"/><path d="M496.79,212.93c0,2.83,.18,5.68-.03,8.5-1.16,15.58,9.62,19.34,21.66,18.95,3.8-.12,7.59-.75,11.39-.81,6.21-.1,9.01,2.45,10.01,8.68,.39,2.45,.76,4.91,1.13,7.36,1.99,13.03,6.33,12.64,16.9,11.56,10.82-1.11,14.66,1.58,15.03,12.57,.43,12.74,4.8,22.47,18.39,26.24,6.15,1.7,7.28,6.45,3.07,11.6-6.2,7.58-12.92,14.72-19.19,22.24-4.67,5.6-8.73,11.73-13.51,17.23-4.44,5.1-8.01,5.33-13.48,1.33-9.24-6.75-17.69-14.89-27.65-20.27-12.3-6.64-25.47-12.22-38.88-16.15-18.36-5.38-37.21-9.22-56.02-12.85-10.69-2.06-21.69-2.64-32.58-3.46-19.67-1.48-39.35-3.2-59.05-3.75-14.56-.4-29.17,.85-43.76,1.49-6.47,.28-12.92,1.11-19.39,1.25-6.56,.14-8.12-1.75-10.01-8.04-4.21-14.01-2.5-28.4-2.85-42.6-.5-20.14-.4-40.33,.5-60.45,.76-17.03,2.78-34.01,4.71-50.96,1.03-9.03,7.26-12.65,18.61-9.66,22.32,5.88,44.52,12.46,62.74,27.68,7.9,6.6,15.36,13.74,23.24,20.36,11.42,9.6,24.94,10.65,39.06,9.15,18.6-1.97,37.19-4.15,55.85-5.48,6.84-.49,13.89,.85,20.75,1.96,9.67,1.57,13.4,6.2,13.65,15.86,.09,3.49,.01,6.99,.01,10.48-.1,0-.21,0-.31,0Zm-89.85,13.62c-.86-1.64-1.2-3.22-1.91-3.41-1.05-.28-2.57,.13-3.5,.79-1.02,.73-1.83,1.98-2.33,3.17-4.89,11.67-12.37,21.39-21.66,29.92-2.18,2-5.77,5.15-2.68,8.39,3.18,3.34,6.29-.18,9.09-2.05,.41-.27,.76-.65,1.07-1.04,4.98-6.37,10.46-12.43,14.76-19.23,3.2-5.07,4.87-11.1,7.15-16.54Z"/><path d="M320.62,312.46c26.97,2,54.97,3.61,82.86,6.33,16.23,1.59,32.33,4.75,48.42,7.6,30.5,5.39,59.27,15.3,84.71,33.56,.94,.68,2.02,1.16,2.98,1.81,9.26,6.28,10.46,10.6,4.72,20.24-7.29,12.25-15.37,24.05-22.37,36.46-5.44,9.65-10.54,19.64-14.34,30.01-3.81,10.41-7.07,11.03-15.4,10.67-22.99-.99-46.04-2.3-68.85-5.18-17-2.14-34.01-5.79-50.39-10.79-25.18-7.69-48.75-18.94-68.83-36.72-12.92-11.45-20.9-25.93-28.1-41.14-6.08-12.84-9.35-26.46-11.77-40.35-.92-5.25,.46-7.93,5.66-8.41,16.5-1.55,33.04-2.69,50.7-4.09Z"/><path d="M796.09,248.7c-.71,15.94-.94,31.92-2.23,47.81-2.15,26.47-6.41,52.5-17.7,76.98-7.84,17-20.99,28.34-36.89,37.06-16.07,8.81-33.53,14.1-50.96,19.31-15.38,4.59-30.92,8.71-46.5,12.57-11.07,2.74-22.31,4.79-33.51,6.93-4.79,.91-8.41-2.44-7.22-7.28,1.44-5.89,3.69-11.65,6.2-17.19,9.59-21.21,20.91-41.5,34.2-60.62,21.13-30.41,46.05-57.61,72.97-82.88,16.32-15.32,33.83-29.38,50.96-43.83,6.7-5.66,13.72-10.97,20.83-16.11,1.76-1.27,5.33-2.44,6.48-1.57,1.7,1.29,2.64,4.42,2.75,6.82,.34,7.31,.12,14.65,.12,21.98l.51,.02Z"/><path d="M525.2,458.54c-.83,0-1.67,0-2.5,0-8.38-.03-11.22-3.81-7.49-11.31,6.55-13.18,13.6-26.12,20.7-39.01,14.25-25.88,32.89-48.63,52.07-70.85,8.86-10.27,19.26-19.22,28.83-28.88,3.49-3.53,6.24-7.86,10-11.05,16.06-13.62,31.8-27.71,48.72-40.2,27.71-20.46,57.36-37.79,89.97-49.52,6.07-2.19,12.17-4.32,18.26-6.44,2.76-.96,6.18-1.88,7.24,1.51,.47,1.49-1.92,4.64-3.77,5.96-7.42,5.3-15.62,9.6-22.67,15.33-18.14,14.77-36.29,29.61-53.54,45.39-14.18,12.96-27.67,26.81-40.42,41.19-16.06,18.11-31.89,36.59-43.42,58.09-8.92,16.64-17.4,33.53-25.55,50.57-2.45,5.12-3.57,11.02-4.49,16.7-1.92,11.88-6.2,17.08-17.97,18.35-17.94,1.94-35.96,3.19-53.94,4.73-.02-.18-.03-.37-.05-.55Z"/><path d="M889.01,669.14c-2.73,1.76-5.5,3.47-8.19,5.27-9.7,6.5-20.33,6.9-31.32,4.74-15.21-3-25.88-12.49-32.65-25.61-4.19-8.12-6.94-17.53-7.97-26.62-2.06-18.13,.09-35.99,9.7-52.14,9.79-16.44,24.07-25.68,43.5-25.12,12.88,.37,24.49,5.31,33.7,14.25,7.01,6.81,11.87,15.49,13.43,25.33,1.36,8.59,2.3,17.32,2.51,26.02,.39,15.98,.54,32-.05,47.97-.35,9.29-1.23,18.84-3.85,27.69-4.85,16.42-15.08,29.11-32.25,33.6-7.91,2.07-16.91,3.09-24.51-2.02-2.15-1.45-3.83-4.86-4.09-7.54-.3-3.07,1.43-6.13,5.4-6.5,3.92-.37,7.87-1.3,11.75-1.04,11.35,.75,22.49-9.51,24.51-20.21,1.06-5.61,1.28-11.37,1.88-17.06-.5-.34-1-.68-1.5-1.02Zm1.71-53.73l-.68-.05c0-5.5,.03-11,0-16.49-.05-8.14-3.09-15.29-8.6-20.96-8.45-8.69-19.03-10.74-30.32-6.91-4.01,1.36-8.13,3.98-10.85,7.18-6.11,7.18-8.86,16.29-9.6,25.42-1.14,13.98-1.55,28.2,5.11,41.27,3.26,6.38,7.47,12.43,14.78,14.47,18.32,5.11,32.44-2.6,37.87-19.83,2.37-7.52,1.63-16.03,2.3-24.09Z"/><path d="M790.21,569.35c0,18.15,.04,36.3-.01,54.45-.03,11.17-2.17,21.84-7.56,31.77-6.6,12.15-17.02,19.59-30,22.96-12.93,3.36-25.68,2.64-37.74-4.46-10.32-6.07-16.69-15.18-21.57-25.57-6.35-13.5-7.47-27.97-6.31-42.55,1.63-20.5,9.19-38.41,27.4-49.4,15.82-9.55,34.7-9.78,50.44,2.85,1.02,.82,2.56,1.01,3.86,1.49,.33-1.2,.95-2.4,.96-3.6,.07-15.49,0-30.97,.09-46.46,.01-2.09,.73-4.16,1.02-6.26,.67-4.98,4.28-7.27,8.51-7.49,4.57-.23,8,2.77,9.6,7.08,.89,2.41,1.26,5.14,1.27,7.73,.1,19.15,.06,38.3,.06,57.45Zm-19.82,46.14c-.68-7.3-.99-14.58-2.11-21.73-2.26-14.45-15.92-26.33-33.39-23.95-11.78,1.6-17.76,9.03-22.02,18.67-5.47,12.37-4.66,25.65-3.76,38.62,.6,8.65,3.54,17.16,9.15,24.11,8.56,10.61,20.21,11.54,32.03,7.9,10.08-3.1,15.48-11.73,17.81-21.51,1.7-7.14,1.58-14.7,2.28-22.1Z"/><path d="M951.07,624.41c1.47,21.68,15.31,36.63,37.1,36.19,4.1-.08,8.2-.62,12.27-1.1,5.07-.6,9.86,2.15,11.19,6.62,1.31,4.39-.62,7.96-5.98,10.38-9.99,4.51-20.32,4.28-30.98,2.66-10.54-1.6-19.53-6.13-26.92-13.33-9.06-8.83-13.69-20.25-16.47-32.5-4.57-20.1-1.89-39.26,8.07-57.12,7.69-13.8,19.04-22.89,35.3-25.7,15.84-2.74,29.07,2.37,40.38,12.4,9.72,8.62,14.65,20.44,17.18,33.17,.82,4.12,2.35,8.19,2.52,12.32,.37,9.24-6.56,15.97-15.95,16-20.48,.06-40.96,.02-61.43,.02-1.97,0-3.94,0-6.28,0Zm61.41-18.19c-1.74-6.47-2.89-12.22-4.85-17.68-4.11-11.47-13.55-20.45-26.99-19.8-11.09,.54-18.41,6.58-23.38,15.75-3.58,6.61-6.18,13.68-4.97,21.73h60.19Z"/><path d="M411.48,624.41c1.93,21.83,15.18,36.69,37.67,36.2,3.77-.08,7.55-.5,11.28-1.07,4.77-.73,10.12,1.77,11.38,5.62,1.62,4.95-.71,9.68-6.32,11.73-9.95,3.62-20.04,4.07-30.58,2.19-10.44-1.86-19.32-6.08-26.86-13.29-8.74-8.37-13.48-19.03-15.95-30.57-1.61-7.51-2.96-15.38-2.5-22.98,1.21-20.08,7.24-38.61,23.34-51.96,10.19-8.45,22.08-11.88,35.76-9.91,10.6,1.53,19.73,5.71,27.06,12.8,7.95,7.7,13.35,17.48,15.72,28.52,1.16,5.42,1.74,10.96,2.57,16.45,1.49,9.83-5.63,16.29-16.31,16.28-19.98-.04-39.96,0-59.94,0-1.97,0-3.93,0-6.31,0Zm60.89-17.94c-.6-3.32-.93-5.87-1.53-8.36-2.2-9.11-5.76-17.18-13.03-23.88-9.23-8.51-26.53-5.98-34.16,2.07-5.98,6.31-9.02,13.79-10.85,21.78-1.82,7.95-1.04,8.4,7.06,8.4,1.33,0,2.66,0,4,0h48.51Z"/><path d="M670.86,615.99c-.66,16.17-4.56,31.03-13.68,44.36-6.42,9.4-15.43,15.3-26.23,18.27-14.33,3.94-28.17,1.48-40.19-6.66-9.97-6.75-17.23-16.5-20.25-28.51-1.87-7.43-3.05-15.08-3.89-22.7-2.03-18.45,2.29-35.61,13.03-50.63,7.55-10.56,17.66-17.59,31.27-19.65,17.49-2.65,31.26,3.55,42.76,15.78,7.3,7.77,11.52,17.51,13.71,27.92,1.51,7.2,2.34,14.55,3.47,21.83Zm-83.73-1.41c-.4,13.35,2.04,25.19,9.15,35.9,8.4,12.66,30.28,14.27,40.37,2.53,7.55-8.8,11.06-19.92,11.18-31.45,.1-9.14-.98-18.4-2.57-27.42-1.84-10.45-11.84-24-23.78-24.45-13.61-.5-21.02,2.93-27.28,13.81-5.6,9.74-7.68,20.54-7.08,31.07Z"/><path d="M250.33,599.3c2.28-15.73-4.05-25.29-18.33-27.76-7.26-1.26-14.79-1.11-22.2-1.33-6.66-.2-9.93-2.25-10.67-7.26-.73-4.98,2.21-8.95,7.92-10.92,10.66-3.67,21.28-2.9,31.95,0,11.73,3.17,21.47,9.41,27.17,20.15,2.96,5.58,4.84,12.3,5.15,18.61,.73,15.29,.05,30.64,.31,45.96,.34,19.4-10.88,34.62-28.71,40.26-18.07,5.71-35.48,4.46-51.56-6.05-9.42-6.16-14.05-15.88-15.21-26.6-1.22-11.31-1.26-22.9,5.01-33.25,6.53-10.76,15.94-16.9,28.51-19.1,9.69-1.69,19.01-1.34,28.21,1.6,4.12,1.32,7.94,3.6,12.44,5.7Zm.67,36.78c0-1-.07-2,.01-2.99,1.23-14.18-4.96-20.31-17.37-23.45-7.01-1.77-14.93-1.28-22.21-.22-7.42,1.07-12.52,6.13-14.34,13.84-1.79,7.61-1.96,15.31-.03,22.82,2.29,8.88,8.23,14.49,17.42,15.94,5.01,.79,10.29,1.87,15.14,1.02,5.25-.91,10.67-3.13,15.06-6.16,7.16-4.97,6.76-13.06,6.31-20.79Z"/><path d="M77.34,514.52c0,2.93,0,5.06,0,7.19,0,46.96,.03,93.92-.06,140.88,0,3.42-.55,6.91-1.37,10.23-1.17,4.71-6.12,7.92-10.53,7.3-4.21-.59-8.23-5.12-8.48-9.65-.09-1.66-.03-3.33-.03-4.99,0-48.12,0-96.25,0-144.37v-6.34c-2.21-.1-3.97-.24-5.74-.25-12.66-.03-25.31-.13-37.97,.03-5.05,.06-8.78-2.47-12.25-5.48-2.3-2,.02-8.04,4.11-9.96,2.9-1.36,6.25-2.46,9.4-2.48,34.3-.17,68.61-.14,102.91-.05,2.91,0,5.94,.52,8.7,1.44,4.01,1.33,6.79,4.08,6.36,8.75-.44,4.85-4.01,7.62-10.34,7.69-12.82,.15-25.64,.05-38.47,.06-1.81,0-3.62,0-6.25,0Z"/><path d="M333.17,680.13c-4.41,.25-7.87-1.3-9.44-5.62-5.09-13.99-10.21-27.98-15.06-42.06-7.72-22.39-15.3-44.83-22.83-67.29-2.47-7.37-.34-12.48,5.63-14.48,5.01-1.68,11.19,2.12,13.45,8.42,3.08,8.59,6.08,17.22,9.07,25.84,5.72,16.5,11.37,33.01,17.17,49.48,.42,1.19,1.83,2.03,2.78,3.03,.79-.98,1.94-1.83,2.33-2.95,7.35-21.48,14.54-43.02,21.94-64.48,1.74-5.05,3.84-10.04,6.38-14.74,2.5-4.65,7.29-6.2,11.05-4.37,4.93,2.39,7.09,7.3,5.29,12.52-8.66,25.15-17.39,50.28-26.06,75.43-3.67,10.64-7.27,21.3-10.85,31.97-1.81,5.39-6.29,9.3-10.87,9.32Z"/><path d="M532.95,570.63c0,20.16-.31,40.33,.17,60.48,.16,6.75,1.94,13.56,3.72,20.14,1.78,6.61,7.58,8.3,13.62,9.46,4.76,.92,9.64,1.89,14.03,3.82,2.06,.9,4.36,4.16,4.28,6.27-.08,2.37-2.19,5.68-4.34,6.79-10.49,5.4-21.29,3.06-30.84-1.92-11.71-6.1-17.14-17.18-18.79-30.2-3.25-25.6-2.33-51.32-2.45-77.02-.08-17.66-.07-35.32,.06-52.98,.02-3.42,.51-6.9,1.27-10.24,1.09-4.76,6.36-8.58,10.42-8.01,4.95,.69,8.82,5.36,8.83,10.92,.04,20.83,.02,41.65,.02,62.48Z"/><path d="M109.96,627.99c0-12.98-.41-25.99,.18-38.94,.28-6.1,1.82-12.36,3.97-18.1,3.94-10.52,12.53-16.4,23.11-18.73,7.48-1.65,15.29-2.6,22.92-2.42,5.3,.12,10.86,2.03,15.72,4.35,5.5,2.63,6.45,6.62,4.24,11.28-1.97,4.16-6.41,4.8-11.9,4.29-7.94-.74-16.16-.91-24,.33-10.58,1.68-13.33,9.69-13.49,18.51-.45,24.79-.21,49.6-.39,74.4-.03,3.41-.6,6.91-1.52,10.2-1.27,4.57-5.98,7.5-10.25,6.96-4.61-.58-8.56-5.46-8.6-11.17-.11-13.65-.04-27.3-.04-40.95h.05Z"/></g></g></svg>