<?xml version="1.0" encoding="UTF-8"?><svg id="Layer_2" xmlns="http://www.w3.org/2000/svg" viewBox="0 0 890.25 499.58"><g id="Layer_1-2"><g><path d="M524.48,73.75c-.7-.26-1.19-.52-1.71-.63-5.06-1.05-7.57-4.52-8.48-9.26-.54-2.84-.51-5.76,.28-8.63,.91-3.34,3.19-5.77,5.54-8.04,4.22-4.09,9.54-5.81,15.26-6.66,5.78-.86,11.41-.2,17,1.22,1.14,.29,2.3,.5,3.45,.75,4.87,1.05,9.07,3.3,12.77,6.67,7.42,6.77,12.77,15,17.34,23.85,4.46,8.64,6.99,17.82,7.77,27.44,.9,11,2.23,21.99,1.93,33.07-.49,18.19-2.8,36.08-8.14,53.54-4.52,14.8-11.36,28.53-18.75,42.04-1.35,2.47-2.58,5-3.94,7.46-.52,.94-1.25,1.76-1.91,2.66-1.89-.71-2.91-2.14-4-3.43-2.23-2.63-4.27-5.43-6.53-8.03-5.28-6.1-9.13-13.11-13.09-20.06-.27-.47-.57-.91-.89-1.43-1.89,.29-3.21,1.19-4.09,2.83-1.44,2.7-1.84,5.59-.95,8.44,1.91,6.13,3.81,12.29,6.21,18.24,1.93,4.78,4.6,9.26,6.89,13.89,1.11,2.25,2.16,4.53,3.08,6.86,.24,.62,.19,1.75-.21,2.12-.43,.39-1.53,.38-2.16,.11-1.36-.58-2.6-1.43-3.88-2.19-5.77-3.38-10.28-8.19-14.67-13.11-8.32-9.32-14.26-20.23-20.55-30.9-2.39-4.05-4.38-8.33-6.55-12.5-.29-.56-.53-1.15-.87-1.67-.69-1.07-1.2-1.15-2.35-.5-2.07,1.16-3.11,2.93-3.5,5.27-.53,3.18-.17,6.22,.73,9.27,4.41,14.99,10.42,29.25,19.25,42.22,4.37,6.42,8.86,12.75,13.27,19.14,.52,.76,.9,1.63,1.45,2.64-1.02,.93-1.91,1.91-2.96,2.68-5.06,3.71-10.15,7.37-15.26,11.02-10.74,7.68-22.02,14.47-33.8,20.44-8.4,4.25-16.84,8.44-25.73,11.6-9.15,3.25-6.81,2.96-14.63,.24-10.09-3.51-19.69-8.19-29.11-13.23-4.84-2.59-9.71-5.13-14.51-7.79-7.57-4.19-14.51-9.31-21.38-14.56-3.42-2.62-6.99-5.05-10.49-7.56-.13-.09-.27-.16-.4-.25-2.95-2.25-2.99-2.95-.83-5.58,2.63-3.21,4.96-6.67,7.27-10.13,3.4-5.09,6.71-10.23,9.97-15.4,5.33-8.49,9.1-17.7,12.38-27.12,1.29-3.69,2.34-7.48,3.26-11.29,.69-2.86,.34-5.75-.5-8.6-.61-2.05-2.19-2.77-3.97-3.22-.37-.09-1.05,.29-1.31,.66-.5,.69-.85,1.5-1.2,2.28-4.21,9.3-8.76,18.42-14.69,26.78-5.67,8-11.31,16.05-18.53,22.76-2.92,2.71-6.18,5.06-9.35,7.48-.78,.6-1.8,.98-2.77,1.23-.97,.25-1.58-.3-1.43-1.29,.15-.99,.46-2,.9-2.9,1.19-2.38,2.41-4.76,3.77-7.05,3.57-6.05,6.44-12.43,8.36-19.14,1.35-4.72,2.48-9.55,2.44-14.57-.04-3.95-2.26-6.47-5.23-9.04-.52,.84-.94,1.46-1.3,2.12-1.2,2.2-2.22,4.52-3.6,6.61-1.46,2.21-3.24,4.2-4.88,6.28-.29,.37-.63,.69-.93,1.06-3.65,4.61-7.29,9.22-10.92,13.85-.53,.68-.94,1.45-1.49,2.12-.63,.77-1.34,1.47-2.51,2.72-.39-.73-.64-1.2-.9-1.68-6.22-11.43-13.22-22.44-18.05-34.6-5.88-14.79-9.98-30.02-12.01-45.84-1.5-11.72-1.59-23.47-1.21-35.21,.33-10.41,1.35-20.79,4.02-30.94,2.63-10.01,6.45-19.51,11.77-28.38,5.23-8.71,12.14-15.59,21.88-19.12,5.99-2.17,12.12-3.9,18.58-3.69,7.56,.24,14.51,2.31,20.52,7.12,5.3,4.24,7.09,13.73,3.46,19.48-.81,1.28-2.07,2.34-3.29,3.26-1.48,1.12-3.15,1.99-4.99,3.13,1.23,1.8,2.29,3.4,3.39,4.98,1.76,2.52,4.16,4.22,6.96,5.4,3.74,1.58,7.62,2.38,11.69,2.28,2.74-.06,5.49-.02,8.24-.02,7.61,0,13.56-3.38,18.28-9.12,3.26-3.97,5.12-8.66,6.03-13.64,1.01-5.54,1.78-11.14,2.34-16.74,.42-4.19-1.1-8.06-3.19-11.62-1.7-2.88-4.45-4.69-7.44-5.92-5.51-2.25-11.23-3.65-17.22-2.29-1.72,.39-3.37,1.17-4.96,1.96-1.27,.63-1.51,.73-2.32-.39-1.04-1.45-1.56-3.01-1.24-4.86,.72-4.24,2.91-7.64,6.09-10.33,4.8-4.06,10.35-6.33,16.73-6.7,3.59-.21,7.13-1.02,10.76-.93,.65,.02,1.54-.51,1.93-1.06,1.77-2.54,4.33-3.74,7.21-3.9,5.08-.28,10.19-.62,15.24,.41,.69,.14,1.39,.28,2.05,.53,3.51,1.34,7.15,2.44,10.47,4.15,5.12,2.64,9.34,6.3,11.17,12.11,1.46,4.66,2.6,9.37,2.79,14.27,.17,4.46,.24,8.93,.48,13.38,.44,7.95,1.41,15.86,4.96,23.08,4.12,8.38,10.3,14.84,19.97,16.26,7.91,1.16,15.81,.61,23.13-3.35,3.08-1.67,5.29-4.08,7.06-7.38Z"/><path d="M619.34,352.88c.55-.05,1.22-.18,1.89-.18,8.32-.01,16.64-.02,24.95,0,2.37,0,2.53,.17,3.17,2.57,5.95,22.2,11.84,44.41,17.87,66.59,3.67,13.47,7.38,26.93,11.42,40.29,2.77,9.16,6.17,18.13,11.56,26.17,1.18,1.75,2.58,3.35,3.88,5.02,.27,.35,.53,.72,.97,1.33-.88,.24-1.52,.53-2.17,.58-2.73,.22-5.47,.4-8.21,.53-3.99,.19-7.98,.37-11.98,.44-1.48,.03-2.96-.22-4.43-.42-2.48-.35-4.44-1.65-5.76-3.7-1.14-1.77-2.18-3.65-2.95-5.61-4.15-10.61-7.1-21.6-9.89-32.63-.23-.91-.49-1.82-.77-2.71-.06-.21-.27-.37-.57-.78-.88,.24-1.84,.46-2.78,.77-4.96,1.6-10.06,2.55-15.24,2.74-8.69,.32-17.4,.36-26.1,.52-.78,.01-1.57,.05-2.35,0-1.61-.11-2.67,.57-3.35,2.03-1.85,3.98-3.83,7.9-5.61,11.91-1.46,3.3-2.73,6.68-4.02,10.05-1.62,4.25-2.1,8.67-1.84,13.19,.04,.77,0,1.54,0,2.39-.54,.15-.97,.38-1.41,.38-31.76,.02-63.53,.02-95.43,.02,.03-.52-.05-.87,.08-1.09,2.64-4.4,3.73-9.32,4.46-14.29,.98-6.66,1.76-13.36,2.44-20.06,.61-6,.98-12.02,1.42-18.03,.65-8.75,1.29-17.49,1.9-26.24,.49-7.11,.98-14.22,1.37-21.33,.26-4.85,.08-9.73,.57-14.56,.64-6.32-.08-12.51-1.05-18.7-.34-2.13-1.16-4.19-1.82-6.47,.37-.1,.86-.34,1.35-.34,11.22-.02,22.44-.02,33.66,0,.3,0,.6,.1,1.12,.2-.3,.57-.51,1.03-.77,1.46-1.83,3.01-2.74,6.37-3.28,9.76-.98,6.19-1.81,12.4-2.49,18.63-.73,6.69-1.22,13.41-1.79,20.12-.21,2.5-.37,5-.52,7.5-.35,5.86-.64,11.73-1.05,17.59-.35,5.08-.83,10.14-1.25,15.22-.18,2.19-.43,4.37-.5,6.56-.23,6.42-.47,12.84-.54,19.27-.04,3.81,1.96,5.97,5.77,5.99,8.77,.03,17.57,.57,26.3-.88,5.46-.9,10.34-3.1,14.88-6.14,.62-.41,1.11-1.11,1.47-1.78,4.03-7.54,8.25-14.98,11.98-22.67,4.48-9.24,8.51-18.69,12.77-28.05,2.89-6.35,5.89-12.66,8.72-19.04,4.41-9.97,8.72-19.98,13.06-29.97,.25-.57,.39-1.19,.64-1.77,1.58-3.71,1.63-7.45,.21-11.22-.08-.21-.1-.46-.12-.69,0-.07,.05-.15,.17-.46Zm23.8,80.75c.01-2.14-12.55-46.61-13.7-48.26-1.95,4.3-3.84,8.5-5.77,12.69-4.99,10.81-10,21.61-14.97,32.43-.47,1.02-.76,2.13-1.14,3.21,2.76,.68,33.9,.55,35.59-.07Z"/><path d="M9.3,352.82c1.02-.05,1.79-.12,2.56-.12,19.22,.01,38.44-.06,57.66,.09,6.13,.05,12.17,1.1,17.88,3.56,8.1,3.48,12.34,9.83,13.67,18.33,.72,4.62,.6,9.22-.81,13.72-2.25,7.17-6.79,12.63-12.86,16.91-4.66,3.28-9.73,5.71-15.15,7.43-.5,.16-.99,.35-1.5,.87,.48,.11,.95,.26,1.43,.34,6.3,1.03,12.44,2.54,18.12,5.6,9.67,5.2,15.31,13.09,16.55,24.12,.85,7.59-.06,14.84-3.21,21.8-2.88,6.36-7.24,11.5-12.79,15.68-7.03,5.28-15,8.4-23.49,10.37-6.3,1.46-12.66,2.02-19.13,1.98-15.14-.09-30.28-.03-45.42-.03-.91,0-1.82-.06-2.81-.09,.08-.49,.06-.75,.16-.93,3.1-5.27,4.16-11.15,4.88-17.07,.81-6.68,1.4-13.39,1.96-20.1,.56-6.71,.93-13.43,1.44-20.15,.56-7.34,1.24-14.66,1.75-22,.44-6.17,.67-12.35,1.08-18.53,.59-8.84,1.05-17.68,.8-26.53-.1-3.58-.72-7.16-1.27-10.71-.22-1.43-.91-2.79-1.5-4.54Zm37.23,123c5.67,.06,11.12-.92,16.37-2.96,5.85-2.28,10.37-6.06,13.07-11.85,2.34-5.03,2.52-10.3,1.84-15.66-.35-2.74-1.2-5.34-2.6-7.75-2.75-4.73-7.02-7.49-12.02-9.29-8.54-3.08-17.43-2.66-26.28-2.59-1.2,0-1.61,.73-1.68,1.82-.12,1.95-.34,3.9-.44,5.85-.21,3.83-.35,7.66-.56,11.49-.15,2.81-.4,5.62-.55,8.43-.3,5.78-.56,11.57-.85,17.35-.07,1.42,.46,2.45,1.8,2.97,1.31,.51,2.6,1.19,3.97,1.4,2.62,.41,5.28,.53,7.93,.78Zm2.35-107.23c-2.03,.11-4.08,.11-6.09,.36-2.18,.27-2.45,.62-2.75,2.8-.37,2.63-.74,5.27-.99,7.92-.81,8.72-1.57,17.45-2.34,26.17-.17,1.92,.23,2.46,2.18,2.41,3.52-.08,7.06-.11,10.54-.54,5.99-.74,11.56-2.76,16.53-6.29,6.21-4.41,9.43-13.46,7.18-20.69-1.77-5.68-6.06-8.78-11.49-10.48-4.14-1.29-8.43-1.75-12.77-1.68Z"/><path d="M318.51,423.11c1.87,2.39,3.61,4.5,5.23,6.69,12.41,16.77,24.76,33.59,37.22,50.32,3.37,4.52,7.03,8.83,10.61,13.19,.79,.96,1.81,1.73,2.74,2.57,.68,.61,1.39,1.2,2.4,2.06-1.46,.25-2.5,.53-3.56,.6-3.28,.22-6.57,.37-9.86,.55-2.35,.13-4.69,.27-7.04,.4-4.01,.23-8,0-11.96-.61-3.74-.57-6.44-2.79-8.55-5.75-6.64-9.33-13.22-18.7-19.83-28.05-6.34-8.97-12.67-17.94-19.06-26.87-1.23-1.71-2.7-3.26-4.12-4.82-1.2-1.32-2.8-2.01-4.52-2.36-1.7-.35-2.36,.15-2.47,1.86-.2,3.05-.35,6.1-.51,9.15-.31,6.1-.75,12.2-.87,18.3-.15,7.61-.17,15.22,.01,22.83,.08,3.34,.7,6.69,2.28,9.53-.15,.33-.17,.41-.22,.47-.05,.06-.13,.13-.19,.13-10.9,.06-21.8,.12-32.7,.17-.7,0-1.41-.04-2.11-.09-.12,0-.23-.18-.43-.34,4.25-6.25,4.89-13.59,5.89-20.76,1.03-7.36,1.66-14.79,2.35-22.2,.47-5.07,.7-10.16,1.08-15.23,.4-5.39,.88-10.77,1.28-16.15,.39-5.23,.73-10.47,1.06-15.71,.33-5.31,.69-10.63,.9-15.95,.24-6.11,.46-12.22,.42-18.33-.02-3.35-.47-6.72-.98-10.04-.29-1.89-1.07-3.71-1.71-5.84,.81-.05,1.55-.14,2.3-.14,17.97,0,35.94-.1,53.91,.11,6.52,.07,12.98,1.19,19,3.94,6.71,3.07,11.47,8.03,13.38,15.21,3.35,12.61,1.59,24.45-6.4,34.98-3.89,5.13-8.98,8.97-14.77,11.8-2.74,1.34-5.61,2.44-8.41,3.64-.5,.21-1,.41-1.79,.74Zm-17.09-54.61c-2.68,.21-5.02,.39-7.36,.56-1.4,.11-2.07,.89-2.22,2.27-.3,2.8-.71,5.59-.96,8.4-.4,4.68-.69,9.37-1.05,14.05-.41,5.23-.88,10.45-1.26,15.68-.19,2.68,.26,3.25,2.9,3.42,6.86,.45,13.47-.51,19.56-3.89,2.61-1.45,4.95-3.24,6.87-5.62,3.8-4.71,5.56-10.15,5.9-16.07,.54-9.52-5.07-16.49-14.51-18.04-2.69-.44-5.45-.53-7.86-.75Z"/><path d="M167.05,352.82c1.04-.05,1.81-.12,2.58-.12,8,0,16-.01,24,0,2.88,0,2.9,.01,3.66,2.83,4.03,14.83,8.06,29.66,12.07,44.5,3.81,14.08,7.45,28.2,11.43,42.23,3.17,11.16,6.54,22.28,11.02,33.01,2.54,6.09,5.39,12.02,9.88,16.99,.45,.5,.74,1.12,1.25,1.9-1.63,.23-2.99,.51-4.37,.61-3.59,.24-7.19,.47-10.79,.56-3.04,.08-6.07,.21-9.13,.12-4.43-.14-7.61-1.99-9.41-5.85-1.85-3.97-3.54-8.05-4.82-12.23-2.58-8.39-4.82-16.88-7.22-25.33-.21-.73-.52-1.42-.84-2.3-1.56,.41-2.92,.73-4.25,1.13-5.45,1.61-11.03,2.41-16.69,2.57-8.46,.25-16.92,.36-25.39,.46-1.62,.02-2.89,.31-3.68,1.9-4.01,8.08-7.74,16.28-10.41,24.93-1,3.22-.97,6.49-.94,9.78,0,.85,0,1.7,0,2.5-1.83,.56-29.17,.68-31.94,.14,.3-.49,.52-.96,.84-1.34,6.15-7.4,11.07-15.6,15.5-24.09,5.15-9.87,10.23-19.79,15.09-29.8,3.87-7.96,7.39-16.1,11.05-24.17,3.21-7.07,6.47-14.11,9.59-21.22,3.93-8.97,7.75-18,11.6-27.01,1.6-3.75,1.84-7.58,.52-11.47-.1-.28-.1-.59-.21-1.24Zm24.34,80.72c-4.44-15.81-8.83-31.48-13.24-47.15-.07-.25-.35-.45-.77-.98-3.79,8.18-7.55,16.06-11.11,24.03-3.59,8.03-7.5,15.93-10.91,24.06,2.15,.8,33.45,.86,36.04,.03Z"/><path d="M886.49,384.52c-.6-.75-1.04-1.25-1.43-1.8-6.44-9.06-15.17-14.42-26.19-15.76-5.83-.71-11.62-.11-17.02,2.48-4.9,2.35-7.9,6.19-9.02,11.6-1.16,5.63,.79,10.11,4.52,14.14,5.13,5.54,11.46,9.49,17.7,13.55,6.31,4.11,12.76,8.02,18.51,12.92,6.47,5.52,11.93,11.87,14.45,20.2,3.74,12.39,1.77,23.91-5.89,34.34-3.52,4.79-8.09,8.51-13.24,11.46-8.43,4.84-17.54,7.4-27.23,8.25-10.52,.92-20.82-.12-30.99-2.7-4.17-1.06-8.26-2.45-12.35-3.81-2.15-.72-2.24-.98-2.14-3.29,.1-2.27,.29-4.53,.47-6.8,.42-5.31,.88-10.61,1.28-15.92,.22-2.87,.34-5.75,.51-8.63,.18-.06,.35-.11,.53-.17,.55,.9,1.12,1.78,1.64,2.69,5.18,9.13,12.4,16.05,22.44,19.41,9.65,3.22,19.46,3.66,28.87-1,10.5-5.21,13.41-17.96,6.52-27.43-2.77-3.81-6.35-6.72-10.2-9.31-3.84-2.58-7.81-4.96-11.71-7.46-6.87-4.42-13.62-9.02-19.41-14.82-3.83-3.84-7.03-8.18-9.13-13.29-2.39-5.83-2.81-11.89-2.33-18.03,.49-6.27,2.4-12.14,5.92-17.41,3.24-4.86,7.59-8.54,12.67-11.36,6.04-3.36,12.61-5.14,19.4-6.17,5.75-.87,11.55-1.22,17.35-.9,5.55,.31,11.08,.99,16.61,1.49,3.35,.3,6.71,.59,10.06,.87,2.45,.2,2.78,.53,2.51,2.83-1.09,9.65-2.2,19.3-3.31,28.95-.02,.15-.12,.28-.38,.89Z"/><path d="M478,459.72c-.12,.52-.19,1.06-.38,1.56-2.9,7.79-6.76,14.97-12.74,20.92-6.72,6.69-14.75,10.78-23.98,12.65-5.48,1.11-11.02,1.69-16.6,1.36-12.08-.71-22.98-4.51-32.32-12.45-8.12-6.9-13.53-15.56-17.15-25.44-3.53-9.63-4.71-19.62-4.4-29.83,.46-15.09,3.35-29.59,10.32-43.09,6.12-11.85,14.8-21.31,26.55-27.85,8.29-4.61,17.15-7.37,26.57-8.12,5.69-.45,11.44-.56,17.14-.39,4.68,.14,9.35,.97,14.02,1.44,3.19,.32,6.39,.61,9.59,.81,2.58,.16,2.66,.24,2.39,2.72-.72,6.85-1.39,13.71-2.09,20.57-.33,3.27-.65,6.55-1.01,9.82-.06,.51-.31,.99-.62,1.92-.65-1.03-1.11-1.72-1.54-2.43-5.58-9.18-13.4-15.37-24.12-17.18-13.7-2.31-25.21,1.71-34.11,12.62-5.83,7.15-9.22,15.45-11.43,24.28-2.05,8.17-3.11,16.5-2.86,24.92,.27,9.08,1.72,17.94,6.15,26.08,6.31,11.59,15.84,18.28,29.11,19.61,10.87,1.08,20.83-1.62,30.2-6.9,3.75-2.12,7.33-4.53,10.99-6.81,.64-.4,1.3-.78,1.95-1.17,.12,.12,.24,.24,.36,.36Z"/><path d="M751.73,493.33h-35.94c-.03-.36-.15-.63-.06-.8,3.02-5.82,4.05-12.19,5.01-18.54,.96-6.35,1.76-12.73,2.25-19.13,.47-6.09,.49-12.21,.59-18.32,.02-1.3-.38-2.64-.75-3.91-3.86-13.12-8.82-25.81-14.56-38.22-4.91-10.63-10.36-20.95-16.69-30.79-2.54-3.95-5.12-7.92-8.93-10.85-.16-.12-.2-.38-.33-.64,.25-.12,.44-.28,.65-.29,3.13-.2,6.25-.42,9.38-.54,4.85-.2,9.71-.34,14.57-.49,.94-.03,1.88,0,2.82,.06,3.86,.2,7.06,1.76,9.05,5.09,1.96,3.29,3.82,6.68,5.32,10.2,5.43,12.78,10.69,25.62,15.99,38.45,.81,1.96,1.47,3.97,2.22,5.95,.19,.5,.45,.96,.84,1.79,.6-.7,1.09-1.15,1.44-1.69,5.29-8.25,10.59-16.5,15.84-24.78,2.35-3.71,4.66-7.45,6.91-11.22,1.89-3.17,3.56-6.45,4.33-10.12,.81-3.87,.43-7.63-.87-11.19,.1-.22,.12-.3,.17-.36,.05-.06,.12-.13,.19-.14,.46-.06,.93-.15,1.39-.14,10.91,0,21.81,.03,32.72,.06,.12,0,.24,.15,.41,.27-.1,.19-.17,.42-.32,.56-5.96,5.33-10.54,11.81-15.13,18.26-10.28,14.46-19.75,29.44-28.93,44.6-2.03,3.35-3.84,6.83-5.74,10.26-2.62,4.73-4,9.83-4.66,15.19-1.11,9.11-2.04,18.22-1.95,27.41,.01,1.32-.38,2.65-.36,3.97,.07,4.86,.17,9.73,1.26,14.49,.41,1.81,1.17,3.53,1.86,5.56Z"/></g></g></svg>