<?xml version="1.0" encoding="UTF-8"?><svg id="Layer_2" xmlns="http://www.w3.org/2000/svg" viewBox="0 0 1322.33 604.4"><g id="Layer_1-2"><g><path d="M1322.33,409.83c-15.28-.04-30.56,.15-45.83-.25-6.04-.16-7.6,2.17-7.56,7.79,.21,24.65-.06,49.3,.18,73.95,.06,6.08-1.15,9.23-8.12,8.42-5.32-.62-10.78-.12-17.08-.12-.18-2.96-.48-5.65-.49-8.34-.04-24.65-.16-49.3,.08-73.95,.06-5.76-1.73-7.89-7.63-7.73-12.68,.35-25.39-.07-38.07,.18-4.97,.1-7.14-1.21-7.2-6.63-.16-13.39-.4-13.42,13.28-13.38,39.48,.1,78.97,.22,118.45,.33v19.74Z"/><path d="M877.65,604.4c-8.13-2.06-16.3-3.96-24.36-6.28-2.61-.75-4.9-2.62-8.04-4.36,2.35-2.92,4.35-5.4,5.01-6.23,12.25,2.16,23.11,4.38,34.07,5.81,3.24,.42,7.02-.88,10.07-2.38,1.96-.96,4.34-3.87,4.14-5.64-.19-1.72-3.29-4.14-5.37-4.43-7.88-1.11-15.89-1.23-23.8-2.22-4.6-.57-9.36-1.44-13.55-3.31-9.54-4.24-10.86-16.03-2.44-22.28,3.43-2.55,7.88-4.13,12.11-5.15,11.86-2.85,36.69-1.18,43.92,6.82-3.03,5.29-6,8.42-13.25,5-8.82-4.16-18.68-4.72-28.24-2.04-2.44,.68-4.28,3.48-6.39,5.31,2.15,1.5,4.17,4,6.49,4.33,7.64,1.1,15.41,1.33,23.11,2.07,3.02,.29,6.04,.82,8.97,1.58,6.6,1.72,11.54,5.26,12.32,12.65,.72,6.8-2.93,13.15-10.21,16.01-5.6,2.2-11.66,3.2-17.52,4.74h-7.06Z"/><path d="M545.91,604.4c-4.79-1.8-9.76-3.23-14.32-5.49-9.84-4.88-15.31-12.67-15.23-24.09,.08-11.18,5.78-18.78,15.24-23.43,14.32-7.05,29.07-6.96,43.45,0,9.9,4.79,15.62,12.96,15.46,24.09-.17,11.43-6.45,19.37-16.66,24.05-4.42,2.03-9.2,3.27-13.82,4.87h-14.12Zm7.9-48.28c-11.64-.08-20.72,4.93-23.61,13.04-2.63,7.39-.32,15.02,6.08,20.01,8.1,6.32,24.27,6.6,33.26,.58,6.57-4.4,9.48-12.3,7.24-19.67-2.55-8.41-11.55-13.87-22.97-13.96Z"/><path d="M809.76,0V8.76c0,93.5,0,187,0,280.49q0,9.04-9.31,9.06c-93.15,0-186.29,0-279.44,0-9.27,0-9.31-.02-9.31-9.27,0-93.26,0-186.53,0-279.79,0-9.24,.03-9.25,9.17-9.25C614.25,0,707.63,0,801.01,0c2.54,0,5.08,0,8.75,0Zm-112.56,209.9c8.77,4.86,18.29-3.06,27.03,1.51,6.87-6.68,17.88-2.83,24.75-9.48-.18-3.97-.36-7.65-.58-12.42,1.34-.88,3.97-2.61,6.47-4.25-3.52-8.9-10.53-4.04-16.24-6.41,4.78-1.05,9.56-2.09,15.14-3.31-1.83-3.02-3.29-5.43-5.16-8.52,2.52-.71,4.9-1.94,7.28-1.95,4.87-.02,8.97-1.47,8.65-6.66-.13-2.11-4.19-3.98-7.18-6.59-.09-2.57,.54-5.18,5.71-5.88,2.25-.3,4.47-4.74,5.57-7.72,.42-1.15-2.55-3.34-3.54-5.28-1.46-2.84-2.61-5.85-3.73-8.85-.55-1.46-.49-3.18-1.15-4.58-3.44-7.31-11.37-9.29-17.52-12.15-4.15-1.93-4-3.97-5.32-6.43q5.73-3.68,10.47-15.18c-4.11-3.59-8-6.99-13.13-11.47-2.72,.58-7.53,1.61-11.14,2.38-.72-3.86-1.26-6.8-1.69-9.11-5.39-.85-9.62-1.52-14.17-2.24,3.8-5.49,3.74-9.64-1.89-12.74-2.21-1.22-4.26-3.25-6.58-3.6-2.89-.44-7.47-.63-8.72,1.02-4.27,5.67-8.34,4.42-13.49,.41-1.42,3.24-2.58,5.89-2.97,6.79-2.2-1.29-4.68-2.65-7.05-4.17-1.77-1.14-3.48-2.39-5.04-3.79-.98-.87-1.56-2.94-2.47-3.04-6.03-.64-12.1-1.25-18.14-1.1-2.45,.06-4.88,3.08-7.27,3.02-10.87-.28-21.66,11-19.59,21.04-9.71-1.62-10.09-1.84-12.9,3.02-3.16,5.45-5.45,11.35,1.77,18.23-3.68-1.54-5.15-2.26-6.68-2.77-1.54-.52-3.22-.66-4.73-1.25-8.87-3.5-11.53-2.35-13.93,6-.23,.82-.96,1.52-1.54,2.2-4.03,4.75-8.09,9.48-11.65,13.65,4.43,5.09,7.62,8.77,10.63,12.22-6.24,1.46-12.24,2.87-16.79,3.94-2.31,4.79-4.04,8.36-5.94,12.3,2.26,.59,4.68,1.23,7.37,1.93-1.78,1.02-3.49,2-4.93,2.82,1.66,10.69,11.07,2.84,15.46,7.01,.53,.5,2.55-.48,3.84-.89,6.45-2.06,12.43-7.44,21.39-1.71-3.34,.74-5.42,1.32-7.54,1.65-1.58,.24-3.57-.42-4.76,.32-7.54,4.65-14.95,9.51-22.28,14.49-1.23,.84-1.81,2.62-2.69,3.97,1.46,.47,2.88,1.11,4.37,1.37,1.34,.23,2.75,.05,4.13,.05-9.5,.73-10.65,9.29-15.33,15.53,2.83,.82,4.91,1.43,6.49,1.88,.09,1.99,.16,3.48,.26,5.76,8.34-.81,16.08-1.57,23.82-2.32l-.13,1.37c-3.95,2.14-7.91,4.28-11.86,6.42-2.88,1.41-6.6,2.44-7.71,4.73-1.76,3.61,3.26,10.52,7.08,10.97,5.86,.69,11.75,1.16,17.59,1.98,5.91,.84,10.1-2.1,14.18-5.7,1.34-1.18,3.02-1.96,6.09-3.9-1.34,4.24-2.26,6.2-2.48,8.23-.11,1.07,1.23,3.31,1.57,3.25,4.43-.83,11.1-.64,12.69-3.35,3.06-5.2,4.76-5.09,8.82-1.88,1.4,1.11,3.88,.86,7.13,1.47,.39-5.43,.68-10.1,1.11-14.76,.07-.8,.57-1.81,1.2-2.24,1.27-.86,3.46-2.31,4.03-1.87,1.7,1.28,3.52,3.18,4,5.15,3.83,15.46,3.29,31.18,.99,46.7-.45,3.03-5.64,6.45-9.31,7.67-6.35,2.1-13.23,2.6-19.89,3.78,.08,.94,.16,1.89,.24,2.83,11.94-.74,23.89-1.45,35.83-2.24,4.78-.32,9.58-1.36,14.32-1.12,7.65,.37,15.27,1.53,22.9,2.35,.12-.82,.23-1.64,.35-2.46-4.22-.99-8.49-1.77-12.64-3-12.83-3.81-14.53-8.98-14.02-18.37,.33-6.05-.54-12.15-.47-18.23,.07-6.04,.11-12.16,1.18-18.06,.72-3.96,3.44-6.22,8.43-4.29,5.61,2.16,11.56,3.54,17.46,4.83,7.1,1.56,8.5,3.71,6.2,11.08Z"/><path d="M121.39,442.1c.83,1.05,1.04,1.51,1.4,1.75,11.26,7.37,17.27,17.14,13.83,30.96-3.6,14.47-14.52,20.66-27.93,23.33-5.71,1.13-11.66,1.39-17.5,1.42-27.5,.14-54.99,.06-82.49,.06-2.55,0-5.1,0-8.07,0-.23-2.27-.56-4.06-.56-5.86-.03-32.39,0-64.78-.06-97.17,0-3.85-.02-6.91,5.28-6.86,31.48,.3,62.99-.19,94.44,.9,13.9,.48,25.09,7.99,30.35,21.64,4.48,11.62,.79,21.55-8.68,29.82Zm-57.49,11.09h-19.02c-19.23,0-19.06,0-18.92,19.3,.04,5.17,1.57,6.93,6.83,6.86,20.19-.25,40.38-.03,60.57-.18,3.23-.02,7.03-.13,9.53-1.78,3.24-2.14,7.22-5.64,7.62-8.95,.44-3.67-1.86-8.79-4.7-11.42-2.72-2.52-7.62-3.47-11.63-3.67-10.07-.49-20.18-.16-30.28-.16Zm-1.33-20.48c10.35,0,20.7,.15,31.05-.05,6.66-.13,11.71-4.73,11.73-10.77,.03-6.17-3.28-10.17-9.47-11.29-2.98-.54-6.05-.84-9.09-.86-14.82-.09-29.64-.24-44.46,0-19.1,.32-15.92-3.89-16.3,17.76-.07,4.03,1.66,5.32,5.48,5.26,10.35-.14,20.7-.05,31.05-.06Z"/><path d="M645.8,499.32h-25.58c-.18-1.95-.53-3.95-.53-5.95-.03-32.18,.02-64.36-.08-96.53-.01-4.24,.27-7.2,5.81-7.14,30.33,.32,60.68-.32,90.98,.8,24.77,.92,38.93,20.74,33.62,44.91-2.68,12.21-11.32,18.98-23.91,23.32,9.15,13.58,17.92,26.62,27.5,40.84-9.89,0-18.48,.24-27.05-.19-1.76-.09-3.77-2.39-5.02-4.13-7.1-9.93-13.76-20.19-21.15-29.9-1.91-2.52-5.86-4.75-8.97-4.88-12.91-.54-25.86-.03-38.79-.32-5.16-.12-7.11,1.41-6.94,6.76,.35,10.53,.1,21.08,.1,32.41Zm.02-59.73c22.75,0,44.53,.39,66.28-.2,7.85-.21,13.09-6.87,13.39-13.98,.29-6.98-4.79-12.84-12.72-14.56-2.06-.45-4.17-.96-6.25-.97-18.55-.1-37.1-.23-55.64,.09-1.71,.03-4.7,3.01-4.82,4.78-.53,7.91-.23,15.88-.23,24.86Z"/><path d="M544.14,499.61c-9.29,0-16.84,.39-24.31-.2-2.74-.22-6.16-2.1-7.8-4.31-7.44-9.97-14.26-20.41-21.55-30.49-1.35-1.87-3.83-4.1-5.83-4.14-15.72-.34-31.44-.19-48.5-.19,0,10.17,0,19.72,0,29.26q-.01,10.07-9.76,10.07c-4.9,0-9.8,0-15.21,0-.24-2.54-.6-4.57-.61-6.59-.04-31.95,0-63.9-.05-95.86,0-3.97-.21-7.5,5.56-7.44,30.57,.32,61.17-.35,91.71,.87,25.08,1,39.61,23.83,31.95,47.71-3.48,10.83-11.82,16.49-23.21,20.38,9.25,13.7,18.06,26.76,27.63,40.93Zm-107.83-59.9c22.47,0,43.81,.34,65.12-.16,8.84-.21,14.14-6.48,14.28-14.46,.13-7.69-4.59-13.79-13.5-14.2-20.6-.95-41.26-.88-61.89-.95-1.33,0-3.77,2.34-3.83,3.68-.35,8.38-.18,16.79-.18,26.1Z"/><path d="M958.32,499.6c-8.48,0-15.72,.25-22.92-.18-1.79-.11-4.03-2.07-5.06-3.78-3.16-5.21-5.53-10.92-8.85-16.01-1.25-1.92-4.26-3.78-6.49-3.81-20.7-.29-41.4-.29-62.1,0-2.23,.03-4.45,2.36-6.63,3.69-.35,.21-.56,.77-.69,1.21-5.19,18.29-17.74,22.76-35.23,17.82,.33-.87,.71-2.36,1.41-3.69,17.48-32.97,35.07-65.88,52.42-98.92,2.37-4.52,5.14-6.62,10.38-6.27,8.42,.56,18.53-2.25,24.86,1.51,6.28,3.73,8.96,13.73,12.92,21.14,14.16,26.5,28.2,53.05,42.26,79.6,1.09,2.05,2.03,4.18,3.73,7.69Zm-74.55-90.88c-8.61,16.14-16.39,30.71-24.56,46.03h49.17c-8.27-15.48-16.01-29.96-24.6-46.03Z"/><path d="M343.58,499.59c-8.36,0-15.81,.12-23.25-.11-1.32-.04-2.7-1.38-3.87-2.35-.68-.56-1.2-1.52-1.43-2.4-4.5-17.39-16.37-20.98-32.79-19.38-14.22,1.39-28.68,.44-43.02,.19-4.13-.07-7.05,1.08-8.18,4.97-5.24,18.07-17.36,23.24-35.38,17.87,.63-1.42,1.38-3.47,2.4-5.38,17.18-32.33,34.49-64.6,51.48-97.03,2.41-4.6,5.15-6.63,10.34-6.31,8.42,.52,18.53-2.25,24.86,1.52,6.28,3.74,8.93,13.74,12.89,21.15,14.16,26.49,28.21,53.04,42.28,79.58,1.17,2.21,2.17,4.52,3.67,7.66Zm-98.98-44.92h49.11c-8.29-15.48-16.02-29.92-24.6-45.95-8.67,16.26-16.39,30.73-24.51,45.95Z"/><path d="M1073.43,499.36h-25.65c-.13-2.57-.36-5.05-.36-7.52-.03-24.88-.18-49.75,.1-74.62,.07-5.87-1.81-7.78-7.63-7.62-12.68,.34-25.38-.09-38.06,.2-5.06,.12-7.15-1.19-6.97-6.65,.47-15.02-1.6-13.33,13.04-13.36,35.95-.08,71.9-.03,107.85-.02q10.02,0,10.02,9.85c0,3,0,6,0,10.09h-34.23q-18.11,0-18.11,17.91v71.75Z"/><path d="M.41,578.26v-9.7H367.24v9.7H.41Z"/><path d="M1320.12,568.6v9.64h-363.99v-9.64h363.99Z"/><path d="M697.05,602.14v-36.72c-.56-.24-1.12-.49-1.68-.73-8.21,9.72-16.42,19.45-25.14,29.77-8.67-10.26-17.05-20.16-25.43-30.06-.51,.17-1.03,.33-1.54,.5v37.17h-11.86v-53.26c8.24-1.42,15.36-1.82,20.87,6.65,4.93,7.57,11.45,14.1,17.88,21.83,6.13-7.35,12.22-13.56,17-20.66,5.42-8.06,12.27-10.05,21.73-7.71v53.24h-11.84Z"/><path d="M765.68,557.52v12.08c8.59,0,16.95,.05,25.31-.03,3.49-.03,6.62-.21,6.5,4.84-.12,4.92-3.32,4.91-6.75,4.92-6.82,.02-13.64,.2-20.45,.01-5.4-.15-5.19,3.36-5.23,7.04-.05,3.64,.39,6.45,5.18,6.39,11.75-.14,23.52,.25,35.26-.1,6.68-.2,9.99,1.58,7.63,9.31h-60.26v-53.86c4.29,0,8.42,0,12.56,0,13.4,0,26.8,.05,40.2-.02,3.41-.02,6,.38,6,4.79,0,4.5-2.69,4.67-6.05,4.65-13.11-.07-26.22-.03-39.88-.03Z"/><path d="M422.67,548.83v18.86h40.41c.21-3.24,.55-6.42,.59-9.61,.13-10.92,.71-11.4,12.25-8.92v52.34c-11.67,2.69-12.16,2.28-12.24-9.19-.12-16.65,1.13-13.32-14.02-13.61-8.63-.17-17.27-.03-26.7-.03v22.62c-12.13,2.99-12.9,2.42-12.91-8.91-.01-11.26,0-22.51,0-33.77q0-11.35,12.61-9.78Z"/><path d="M644.88,175.75c-2.88-1.7-4.94-3.36-7.29-4.22-6.47-2.39-10.09-5.26-8.75-13.65,.73-4.58-3.8-10-5.86-14.81,9.22,2.1,23.25,22.06,21.9,32.68Z"/><path d="M664.74,178.29c1.87-5.54,3.32-11.9,6.24-17.5,1.3-2.49,5.43-4.21,8.57-4.82,2.97-.58,6.32,.75,9.5,1.25-3.04,7.52-11.63,14.88-24.31,21.07Z"/><path d="M691.69,173.87c-2.12,2.36-4.18,4.64-6.23,6.93,.66,.11,1.33,.23,1.99,.34-.29,2.59,.41,6.27-1.05,7.59-5.76,5.23-9.16-2.9-14.29-2.67,2.17-7.16,14.11-14.54,19.58-12.19Z"/><path d="M675.73,151.57c6.72-6.14,11.62-10.89,16.88-15.21,1.24-1.02,3.68-.57,5.56-.8-1.15,2.01-1.97,4.34-3.53,5.96-2.13,2.22-5.16,3.61-7.12,5.93-1.04,1.24-.65,3.69-1.05,6.69-2.23-.53-5.32-1.28-10.75-2.58Z"/><path d="M679.67,135.68c-6.65,8.81-13.3,17.62-19.99,26.48-.15-2.82-.34-6.55-.45-8.52,7.12-7.04,13.19-13.05,19.26-19.05,.39,.36,.79,.73,1.18,1.09Z"/><path d="M629.32,175.08c3.88,3.42,7.76,6.85,11.64,10.27-.33,.8-.65,1.6-.98,2.4h-18.65c1.63-4.72,13.62-2.6,5.99-11.14,.67-.51,1.34-1.02,2.01-1.53Z"/><path d="M735.05,142.41c.62,2.06,1.15,3.82,1.56,5.2-5.81,2.34-11.57,4.65-17.33,6.97-.22-.38-.43-.75-.65-1.13,1.71-1.07,3.42-2.13,5.14-3.2-1.89-6.1-.84-6.84,11.27-7.83Z"/><path d="M644.89,157.33c-8.98-5.16-3.26-13.85-8.2-21.22,10.02,5.69,11.11,8.96,8.2,21.22Z"/><path d="M622.5,162.5c-3.46-6.99-6.41-12.96-9.88-19.96,.8-.18,2.85-1.34,4.26-.81,2.99,1.12,7.38,15.6,5.62,20.77Z"/><path d="M734.26,113.31c-4.21,3.53-8.42,7.07-12.63,10.6-.58-.69-1.17-1.38-1.75-2.06,.93-7.55,7.82-7.94,13.33-9.99,.35,.48,.7,.97,1.05,1.45Z"/><path d="M652.28,138.22c-3.01-4.28-5.12-7.28-7.85-11.15,2.11-5.72,5.41,4.66,9.21,.3-.54,4.31-.85,6.75-1.37,10.85Z"/><path d="M604.57,120.16h-17.78c5.58-6.87,10.86-3.87,17.78,0Z"/><path d="M681.35,122.81c.66-3.71,1.33-7.41,2.21-12.38,2.2,1.55,5.15,3.16,4.99,3.59-1.27,3.34-3.13,6.46-4.81,9.65-.8-.29-1.59-.57-2.39-.86Z"/><path d="M690.51,165.89l13.29,2.48c-.15,1.11-.3,2.23-.46,3.34-4.48-.53-8.96-1.05-13.44-1.58,.2-1.41,.4-2.83,.6-4.24Z"/><path d="M624.28,118.71c1.35-2.88,2.4-5.13,3.46-7.38,2.13,2.23,4.27,4.46,6.4,6.69-.46,.52-.92,1.04-1.38,1.56-2.42-.25-4.83-.5-8.47-.87Z"/><path d="M674.57,82.49v-10.95c.76-.09,1.53-.17,2.29-.26,.38,3.62,.75,7.25,1.13,10.87-1.14,.11-2.28,.22-3.42,.34Z"/></g></g></svg>