<svg xmlns="http://www.w3.org/2000/svg" height="1em" viewBox="0 0 512 512"><!--! Font Awesome Pro 6.4.2 by @fontawesome - https://fontawesome.com License - https://fontawesome.com/license (Commercial License) Copyright 2023 Fonticons, Inc. --><path d="m340.1 480.9c0 8-6.2 15-14.3 15s-15-6.9-15-15 6.6-14.6 15-14.6 14.3 6.6 14.3 14.6zm37.3-14.6c-8 0-14.6 6.6-14.6 14.6s6.6 15 14.6 15 14.6-6.9 14.6-15-6.6-14.6-14.6-14.6zm51.9 0c-8 0-14.6 6.6-14.6 14.6s6.6 15 14.6 15 14.6-6.9 14.6-15-6.6-14.6-14.6-14.6zm-155.4 0c-8 0-14.6 6.6-14.6 14.6s6.6 15 14.6 15 14.6-6.9 14.6-15-6.6-14.6-14.6-14.6zm-207.4 0c-8 0-14.6 6.6-14.6 14.6s6.6 15 14.6 15 14.6-6.9 14.6-15-6.6-14.6-14.6-14.6zm51.9 0c-8.4 0-15 6.6-15 14.6s6.6 15 15 15 14.6-6.9 14.6-15-6.6-14.6-14.6-14.6zm103.5 0c-8 0-14.6 6.6-14.6 14.6s6.6 15 14.6 15 14.6-6.9 14.6-15-6.6-14.6-14.6-14.6zm248.7 4.4c-2.6 2.9-4 6.6-4 10.2c0 2.2 .4 4 1.1 5.9s1.8 3.3 2.9 4.8c2.9 2.6 6.6 4 10.6 4c3.7 0 7.3-1.5 10.2-4c1.5-1.5 2.6-2.9 3.3-4.8s1.1-3.7 1.1-5.9c0-3.7-1.8-7.3-4.4-10.2c-5.5-5.1-15-5.5-20.8 0zm10.6-211.7c-8 0-14.6 6.6-14.6 15s6.6 14.6 14.6 14.6 14.6-6.6 14.6-14.6-6.6-15-14.6-15zm0-103.5s0 0 0 0h-305L50.1 29.3h431.2s0 0 0 0c1.8 0 3.7-.4 5.5-1.1c2.2-1.1 4-2.6 5.5-4.4c1.1-1.1 1.8-2.2 2.6-3.7c.7-1.8 1.1-3.7 1.1-5.5s-.4-3.7-1.1-5.5s-1.8-3.7-3.3-5.1c0 0-.4 0-.7 0c-2.6-2.2-5.9-3.7-9.5-3.7H14.6c-1.8 0-3.7 .4-5.5 1.1c-3.7 1.5-6.6 4.4-8 8C.4 11 0 12.8 0 14.6v466.7H0s0 0 0 0c0 2.9 1.1 5.9 3.3 8.8c.4 .4 .7 1.1 1.1 1.5c0 0 0 0 0 0s.4 0 .7 .4c2.6 2.2 5.9 3.7 9.5 3.7c4 0 7.3-1.5 9.9-4c0 0 0 0 0 0s0 0 0 0c1.8-1.8 2.9-4 3.7-6.2c.4-1.5 .7-2.6 .7-4h0s0 0 0 0V50.1l126.2 126.2v304.3s0 0 0 .4c0 8 6.6 15 14.6 15c2.9 0 5.5-1.1 7.7-2.6c4-2.6 6.9-6.9 6.9-12.1V184.7h296.2s0 0 0 0h0s2.9-.4 4.4-.7c0 0 .7 0 1.1 0c5.1-2.2 9.1-7.3 9.1-13.5c0-8-6.6-14.6-14.6-14.6zm0-51.9c-8 0-14.6 6.6-14.6 14.6s6.6 14.6 14.6 14.6 14.6-6.6 14.6-14.6-6.6-14.6-14.6-14.6zm0-51.6c-8 0-14.6 6.2-14.6 14.6s6.6 14.6 14.6 14.6 14.6-6.6 14.6-14.6-6.6-14.6-14.6-14.6zm0 362.8c-8 0-14.6 6.6-14.6 14.6s6.6 14.6 14.6 14.6 14.6-6.6 14.6-14.6-6.6-14.6-14.6-14.6zm0-207.4c-8 0-14.6 6.6-14.6 14.6s6.6 14.6 14.6 14.6 14.6-6.6 14.6-14.6-6.6-14.6-14.6-14.6zm0 155.4c-8 0-14.6 6.6-14.6 14.6s6.6 14.6 14.6 14.6 14.6-6.6 14.6-14.6-6.6-14.6-14.6-14.6zm0-51.9c-8 0-14.6 6.6-14.6 14.6s6.6 14.6 14.6 14.6 14.6-6.6 14.6-14.6-6.6-14.6-14.6-14.6z"/></svg>