<svg xmlns="http://www.w3.org/2000/svg" height="1em" viewBox="0 0 512 512"><!--! Font Awesome Pro 6.4.2 by @fontawesome - https://fontawesome.com License - https://fontawesome.com/license (Commercial License) Copyright 2023 Fonticons, Inc. --><path d="m460.4 512c0-5.1 4.3-9.8 9.8-9.8h0c5.5 0 9.8 4.7 9.8 9.8h0c0 5.5-4.3 9.8-9.8 9.8h0c-5.5 0-9.8-4.3-9.8-9.8zm-41.7 0c0-5.1 4.3-9.8 9.8-9.8h0c5.5 0 9.8 4.7 9.8 9.8h0c0 5.5-4.3 9.8-9.8 9.8h0c-5.5 0-9.8-4.3-9.8-9.8zm-41.7 0c0-5.1 4.3-9.8 9.8-9.8h0c5.1 0 9.8 4.7 9.8 9.8h0c0 5.5-4.7 9.8-9.8 9.8h0c-5.5 0-9.8-4.3-9.8-9.8zm-42.1 0c0-5.1 4.3-9.8 9.8-9.8h0c5.5 0 9.8 4.7 9.8 9.8h0c0 5.5-4.3 9.8-9.8 9.8h0c-5.5 0-9.8-4.3-9.8-9.8zm-41.7 0c0-5.1 4.3-9.8 9.8-9.8h0c5.5 0 9.8 4.7 9.8 9.8h0c0 5.5-4.3 9.8-9.8 9.8h0c-5.5 0-9.8-4.3-9.8-9.8zm-41.7 0c0-5.1 4.3-9.8 9.8-9.8h0c5.1 0 9.8 4.7 9.8 9.8h0c0 5.5-4.7 9.8-9.8 9.8h0c-5.5 0-9.8-4.3-9.8-9.8zm-42.1 0c0-5.1 4.3-9.8 9.8-9.8h0c5.5 0 9.8 4.7 9.8 9.8h0c0 5.5-4.3 9.8-9.8 9.8h0c-5.5 0-9.8-4.3-9.8-9.8zm-83.5 0c0-5.1 4.3-9.8 9.8-9.8h0c5.1 0 9.8 4.7 9.8 9.8h0c0 5.5-4.7 9.8-9.8 9.8h0c-5.5 0-9.8-4.3-9.8-9.8zm-42.1 0c0-5.1 4.7-9.8 9.8-9.8h0c5.5 0 9.8 4.7 9.8 9.8h0c0 5.5-4.3 9.8-9.8 9.8h0c-5.1 0-9.8-4.3-9.8-9.8zm-41.7 0c0-5.1 4.3-9.8 9.8-9.8h0c5.5 0 9.8 4.7 9.8 9.8h0c0 5.5-4.3 9.8-9.8 9.8h0c-5.5 0-9.8-4.3-9.8-9.8zm477.3 7.1s2.8-4.3 2.8-7.1c0-2.4-.8-5.1-2.8-6.7c-3.5-3.5-10.2-3.5-13.8 0c-2 1.6-3.2 4.3-3.2 6.7c0 2.8 1.2 5.5 3.2 7.1c2 2 4.3 2.8 6.7 2.8c2.8 0 5.1-.8 7.1-2.8zm-16.9-48.8c0-5.5 4.7-9.8 9.8-9.8h0c5.5 0 9.8 4.3 9.8 9.8h0c0 5.5-4.3 9.8-9.8 9.8h0c-5.1 0-9.8-4.3-9.8-9.8zm0-41.7c0-5.5 4.7-9.8 9.8-9.8h0c5.5 0 9.8 4.3 9.8 9.8h0c0 5.5-4.3 9.8-9.8 9.8h0c-5.1 0-9.8-4.3-9.8-9.8zm0-41.7c0-5.5 4.7-9.8 9.8-9.8h0c5.5 0 9.8 4.3 9.8 9.8h0c0 5.1-4.3 9.8-9.8 9.8h0c-5.1 0-9.8-4.7-9.8-9.8zm0-42.1c0-5.5 4.7-9.8 9.8-9.8h0c5.5 0 9.8 4.3 9.8 9.8h0c0 5.5-4.3 9.8-9.8 9.8h0c-5.1 0-9.8-4.3-9.8-9.8zm0-41.7c0-5.5 4.7-9.8 9.8-9.8h0c5.5 0 9.8 4.3 9.8 9.8h0c0 5.5-4.3 9.8-9.8 9.8h0c-5.1 0-9.8-4.3-9.8-9.8zm0-41.7c0-5.5 4.7-9.8 9.8-9.8h0c5.5 0 9.8 4.3 9.8 9.8h0c0 5.1-4.3 9.8-9.8 9.8h0c-5.1 0-9.8-4.7-9.8-9.8zm0-42.1c0-5.1 4.7-9.8 9.8-9.8h0c5.5 0 9.8 4.7 9.8 9.8h0c0 5.5-4.3 9.8-9.8 9.8h0c-5.1 0-9.8-4.3-9.8-9.8zm0-83.5c0-5.5 4.7-9.8 9.8-9.8h0c5.5 0 9.8 4.3 9.8 9.8h0c0 5.5-4.3 9.8-9.8 9.8h0c-5.1 0-9.8-4.3-9.8-9.8zm0-42.1c0-5.1 4.7-9.8 9.8-9.8h0c5.5 0 9.8 4.7 9.8 9.8h0c0 5.5-4.3 9.8-9.8 9.8h0c-5.1 0-9.8-4.3-9.8-9.8zm0-41.7c0-5.5 4.7-9.8 9.8-9.8h0c5.5 0 9.8 4.3 9.8 9.8h0c0 5.5-4.3 9.8-9.8 9.8h0c-5.1 0-9.8-4.3-9.8-9.8zm9.8 115.8H181.6L33.5 19.7H512c5.5 0 9.8-4.3 9.8-9.8S517.5 0 512 0H9.8C4.3 0 0 4.3 0 9.8v502.5c0 5.5 4.3 9.8 9.8 9.8s9.8-4.3 9.8-9.8V33.5l147.7 147.7V512c0 5.5 4.3 9.8 9.8 9.8s9.8-4.3 9.8-9.8V187.1H512c5.5 0 9.8-4.3 9.8-9.8s-4.3-9.8-9.8-9.8z"/></svg>