<svg xmlns="http://www.w3.org/2000/svg" height="1em" viewBox="0 0 640 512"><!--! Font Awesome Pro 6.4.2 by @fontawesome - https://fontawesome.com License - https://fontawesome.com/license (Commercial License) Copyright 2023 Fonticons, Inc. --><path d="M559 124l-241 261c1 6.1 1.6 12.5 1.6 19.2 0 59.8-44.5 108-99.5 108H92.5c-15.7 0-28.5-13.8-28.5-30.7s12.8-30.7 28.5-30.7h4.2c15.7 0 26.2-18.2 24.6-35.2-.3-3.5-.6-7.4-.6-11.2 0-59.8 44.5-108 99.5-108 6.1 0 11.8 .6 17.6 1.6L479 36.5c22.1-24 58.2-24 80.3 0 22.1 24 22.1 63 0 87.4h0zm-60.5-65.6l-147 159 40.3 43.5 146-159c11.2-12.2 11.2-31.7 0-43.5-11.2-12.2-29.1-12.2-40.3 0h0zm-235 255l40.3 43.5 68.8-74.6-40.3-43.5-68.8 74.6zm-25.6 16c-5.8-1.6-11.5-2.6-17.6-2.6-39.4 0-71 34.6-71 77.1 0 2.6 0 5.4 .3 8 1.6 16-2.6 32.3-11.2 45.1-8.6 12.8-23 24-41.9 24h124c39.4 0 71-34.6 71-77.1 0-6.7-1-13.1-2.2-19.2l-51.2-55.7z"/></svg>