<svg xmlns="http://www.w3.org/2000/svg" viewBox="0 0 512 512"><path d="m435.9 0H59.6C26.7 0 0 26.7 0 59.6v376.3c0 32.9 26.7 59.6 59.6 59.6h376.3c32.9 0 59.6-26.7 59.6-59.6V59.6c0-32.9-26.7-59.6-59.6-59.6zm30.4 435.9c0 16.8-13.5 30.4-30.4 30.4H59.6c-16.8 0-30.4-13.5-30.4-30.4V59.6c0-16.8 13.5-30.4 30.4-30.4h376.3c16.8 0 30.4 13.5 30.4 30.4v376.3zm-58.1-210.7c-5.9-5.9-15-5.9-20.8 0L220.2 392.4c-5.9 5.9-5.9 15 0 20.8c2.9 2.9 6.6 4.4 10.2 4.4s7.3-1.5 10.2-4.4l167.1-167.1c5.9-5.9 5.9-15 0-20.8zm-9.1 97.6l-75.3 75.3c-5.9 5.9-5.9 15 0 20.8c2.9 2.9 6.6 4.4 10.2 4.4s7.3-1.5 10.2-4.4l75.3-75.3c5.9-5.9 5.9-15 0-20.8s-15-5.9-20.8 0z"/></svg>