<svg xmlns="http://www.w3.org/2000/svg" height="1em" viewBox="0 0 524 524"><!--! Font Awesome Pro 6.4.2 by @fontawesome - https://fontawesome.com License - https://fontawesome.com/license (Commercial License) Copyright 2023 Fonticons, Inc. --><path d="m435.9 0H59.6C26.7 0 0 26.7 0 59.6v376.3c0 32.9 26.7 59.6 59.6 59.6h376.3c32.9 0 59.6-26.7 59.6-59.6V59.6c0-32.9-26.7-59.6-59.6-59.6zm30.4 435.9c0 16.8-13.5 30.4-30.4 30.4H59.6c-16.8 0-30.4-13.5-30.4-30.4V59.6c0-16.8 13.5-30.4 30.4-30.4h376.3c16.8 0 30.4 13.5 30.4 30.4v376.3zM407 92.9c-5.1 5.1-8.8 5.5-16.1 6.2c-9.1 .7-21.6 2.2-34 14.6s-13.9 24.9-14.6 34c-.7 7.3-1.1 11-6.2 16.1s-8.8 5.5-16.1 6.2c-9.1 .7-21.6 2.2-34 14.6s-13.9 24.9-14.6 34c-.7 7.3-1.1 11-6.2 16.1s-8.8 5.5-16.1 6.2c-9.1 .7-21.6 1.8-34 14.6c-12.4 12.4-13.9 24.9-14.6 34c-.7 7.3-1.1 11-6.2 16.1s-8.8 5.5-16.1 6.2c-9.1 .7-21.6 1.8-34 14.6s-13.9 24.9-14.6 34c-.7 7.3-1.1 11-6.2 16.1s-8.8 5.5-16.1 6.2c-9.1 .7-21.6 1.8-34 14.6c-5.9 5.9-5.9 15 0 20.8c2.9 2.9 6.6 4.4 10.2 4.4s7.3-1.5 10.2-4.4c5.1-5.1 8.8-5.5 16.1-6.2c9.1-.7 21.6-1.8 34-14.6s13.9-24.9 14.6-34c.7-7.3 1.1-11 6.2-16.1s8.8-5.5 16.1-6.2c9.1-.7 21.6-1.8 34-14.6c12.4-12.4 13.9-24.9 14.6-34c.7-7.3 1.1-11 6.2-16.1s8.8-5.5 16.1-6.2c9.1-.7 21.6-1.8 34-14.6c12.4-12.4 13.9-24.9 14.6-34c.7-7.3 1.1-11 6.2-16.1s8.8-5.5 16.1-6.2c9.1-.7 21.6-2.2 34-14.6c12.8-12.4 13.9-24.9 14.6-34c.7-7.3 1.1-11 6.2-16.1s8.8-5.5 16.1-6.2c9.1-.7 21.6-2.2 34-14.6c5.9-5.9 5.9-15 0-20.8s-15-5.9-20.8 0zm-62.9 225.3c13.5-13.5 15.4-26.3 16.8-35.5c1.1-8 1.8-12.8 8.8-19.4c6.6-6.6 11.3-7.3 19.4-8.8c9.1-1.5 21.9-3.7 35.5-16.8c5.9-5.9 5.9-15 0-20.8s-15-5.9-20.8 0c-6.6 6.6-11.3 7.3-19.4 8.8c-9.1 1.5-21.9 3.7-35.5 16.8s-15.4 26.3-16.8 35.5c-1.1 8-1.8 12.8-8.8 19.4s-11.3 7.3-19.4 8.8c-9.1 1.5-21.9 3.3-35.5 16.8s-15.4 26.3-16.8 35.5c-1.1 8-1.8 12.8-8.8 19.4c-6.6 6.6-11.3 7.3-19 8.4c-9.1 1.5-21.9 3.3-35.5 16.8c-5.9 5.9-5.9 15 0 20.8c2.9 2.9 6.6 4.4 10.2 4.4s7.3-1.5 10.2-4.4c6.6-6.6 11.3-7.3 19-8.4c9.1-1.5 21.9-3.3 35.5-16.8s15.4-26.3 16.8-35.5c1.1-8 1.8-12.8 8.8-19.4c6.6-6.6 11.3-7.3 19.4-8.8c9.1-1.5 21.9-3.3 35.5-16.8zm61.8 .7c-6.2 6.2-10.2 7.7-15.4 9.9c-6.6 2.6-15 5.9-25.6 16.5s-13.9 18.7-16.5 25.6c-2.2 5.5-3.7 9.1-9.9 15.4s-9.9 7.7-15.4 9.9c-6.6 2.6-15 5.9-25.2 16.5c-5.9 5.9-5.9 15 0 20.8c2.9 2.9 6.6 4.4 10.2 4.4s7.3-1.5 10.2-4.4c6.2-6.2 9.9-7.7 15.4-9.9c6.6-2.6 15-5.9 25.2-16.5c10.6-10.6 13.9-18.7 16.5-25.6c2.2-5.5 3.7-9.1 9.9-15.4s9.9-7.7 15.4-9.9c6.6-2.6 15-5.9 25.6-16.5c5.9-5.9 5.9-15 0-20.8s-15-5.9-20.8 0z"/></svg>