<svg xmlns="http://www.w3.org/2000/svg" height="1em" viewBox="0 0 530 530"><!--! Font Awesome Pro 6.4.2 by @fontawesome - https://fontawesome.com License - https://fontawesome.com/license (Commercial License) Copyright 2023 Fonticons, Inc. --><path d="m463.6 0H58.3C26.4 0 0 26.4 0 58.3v405.3c0 32.3 26.4 58.3 58.3 58.3h405.3c32.3 0 58.3-26.4 58.3-58.3V58.3C521.8 26 495.5 0 463.6 0zm38.6 463.6c0 21.3-17.3 38.6-38.6 38.6H58.3c-21.3 0-38.6-17.3-38.6-38.6V58.3C19.7 37 37 19.7 58.3 19.7h405.3c21.3 0 38.6 17.3 38.6 38.6v405.3zm-73.3-273.3c2.4 0 5.1-.8 7.1-2.8l28-28c3.9-3.9 3.9-10.2 0-13.8s-10.2-3.9-13.8 0l-28 28c-3.9 3.9-3.9 10.2 0 13.8c2 2 4.3 2.8 7.1 2.8zM324.5 298.9l28-28c3.9-3.9 3.9-10.2 0-13.8s-10.2-3.9-13.8 0l-28 28c-3.9 3.9-3.9 10.2 0 13.8c2 2 4.3 2.8 7.1 2.8s5.1-.8 7.1-2.8zM269 354.5l28-28c3.9-3.9 3.9-10.2 0-13.8s-10.2-3.9-13.8 0l-28 28c-3.9 3.9-3.9 10.2 0 13.8c2 2 4.3 2.8 7.1 2.8s5.1-.8 7.1-2.8zm-41.7 13.8l-28 28c-3.9 3.9-3.9 10.2 0 13.8c2 2 4.3 2.8 7.1 2.8s5.1-.8 7.1-2.8l28-28c3.9-3.9 3.9-10.2 0-13.8s-10.2-3.9-13.8 0zm-55.5 55.5l-28 28c-3.9 3.9-3.9 10.2 0 13.8c2 2 4.3 2.8 7.1 2.8s5.1-.8 7.1-2.8l28-28c3.9-3.9 3.9-10.2 0-13.8s-10.2-3.9-13.8 0zm202-178c2.4 0 5.1-.8 7.1-2.8l28-28c3.9-3.9 3.9-10.2 0-13.8s-10.2-3.9-13.8 0l-28 28c-3.9 3.9-3.9 10.2 0 13.8c2 2 4.3 2.8 7.1 2.8zm80.7 11l-28 28c-3.9 3.9-3.9 10.2 0 13.8c2 2 4.3 2.8 7.1 2.8s5.1-.8 7.1-2.8l28-28c3.9-3.9 3.9-10.2 0-13.8s-10.2-3.9-13.8 0zM343 368.2l-28 28c-3.9 3.9-3.9 10.2 0 13.8c2 2 4.3 2.8 7.1 2.8s5.1-.8 7.1-2.8l28-28c3.9-3.9 3.9-10.2 0-13.8s-10.2-3.9-13.8 0zm55.5-55.5l-28 28c-3.9 3.9-3.9 10.2 0 13.8c2 2 4.3 2.8 7.1 2.8s5.1-.8 7.1-2.8l28-28c3.9-3.9 3.9-10.2 0-13.8s-10.2-3.9-13.8 0zM287.1 424.2l-28 28c-3.9 3.9-3.9 10.2 0 13.8c2 2 4.3 2.8 7.1 2.8s5.1-.8 7.1-2.8l28-28c3.9-3.9 3.9-10.2 0-13.8s-10.2-3.9-13.8 0zm165.8-55.5l-28 28c-3.9 3.9-3.9 10.2 0 13.8c2 2 4.3 2.8 7.1 2.8s5.1-.8 7.1-2.8l28-28c3.9-3.9 3.9-10.2 0-13.8s-10.2-3.9-13.8 0zm-55.5 55.5l-28 28c-3.9 3.9-3.9 10.2 0 13.8c2 2 4.3 2.8 7.1 2.8s5.1-.8 7.1-2.8l28-28c3.9-3.9 3.9-10.2 0-13.8s-10.2-3.9-13.8 0z"/></svg>