<svg xmlns="http://www.w3.org/2000/svg" height="1em" viewBox="0 0 528 528"><!--! Font Awesome Pro 6.4.2 by @fontawesome - https://fontawesome.com License - https://fontawesome.com/license (Commercial License) Copyright 2023 Fonticons, Inc. --><path d="m463.6 0H58.3C26.4 0 0 26.4 0 58.3v405.3c0 32.3 26.4 58.3 58.3 58.3h405.3c32.3 0 58.3-26.4 58.3-58.3V58.3C521.8 26 495.5 0 463.6 0zm38.6 463.6c0 21.3-17.3 38.6-38.6 38.6H58.3c-21.3 0-38.6-17.3-38.6-38.6V58.3C19.7 37 37 19.7 58.3 19.7h405.3c21.3 0 38.6 17.3 38.6 38.6v405.3zM454.9 80c-8.3 8.3-15 9.5-23.6 10.6c-9.8 1.6-21.7 3.2-34.7 16.1s-14.6 24.8-16.1 34.7c-1.2 8.7-2.4 15.4-10.6 23.6s-15 9.1-23.6 10.6c-9.8 1.6-21.7 3.2-34.7 16.1s-14.6 24.8-16.1 34.7c-1.2 8.7-2.4 15.4-10.6 23.6s-15 9.1-23.2 10.2c-9.5 1.2-21.7 3.2-34.7 15.8s-14.6 24.8-16.1 34.7c-1.2 8.7-2.4 15.4-10.2 23.2s-15 9.1-23.2 10.2c-9.8 1.6-21.7 3.2-34.7 16.1S128 385.2 126.4 395c-1.2 8.7-2.4 15.4-10.6 23.6s-15 9.1-23.2 10.2c-9.8 1.2-21.7 3.2-34.7 15.8c-3.9 3.9-3.9 10.2 0 13.8c2 2 4.3 2.8 7.1 2.8s5.1-.8 7.1-2.8c8.3-8.3 15-9.1 23.2-10.2c9.8-1.2 21.7-3.2 34.7-15.8s14.6-24.8 16.1-34.7c1.2-8.7 2.4-15.4 10.6-23.6s15-9.1 23.2-10.2c9.8-1.6 21.7-3.2 34.7-16.1s14.6-24.8 16.1-34.7c1.2-8.7 2.4-15.4 10.6-23.6s15-9.1 23.2-10.2c9.5-1.2 21.7-3.2 34.7-15.8s14.6-24.8 16.1-34.7c1.2-8.7 2.4-15.4 10.6-23.6s15-9.1 23.6-10.6c9.8-1.6 21.7-3.2 34.7-16.1s14.6-24.8 16.1-34.7c1.2-8.7 2.4-15.4 10.6-23.6s15-9.5 23.6-10.6c9.8-1.6 21.7-3.2 34.7-16.1c3.9-3.9 3.9-10.2 0-13.8s-10.2-3.9-13.8 0zm-10.6 140.6c-9.8 9.8-17.3 11.4-26.8 13.4c-10.6 2.4-22.8 4.7-37 18.9s-16.5 26.4-18.9 37c-2 9.5-3.5 16.9-13.4 26.8s-17.3 11.4-26.8 13.4c-10.6 2.4-22.8 4.7-36.6 18.9c-14.2 14.2-16.5 26-18.5 36.6c-2 9.5-3.5 16.9-13.4 26.8s-17.3 11.4-26.8 13.4c-10.6 2.4-22.8 4.7-36.6 18.9c-3.9 3.9-3.9 10.2 0 13.8c2 2 4.3 2.8 7.1 2.8s5.1-.8 7.1-2.8c9.8-9.8 17.3-11.4 26.8-13.4c10.6-2.4 22.8-4.7 36.6-18.9s16.5-26 18.5-36.6c2-9.5 3.5-16.9 13.4-26.8s17.3-11.4 26.8-13.4c10.6-2.4 22.8-4.7 36.6-18.9s16.5-26 18.9-37c2-9.5 3.5-16.9 13.4-26.8s17.3-11.4 26.8-13.4c10.6-2.4 22.8-4.7 37-18.9c3.9-3.9 3.9-10.2 0-13.8s-10.2-3.9-13.8 0zm-3.9 115.8c-8.7 8.7-14.2 11-20.9 13.8c-7.5 3.2-15.8 6.7-26.8 18.1s-15 19.7-18.1 26.8c-2.8 6.7-5.1 12.2-13.8 20.9s-14.2 11-20.9 13.8c-7.5 3.2-15.8 6.7-26.8 18.1c-3.9 3.9-3.9 10.2 0 13.8c2 2 4.3 2.8 7.1 2.8s5.1-.8 7.1-2.8c8.7-8.7 14.2-11 20.9-13.8c7.5-3.2 15.8-6.7 26.8-18.1c11.4-11.4 15-19.7 18.1-27.2c2.8-6.7 5.1-12.2 13.8-20.9s14.2-11 20.9-13.8c7.5-3.2 15.8-6.7 27.2-18.1c3.9-3.9 3.9-10.2 0-13.8s-10.2-3.9-13.8 0z"/></svg>