<svg xmlns="http://www.w3.org/2000/svg" height="1em" viewBox="0 0 530 530"><!--! Font Awesome Pro 6.4.2 by @fontawesome - https://fontawesome.com License - https://fontawesome.com/license (Commercial License) Copyright 2023 Fonticons, Inc. --><path d="m463.6 0H58.3C26.4 0 0 26.4 0 58.3v405.3c0 32.3 26.4 58.3 58.3 58.3h405.3c32.3 0 58.3-26.4 58.3-58.3V58.3C521.8 26 495.5 0 463.6 0zm38.6 463.6c0 21.3-17.3 38.6-38.6 38.6H58.3c-21.3 0-38.6-17.3-38.6-38.6V58.3C19.7 37 37 19.7 58.3 19.7h405.3c21.3 0 38.6 17.3 38.6 38.6v405.3zm-39-124.8c-3.5-1.6-7.9-.8-10.6 2L337.9 453.3c-2.8 2.8-3.5 7.1-2.4 10.6s5.1 6.3 9.1 6.3h114.6c5.5 0 9.8-4.3 9.8-9.8V347.8c0-3.9-2.4-7.5-5.9-9.1zm.8-281.2c-3.9-3.9-10.2-3.9-13.8 0L55.9 452.1c-3.9 3.9-3.9 10.2 0 13.8c2 2 4.3 2.8 7.1 2.8s5.1-.8 7.1-2.8L464 71.7c3.9-3.9 3.9-10.2 0-13.8zm1.2 185.5c-3.9-3.9-10.2-3.9-13.8 0L242.6 451.7c-3.9 3.9-3.9 10.2 0 13.8c2 2 4.3 2.8 7.1 2.8s5.1-.8 7.1-2.8l208.7-208.7c3.9-3.9 3.9-10.2 0-13.8zM458 139.8L146.1 451.7c-3.9 3.9-3.9 10.2 0 13.8c2 2 4.3 2.8 7.1 2.8s5.1-.8 7.1-2.8l311.9-311.9c3.9-3.9 3.9-10.2 0-13.8s-10.2-3.9-13.8 0z"/></svg>