<svg xmlns="http://www.w3.org/2000/svg" height="1em" viewBox="0 0 512 512"><!--! Font Awesome Pro 6.4.2 by @fontawesome - https://fontawesome.com License - https://fontawesome.com/license (Commercial License) Copyright 2023 Fonticons, Inc. --><path d="m508.5 179.6L426.1 33.5c-8.7-15.4-22.8-26.4-39.4-31.1c-16.9-4.7-34.7-2.8-50 5.9L190.6 90.6c-25.6 14.6-37.4 43.7-31.5 71.3l-34.7 19.7c-24.8 13.8-34.7 43.7-24.8 69.7l-64.6 61.4c-3.2 3.2-3.9 7.9-2 11.8l18.5 32.7c-12.6 13-51.2 55.9-51.2 102.8c0 34.3 28 62.2 62.2 62.2s62.2-28 62.2-62.2c0-39.4-26.8-75.6-43.3-94.1l72.1-19.7c11 14.2 27.2 22.4 44.5 22.4c9.5 0 18.9-2.4 27.6-7.1l34.7-19.7c12.2 11.8 28.8 18.1 45.3 18.1c11 0 22.1-2.8 32.3-8.3L484 269.4c31.5-17.7 42.5-57.9 24.8-89.4zM108.7 269.8l33.5 59.1-72.9 20.1-15.4-27.2 55.1-52zM61.8 502.5c-23.2 0-42.5-18.9-42.5-42.5c0-35.8 29.1-71.3 42.5-85.9c13.4 14.6 42.5 49.6 42.5 85.9c0 23.2-18.9 42.5-42.5 42.5zm153.6-158.3c-8.7 4.7-18.5 5.9-28 3.5c-9.5-2.8-17.3-8.7-22.1-17.3l-45.7-81.1c-4.7-8.7-5.9-18.5-3.5-28c2.8-9.5 8.7-17.3 17.3-22.1l31.9-18.1 81.9 145.3-31.9 18.1zm280-119.7c-3.2 11.8-11 21.7-21.7 27.6l-146.1 82.3c-22.1 12.6-50 4.7-62.6-17.3l-82.3-146.1c-12.6-22.1-4.7-50 17.3-62.6L346.2 26c7.1-3.9 14.6-5.9 22.4-5.9c3.9 0 8.3 .4 12.2 1.6c11.8 3.2 21.7 11 27.6 21.7l82.3 146.1c5.9 10.6 7.5 23.2 4.3 35.1z"/></svg>