<svg xmlns="http://www.w3.org/2000/svg" height="1em" viewBox="0 0 512 512"><!--!Font Awesome Pro 6.5.1 by @fontawesome - https://fontawesome.com License - https://fontawesome.com/license (Commercial License) Copyright 2023 Fonticons, Inc.--><path d="m196 177.4c-5.1-9.1-8-18.7-8.8-28.2c0 0 0 0 0 0c-.4-8.4 0-16.8 2.6-25.2c5.5-19.7 18.7-36.6 36.6-46.8l118.9-66.9c4.4-2.6 8.8-4.4 13.5-5.9c0 0 .4 0 .7 0c14.3-4.8 29.6-5.1 44.6-1.1c6.9 1.8 13.5 5.1 19.4 8.8c9.1 6.2 17.2 13.9 23 24.1l81.6 144.5c4.8 8.4 7.3 17.2 8.8 26.3c2.6 29.3-11.7 58.5-38.8 73.9l-118.9 66.9c-12.1 6.6-24.9 9.9-38 9.9c-15.7 0-30.7-5.1-43.5-13.9c-7.7-5.9-15-12.8-20.1-21.9l-40.6-72-40.6-72zm-46.1-7.3l-1.8 1.1c-32.9 18.7-45 60.7-26.3 93.6l3.3 5.9-64 62.2c-5.9 5.9-7.3 15-3.3 21.9c3.3 5.9 9.5 9.1 16.1 9.1c1.5 0 2.9 0 4.8-.7l86.3-22.7c9.1 15.7 23.4 26.7 41 31.8c6.2 1.8 12.4 2.6 18.7 2.6c11.7 0 23.4-2.9 33.6-8.8l1.8-1.1-110.1-195.3zm-99.8 211h0c-8.4 0-16.5 4-21.2 11c-28.9 41.7-28.9 56-28.9 60.7c0 27.4 22.3 49.7 49.7 49.7s49.7-22.3 49.7-49.7c0-5.1 0-18.3-28.5-60.7c-4.8-6.9-12.8-11.3-21.2-11.3z"/></svg>