<?xml version="1.0" encoding="UTF-8"?><svg id="Layer_1" xmlns="http://www.w3.org/2000/svg" viewBox="0 0 356.92 117.54"><path d="m77.61,12.34c-3.07,3.07-5.94,5.95-8.87,8.89-.78-.64-1.61-1.36-2.49-2.04-7.31-5.65-15.62-7.65-24.67-6.34-15.15,2.2-26.59,14.32-27.74,29.6-1.04,13.83,4.33,24.66,16.25,31.92,6.61,4.03,13.92,4.98,21.53,3.99,7.44-.97,13.71-4.21,18.7-9.83,3.1-3.5,4.61-7.75,5.46-12.27.11-.56.17-1.13.24-1.69.01-.08-.04-.17-.1-.4h-1.11c-9.07,0-18.13,0-27.2,0q-1.29,0-1.3-1.27c0-3.39.02-6.78,0-10.18,0-.75.18-1.04,1-1.04,13.36.03,26.72.03,40.07,0,.79,0,1.02.27,1.12,1,.87,6.35.61,12.67-1.1,18.84-4.35,15.72-14.9,25.03-30.56,28.58-8.68,1.97-17.42,1.58-25.8-1.6C14.69,82.32,4.2,70.76.85,53.46c-2.57-13.3.77-25.42,9.25-35.96C18.43,7.15,29.36,1.29,42.61.18c13.07-1.09,24.6,2.74,34.29,11.72.22.2.51.32.7.44h.01Z"/><path d="m265.08,84.38c-.41.31-.63.44-.79.61-4.27,4.49-9.63,6.28-15.68,6.16-12.85-.25-24.7-10.41-27.07-24.06-2.34-13.47,4.53-26.66,16.98-32.25,7.39-3.32,14.84-3.44,22.03.74,1.3.76,2.4,1.87,3.59,2.83.24.2.46.43.87.81.06-.51.11-.78.11-1.06.01-1.02.03-2.04,0-3.06-.02-.63.24-.84.85-.84,3.54.02,7.08,0,10.63,0,.56,0,.85.19.8.78v.27c0,17.74.01,35.48-.04,53.22-.02,4.94-.92,9.73-2.99,14.26-3.23,7.05-8.62,11.58-16.09,13.55-7.58,1.99-15,1.65-22.04-2.08-5.63-2.98-9.71-7.47-12.41-13.22-.11-.24-.2-.49-.34-.86,3.71-1.55,7.37-3.08,11.14-4.64.25.47.49.91.72,1.35,2.37,4.37,5.75,7.63,10.72,8.62,5.68,1.13,10.99.22,15.1-4.3,1.06-1.17,1.87-2.66,2.51-4.12,1.73-3.97,1.52-8.2,1.42-12.7h-.02Zm-31.04-23.43c0,4.92,1.09,8.57,3.16,11.59,6.96,10.14,21.56,9.23,26.83-1.78,3.05-6.36,2.83-12.84-.66-19-4.67-8.25-15.1-10.24-22.57-4.4-4.71,3.68-6.67,8.71-6.77,13.59h.01Z"/><path d="m187.02,91.2c-16.58.02-29.46-12.82-29.47-29.36,0-16.62,12.74-29.32,29.44-29.33,16.68,0,29.47,12.7,29.48,29.31,0,16.54-12.85,29.37-29.45,29.39h0Zm-16.56-30.58c0,3.85.47,6.43,1.52,8.89,4.78,11.2,19.16,13.61,27.17,4.56,5.65-6.38,5.92-16.99.62-23.76-5.36-6.84-15.02-8.33-22.08-3.28-5.03,3.59-7.13,8.72-7.23,13.59Z"/><path d="m123.4,91.09c-16.64-.02-29.41-12.8-29.37-29.4.04-16.53,12.85-29.17,29.53-29.13,16.61.04,29.32,12.79,29.29,29.38-.03,16.44-12.9,29.18-29.45,29.15Zm.08-47.09c-3.93,0-7.44,1.23-10.43,3.77-6.73,5.7-8.26,16.32-3.5,24.02,5.97,9.69,19.28,10.63,26.47,1.82,3.66-4.48,4.63-9.7,3.75-15.33-1.28-8.23-8.16-14.26-16.28-14.28h-.01Z"/><path d="m332.16,91.24c-14.89-.2-26.7-10.22-28.72-25.02-1.44-10.51,1.31-19.88,9.46-27.13,9.19-8.17,24.17-9.09,33.87-.86,3.85,3.27,6.67,7.29,8.63,11.92.47,1.1.86,2.24,1.36,3.33.32.71.19,1.04-.55,1.34-4.94,2.01-9.87,4.07-14.81,6.11-7.51,3.11-15.02,6.21-22.54,9.32-1.02.42-1.01.44-.49,1.41,5.48,10.22,19.14,10.11,25.76,2.97.69-.75,1.37-1.52,1.96-2.34.41-.56.72-.64,1.3-.24,2.8,1.9,5.63,3.79,8.46,5.64.58.38.59.68.19,1.21-4.54,6.04-10.37,10.11-17.84,11.59-1.99.39-4.04.51-6.06.76h.02Zm-16.46-30.27c.56-.2.87-.3,1.16-.42,5.71-2.36,11.42-4.73,17.13-7.1,2.44-1.01,4.87-2.04,7.32-3.03.67-.27.84-.62.43-1.2-.48-.68-.91-1.43-1.51-2-3.14-3.02-6.99-3.95-11.15-3.24-7.01,1.19-12.21,6.76-13.16,13.81-.13.99-.14,1.99-.21,3.17h-.01Z"/><path d="m285.06,46.31V5.25c0-.36.02-.72,0-1.08-.02-.56.19-.81.79-.8,3.63.02,7.26.02,10.9,0,.57,0,.85.18.81.77-.02.3,0,.6,0,.9v82.66c0,.3-.02.6,0,.9.03.53-.21.78-.74.78h-10.99c-.58,0-.81-.28-.77-.84.02-.33,0-.66,0-.99v-41.24h0Z"/></svg>