<?xml version="1.0" encoding="UTF-8"?><svg id="Layer_2" xmlns="http://www.w3.org/2000/svg" viewBox="0 0 1354.99 453.13"><g id="Layer_1-2"><g><path d="M162.59,161.5c8.24,.51,16.49,1.02,25.28,1.56,.44-5.66,.26-11.26,.08-17.29-3.59,.51-6.85,1.1-10.14,1.43-12.18,1.25-24.29,1.41-36.22-2.1-8.34-2.46-16.82-4.37-25.58-4.28-13.92,.15-27,3.19-38.34,11.73-27.63,20.81-24.14,63.2,6.49,79.24,1.47,.77,2.95,1.51,4.86,2.49-1.43,.88-2.47,1.56-3.54,2.18-3.95,2.28-7.61,4.91-10.63,8.38-8.57,9.84-7.97,23.5,1.51,32.48,6.02,5.71,13.44,8.18,21.52,8.76,15.76,1.12,31.54,1.99,47.3,3.16,4.24,.31,8.53,.95,12.61,2.1,12.06,3.4,16.02,15.95,8.34,25.9-3.8,4.91-8.94,7.96-14.9,9.24-5.81,1.24-11.72,2.21-17.63,2.69-15.6,1.28-31.06,.33-46.2-3.99-24.41-6.97-43.59-21.25-58.04-41.92-13.98-19.99-22.25-42.34-26.35-66.25C.25,200.98-.84,184.82,.71,168.61c2.04-21.39,8.84-41.14,20.57-59.24,13.99-21.58,32.22-38.76,53.66-52.7,22.99-14.95,48-25.45,74.14-33.43,25.2-7.69,50.95-12.86,77.03-16.48C267.41,1.03,308.92-.59,350.55,.18c25.44,.47,50.68,2.91,75.44,9.18,19.35,4.9,37.78,11.97,54.33,23.34,26.44,18.18,41.38,43.35,45.12,75.13,2.66,22.57-.14,44.71-5.87,66.57-6.61,25.2-16.7,49.01-28.92,71.94-22,41.29-49.43,78.7-81.08,113.07-18.11,19.67-37.47,38.01-58.89,54.09-22.96,17.23-47.95,30.23-76.28,36.14-19.35,4.04-38.81,4.52-58.35,1.68-38.47-5.6-72.02-22.2-102.16-46.19-27.67-22.02-50.2-48.57-68.51-78.76-.33-.55-.62-1.13-1.17-2.13,.79,.19,1.27,.17,1.57,.39,14.21,10.51,30.46,15.8,47.68,18.6,18.85,3.08,37.66,3.24,56.34-1.19,8.92-2.11,17.33-5.52,24.28-11.67,11.3-9.99,15.08-22.66,12.11-37.23-1.79-8.78-7.46-14.92-15.21-19.18-6.68-3.67-13.92-5.79-21.44-6.46-11.86-1.06-23.77-1.64-35.65-2.51-3.87-.28-7.72-.82-11.57-1.27-.64-.07-1.27-.24-1.9-.42-8.59-2.48-11.35-10.48-5.79-17.54,3.95-5.02,9.05-7.76,15.83-7.27,12.42,.9,24.57-.35,36.04-5.78,28.58-13.54,32.26-46.02,18.09-66.81-.79-1.15-1.57-2.31-2.35-3.46,.12-.32,.24-.64,.35-.96Zm205.06,43.36c1.32-.98,2.34-1.59,3.18-2.38,11.8-11.08,23.53-22.24,35.39-33.26,8.72-8.11,17.47-16.21,27.8-22.35,.11-.06,.04-.43,.05-.71-.37-.08-.74-.24-1.11-.24-9.72-.01-19.43,.02-29.15-.03-1.72,0-2.82,.75-3.96,1.97-5.48,5.86-10.87,11.82-16.65,17.37-11.5,11.02-23.24,21.8-34.9,32.65-.87,.81-1.57,2.07-3.44,1.79,0-1.49,0-2.9,0-4.31,.01-10.49,.03-20.98,.03-31.47,0-26.17,0-52.33-.02-78.5,0-1.73-.24-3.46-.41-5.7-10.51,2.69-20.46,5.14-30.14,7.88,1.14,3.76,2.58,6.9,2.99,10.17,.81,6.41,1.43,12.88,1.45,19.33,.14,34.71,.08,69.43,.08,104.14,0,12.95,.01,25.91-.09,38.86-.06,7.26-.46,14.51-3.02,21.44-.2,.53-.03,1.2-.03,1.95h32.15c-.19-1.04-.34-1.78-.46-2.52-.77-4.85-2.1-9.68-2.2-14.54-.34-16.83-.27-33.67-.31-50.51,0-.77,.34-1.54,.63-2.77,1.17,1.27,1.98,2.09,2.72,2.97,12.39,14.8,24.76,29.61,37.16,44.4,5.08,6.06,10.4,11.89,16.61,16.86,15.11,12.09,31.34,11.82,48.24,4.49,.71-.31,1.26-.96,2.48-1.92-7.04,.55-12.5-1.76-17.72-4.77-7.47-4.31-13.99-9.88-19.73-16.24-12.32-13.65-24.45-27.47-36.63-41.26-3.51-3.97-6.9-8.04-10.99-12.82Zm-78.69-34.43c0-5.87-.28-10.79,.09-15.67,.28-3.68-1.34-5.32-4.4-6.68-14.07-6.27-28.7-8.67-43.98-6.48-10.02,1.43-19.37,4.65-27.44,11.02-13.81,10.9-17.87,30.2-9.43,45.08,3.27,5.76,7.92,10.34,13.49,13.72,6.85,4.16,14,7.82,21.07,11.61,6.84,3.67,13.83,7.08,20.59,10.88,4.09,2.3,7.52,5.51,10.12,9.49,6.4,9.81,2.89,21.25-7.89,25.65-1.55,.63-3.17,1.13-4.8,1.52-7.81,1.9-15.66,1.8-23.52,.39-10.78-1.94-21.05-5.4-30.91-10.15-1.08-.52-2.22-.92-3.82-1.58,0,5.98-.01,11.28,0,16.58,.01,3.87,.02,3.9,3.68,5.28,17.78,6.67,36.06,9.33,54.94,6.5,10.65-1.6,20.57-5.09,29.11-11.97,13.84-11.15,18.77-35.77,1.81-51.01-3.26-2.93-6.7-5.79-10.44-8.04-6.77-4.06-13.82-7.63-20.76-11.4-5.8-3.16-11.68-6.18-17.37-9.52-4.26-2.49-8.1-5.6-11.11-9.6-7.4-9.85-4.51-20.93,6.72-25.89,4.45-1.97,9.15-2.84,13.97-3.01,13.12-.45,25.05,3.25,35.96,10.46,1.16,.77,2.32,1.52,4.3,2.82Z"/><path d="M148.14,192.26c-.43,4.91-1.06,9.62-2.77,14.17-3.52,9.37-10.1,15.19-19.94,17.11-7.41,1.45-14.71,.94-21.73-1.99-6.71-2.8-11.84-7.45-15.16-13.89-5.19-10.09-6.38-20.76-3.23-31.67,3.17-11,10.79-17.36,21.91-19.62,4.88-.99,9.79-.95,14.67,.1,12.65,2.71,20.44,10.68,23.97,22.84,1.21,4.18,1.55,8.62,2.29,12.94Z"/><path d="M878.95,325.57c4.66-6.74,11.24-9.57,19.04-9.55,8.08,.02,14.03,3.81,17.82,11.44,1.12-1.36,1.85-2.22,2.56-3.1,6.82-8.55,18.51-10.59,28.12-5.76,6.61,3.32,8.94,9.43,9.54,16.32,.31,3.6,.15,7.25,.16,10.87,.01,9.45,.03,18.91,0,28.36-.01,4.16-.27,4.41-4.4,4.44-7.08,.06-6.33,.04-6.34-6.33-.02-9.97,.04-19.94-.04-29.91-.02-2.57-.27-5.18-.74-7.71-.87-4.7-2.89-8.73-8.03-9.92-5.21-1.21-9.91,.28-13.33,4.29-1.96,2.29-3.48,5.22-4.36,8.11-1.03,3.42-1.52,7.1-1.6,10.69-.22,8.8-.05,17.61-.08,26.41-.02,4.12-.25,4.3-4.46,4.37q-6.09,.09-6.1-6.19c0-10.36,.03-20.72-.04-31.08-.01-2.32-.15-4.68-.63-6.93-1.04-4.85-3.39-8.79-8.72-9.79-5.25-.98-9.75,.73-13.24,4.72-2.7,3.08-4.29,6.8-4.93,10.83-.48,3.06-.79,6.17-.83,9.26-.11,8.16-.03,16.32-.05,24.47-.01,4.54-.13,4.64-4.48,4.7q-6.01,.08-6.02-5.88c0-16.58,0-33.15,0-49.73,0-1.04,.03-2.07,.03-3.11,0-1.55,.67-2.45,2.31-2.46,.26,0,.52-.03,.78-.03,6.38,.03,7.22-.69,6.87,5.85-.03,.59,.27,1.19,.41,1.79,.26,.18,.52,.35,.77,.53Z"/><path d="M575.49,308.15c-1.97-.79-3.38-1.39-4.81-1.93-8.3-3.14-16.85-4.21-25.57-2.47-12.25,2.45-20.53,9.79-24.08,21.7-4,13.4-1.65,25.7,8.51,35.83,6.08,6.06,13.79,8.55,22.22,8.76,3.47,.09,6.98-.3,10.44-.68,3.29-.36,3.73-.9,3.76-4.19,.06-6.47,.02-12.95,.03-19.42,0-1.04-.19-2.15,.14-3.08,.29-.82,1.12-1.97,1.8-2.04,2.43-.26,4.92-.27,7.35-.04,.72,.07,1.47,1.16,1.94,1.94,.3,.48,.13,1.26,.13,1.91,0,9.58,.03,19.17,0,28.75-.01,3.19-.21,3.54-3.31,4.24-11.72,2.66-23.54,4.01-35.38,1.07-16.42-4.08-26.46-14.6-30.01-31.11-1.7-7.93-1.74-15.98,.45-23.86,4.72-16.99,19.19-28.89,36.94-30.23,8.68-.66,17.36-.5,25.75,2.34,.98,.33,1.95,.7,2.92,1.07,1.26,.48,1.81,1.41,1.67,2.73-.27,2.69-.55,5.38-.89,8.71Z"/><path d="M1127.31,331.34c.81-.93,1.65-1.84,2.42-2.81,7.99-10.02,16.03-20,23.89-30.12,2-2.58,4.1-4.07,7.49-3.68,2.29,.26,4.63,.05,7.66,.05-.74,1.34-1.09,2.23-1.66,2.94-8.86,10.98-17.74,21.94-26.62,32.91-.65,.8-1.27,1.63-1.93,2.43-.87,1.06-.88,2.09-.01,3.15,.9,1.1,1.78,2.22,2.67,3.33,9.39,11.71,18.79,23.42,28.17,35.15,.78,.97,1.46,2.02,2.7,3.76-4.98,.18-9.19,.44-13.35-.16-1.14-.16-2.24-1.63-3.07-2.72-7.87-10.28-15.66-20.61-23.5-30.92-1.55-2.03-3.18-3.99-4.91-6.15-1.47,1.45-1.04,2.93-1.05,4.25-.04,10.23-.01,20.45-.02,30.68q0,5.14-5.18,5.16-6.04,.02-6.05-5.86c0-24.08,0-48.16,0-72.23,0-.91-.03-1.81,.02-2.72,.16-2.56,.42-2.86,3-2.97,1.94-.08,3.88,0,5.82,0,1.61,0,2.35,.85,2.35,2.42,0,.91,.03,1.81,.03,2.72,0,8.93,0,17.86,0,26.8v4.19c.37,.13,.74,.26,1.12,.4Z"/><path d="M851.06,305.26c-2.02-.58-3.38-.98-4.73-1.36-6.32-1.77-12.7-2.5-19.16-.88-1.49,.37-2.98,.94-4.31,1.7-6.35,3.6-7.73,11.69-2.56,16.82,2.32,2.31,5.37,4,8.31,5.55,5.03,2.65,10.26,4.92,15.35,7.47,1.6,.8,3.05,1.95,4.51,3.02,12.56,9.15,12.23,32.05-5.37,39.13-8.13,3.27-16.58,3.98-25.18,2.86-3.93-.51-7.78-1.56-11.95-2.42,.21-3.42,.38-6.33,.59-9.74,1.72,.41,2.91,.77,4.13,.98,5.22,.87,10.42,1.94,15.67,2.46,4.21,.42,8.2-1.05,11.86-3.1,8.36-4.69,9.44-15.31,2.04-21.43-2.26-1.87-4.96-3.27-7.61-4.6-3.58-1.8-7.37-3.19-10.95-4.99-3.11-1.56-6.19-3.26-9.07-5.21-12-8.16-10.22-26.85,1.69-33.8,4.1-2.39,8.51-3.85,13.18-4.34,7.27-.75,14.49-.3,21.54,1.8,3.65,1.09,3.93,1.54,3.21,5.24-.29,1.48-.71,2.94-1.18,4.85Z"/><path d="M1055.96,325.81c.6-.64,1.26-1.23,1.78-1.91,4.39-5.72,10.46-7.83,17.38-7.87,2.31-.01,4.67,.36,6.91,.92,6.54,1.63,11.01,5.75,13,12.15,1.02,3.29,1.7,6.83,1.76,10.26,.22,11.65,.12,23.3,.1,34.95,0,3.95-.31,4.19-4.16,4.28-5.91,.14-5.92,.08-5.98-6.01-.12-10.48-.23-20.96-.51-31.44-.07-2.68-.51-5.43-1.27-8.01-1.73-5.86-6.06-9.01-12.17-8.91-6.62,.11-11.73,2.98-14.67,9.08-2.29,4.74-3.18,9.85-3.24,15.07-.1,8.28-.03,16.57-.04,24.86,0,1.04-.02,2.07-.07,3.11-.07,1.39-.84,2.1-2.22,2.19-.13,0-.26,.01-.39,.03-7.36,.88-7.88,.41-7.88-7.07,0-24.08,0-48.16,0-72.24,0-1.17,.03-2.33,.03-3.5,0-1.58,.74-2.41,2.35-2.42,1.81,0,3.63,.03,5.44-.02,2.02-.06,2.78,.99,2.73,2.88-.03,.91,.01,1.81,.01,2.72,0,7.64,0,15.28,.01,22.92,0,1.24,.13,2.48,.2,3.73l.9,.27Z"/><path d="M1313.91,350.53c-.72,2.83-.1,5.19,.62,7.53,3,9.67,12.15,15.26,22.09,13.4,2.28-.43,4.53-1.12,6.7-1.92,2.05-.75,3.99-1.8,6.21-2.83,1.09,2.87,.68,5.69,.38,8.42-.08,.75-1.24,1.68-2.1,1.99-2.67,.97-5.37,2.04-8.16,2.42-7.52,1.02-15,.88-22.13-2.26-5.86-2.58-10.1-6.86-12.4-12.77-3.88-9.99-4.31-20.26-1.04-30.46,3.91-12.15,14.59-18.95,27.29-17.83,1.81,.16,3.64,.22,5.4,.61,7.36,1.63,12.6,5.92,15.37,12.95,2.51,6.35,3.33,12.96,2.54,20.14-1.68,.13-3.19,.36-4.69,.36-10.5,.03-20.99,0-31.49,.03-1.51,0-3.02,.14-4.61,.22Zm28.99-8.32c1.27-6.18-1.26-12.93-5.74-15.66-5.34-3.25-10.87-3.12-16.18,.07-4.66,2.8-7.73,9.96-6.62,15.58,9.38,.11,18.88,.08,28.53,.01Z"/><path d="M625.42,330.11c-.23-1.95-.26-3.11-.52-4.21-.88-3.75-.59-4.4,3.3-6.26,8.41-4.01,17.17-4.67,26.1-2.19,5.94,1.65,9.91,5.59,11.56,11.52,.86,3.09,1.52,6.34,1.57,9.53,.21,12.17,.15,24.34,.15,36.5,0,3.2-.33,3.45-3.61,3.58-.39,.02-.78,0-1.17,0q-4.71,.01-4.93-4.64c-.04-.76-.18-1.51-.35-2.9-1.1,.86-1.89,1.37-2.54,2.02-7.75,7.77-20.35,9.42-29.62,3.73-1.51-.93-2.96-2.15-4.06-3.54-6.4-8.11-4.09-21.78,4.58-27.4,4.33-2.81,9.15-4.29,14.28-4.51,4.39-.18,8.8-.03,13.2-.07,2.95-.03,3.39-.54,3.2-3.41-.66-10.13-6.51-14.85-16.62-13.54-5.1,.66-9.74,2.43-14.55,5.78Zm23.38,18.73c-5.97,.02-10.86,1.06-14.25,3.04-4.09,2.39-6.08,6.34-5.39,10.71,.71,4.46,3.8,7.84,8.13,8.89,8.35,2.04,16.82-3.11,18.78-11.45,.32-1.38,.53-2.8,.66-4.21,.55-6.25,0-6.83-6.38-6.97-.52-.01-1.03,0-1.55,0Z"/><path d="M794.32,347.86c.6,7.79-1.37,14.98-6,21.2-7.07,9.5-16.99,12.34-28.25,10.49-11.62-1.91-18.9-9.09-22.19-20.24-2.72-9.24-2.33-18.43,1.59-27.31,3.86-8.75,10.79-13.69,20.07-15.37,4.74-.86,9.53-.75,14.25,.4,10.72,2.61,18.88,11.45,20.51,25.02,.23,1.91,.03,3.87,.03,5.81Zm-28.81,23.93c6.96,.1,12.04-3.12,14.83-9.31,4.24-9.43,4.25-19.07,0-28.55-2.81-6.26-7.92-9.57-14.7-9.64-6.77-.07-12.11,3.13-14.94,9.31-4.42,9.66-4.43,19.59,.11,29.25,2.85,6.07,8.04,8.85,14.71,8.95Z"/><path d="M1248.05,327.3c1.1-1.36,1.62-1.91,2.05-2.53,4.81-6.86,11.69-9.02,19.66-8.56,1.93,.11,3.89,.34,5.75,.84,8.61,2.32,12.53,8.67,13.96,16.89,.55,3.17,.77,6.43,.8,9.66,.1,10.1,.05,20.2,.03,30.31,0,4.56-.1,4.63-4.47,4.69q-6.07,.08-6.08-5.84c0-9.2,.07-18.39-.05-27.59-.04-3.09-.3-6.22-.89-9.25-2.17-11.25-14.25-15.48-23.21-8.2-3.02,2.46-5.09,5.71-5.77,9.45-.98,5.32-1.67,10.74-1.91,16.14-.32,6.98-.05,13.98-.09,20.98-.03,3.94-.35,4.22-4.17,4.31-5.88,.15-5.95,.08-5.96-5.6,0-16.71,0-33.41,0-50.12,0-1.04,.03-2.07,.05-3.11,.04-1.6,.91-2.19,2.45-2.37,6.71-.78,7.24-.35,7.43,6.35,.03,.86,.2,1.72,.42,3.56Z"/><path d="M680.39,317.46c4.21,0,7.79-.18,11.34,.12,.96,.08,2.07,1.43,2.65,2.46,2.85,5.08,5.54,10.26,8.31,15.39,.6,1.11,1.29,2.18,2.34,3.94,1.06-1.6,1.89-2.65,2.51-3.82,2.7-5.02,5.42-10.03,7.96-15.13,1.13-2.27,2.62-3.28,5.19-3.09,2.52,.19,5.07,.04,8.46,.04-1.17,2.1-1.86,3.43-2.64,4.7-4.34,7.07-8.6,14.18-13.1,21.14-1.58,2.45-1.41,4.32,.09,6.7,5.05,7.99,9.91,16.1,14.83,24.18,.71,1.17,1.31,2.41,2.14,3.95-4.07,.97-7.68,.7-11.21,.31-1.07-.12-2.23-1.64-2.89-2.78-3.31-5.72-6.46-11.53-9.68-17.29-.62-1.1-1.33-2.15-2.28-3.68-.88,1.13-1.57,1.83-2.03,2.65-3.44,6.09-6.92,12.16-10.2,18.34-1.2,2.26-2.74,3.18-5.26,3.04-2.67-.15-5.35-.03-8.69-.03,.88-1.7,1.33-2.72,1.91-3.66,5.12-8.25,10.18-16.55,15.47-24.7,1.7-2.62,1.92-4.63,.15-7.36-4.66-7.16-9.01-14.53-13.46-21.83-.58-.94-1.04-1.96-1.89-3.58Z"/><path d="M1032.25,370.53c.32,.63,.51,.85,.54,1.09,.76,6.67-.31,8.06-7.04,8.28-2.94,.1-5.99-.06-8.85-.72-6.94-1.59-10.87-6.31-11.49-13.41-.25-2.83-.19-5.69-.19-8.54-.02-9.06,.02-18.13-.02-27.19-.02-4.13-.31-4.36-4.44-4.44-.52,0-1.04,0-1.55,0-4.59-.04-6.19-2.2-4.65-6.57,.25-.71,1.43-1.41,2.27-1.54,1.65-.25,3.36-.05,5.04-.13,2.74-.13,3.19-.51,3.3-3.17,.12-2.71,.15-5.44,.03-8.15-.1-2.29,.74-3.66,3.01-4.24,2.24-.58,4.42-1.34,6.95-2.12,.25,1.08,.58,1.9,.6,2.72,.07,3.24,.02,6.47,.04,9.71q.02,5.24,5.11,5.28c2.33,.01,4.67-.06,6.99,.04,2.49,.11,2.81,.49,2.97,3.04,.05,.77,0,1.55,0,2.33,.01,1.93-.93,2.82-2.87,2.8-2.85-.03-5.7-.04-8.55,.04-3.23,.09-3.61,.41-3.63,3.61-.05,10.62-.12,21.24,.02,31.85,.11,8.06,5.79,12.15,13.66,10.11,.86-.22,1.72-.42,2.76-.67Z"/><path d="M1196.07,378.86c-4.01,1.55-7.51,1.62-10.97,.27-2.4-.94-3.4-3.11-3.81-5.49-.23-1.39-.18-2.84-.18-4.26,0-23.69,0-47.37,0-71.06,0-.52-.01-1.04,0-1.55,.12-3.09,.34-3.34,3.32-3.44,1.42-.05,2.85-.06,4.27,0,2.68,.13,3.01,.49,3.17,3.28,.07,1.16,.03,2.33,.03,3.49,0,21.1,0,42.2,0,63.3,0,1.04-.03,2.07,.01,3.11,.19,4.37-.04,8.86,4.16,12.37Z"/><path d="M607.48,378.89c-4.18,1.44-7.78,1.71-11.35,.15-2.18-.95-3.29-2.87-3.58-5.2-.16-1.28-.16-2.58-.16-3.87,0-23.81,0-47.62,0-71.43,0-5.25,.02-5.25,5.43-5.24,5.31,0,5.32,0,5.32,5.38,0,22.78,.03,45.55-.02,68.33-.01,4.35,.13,8.54,4.36,11.89Z"/><path d="M972.67,347.48c0-8.55-.01-17.09,0-25.64,.01-4.35,.1-4.44,4.26-4.45,6.66-.02,6.23-.41,6.23,5.98,0,16.45,0,32.89,0,49.34,0,1.04-.03,2.07-.02,3.11,.02,1.7-.71,2.54-2.49,2.76-7.28,.9-7.99,.32-7.99-7.01,0-8.03,0-16.06,0-24.09Z"/><path d="M1219.88,347.95c0,8.4,0,16.81,0,25.21,0,1.03-.02,2.07-.09,3.1-.13,1.85-1.42,2.43-2.97,2.28-2.3-.23-5.02,1.18-6.76-1.36-.45-.65-.3-1.75-.3-2.65-.01-17.71-.03-35.42,0-53.14,0-3.77,.22-3.92,3.94-4q6.17-.13,6.18,6.13c0,8.14,0,16.29,0,24.43Z"/><path d="M1226.25,302.3c-3.51-.08-6.12-2.52-6.13-5.72-.02-3.42,3.16-6.48,6.55-6.31,3.2,.16,5.52,2.84,5.49,6.34-.04,3.58-2.31,5.77-5.91,5.69Z"/><path d="M989.45,302.3c-3.44-.02-5.87-2.46-5.83-5.83,.05-3.45,2.85-6.29,6.11-6.19,3.17,.11,6.03,3.23,5.92,6.47-.1,3.21-2.73,5.56-6.21,5.55Z"/></g></g></svg>