<svg xmlns="http://www.w3.org/2000/svg" height="1em" viewBox="0 0 640 512"><!--! Font Awesome Pro 6.4.2 by @fontawesome - https://fontawesome.com License - https://fontawesome.com/license (Commercial License) Copyright 2023 Fonticons, Inc. --><path d="M560 512H80.3c-9.3 0-16.6-7.4-16.6-16.6s7.4-16.6 16.6-16.6h479c9.3 0 16.6 7.4 16.6 16.6s-7.4 16.6-16.6 16.6zM160 432c-4.8 0-9.6-1.9-12.8-6.1-6.1-7-5.1-17.6 1.9-23.4 68.2-56.6-2.9-177-3.5-178-3.5-6.1-86.1-146 3.5-221 7-5.8 17.6-5.1 23.7 1.9 6.1 7 5.1 17.6-1.9 23.4-67.8 56.6 2.9 177 3.5 178 3.5 5.8 86.1 146-3.5 221-3.2 2.6-7 3.8-10.9 3.8zM302 432c-4.8 0-9.6-1.9-12.8-6.1-6.1-7-5.1-17.6 1.9-23.4 67.8-56.6-2.9-177-3.5-178-3.5-5.8-86.1-146 3.5-221 7-5.8 17.6-5.1 23.7 1.9 6.1 7 5.1 17.6-1.9 23.4-68.2 56.6 2.9 177 3.5 178 3.5 6.1 86.1 146-3.5 221-3.2 2.6-7 3.8-10.9 3.8zM444 432c-4.8 0-9.6-1.9-12.8-6.1-6.1-7-5.1-17.6 1.9-23.4 67.8-56.6-2.9-177-3.5-178-3.5-5.8-86.1-146 3.5-221 7-5.8 17.6-5.1 23.7 1.9 6.1 7 5.1 17.6-1.9 23.4-67.8 56.6 2.9 177 3.5 178 3.5 5.8 86.1 146-3.5 221-3.2 2.6-7 3.8-10.9 3.8z"/></svg>