<?xml version="1.0" encoding="UTF-8"?><svg id="Layer_2" xmlns="http://www.w3.org/2000/svg" viewBox="0 0 753.08 574.28"><g id="Layer_1-2"><g><path d="M375.72,0c3.92,.45,7.85,.84,11.77,1.35,44.78,5.93,85.08,21.85,118.05,53.63,13.57,13.08,23.58,28.55,27.63,47.24,5.82,26.85-1.78,50.03-20.32,69.81-15.78,16.84-35.61,27.18-57.25,34.25-26.86,8.77-54.52,11.97-82.62,9.99-26.73-1.89-52.06-8.96-74.8-23.7-11.13-7.21-20.55-16.14-26.54-28.23-9.53-19.24-5.61-39.87,10.38-54.2,11.51-10.32,25.29-16.14,40.13-19.59,3.22-.75,4.36-1.82,4.28-5.28-.26-11.19-.1-22.39-.1-33.58v-3.64h46.15c0,1.22,0,2.35,0,3.47,0,11.4,.12,22.81-.08,34.21-.05,3.04,1.1,3.77,3.8,4.2,10.97,1.76,21.23,5.54,30.3,12.07,11.01,7.92,18,18.38,18.65,32.21,.86,18.19-8.26,32.03-25.33,38.92-11.08,4.47-22.69,5.43-34.51,4.7-.95-.06-1.87-.5-2.84-1.35,16.19,.52,30.49-3.55,41.87-15.97-2.76,0-5.54-.17-8.29,.05-2.55,.2-3.17-.76-3.16-3.19,.09-16.11,0-32.22,.11-48.33,.02-2.41-.65-3.82-2.83-4.92-5.53-2.8-11.17-5.15-17.85-6.08v3.86c0,18.31-.07,36.62,.07,54.92,.02,3.09-.93,3.79-3.89,3.76-13.91-.15-27.82-.07-42.12-.07-.07-1.12-.17-2.11-.17-3.1-.01-16.32,.05-32.64-.07-48.96-.02-2.23,.85-3.4,2.58-4.48,9.06-5.66,19.06-8.56,29.55-9.61,5.57-.56,11.25-.1,17.02-.83-2.16-.55-4.31-1.16-6.48-1.64-16.82-3.69-33.3-2.78-49.1,4.36-36.73,16.61-42.93,64.19-11.95,90.97,13.56,11.72,29.59,18.29,47.09,20.42,36.53,4.46,71.79-.44,104.78-17.45,20.86-10.75,37.38-26.14,48.13-47.4,15.4-30.42,8.32-77.71-28.91-100.9-16.62-10.35-34.79-16.14-53.89-19.4-20.39-3.48-40.94-4.83-61.57-3.09-35.64,3-68.96,12.86-97.97,34.63-13.52,10.15-24.34,22.65-30.95,38.39-10.74,25.58-6.04,49.36,9.26,71.49,4.52,6.54,10.39,12.16,15.86,18.44-.61-.17-1.38-.16-1.82-.54-23.27-20.26-38.21-44.61-36.25-76.65,1.18-19.28,9.04-36.14,21.07-51.06,17.89-22.19,41.21-36.34,68-45.16,14.56-4.79,29.53-7.54,44.85-8.36,.91-.05,1.8-.39,2.71-.6,5.86,0,11.72,0,17.58,0Z"/><path d="M753.08,457.61c-16.95-.05-33.89-.1-50.84-.15-1.96,0-3.93,0-6.28,0,0-2.36-.24-4.46,.12-6.46,.14-.79,1.52-1.73,2.49-1.94,2.82-.63,5.72-.92,8.64-1.36,.06-1.15,.15-1.97,.15-2.8,0-24.48,.04-48.96-.07-73.44-.02-3.53-.48-7.1-1.16-10.56-2.91-14.87-13.58-19.38-26.11-17.42-7.94,1.24-15.05,5.01-21.63,9.55-.97,.67-1.45,2.63-1.46,4-.08,28.98-.06,57.95-.06,86.93v3.49c3.33,.51,6.29,1.08,9.29,1.39,1.72,.17,2.44,.84,2.34,2.54-.07,1.15,.26,2.4-.1,3.42-.32,.91-1.34,2.25-2.05,2.25-18,.1-35.99,.04-53.99,0-.19,0-.39-.15-1.02-.4,0-1.87-.16-3.94,.09-5.96,.08-.65,1.18-1.51,1.95-1.69,2.44-.55,4.93-.97,7.42-1.17,1.96-.15,2.37-1.07,2.36-2.83-.03-35.04-.04-70.09,0-105.13,0-1.9-.46-2.83-2.56-3-3-.25-5.96-.89-9.1-1.38v-8.29h45.29v17.79c3.57-2.65,6.53-4.89,9.53-7.06,9.01-6.5,18.69-11.53,29.87-12.97,7.2-.92,14.42-.91,21.47,1.13,11.96,3.46,18.82,11.89,21.33,23.63,1.49,6.99,2.09,14.28,2.16,21.44,.25,24.27,.15,48.54,.03,72.81-.02,3.19,.8,4.53,4.13,4.5,2.58-.02,5.17,.64,7.76,1v8.16Z"/><path d="M114.89,457.31v-8.88c3.71-.49,7.3-1.01,10.91-1.41,1.56-.18,2.51-.62,2.51-2.45-.04-23.43-.04-46.86-.06-70.29,0-.39-.18-.78-.32-1.34H48.56c-.07,1-.19,2-.19,2.99-.01,22.49,.04,44.98-.07,67.46-.01,2.73,.8,3.66,3.5,3.76,2.79,.1,5.57,.77,8.55,1.22v8.96H0v-8.91c3.16-.47,6.23-1.08,9.33-1.33,2.2-.18,2.96-1.16,2.74-3.21-.02-.21,0-.42,0-.63,0-51.77-.02-103.55,.05-155.32,0-2.58-.6-3.79-3.36-3.94-2.89-.16-5.75-.81-8.77-1.27v-8.73H60.34v8.79c-3.16,.47-6.12,1.12-9.12,1.3-2.34,.14-2.94,1.03-2.92,3.28,.11,9.94,.05,19.87,.05,29.81,0,10.98,0,21.96,0,32.95v3.71c1.4,.07,2.52,.18,3.63,.18,24.17,0,48.34-.04,72.5,.07,3.02,.01,3.89-.83,3.87-3.86-.13-20.71-.11-41.42-.02-62.13,.01-2.66-.52-4.08-3.51-4.09-2.28,0-4.56-.86-6.83-.83-2.93,.04-3.55-1.3-3.29-3.84,.17-1.73,.03-3.49,.03-5.41h61.99c0,2.6,.11,5.17-.09,7.71-.04,.52-1.21,1.23-1.95,1.38-2.66,.51-5.36,.94-8.06,1.16-1.71,.14-2.49,.78-2.39,2.5,.05,.73,0,1.46,0,2.2,0,51.15,.03,102.29-.07,153.44,0,3.39,.7,4.99,4.37,4.95,2.58-.03,5.16,.7,7.99,1.12v8.93h-61.64Z"/><path d="M455.7,398.1c.18-23.77,5.34-42.15,20.44-56.66,10.31-9.91,22.9-15.2,36.88-17.2,13.52-1.93,26.95-1.29,39.95,3.18,22.27,7.66,34.59,23.95,39.18,46.49,2.76,13.57,2.93,27.23-.87,40.67-6.54,23.09-21.76,37.7-44.73,43.91-17.1,4.62-34.4,4.08-51.41-.82-20.72-5.97-32.6-20.29-36.94-41.01-1.51-7.22-1.98-14.67-2.49-18.58Zm101.71-4.98c-.88-8.82-1.46-17.68-2.72-26.45-1.18-8.22-3.76-16.07-8.76-22.89-10.9-14.89-32.76-14.65-42.81,.81-3.12,4.8-5.36,10.45-6.78,16.02-4.19,16.49-4.13,33.33-2.44,50.15,.98,9.8,3.21,19.29,8.25,28.01,10.19,17.65,37.28,16.86,46.39-.79,1.43-2.77,2.77-5.63,3.74-8.59,3.85-11.76,4.56-23.95,5.14-36.27Z"/><path d="M340.69,457.41h-56.82c0-2.24-.17-4.4,.1-6.51,.09-.69,1.22-1.51,2.04-1.79,1.26-.43,2.67-.42,4.01-.64q5.36-.88,5.36-6.17c0-53.23,0-106.45,0-159.68,0-1.44,0-2.87,0-4.44-3.16-.51-5.91-1.2-8.7-1.35-2.44-.13-3.01-1.24-2.87-3.37,.11-1.64,.02-3.29,.02-5.12h45.18v179.26c3.05,.47,5.8,1.04,8.57,1.28,2.32,.2,3.42,1.05,3.16,3.5-.17,1.54-.03,3.11-.03,5.02Z"/><path d="M440.7,326.98v11.91h-30.44c-.12,1.12-.26,1.82-.26,2.53,.03,27.19,.06,54.38,.16,81.57,0,2.28,.32,4.6,.76,6.84,1.64,8.38,6.44,12.95,15,13.38,8,.41,16.04,.09,24.24,.09v7.79c-10.35,3.78-20.99,6.86-32.07,7.58-6.93,.45-14.06,.55-20.89-.52-12.29-1.92-18.46-8.8-20.07-21.08-.62-4.75-.83-9.58-.84-14.38-.08-26.56-.04-53.13-.04-79.69q0-4.09-4.09-4.1c-6.37,0-12.75,0-19.43,0v-11.91h24.46c0-5.2,0-9.98,0-14.76,0-3.56-.1-7.12,.07-10.66,.04-.89,.82-2.28,1.55-2.51,10.25-3.21,20.55-6.25,31.16-9.43,.06,1.26,.16,2.24,.16,3.22-.03,10.04-.07,20.08-.11,30.12q-.02,4.01,4.15,4.02c7.64,0,15.27,0,22.91,0h3.64Z"/><path d="M246.86,326.98v120.64c3.02,.47,5.77,1.07,8.55,1.28,2.49,.19,3.56,1.16,3.27,3.71-.18,1.51-.03,3.07-.03,4.69h-56.9c0-2.2-.24-4.3,.12-6.29,.14-.79,1.54-1.73,2.51-1.94,2.84-.61,5.75-.89,8.92-1.34v-3.62c0-34.6-.04-69.21,.07-103.81,0-2.89-.71-4.14-3.65-4.29-2.49-.12-4.96-.69-7.95-1.14,0-2.12-.22-4.3,.13-6.39,.11-.64,1.77-1.43,2.73-1.44,11.92-.1,23.84-.07,35.76-.07,2.06,0,4.12,0,6.47,0Z"/><path d="M393.26,47.97h45.78c.06,1.35,.17,2.56,.17,3.78,0,34.83-.03,69.66,.08,104.49,.01,3.15-.77,4.3-4,4.02-3.1-.28-6.25-.06-9.61-.06,.15-.66,.15-1.08,.34-1.38,10.7-17.02,7.62-42.13-14.11-56.07-5.13-3.3-10.96-5.53-16.52-8.14-1.39-.65-2.51-1.04-2.5-2.99,.08-14.01,.05-28.03,.06-42.04,0-.5,.19-1,.31-1.58Z"/><path d="M211.92,286.23c.04-11.98,8.32-20.58,19.8-20.58,11.01,0,19.43,8.62,19.46,19.91,.03,12.22-8.56,21.36-19.98,21.26-11.48-.1-19.32-8.47-19.28-20.6Z"/><path d="M579.9,549.6c-.06,11.47-6.24,20.56-15.89,23.39-14.74,4.33-28.29-5.79-29.24-21.82-.84-14.16,8.22-25.33,21.23-26.2,13.74-.91,23.98,9.65,23.9,24.63Zm-7.96-.59c-1.34-3.75-2.09-7.89-4.16-11.2-4.95-7.92-16.32-7.92-21.82-.39-4.78,6.56-4.56,18.08,.48,24.47,6,7.61,17.54,6.83,22.03-1.77,1.68-3.23,2.24-7.05,3.46-11.11Z"/><path d="M141.65,549.88c-.2,11.37-6.3,20.26-15.86,23.1-14.88,4.42-28.45-5.78-29.29-22.04-.73-14.15,8.48-25.29,21.48-25.98,13.71-.72,23.93,10.04,23.67,24.92Zm-37.46,.04c1.03,3.12,1.82,7.17,3.67,10.66,2.49,4.7,6.93,6.76,12.35,6.39,5.06-.34,8.67-2.93,10.83-7.39,2.97-6.13,3.22-12.48,.65-18.82-2.33-5.76-7.08-8.95-12.81-8.85-5.85,.1-10.48,3.32-12.6,9.12-.92,2.51-1.25,5.24-2.08,8.9Z"/><path d="M363.12,557.49c1.11-4.31,1.99-7.72,2.97-11.48,1.92,.4,3.8,.79,6.49,1.35-1.4,4.37-2.54,8.45-4.06,12.38-.63,1.64-.63,2.62,.67,3.8,2.78,2.51,5.44,5.15,8.24,7.82-6.42,3.89-10.54,.89-14-3.81-2.33,1.64-4.24,3.26-6.39,4.44-4.93,2.7-10.2,2.89-15.51,1.27-8.7-2.66-11.74-12.72-5.89-20,1.92-2.39,4.6-4.17,6.51-5.85-1.14-3.48-2.92-6.89-3.25-10.43-.57-5.99,3.69-10.94,9.7-11.34,3.97-.26,8.03,.62,12.03,1.16,2.73,.37,3.68,1.98,2.72,4.68-.34,.96-.41,2.02-.64,3.21-2.65-.92-5.11-1.95-7.68-2.6-1.46-.37-3.15-.43-4.62-.12-3.45,.73-4.49,3.46-3.06,6.68,3.34,7.52,9.88,12.25,15.76,18.87Zm-3.75,5.33c-3.8-3.57-7.49-7.08-11.25-10.52-.44-.4-1.33-.68-1.88-.53-2.96,.79-5.93,5.57-5.72,8.97,.23,3.7,2.59,6.28,6.44,6.93,4.7,.8,8.54-.8,12.41-4.85Z"/><path d="M598.42,572.85h-7.8c-.09-1.08-.23-2.08-.23-3.08-.02-13.48,.06-26.97-.07-40.45-.03-2.77,.79-3.67,3.54-3.53,5.01,.26,10.05-.03,15.04,.38,9.27,.76,14.36,6.97,13.46,16.11-.56,5.76-4.24,9.06-9.8,11.25,4.42,5.99,8.67,11.74,13.23,17.92-2.66,.66-4.99,1.41-7.38,1.74-.7,.1-1.76-.83-2.31-1.56-3.39-4.51-6.69-9.09-10.02-13.64q-2.63-3.6-7.66-3.01v17.88Zm-.05-23.9c3.94-.38,7.38-.4,10.67-1.12,3.52-.78,5.45-3.92,5.33-7.52-.11-3.5-2.11-6.13-5.74-6.8-2.74-.5-5.58-.54-8.38-.51-.63,0-1.78,1.11-1.8,1.74-.16,4.46-.08,8.93-.08,14.21Z"/><path d="M416.52,555.11v17.59h-7.94c-.06-.85-.18-1.84-.18-2.84-.01-13.6,.04-27.19-.06-40.79-.02-2.39,.56-3.39,3.12-3.27,5.12,.24,10.26-.04,15.36,.36,9.44,.75,14.49,7.01,13.5,16.35-.6,5.67-4.28,8.81-9.75,11,4.43,6.01,8.72,11.82,12.93,17.54-.26,.37-.3,.49-.37,.52q-7.03,2.55-11.35-3.35c-2.53-3.46-5.27-6.79-7.51-10.43-1.86-3.02-4.18-3.74-7.75-2.69Zm-.05-14.46c0,8.75,1.01,9.53,9.84,7.5,.81-.19,1.87-.29,2.31-.83,1.39-1.69,3.26-3.44,3.63-5.42,1.05-5.51-2.27-8.65-8.8-8.98q-6.99-.35-6.99,6.79c0,.31,0,.63,0,.94Z"/><path d="M48.93,526.25h7.75v18.45h22.04v-18.35h7.94v46.54h-7.73v-20.32h-22.03v20.23h-7.96v-46.55Z"/><path d="M462.46,566.12h21.38v6.74h-29.4v-46.5h28.53c1.39,6.22,.97,6.77-5.06,6.77-5.1,0-10.2,0-15.46,0v11.7h16.61c.42,2.5,.78,4.62,1.22,7.23h-17.81v14.06Z"/><path d="M202.39,533.13v11.73h16.61c.38,2.48,.72,4.67,1.1,7.19h-17.58v14.04c3.93,0,7.88,0,11.82,0,1.26,0,2.51,0,3.77,0q6.32,0,5.39,7c-4.68,0-9.45,0-14.22,0s-9.61,0-14.71,0v-46.83h28.1c.19,.32,.36,.49,.38,.67q.55,6.2-5.61,6.2c-4.9,0-9.8,0-15.04,0Z"/><path d="M494.63,563.49c4.3,1.11,8.26,2.45,12.34,3.06,2.59,.39,5.42,0,8.01-.61,2.63-.62,4.28-2.65,4.43-5.47,.14-2.68-1.25-4.63-3.66-5.69-2.58-1.13-5.26-2.01-7.87-3.08-2.12-.87-4.29-1.68-6.29-2.8-8.05-4.51-8.69-14.65-1.33-20.25,4.96-3.78,17.95-4.4,23.16-1.05,.49,.32,.98,1.16,.93,1.71-.18,1.94-.6,3.86-.87,5.41-4.38-.9-8.49-1.85-12.64-2.52-1.26-.2-2.97-.05-3.91,.67-1.61,1.24-3.37,2.86-3.97,4.68-.77,2.35,1.06,4.15,3.21,5.1,4.87,2.14,9.89,3.96,14.66,6.28,4.08,1.98,6.09,5.55,6.11,10.17,.03,6.35-3.32,11.14-9.56,13.2-7.66,2.52-15.08,1.04-22.32-1.8-.6-.24-1.21-1.38-1.19-2.08,.05-1.65,.47-3.29,.75-4.95Z"/><path d="M298.96,534.67c-4.65-.88-8.88-1.9-13.17-2.4-1.61-.19-3.55,.51-5.01,1.37-3.48,2.05-3.51,6.34-.05,8.44,2.12,1.28,4.56,2.04,6.87,3,2.31,.97,4.7,1.78,6.94,2.87,6.02,2.93,8.14,6.46,7.75,12.62-.35,5.56-3.65,9.85-9.34,11.73-8.13,2.7-15.85,.8-23.78-2.31,.41-2.31,.8-4.52,1.15-6.51,4.25,1.1,8.23,2.47,12.32,3.05,2.69,.38,5.6-.1,8.29-.75,2.36-.57,3.83-2.41,4.04-5.04,.22-2.74-.94-4.74-3.34-5.84-2.65-1.22-5.45-2.11-8.15-3.22-2.12-.87-4.25-1.74-6.29-2.79-9.17-4.69-7.29-15.75-1.47-20.13,5.02-3.78,17.87-4.59,23.14-1.2,.52,.34,.9,1.35,.86,2.02-.14,1.86-.53,3.71-.75,5.07Z"/><path d="M703.14,534.71c-4.51-.88-8.72-1.89-12.99-2.45-1.52-.2-3.35,.4-4.76,1.15-3.98,2.09-4.03,6.73-.06,8.94,2.35,1.31,4.98,2.12,7.49,3.16,2.12,.88,4.28,1.68,6.36,2.65,5.61,2.62,8.03,7.07,7.34,13.2-.63,5.62-3.94,9.15-9.08,10.9-8.19,2.79-16,.96-23.84-2.27,.42-2.39,.8-4.52,1.14-6.5,4.18,1.08,8.14,2.49,12.22,3.04,2.78,.38,5.8-.14,8.57-.82,2.38-.58,3.73-2.55,3.87-5.15,.14-2.6-.99-4.54-3.26-5.59-2.64-1.23-5.44-2.13-8.14-3.23-2.12-.86-4.27-1.7-6.31-2.75-3.96-2.05-6.55-5.07-6.6-9.85-.04-5.08,2.07-8.99,6.46-11.37,6.97-3.79,14.16-2.65,21.26-.24,.55,.19,1.18,1.25,1.13,1.86-.13,1.93-.57,3.85-.81,5.32Z"/><path d="M644.89,533.13c-4.14,0-7.59-.21-11.01,.06-3.23,.26-4.44-.89-3.93-4.03,.15-.9,.15-1.82,.23-2.89h37.27c.31,2.12,.6,4.15,.97,6.77h-15.38v39.84h-8.16v-39.75Z"/><path d="M183.5,526.31c.27,2.17,.52,4.2,.83,6.73h-15.2v39.77h-8.13c-.06-1.32-.16-2.54-.17-3.76-.01-10.87-.08-21.74,.04-32.61,.03-2.62-.8-3.49-3.39-3.36-3.72,.18-7.46,.05-11.36,.05v-6.82h37.37Z"/><path d="M235.89,572.9v-46.59h7.76v39.89h18.1c.35,2.42,.64,4.44,.96,6.7h-26.82Z"/><path d="M536.31,202.92v10.77c-.23,.03-.46,.07-.69,.1-.21-.58-.59-1.16-.6-1.74-.05-4.07-.09-8.14,.02-12.21,.02-.72,.78-1.41,1.19-2.12,.64,.55,1.58,.98,1.86,1.67,1.49,3.63,2.81,7.33,4.3,11.28,3.37-4.03,2.87-9.91,6.82-13.15,.29,.14,.58,.28,.86,.42v15.72c-.33,.03-.67,.06-1,.09v-10.89c-.35-.03-.71-.06-1.06-.09-1.1,2.75-2.14,5.53-3.34,8.24-.46,1.03-1.3,1.89-1.97,2.82-.61-.89-1.36-1.71-1.8-2.67-1.26-2.79-2.4-5.65-3.59-8.48-.33,.07-.67,.14-1,.22Z"/><path d="M525.15,213.76v-14.6c-1.59-.23-2.77-.4-3.95-.57,0-.18,0-.36,0-.54h9.03c.02,.15,.05,.29,.07,.44-1.04,.19-2.08,.37-3.76,.67v14.69c-.46-.03-.93-.07-1.39-.1Z"/></g></g></svg>