<?xml version="1.0" encoding="UTF-8"?><svg id="Layer_2" xmlns="http://www.w3.org/2000/svg" viewBox="0 0 183.28 146.07"><g id="Layer_2-2"><path d="m183.28,45.97c-1.23,1.16-2.41,2.26-3.58,3.38-.51.49-.95,1.04-1.45,1.53-2,1.98-4.02,3.95-6.02,5.93-.96.95-1.86,1.95-2.82,2.9-1.52,1.51-3.07,2.99-4.59,4.5-1.97,1.97-3.9,3.98-5.87,5.95-1.56,1.56-3.15,3.08-4.71,4.63-.83.82-1.6,1.69-2.43,2.51-1.59,1.56-3.22,3.09-4.82,4.65-.57.56-1.09,1.16-1.65,1.73-1.87,1.85-3.76,3.69-5.62,5.55-.72.71-1.41,1.45-2.1,2.19-.29.32-.62.48-1.05.43-.18-.02-.37,0-.55,0-29.68,0-59.37,0-89.05,0h-1.02C30.58,76.52,15.26,61.25,0,46.04c1.34-1.4,2.62-2.75,3.9-4.09.17-.18.35-.34.53-.51,1.82-1.85,3.64-3.72,5.47-5.56,1.69-1.69,3.41-3.34,5.11-5.02.65-.65,1.26-1.34,1.91-1.99.65-.65,1.34-1.26,1.99-1.91,1.81-1.83,3.59-3.68,5.41-5.49,1.67-1.66,3.39-3.27,5.08-4.92.61-.6,1.18-1.24,1.79-1.85.76-.76,1.55-1.48,2.31-2.24,1.83-1.85,3.64-3.72,5.48-5.56,1.91-1.9,3.84-3.78,5.76-5.67.26-.26.54-.5.76-.8.23-.31.5-.43.86-.41.24.01.49,0,.74,0,29.65,0,59.31,0,88.96-.02.83,0,1.41.22,2,.82,3.57,3.62,7.17,7.21,10.77,10.79,2.41,2.4,4.84,4.77,7.25,7.17,2.41,2.4,4.81,4.8,7.21,7.21,2.42,2.42,4.85,4.85,7.27,7.27,2.4,2.4,4.8,4.81,7.21,7.21,1.32,1.31,2.67,2.6,4,3.91.48.47.92.97,1.51,1.59ZM137.15.19c-15.19,15.28-30.24,30.41-45.37,45.62,15.11,15.19,30.16,30.31,45.37,45.6V.19ZM46.03.48c-.24,1.1-.2,90.27,0,91,.99-.94,1.98-1.84,2.92-2.79,1.52-1.51,3-3.06,4.51-4.58,2.09-2.11,4.2-4.2,6.29-6.3,1.64-1.65,3.26-3.32,4.9-4.98,2.21-2.24,4.43-4.48,6.66-6.71.95-.95,1.93-1.88,2.88-2.83,1.55-1.56,3.07-3.16,4.63-4.71,2.01-2.01,4.07-3.98,6.08-6,2.07-2.09,4.1-4.21,6.15-6.33.08-.08.13-.19.19-.3C76.2,30.8,61.16,15.69,46.03.48Z"/><path d="m94.69,145.17v-38.44c.26-.02.49-.06.73-.06,5.15,0,10.29,0,15.44,0,2.47,0,4.91.31,7.19,1.27,3.31,1.39,5.4,3.82,5.93,7.46.35,2.39-.07,4.59-1.64,6.46-1.16,1.37-2.64,2.36-4.33,3-.3.12-.6.26-1.01.44.7.18,1.25.33,1.81.47,2.24.56,4.03,1.82,5.29,3.71,1.08,1.61,1.41,3.49,1.32,5.44-.07,1.68-.54,3.27-1.33,4.73-.35.66-.91,1.23-1.46,1.75-1.26,1.19-2.69,2.06-4.37,2.6-2.75.88-5.56,1.17-8.42,1.16-4.69,0-9.38,0-14.07,0-.33,0-.67,0-1.08,0Zm8.28-6.02c.22.02.33.04.45.04,2.27,0,4.53.03,6.8-.01.79-.02,1.6-.13,2.34-.38,2.28-.75,3.84-2.26,3.86-4.86.01-1.77-.51-3.36-2.05-4.37-1.08-.71-2.31-1.11-3.63-1.13-2.45-.03-4.89-.04-7.34-.05-.14,0-.28.06-.43.1v10.66Zm0-16.51h.97c1.78,0,3.56,0,5.34,0,.46,0,.92-.03,1.37-.08,1.6-.17,2.92-.83,3.87-2.17,1.16-1.64,1.22-4.6-.76-6.14-1.31-1.02-2.79-1.37-4.36-1.42-1.9-.05-3.8,0-5.7.01-.23,0-.46.03-.73.05v9.75Z"/><path d="m29.33,129.15v15.97h-8.54v-38.29c.59-.19,6.89-.27,8.51-.09.05,1.01.02,2.04.02,3.06,0,1.01,0,2.02,0,3.03v9.27c.67.2,14.9.26,16.25.06v-15.45h8.43s.04.04.06.06c.02.02.05.05.05.07.02,1.29.05,2.57.05,3.86,0,11.43,0,22.86,0,34.27-.7.23-7.3.28-8.55.08v-15.91h-16.29Z"/><path d="m88.97,117.44h-8.5c-.04-.21-.08-.38-.11-.56-.4-2.73-2.11-4.47-4.86-4.85-1.32-.18-2.63-.13-3.9.33-1.1.4-1.99,1.06-2.64,2.04-.73,1.1-.82,2.32-.48,3.53.14.51.58,1.02,1.01,1.36.57.45,1.23.8,1.9,1.09,2.68,1.14,5.49,1.87,8.29,2.64,2.41.66,4.72,1.52,6.79,2.95.76.52,1.36,1.2,1.93,1.94,2.92,3.79,2.43,9.98-1.19,13.55-1.81,1.78-3.94,2.9-6.32,3.59-4.51,1.3-9.05,1.42-13.58.07-2.85-.85-5.18-2.43-6.88-4.91-.8-1.17-1.15-2.5-1.44-3.84-.21-1.01-.28-2.05-.42-3.21,2.92-.03,5.72,0,8.58-.01.1.6.17,1.14.28,1.67.49,2.59,2.29,4.32,4.91,4.78,2.19.39,4.27.14,6.23-.94.88-.48,1.59-1.14,2.1-2,.67-1.13.6-3.48-.25-4.44-.45-.51-1.05-.96-1.66-1.26-1.48-.74-3.08-1.15-4.69-1.5-1.22-.27-2.43-.63-3.62-1.03-1.98-.65-3.91-1.41-5.77-2.37-1.46-.75-2.59-1.83-3.57-3.09-2.52-3.24-2.29-9.16,1.11-12.58,1.94-1.96,4.28-3.03,6.85-3.7,3.81-1,7.65-.91,11.46.01,2.84.69,5.28,2.06,6.94,4.6.85,1.31,1.07,2.78,1.34,4.25.11.6.11,1.21.17,1.92Z"/><path d="m162.79,118.28h-9.01c-.2-.69-.35-1.38-.58-2.03-.15-.42-.36-.85-.64-1.2-1.79-2.31-4.19-2.95-6.96-2.4-3.02.61-5.09,2.45-6.37,5.18-1.41,3.03-1.8,6.26-1.67,9.57.09,2.15.48,4.26,1.26,6.26,1.65,4.25,5.49,6.61,10.21,5.58,1.65-.36,2.97-1.33,3.86-2.77.41-.66.59-1.47.86-2.21.07-.2.13-.4.2-.61h8.78c-.33,4.43-2.29,7.83-6.05,10.07-1.79,1.07-3.79,1.75-5.87,2.03-3.78.52-7.5.31-11.16-.87-2.85-.92-5.23-2.53-7.09-4.85-1.27-1.59-2.11-3.44-2.69-5.38-1.48-4.94-1.58-9.95-.47-14.97.59-2.68,1.67-5.19,3.37-7.38,2.21-2.84,5.1-4.72,8.58-5.67,3.64-1,7.32-1.08,10.99-.22,2.53.59,4.89,1.61,6.79,3.46,1.9,1.85,3.06,4.11,3.51,6.72.09.53.12,1.07.18,1.67Z"/></g></svg>