<?xml version="1.0" encoding="UTF-8"?><svg id="Layer_2" xmlns="http://www.w3.org/2000/svg" viewBox="0 0 1198.75 609.49"><defs><style>.cls-1{opacity:.33;}.cls-1,.cls-2{fill:#231f20;}</style></defs><g id="Layer_1-2"><path class="cls-1" d="M299.6,303.65c.29-11.94,.97-23.88,.8-35.81-.45-32.51-3.59-64.71-11.76-96.3-8.8-34.02-23.74-64.87-46-92.29-25.24-31.08-56.46-53.53-94.07-66.99-8.84-3.17-18.18-5.07-27.4-7.01-3.41-.72-4.51-2.2-4.51-5.24,3.33,0,6.66,0,9.99,0,8.37,1.67,16.85,2.93,25.1,5.07,38.73,10.07,73.95,27.28,105.05,52.58,36,29.28,63.85,64.96,83.14,107.15,11.77,25.73,19.72,52.6,23.66,80.71,2.5,17.8,3.39,35.59,2.58,53.51-5.41-.85-10.8-1.99-16.24-2.5-17.33-1.62-34.14,.72-50.35,7.13Z"/><path class="cls-2" d="M1198.75,363.4c-1.29-.19-2.58-.55-3.86-.56-34.97-.03-69.93-.03-104.9-.01-1.14,0-2.28,.18-3.39,.27-3.81,41.19,22.2,64.14,57.55,60.63,9.11-.9,18.01-4.32,26.91-6.91,9.7-2.81,17.38-.63,23.66,7.47-11.17,5.77-22.84,9.85-35.02,12.5-23.46,5.1-46.57,4.64-69.04-4.74-28.51-11.9-45.48-37.55-44.13-66.6,1.4-30.09,21.2-55.36,51.47-64.74,21.53-6.67,43.31-6.97,64.7,.69,19.89,7.13,31.2,21.77,35.05,42.38,.17,.91,.65,1.76,.98,2.64v16.97Zm-36.03-15.6c-.35-3.7-.53-7.13-1.01-10.52-2.07-14.59-10.58-24.02-24.48-26.4-4.84-.83-9.96-.77-14.88-.35-18.58,1.61-35.13,19.65-34.28,37.26h74.65Z"/><path class="cls-1" d="M809.05,421.14c-2.6-14.96-5.52-29.88-7.67-44.91-1.36-9.48-1.97-19.12-2.18-28.7-.34-16.13-.58-32.28,.05-48.39,.56-14.19,1.87-28.39,3.72-42.47,3.23-24.53,7.13-48.96,10.87-74.29-4.11,1.92-8.9,3.34-12.73,6.1-12.76,9.19-25.64,18.3-37.61,28.45-27.21,23.06-48.37,51.35-67.9,80.92-.55,.83-.95,1.75-1.42,2.63-11.65-1.6-23.3-3.19-34.95-4.79,4.29-7.83,8.39-15.77,12.9-23.47,12.77-21.81,27.31-42.46,43.85-61.52,22.83-26.31,47.39-50.91,79.07-66.76,20.72-10.37,42.49-17.99,65.76-20.12,11.87-1.09,23.82-1.39,35.73-2.02,1.63-.09,3.26-.01,5.86-.01-1.42,5.1-2.47,9.52-3.87,13.82-9.9,30.44-17.4,61.5-23.15,92.95-2.85,15.59-4.39,31.42-6.32,47.16-.92,7.55-1.36,15.15-2.02,22.73-5.91,0-11.83,0-18.12,0v6.25c0,21.74,.14,43.47-.09,65.21-.07,6.26-.66,12.63-1.99,18.73-4.41,20.17-19.11,32.58-37.77,32.5Z"/><path class="cls-2" d="M0,266.59c13.56,0,26.7-.14,39.83,.17,1.67,.04,3.91,2.07,4.82,3.75,19.7,36.36,39.25,72.8,58.84,109.22,.78,1.46,1.58,2.91,2.76,5.07,1.07-1.83,1.95-3.24,2.74-4.71,19.59-36.41,39.21-72.81,58.67-109.29,1.72-3.22,3.55-4.39,7.23-4.32,12.46,.26,24.92,.1,37.7,.1v170.13h-34.76v-123.67c-.32-.09-.63-.18-.95-.27-.83,1.48-1.7,2.93-2.47,4.44-19.14,37.58-38.33,75.13-57.32,112.78-1.81,3.6-3.9,4.54-7.84,5.04-8.64,1.09-12.66-2.45-16.41-10.08-17.66-35.9-36.06-71.43-54.21-107.1-.79-1.56-1.67-3.08-3.36-4.41v123.26H0v-170.12Z"/><path class="cls-1" d="M575.52,333.81c1.61-10.27,3.35-20.51,4.8-30.8,2.43-17.17,5.19-34.31,6.86-51.56,1.89-19.42,3.53-38.93,3.74-58.42,.14-12.94-.74-26.12-5.56-38.61-4.2-10.88-10.98-15.56-21.59-11.25-10.62,4.31-20.86,10.27-30.15,17.03-28.61,20.79-51.25,47.4-71.66,76.04-21.74,30.51-40.24,62.9-56.78,96.46-5.52-13.43-14.83-23.33-27.84-29.76,9.1-14.26,17.76-28.82,27.39-42.71,19.14-27.59,40.47-53.48,64.64-76.81,25.04-24.18,52.03-45.93,83.98-60.64,12.16-5.59,24.87-9.25,38.42-8.94,17.73,.41,31.12,8.3,39.81,23.79,8.01,14.27,12.31,29.84,13.44,45.95,1.44,20.5,2.35,41.12,1.9,61.65-.38,17.14-3.07,34.23-4.74,51.35-1.1,.29-2.19,.69-3.32,.87-25.81,3.98-48.22,13.83-63.36,36.37Z"/><path class="cls-2" d="M809.05,421.14c18.66,.09,33.36-12.33,37.77-32.5,1.33-6.1,1.93-12.47,1.99-18.73,.24-21.73,.09-43.47,.09-65.21v-6.25c6.29,0,12.21,0,18.12,0,5.78,0,11.56,0,17.65,0v138.54c-1.87,.12-3.79,.25-5.71,.38-8.76,0-17.52,0-27.16,0v-23.75c-.42-.17-.83-.35-1.25-.52-8.63,13.68-21.69,20.67-36.53,24.97-13.23,2.27-26.39,2.97-39.55-.68-22.79-6.33-34.86-21.84-34.9-45.42-.05-29.45-.02-58.9,0-88.35,0-1.47,.13-2.93,.22-4.68h36.09v5.39c0,27.79-.02,55.57,.02,83.36,0,3.65-.08,7.37,.52,10.95,2.69,16.12,13.58,23.54,32.62,22.5Z"/><path class="cls-1" d="M359.28,438.91c-5.79,16.77-11.76,33.47-17.32,50.31-7.01,21.24-13.7,42.59-20.46,63.91-2.7,8.52-5.1,17.15-7.96,25.62-.47,1.4-2.62,3.19-4,3.2-22.79,.17-45.59,.08-68.38,.04-.3,0-.61-.23-1.54-.62,17.77-52.11,33.12-104.97,43.93-159.05,6.07,3.33,11.92,7.14,18.24,9.91,18.42,8.09,37.82,8.86,57.5,6.67Z"/><path class="cls-1" d="M814.04,438.07c14.84-4.3,27.91-11.29,36.53-24.97,.42,.17,.83,.35,1.25,.52v23.75c9.63,0,18.39,0,27.16,0,1.63,6.57,2.87,13.26,4.95,19.67,7.29,22.52,16.81,44.03,30.67,63.39,20.31,28.38,44.95,51.9,76.93,66.79,19.03,8.86,38.62,16.06,60.1,15.83,3.81-.04,5.55,2.16,7.02,6.44-14.21-.55-27.83-.37-41.28-1.77-18.65-1.93-36.84-6.41-54.51-12.83-27.91-10.13-53.2-24.72-75.7-44.11-19.23-16.58-36.27-35.02-49.14-57.09-10.25-17.58-18.15-36.14-23.98-55.61Z"/><path class="cls-2" d="M359.28,438.91c-19.68,2.19-39.07,1.42-57.5-6.67-6.31-2.77-12.17-6.58-18.24-9.91-16.37-13.14-26.3-29.9-26.8-51.1-.69-29.5,13.02-50.95,38.57-65.18,1.43-.8,2.86-1.6,4.29-2.39,16.21-6.41,33.02-8.75,50.35-7.13,5.44,.51,10.83,1.65,16.24,2.5,3.72,1.3,7.44,2.6,11.16,3.91,13.01,6.44,22.32,16.33,27.84,29.76,2.95,9.56,4.32,19.31,3.6,30.38-6.2,0-12.24,0-18.29,0-.98-.13-1.96-.37-2.94-.37-29.25-.02-58.5-.02-87.75,0-1.08,0-2.17,.31-3.16,.46-4.89,42.5,30.69,72.02,69.79,58.29,5.05-1.57,10.09-3.18,15.15-4.72,9.34-2.85,17.17-.4,23.27,7.53-14.41,7.62-29.75,11.88-45.6,14.64Zm-61.48-91.04h74.56c0-2.91,.28-5.56-.05-8.14-1.52-11.78-5.77-22.22-17.7-26.77-23.01-8.77-53.06,1.28-56.82,34.91Z"/><path class="cls-2" d="M575.52,333.81c15.13-22.54,37.55-32.4,63.36-36.37,1.12-.17,2.21-.57,3.32-.87,5.67-.29,11.35-.58,17.02-.88,11.65,1.6,23.3,3.19,34.95,4.79,3.08,1.08,6.15,2.16,9.57,3.36-4.39,7.67-10.92,11.13-19.4,11.31-6.02-1.09-12-2.67-18.08-3.19-23.35-2.01-50.57,7.53-57.51,38.55-3.09,13.82-2.66,27.76,1.76,41.3,4.03,12.34,11.54,21.9,23.71,27.3,17.18,7.98,34.31,5.84,51.41-.27,5.8-2.07,11.64-4.88,17.84-2.48,4.13,1.6,7.83,4.27,11.5,7.15-11.84,6.86-23.99,11.02-36.68,13.7-17.31,3.66-34.65,3.68-52,.2-1.25-.42-2.49-.86-3.75-1.25-30.02-9.26-50.57-27.3-55.55-59.79-1.54-15.07,1.34-29.25,8.54-42.56Z"/><path class="cls-2" d="M452.77,298.91h32.43v34.78c15.01-28.96,35.89-43.81,69.03-35.04-.77,4.62-1.09,9.27-2.39,13.62-2.25,7.55-8.01,10.52-17.64,10.82-6.42,.2-13.11,.32-19.17,2.15-15.83,4.8-22.1,17.66-24.62,32.66-1.26,7.5-1.67,15.2-1.76,22.82-.24,18.61-.08,37.22-.08,56.16h-35.8v-137.99Z"/><path class="cls-2" d="M971.11,437.06h-35.84v-138.19h32.4v33.08c7.22-12.25,15.47-23.17,28.04-30.17,13.06-7.27,26.65-6.83,40.81-3.22-.25,2.87-.39,5.5-.73,8.09-1.46,11.29-7.26,16.24-18.7,16.39-5.14,.07-10.39-.04-15.38,.98-15.86,3.26-25.87,14.86-28.68,33.56-1.3,8.67-1.7,17.52-1.83,26.31-.27,17.59-.08,35.19-.08,53.17Z"/><path class="cls-1" d="M566.98,376.37c4.98,32.48,25.54,50.52,55.55,59.79,1.26,.39,2.5,.83,3.75,1.25-1.06,3.63-2.05,7.29-3.2,10.9-3.13,9.79-6.21,19.6-9.64,29.29-.54,1.52-2.82,3.44-4.31,3.46-21.47,.22-42.93,.15-64.4,.12-.63,0-1.25-.25-2.23-.45,3.95-16.22,7.96-32.24,11.73-48.32,4.36-18.65,8.51-37.35,12.74-56.03Z"/><path class="cls-1" d="M634.21,419.11c-12.17-5.4-19.68-14.96-23.71-27.3-4.42-13.54-4.86-27.48-1.76-41.3,6.94-31.02,34.16-40.56,57.51-38.55,6.07,.52,12.05,2.1,18.08,3.19-3.17,5.97-6.21,12.01-9.54,17.89-15.28,26.98-28.58,54.9-40.18,83.64-.3,.74-.27,1.62-.4,2.43Z"/><path class="cls-1" d="M366.45,421.45c-39.1,13.74-74.68-15.79-69.79-58.29,.99-.15,2.08-.46,3.16-.46,29.25-.03,58.5-.02,87.75,0,.98,0,1.96,.24,2.94,.37-8.02,19.46-16.04,38.92-24.06,58.38Z"/><path class="cls-2" d="M501.96,583.05c-17.84-.08-31.66-13.65-31.6-31.04,.05-17.49,14.23-31.02,32.34-30.86,17.6,.15,31.66,14.18,31.45,31.36-.21,17.25-14.3,30.62-32.19,30.54Zm21.44-30.71c.05-12.28-9.08-21.78-21.03-21.88-11.92-.1-21.3,9.33-21.42,21.53-.11,12.15,9.13,21.76,21.06,21.9,11.9,.14,21.33-9.36,21.39-21.55Z"/><path class="cls-2" d="M638.84,530.86v16.59h29.19v8.75h-28.96v17.13c8.79,0,17.73,0,26.67,0q7.82,0,6.89,8.42h-43.58v-59.53h43.69c.11,1.51,.13,2.81,.3,4.1,.45,3.38-.75,4.7-4.38,4.62-9.79-.22-19.59-.08-29.82-.08Z"/><path class="cls-2" d="M432.51,581.85v-25.32h-31.43v25.37h-9.88v-59.53h9.66v24.7h31.57v-24.67h9.8v59.46h-9.71Z"/><path class="cls-2" d="M762,576.73c1.36-2.81,2.5-5.18,3.86-8,2.05,.99,3.83,2.3,5.8,2.71,5.27,1.09,10.61,2.34,15.95,2.46,3.86,.09,6.74-2.67,7.49-6.79,.79-4.33-1.49-7.1-5.19-8.6-4.91-2.01-10.03-3.48-14.95-5.46-5.71-2.3-10.8-5.42-11.87-12.24-1.31-8.3,2.33-14.83,10.32-17.7,10.44-3.74,20.54-2.36,30.93,2.95-1.36,2.79-2.62,5.37-3.47,7.11-6.56-1.13-12.47-2.53-18.45-3.06-4.23-.37-8.13,1.47-9,6.17-.89,4.79,2.7,6.72,6.49,8.05,4.07,1.42,8.23,2.6,12.29,4.04,10.19,3.61,14.53,9.36,13.83,18.13-.65,8.18-6.79,14.49-16.5,16.08-9.65,1.58-18.8-.12-27.55-5.85Z"/><path class="cls-2" d="M574.22,530.79h-20.08v-8.51h49.74v8.27h-19.7v51.31h-9.96v-51.08Z"/><path class="cls-2" d="M710.01,573.42h29.03v8.46h-38.63v-59.61h9.6v51.14Z"/><path class="cls-1" d="M297.8,347.87c3.75-33.63,33.8-43.68,56.82-34.91,11.93,4.55,16.18,14.98,17.7,26.77,.33,2.58,.05,5.24,.05,8.14h-74.56Z"/></g></svg>