<?xml version="1.0" encoding="UTF-8"?><svg id="Layer_1" xmlns="http://www.w3.org/2000/svg" viewBox="0 0 83.96 83.96"><defs><style>.cls-1{fill:#fdfdfd;}.cls-2{fill:#29c1db;}</style></defs><circle class="cls-2" cx="41.98" cy="41.98" r="41.98"/><path class="cls-1" d="m58.86,48.16h-3.9c0-3.87.02-7.62,0-11.36-.04-5.09-3.38-8.52-8.19-8.46-4.68.05-7.81,3.41-7.87,8.46-.04,3.58-.06,7.16-.1,10.75,0,.16-.17.33-.31.59h-3.8c0-3.9.02-7.65,0-11.4-.04-5-3.23-8.37-7.92-8.4-4.9-.03-8.11,3.3-8.15,8.45-.02,3.58-.05,7.17-.09,10.75,0,.16-.16.32-.32.62h-3.4c0-4.73-.43-9.38.12-13.9.55-4.45,3.37-7.77,7.77-9.25,4.54-1.52,8.72-.7,12.3,2.62.54.5,1.08,1.02,1.79,1.69,2.62-2.79,5.56-4.76,9.49-5.01,6.09-.38,12.23,4.53,12.54,10.52.24,4.32.06,8.66.06,13.33Z"/><path class="cls-1" d="m46.99,54.02c-6.65,8.25-18.5,6.19-21.58-3.32-.62-1.9-.48-4.08-.54-6.13-.08-2.99-.02-5.98-.02-9.12h3.96c0,4.06-.07,8.08.02,12.1.08,3.43,3.05,6.92,6.19,7.52,4.04.77,7.77-1.06,9.23-4.75.47-1.18.57-2.56.59-3.85.08-3.65.03-7.3.03-11.02h4.21c0,3.9-.02,7.65,0,11.39.04,5.03,3.19,8.3,7.95,8.31,4.88.01,8.09-3.32,8.12-8.44.02-3.66,0-7.32,0-11.21h3.53c0,4.83.81,9.92-.17,14.64-1.93,9.24-13.32,12.1-20.05,5.46-.47-.44-.89-.93-1.48-1.58Z"/></svg>