<svg xmlns="http://www.w3.org/2000/svg" height="1em" viewBox="0 0 596 512"><!--! Font Awesome Pro 6.4.2 by @fontawesome - https://fontawesome.com License - https://fontawesome.com/license (Commercial License) Copyright 2023 Fonticons, Inc. --><path d="M321 88.3c-19.8-7.1-42-10.9-64.5-10.9-78.4 0-140 43.1-140 98.2s61.4 98.2 140 98.2 140-43.1 140-98.2c0-19.1-7.6-37.4-22-53.2-5.5-6.1-14.9-6.5-21-1-6.1 5.5-6.6 14.9-1 21 9.4 10.4 14.2 21.6 14.2 33.2 0 37.1-50.4 68.4-110 68.4s-110-31.3-110-68.4 50.4-68.4 110-68.4c19 0 37.8 3.2 54.4 9.1 7.7 2.8 16.3-1.3 19.1-8.9 2.8-7.7-1.3-16.3-8.9-19.1zM168 176c0 29.7 38.2 52.1 88.7 52.1s88.7-22.4 88.7-52.1-38.2-52.1-88.7-52.1-88.7 22.4-88.7 52.1zm148 0c0 7.9-22.4 22.3-58.9 22.3s-58.9-14.5-58.9-22.3 22.4-22.3 58.9-22.3 58.9 14.5 58.9 22.3zM591 436l-11.9-18.9 11.9-18.9c3-4.9 3-11.1 0-15.9l-11.9-18.8 11.9-18.8c4.4-7 2.3-16.1-4.6-20.5-3.8-2.4-8.2-2.8-12.2-1.6-1.4-.4-2.7-.7-4.2-.7h-58.1V176C512 78.8 397 0 256 0S.3 78.8 .3 176v161c0 96.9 115 176 256 176h140c8.2 0 14.9-6.7 14.9-14.9s-6.7-14.9-14.9-14.9h-140c-125 0-226-65.4-226-146v-78.1c5.7 7.4 12.1 14.5 19.4 21.3 6 5.6 15.4 5.4 21-.7 5.6-6 5.3-15.4-.7-21-26-24.4-39.8-52.9-39.8-82.2C30.1 95.2 132 29.8 256 29.8s226 65.4 226 146-102 146-226 146c-52.6 0-104-12-144-33.9-7.3-3.9-16.3-1.2-20.2 6.1-3.9 7.2-1.2 16.3 6 20.2 45.5 24.5 100 37.5 159 37.5h296l-2.5 4c-3 4.9-3 11.1 0 15.9l11.9 18.8-11.9 18.8c-3 4.8-3 11 0 15.9l11.9 18.9-11.9 18.9c-3 4.8-3 11 0 15.9l2.5 4h-104c-8.2 0-14.9 6.7-14.9 14.9s6.7 14.9 14.9 14.9h122c1.5 0 2.9-.3 4.2-.7 1.4 .4 2.8 .7 4.2 .7 2.7 0 5.5-.7 7.9-2.3 7-4.4 9.1-13.6 4.6-20.5l-11.9-18.9 11.9-18.9c3-4.8 3-11 0-15.9zm-109-114h-83.8c35-16.1 63.9-38.1 83.8-63.8v63.8z"/></svg>