<?xml version="1.0" encoding="UTF-8"?><svg id="Layer_2" xmlns="http://www.w3.org/2000/svg" viewBox="0 0 399 83.96"><defs><style>.cls-1{fill:#41474f;}.cls-2{fill:#fdfdfd;}.cls-3{fill:#29c1db;}</style></defs><g id="Layer_1-2"><circle class="cls-3" cx="41.98" cy="41.98" r="41.98"/><path class="cls-1" d="m399,46.6c-1.4,3.31-2.47,6.81-5.69,8.99-5.19,3.52-10.67,4-16.26,1.28-5.35-2.61-7.7-7.18-7.57-13.07.06-2.54-.19-5.15.34-7.59,1.22-5.58,4.78-9.35,10.3-10.84,5.49-1.48,10.38-.08,14.35,4.12.44.46.85.96,1.56,1.76V13.82c1.05.09,1.83.15,2.61.22,0,9.76-.01,19.52.01,29.28,0,.9.22,1.81.34,2.71.01.19.01.38.01.57Zm-2.84-4.1c0-1.4.01-2.24,0-3.09-.05-5.11-3.4-9.8-8.13-11.41-4.92-1.67-10.12-.11-13.43,3.97-3.56,4.39-3.17,9.54-2.43,14.53.74,4.99,4.05,8.32,8.86,9.56,4.94,1.28,9.26-.23,12.57-4.29,2.38-2.9,2.81-6.26,2.56-9.27Z"/><path class="cls-1" d="m115.13,28.42c4.04-4.2,8.54-5.38,13.3-3.54,4.81,1.86,7.45,5.98,7.48,11.75.03,7.15,0,14.3,0,21.63h-5.14v-9.55c0-4.33.06-8.67-.03-13-.07-3.53-3.1-6.51-6.47-6.56-3.45-.05-6.58,3.04-6.61,6.69-.05,7.42-.02,14.85-.02,22.43h-5.14v-2.54c0-6.41.02-12.82,0-19.22-.02-4.14-2.85-7.27-6.58-7.35-3.81-.09-6.79,3.13-6.81,7.41-.02,7.16,0,14.32,0,21.67h-4.81c-.04-.89-.13-1.88-.13-2.87,0-6.03.1-12.06-.04-18.09-.13-5.51,1.83-9.83,6.93-12.14,5.29-2.38,9.94-.88,14.08,3.28Z"/><path class="cls-1" d="m197.48,41.31c-.52-6.09,1.49-11.12,6.64-14.61,4.83-3.27,10.06-3.62,15.23-.99,5.15,2.62,8.13,6.92,8.23,12.83.08,4.85.58,9.76-2.71,14.06-3.82,4.99-10.66,7.22-17.23,5.27-5.97-1.77-9.89-6.94-10.15-13.43-.05-1.04-.01-2.07-.01-3.13Zm5.09-.02c0,.75-.01,1.51,0,2.26.05,5.81,4.44,10.38,9.98,10.39,5.5.01,9.89-4.62,9.92-10.45.01-1.7.05-3.4-.01-5.09-.21-5.64-6.15-10.22-11.64-9.02-5.71,1.25-8.25,4.92-8.25,11.91Z"/><path class="cls-1" d="m258.64,25.02c2.29-.75,2.4.41,2.38,1.96-.05,6.6-.08,13.21,0,19.81.07,5.49,3.82,9.1,9.08,8.93,4.07-.14,7.59-3.19,7.78-7.47.31-7.06.22-14.13.23-21.2,0-1.75.29-2.81,2.56-1.89,0,7.12-.01,14.27,0,21.42.01,5.55,3.35,9.15,8.45,9.14,5.08-.01,8.54-3.67,8.56-9.13.03-7.16.01-14.32.01-21.58,1.49-.41,2.41-.48,2.39,1.47-.07,7.26.1,14.53-.12,21.79-.13,4.29-2.54,7.41-6.46,9.17-4.07,1.83-7.91,1.17-11.35-1.59-1.02-.81-1.83-1.89-2.49-2.58-2.17,1.53-4.12,3.57-6.51,4.46-7.2,2.7-14.5-2.74-14.51-10.51-.01-7.37,0-14.72,0-22.2Z"/><path class="cls-1" d="m173.96,29.7c-1.14,1.03-2.31,2.08-3.49,3.14-5.83-4.85-11.46-5.09-15.41-.03-1.55,1.98-2.44,4.9-2.6,7.46-.37,5.9-.12,11.85-.12,17.97h-4.65c-.08-.43-.27-.96-.27-1.48-.02-5.93-.09-11.87,0-17.8.11-6.57,4.15-11.99,10.27-14.05,6.12-2.07,12.17-.34,16.26,4.79Z"/><path class="cls-1" d="m199.22,29.46c-1.18,1.05-2.37,2.1-3.69,3.26-2.73-2.61-5.96-4.34-10.15-3.19-4.61,1.27-7.64,5.06-7.66,9.86-.03,6.21-.01,12.42-.01,18.83h-5.11c0-3.41-.05-6.94.01-10.48.07-3.85-.14-7.75.45-11.52.95-6.03,4.93-9.82,10.62-11.57,5.84-1.78,11.31.07,15.54,4.81Z"/><path class="cls-1" d="m255.81,29.57c-1.15,1.08-2.3,2.17-2.94,2.78-2.98-1.14-5.61-2.75-8.37-3-2.08-.19-4.53,1.03-6.42,2.24-2.56,1.64-3.77,4.34-3.77,7.47-.01,6.31-.04,12.62-.07,18.94,0,.07-.12.14-.28.33h-4.75v-2.9c0-5.47-.04-10.93.01-16.4.05-6.3,4.06-11.86,9.99-13.99,6.15-2.23,12.12-.63,16.6,4.53Z"/><path class="cls-1" d="m303.26,41.27c-.62-6.54,2.03-12,8.56-15.11,9.01-4.29,19.43,1.66,20.48,11.62.55,5.25.86,10.56-2.62,15.14-3.78,4.99-10.73,6.94-17.03,4.81-5.76-1.94-9.27-6.92-9.38-13.33-.02-.84-.01-1.69-.01-3.13Zm26.69,1.18v-2.83c-.04-6.24-4.67-11.55-10.66-12.22-6.1-.69-11.91,3.25-13.17,9.38-.59,2.9-.64,6.01-.33,8.96.55,5.14,3.66,8.67,8.52,10.17,4.65,1.43,8.92.3,12.35-3.34,2.86-3.02,3.65-6.68,3.29-10.12Z"/><path class="cls-1" d="m139.44,24.92h4.71v33.33h-4.71V24.92Z"/><path class="cls-1" d="m369.67,58.64c-5.05-1.19-6.6-2.66-6.62-6.17-.07-12.52-.02-25.05-.01-37.57,0-.27.13-.54.2-.82,2.1-.84,2.34.27,2.33,1.99-.04,11.86-.01,23.73-.04,35.59,0,1.93.19,3.49,2.47,4.14.61.18.89,1.44,1.67,2.84Z"/><path class="cls-1" d="m361.08,29.14c-.85.6-1.38.98-2.06,1.46-4.4-3.58-9.35-4.57-14.58-1.47-3.91,2.32-5.97,5.88-5.99,10.48-.03,6.19-.01,12.39-.01,18.55-2.07.79-2.4-.12-2.39-1.76.06-5.83-.04-11.67.04-17.5.09-6.22,3.37-10.54,8.87-12.87,5.64-2.4,10.99-1.38,16.12,3.11Z"/><path class="cls-1" d="m139.46,13.86h4.7v7.09h-4.7v-7.09Z"/><path class="cls-2" d="m58.86,48.16h-3.9c0-3.87.02-7.62,0-11.36-.04-5.09-3.38-8.52-8.19-8.46-4.68.05-7.81,3.41-7.87,8.46-.04,3.58-.06,7.16-.1,10.75,0,.16-.17.33-.31.59h-3.8c0-3.9.02-7.65,0-11.4-.04-5-3.23-8.37-7.92-8.4-4.9-.03-8.11,3.3-8.15,8.45-.02,3.58-.05,7.17-.09,10.75,0,.16-.16.32-.32.62h-3.4c0-4.73-.43-9.38.12-13.9.55-4.45,3.37-7.77,7.77-9.25,4.54-1.52,8.72-.7,12.3,2.62.54.5,1.08,1.02,1.79,1.69,2.62-2.79,5.56-4.76,9.49-5.01,6.09-.38,12.23,4.53,12.54,10.52.24,4.32.06,8.66.06,13.33Z"/><path class="cls-2" d="m46.99,54.02c-6.65,8.25-18.5,6.19-21.58-3.32-.62-1.9-.48-4.08-.54-6.13-.08-2.99-.02-5.98-.02-9.12h3.96c0,4.06-.07,8.08.02,12.1.08,3.43,3.05,6.92,6.19,7.52,4.04.77,7.77-1.06,9.23-4.75.47-1.18.57-2.56.59-3.85.08-3.65.03-7.3.03-11.02h4.21c0,3.9-.02,7.65,0,11.39.04,5.03,3.19,8.3,7.95,8.31,4.88.01,8.09-3.32,8.12-8.44.02-3.66,0-7.32,0-11.21h3.53c0,4.83.81,9.92-.17,14.64-1.93,9.24-13.32,12.1-20.05,5.46-.47-.44-.89-.93-1.48-1.58Z"/></g></svg>