<svg xmlns="http://www.w3.org/2000/svg" height="1em" viewBox="0 0 512 512"><!--! Font Awesome Pro 6.4.2 by @fontawesome - https://fontawesome.com License - https://fontawesome.com/license (Commercial License) Copyright 2023 Fonticons, Inc. --><path d="m484.8 37.4c-50-50-131.2-50-180.8 0c-3.9 3.9-3.9 10.2 0 13.8l167 167s4.3 2.8 7.1 2.8 5.1-.8 7.1-2.8c50-50 50-130.8 0-180.8zm-7.1 159.5L325.3 44.5C367.9 9.1 431.3 11.4 471 51.2s42.1 103.2 6.7 145.7zm-179.6-94.5c-3.9-3.9-10.2-3.9-13.8 0c0 0 0 0 0 0c-2 2-3.2 4.3-3.2 7.1v61.8L172.9 279.6s-2.4 3.2-2.8 5.1l-13 67c-.8 3.2 0 6.3 2.8 8.7c2 2 4.3 3.2 7.1 3.2c.4 0 1.2 0 1.6 0l68.5-11c2 0 3.9-1.2 5.5-2.8l108.3-108.3h62.6c2.8 0 5.1-1.2 7.1-3.2c0 0 0 0 0 0c3.9-3.9 3.9-10.2 0-13.8L298.9 102.8zm52.4 118.9l-50-50v-39l88.6 88.6h-39zm-41.7 33.9l-41.7-41.7 23.6-23.6 20.9 20.9 20.9 20.9-24 24zM271 293l-41.7-41.7 24-24 41.7 41.7-23.6 23.6zm-35.8 35.8l-41.7-41.7 21.7-21.7 41.7 41.7-21.7 21.7zm-49.6-21.7l28.8 28.8-35.4 5.9 6.7-34.7zM58.7 296.6c-3.9-3.9-10.2-3.9-13.8 0l-28 28c-3.9 3.9-3.9 10.2 0 13.8L51.6 373 2.8 421.8c-3.9 3.9-3.9 10.2 0 13.8l83.5 83.5s4.3 2.8 7.1 2.8 5.1-.8 7.1-2.8l48.8-48.8 34.7 34.7s4.3 2.8 7.1 2.8 5.1-.8 7.1-2.8l28-28c3.9-3.9 3.9-10.2 0-13.8L58.7 296.6zm76.4 159.9l-41.7 41.7-69.3-69.3 41.7-41.7 69.3 69.7zm55.5 28l-152.8-152.8 13.8-13.8 152.8 152.8-13.8 13.8z"/></svg>