<svg xmlns="http://www.w3.org/2000/svg" height="1em" viewBox="0 0 512 512"><!--!Font Awesome Pro 6.5.1 by @fontawesome - https://fontawesome.com License - https://fontawesome.com/license (Commercial License) Copyright 2023 Fonticons, Inc.--><path d="m480.2 219.4c-5.1 5.1-11.7 7.7-18.3 7.7s-13.2-2.6-18.3-7.7L297.7 73.5c-9.9-9.9-9.9-26.3 0-36.2c50.1-50.1 131.7-50.1 182.1 0c50.1 50.1 50.1 131.7 0 182.1zm-252 239.9L58.1 289.6c-9.9-9.9-26.3-9.9-36.2 0s-9.9 26.3 0 36.2L41.7 345.6 7.3 380c-4.8 4.8-7.7 11.3-7.7 18.3s2.6 13.2 7.7 18.3l93.6 93.6c4.8 4.8 11.3 7.7 18.3 7.7s13.2-2.6 18.3-7.7l34.4-34.4 19.7 19.7c5.1 5.1 11.7 7.7 18.3 7.7s13.2-2.6 18.3-7.7c9.9-9.9 9.9-26.3 0-36.2zM218 215l-29.3 29.3 84.8 84.8 29.3-29.3-84.8-84.8zm193.5 16.5L286.4 106.4c-9.9-9.9-26.7-9.5-36.6 .4c-4.8 4.8-7.7 11.3-7.7 18.3v62.5l87.8 87.8h62.9c6.9 0 13.5-2.9 18.3-7.7c9.9-9.9 9.9-26.3 0-36.2zm-246.1 40.6s-.7 1.8-1.1 2.9l-11.3 58.1c-1.5 8 1.1 16.8 6.9 22.7c4.8 5.1 11.3 7.7 18.3 7.7c1.5 0 2.9 0 4 0l59.6-9.9s2.2-.7 3.3-1.1l-80.5-80.5z"/></svg>