<svg xmlns="http://www.w3.org/2000/svg" height="1em" viewBox="0 0 512 512"><!--! Font Awesome Pro 6.4.2 by @fontawesome - https://fontawesome.com License - https://fontawesome.com/license (Commercial License) Copyright 2023 Fonticons, Inc. --><path d="m458.8 83.1L275.3 5.1c-16.5-7.1-35.4-7.1-52 0L39.8 83.1C16.9 92.9 0 115.4 0 142.6c.4 103.2 42.9 291.4 221.7 377.3c17.3 8.3 37.4 8.3 54.7 0c178.8-85.9 221.3-274.1 221.7-377.3c0-27.2-16.9-49.6-39.8-59.5zm-189 421.4c-12.6 6.3-27.6 6.3-40.6 0C58.3 423 17.3 242.6 16.5 142.6c0-20.1 12.2-36.6 29.5-44.1l183.5-78c12.6-5.1 26.4-5.1 39 0h0s183.5 78 183.5 78c17.3 7.5 29.5 24 29.5 44.1c-.4 100.4-41.7 280.4-212.3 362.3zm89-391.5c-3.2-3.2-8.3-3.2-11 0L121.7 339.1c-3.2 3.2-3.2 8.3 0 11c1.6 1.6 3.5 2.4 5.5 2.4s3.9-.8 5.5-2.4l226.1-226.1c3.2-3.2 3.2-8.3 0-11zm53.2 64.2L185.9 403.3c-3.2 3.2-3.2 8.3 0 11c1.6 1.6 3.5 2.4 5.5 2.4s3.9-.8 5.5-2.4L423 188.3c3.2-3.2 3.2-8.3 0-11s-8.3-3.2-11 0z"/></svg>