<svg xmlns="http://www.w3.org/2000/svg" height="1em" viewBox="0 0 512 512"><!--!Font Awesome Pro 6.5.1 by @fontawesome - https://fontawesome.com License - https://fontawesome.com/license (Commercial License) Copyright 2023 Fonticons, Inc.--><path d="m458.8 85.9L263.1 3.2c-4.3-2-9.1-3.2-13.8-3.2s-9.5 1.2-13.8 3.2L39.8 85.9C16.9 95.7 0 118.2 0 145.3c.4 103.2 42.9 291.4 221.7 377.3c17.3 8.3 37.4 8.3 54.7 0c178.8-85.9 221.3-274.1 221.7-377.3c0-27.2-16.9-49.6-39.8-59.5zM118.2 353.7c-7.1 0-14.2-2.8-19.7-8.3c-10.6-10.6-10.6-28.4 0-39L305.6 99.6c10.6-10.6 28.4-10.6 39 0s10.6 28.4 0 39L137.8 345.4c-5.5 5.5-12.6 8.3-19.7 8.3zm313.1-128.4L224.5 432c-5.5 5.5-12.6 8.3-19.7 8.3s-14.2-2.8-19.7-8.3c-10.6-10.6-10.6-28.4 0-39l206.8-206.8c10.6-10.6 28.4-10.6 39 0s10.6 28.4 0 39z"/></svg>