<?xml version="1.0" encoding="UTF-8"?><svg id="Layer_2" xmlns="http://www.w3.org/2000/svg" xmlns:xlink="http://www.w3.org/1999/xlink" viewBox="0 0 200 160"><defs><style>.cls-1{fill:url(#radial-gradient);stroke-width:0px;}</style><radialGradient id="radial-gradient" cx="-4906.61" cy="4341.63" fx="-4906.61" fy="4341.63" r="1.05" gradientTransform="translate(980452.88 946262.36) rotate(.05) scale(200 -217.76)" gradientUnits="userSpaceOnUse"><stop offset="0" stop-color="#fff"/><stop offset="1" stop-color="#b2b1b2"/></radialGradient></defs><g id="Layer_1-2"><path id="Intersection_1-2" class="cls-1" d="m99.72,160c-5.48-.09-9.91-4.52-10-10v-22.16c-4.85,1.52-9.92,2.25-15,2.16-5.08,0-10.13-.72-15-2.16v22.16c.1,5.42-4.21,9.9-9.62,10-.12,0-.25,0-.38,0h-20c-5.48-.1-9.9-4.52-10-10v-42.28c-.6,1.52-1.42,2.94-2.43,4.22l-3.79,5.06c-2.48,3.31-7.17,3.99-10.48,1.51h-.02c-3.31-2.5-3.99-7.2-1.5-10.51h0l3.79-5.06c1.77-2.36,2.99-5.08,3.57-7.97.66-3.81.95-7.67.86-11.53v-5.94c.09-21.77,10.65-42.16,28.38-54.8,5.27-4.13,11.2-7.34,17.53-9.5-3.79,6.64-5.83,14.15-5.91,21.8.1,24.81,20.19,44.89,45,45,2.67.09,4.91-2,5-4.68,0-.11,0-.22,0-.32.09-2.67-2.01-4.91-4.68-5-.11,0-.21,0-.32,0-19.29-.09-34.91-15.71-35-35C59.81,15.71,75.43.1,94.72,0c9.26-.07,18.16,3.53,24.78,10h.22c27.51-.11,49.89,22.11,50,49.61,0,.13,0,.26,0,.39v37.31c-3,1.84-6.48,2.78-10,2.69-6.25,0-12.06-3.41-15.72-8-1.65-2.21-4.78-2.66-6.99-1.01,0,0,0,0,0,0-2.21,1.65-2.66,4.78-1.01,6.99,0,0,0,0,.01.01,2.06,2.73,4.57,5.09,7.41,7,1.99,1.31,4.1,2.41,6.31,3.28,3.31,1.12,6.78,1.7,10.28,1.72,3.32,0,6.61-.57,9.72-1.72,3.29-1.05,6.35-2.71,9.03-4.88.57-.41,1.07-.92,1.47-1.5.48-.22.91-.54,1.25-.94,1.92-1.88,4.95-2.02,7.03-.31,1.97,2.04,2,5.27.06,7.34-5.17,5.19-11.7,8.82-18.84,10.47v6.09c.13,3.06,2.66,5.46,5.72,5.44,2.06,0,3.95-1.15,4.88-3l.75-1.47c2.47-4.94,8.47-6.94,13.4-4.47,0,0,0,0,0,0,4.94,2.47,6.94,8.47,4.47,13.4,0,0,0,0,0,0l-.72,1.19c-4.19,8.77-13.06,14.36-22.78,14.34-14.1.01-25.58-11.34-25.72-25.44v-6.09c-7.71-1.92-14.68-6.1-20-12v43.53c.1,5.42-4.21,9.9-9.63,10-.12,0-.25,0-.37,0h-20Zm40.28-95c0,2.76,2.24,4.99,5,5,2.76,0,4.99-2.24,5-5,0-2.76-2.24-4.99-5-5-2.76,0-4.99,2.24-5,5h0Z"/></g></svg>