<?xml version="1.0" encoding="UTF-8"?><svg id="Layer_2" xmlns="http://www.w3.org/2000/svg" xmlns:xlink="http://www.w3.org/1999/xlink" viewBox="0 0 151.23 204.12"><defs><style>.cls-1{letter-spacing:-.04em;}.cls-2{opacity:.2;}.cls-3,.cls-4{stroke-width:0px;}.cls-3,.cls-5{fill:#fff;}.cls-4{fill:url(#radial-gradient);}.cls-6{letter-spacing:0em;}.cls-5{font-family:MyriadPro-Regular, 'Myriad Pro';font-size:4px;}.cls-7{letter-spacing:0em;}.cls-8{letter-spacing:-.03em;}</style><radialGradient id="radial-gradient" cx="-4690.87" cy="4352.87" fx="-4690.87" fy="4352.87" r="1.05" gradientTransform="translate(708758.41 1210245.23) rotate(.08) scale(151.23 -277.81) skewX(-.08)" gradientUnits="userSpaceOnUse"><stop offset="0" stop-color="#ececec"/><stop offset="1" stop-color="#7b7b7b"/></radialGradient></defs><g id="Layer_1-2"><g id="Group_1007"><g id="Rectangle_512-2"><rect class="cls-4" width="151.23" height="204.12"/></g><g class="cls-2"><rect id="Rectangle_520-2" class="cls-3" x="6.24" y="4.9" width="138.5" height="192.52"/></g><path class="cls-3" d="m56.74,121.64c-.43,0-.87,0-1.3,0-1.03-.01-1.8-.49-2.29-1.37-.82-1.48-.24-3.17,1.28-3.88.5-.23,1.03-.24,1.57-.19.1,0,.24-.02.31-.09.66-.64,1.59-.79,2.38-.38.81.41,1.25,1.31,1.08,2.2-.05.24-.03.42.1.64.64,1.1.12,2.51-1.09,2.93-.23.08-.49.12-.73.13-.44.02-.89,0-1.33,0Zm.65-3.12c-.06-.13-.13-.24-.17-.37-.29-.81-1.43-1.52-2.4-1.11-1.02.43-1.53,1.57-1.11,2.64.32.81.98,1.21,1.85,1.22.8,0,1.6.02,2.4,0,.26,0,.54-.08.78-.19.51-.24.78-.97.59-1.53-.2-.57-.82-1-1.36-.91-.19.03-.36.15-.58.24Zm-.4-1.93c.26.29.51.58.76.87.02.02.05.05.08.05.4.05.79.1,1.19.15.06-.6-.26-1.12-.89-1.36-.34-.13-.85-.09-1.14.29Z"/><path class="cls-3" d="m119.39,121.64c-.43,0-.86,0-1.3,0-.99,0-1.74-.45-2.25-1.27-.9-1.45-.29-3.33,1.27-4,.49-.21,1.02-.22,1.54-.16.1,0,.25-.03.32-.09.65-.64,1.6-.78,2.38-.37.83.43,1.25,1.32,1.06,2.23-.04.22-.03.38.09.59.67,1.11.15,2.49-1.05,2.97-.43.17-.85.09-1.27.12-.26.02-.53,0-.79,0Zm.65-3.12c-.16-.29-.27-.58-.45-.82-.64-.81-1.65-1.07-2.54-.43-.83.6-.99,1.45-.76,2.3.19.69.93,1.37,1.97,1.34.78-.02,1.56.01,2.34-.01.25,0,.52-.07.75-.17.52-.23.8-.95.62-1.51-.19-.6-.81-1.04-1.37-.94-.19.03-.36.15-.56.24Zm-.41-1.93c.26.3.5.57.74.84.03.04.08.08.13.08.39.05.77.1,1.16.15.09-.55-.23-1.07-.85-1.35-.34-.15-.89-.1-1.19.27Z"/><path class="cls-3" d="m33.74,117.07c-2.77,0-5.53,0-8.3,0-.13,0-.37-.04-.38-.11-.05-.22-.04-.46-.01-.68,0-.04.2-.08.3-.08.83,0,1.67,0,2.5,0,4.7,0,9.39,0,14.09,0,.27,0,.61.57.47.79-.04.06-.18.09-.28.09-.9,0-1.79,0-2.69,0-1.9,0-3.8,0-5.7,0Z"/><path class="cls-3" d="m99.67,121.4c.26-.25.48-.55.78-.74.66-.41.77-.93.63-1.47-.16-.61-.76-.98-1.39-.91-.01,0-.02,0-.03,0-.48.33-.6-.02-.8-.37-.41-.73-1.25-1.16-1.97-.97-.89.23-1.6.85-1.56,2.02.03.8.41,1.38,1.16,1.69.33.14.16.35.1.55-.08.22-.26.22-.42.14-.89-.43-1.55-1.15-1.63-2.34-.07-1.09.67-2.4,1.96-2.69.41-.09.85-.07,1.27-.12.12-.01.26-.04.35-.11.51-.45,1.11-.68,1.78-.55,1.17.23,1.88,1.31,1.65,2.41-.03.16-.01.36.06.5.67,1.25.14,2.62-1.31,3.04-.17.05-.37,0-.56,0-.02-.03-.05-.07-.07-.1Zm1.11-3.74c.09-.44-.14-.92-.59-1.21-.42-.27-.98-.26-1.33.02-.14.11-.12.18.01.3.21.19.39.4.59.61.06.06.12.15.18.16.38.06.76.09,1.14.13Z"/><path class="cls-3" d="m78.78,121.39c.26-.25.49-.54.79-.73.52-.33.81-.92.63-1.45-.22-.65-.84-1.11-1.43-.9-.5.18-.6,0-.79-.37-.4-.75-1.25-1.18-1.98-.99-.94.24-1.62.91-1.56,2.05.04.78.41,1.36,1.15,1.66.32.13.18.35.1.55-.09.23-.26.21-.44.14-1.36-.58-1.97-2.2-1.36-3.55.49-1.1,1.63-1.74,2.98-1.59.11.01.26-.03.35-.1.52-.46,1.13-.7,1.8-.55,1.19.27,1.83,1.27,1.63,2.4-.03.17,0,.38.07.53.64,1.19.16,2.47-1.11,2.93-.24.09-.51.11-.76.16-.03-.05-.05-.11-.08-.16Zm1.12-3.73c.06-.63-.36-1.23-.97-1.39-.41-.11-.91.07-1.04.34.24.28.47.55.71.81.04.05.09.1.15.11.38.05.76.09,1.16.13Z"/><path class="cls-3" d="m25.81,119.33c.18-.02.28-.04.38-.04,5.22,0,10.44,0,15.67,0,.38,0,.4.06.27.4-.14.36-.35.48-.76.48-4.85-.02-9.71-.02-14.56,0-.32,0-.52-.09-.67-.35-.08-.14-.18-.28-.33-.49Z"/><path class="cls-3" d="m25.24,117.84c.11,0,.2-.02.29-.02,5.56,0,11.12,0,16.69,0,.26,0,.36.06.32.35-.07.52-.06.52-.6.52-5.28,0-10.55,0-15.83,0-.73,0-.75-.01-.87-.83Z"/><path class="cls-3" d="m41.83,115.44c-.33,0-.63,0-.94,0-5.16,0-10.32,0-15.47,0-.39,0-.39,0-.32-.39.09-.47.09-.47.55-.47,5.12,0,10.23,0,15.35,0,.35,0,.71.36.83.86Z"/><path class="cls-3" d="m40.33,113.96c-2.35,0-4.66.11-6.96-.03-2.57-.15-5.14-.03-7.7-.1-.04,0-.08-.02-.12-.03,0-.54.29-.85.79-.85,3.39,0,6.78,0,10.16,0,.54,0,1.08-.04,1.61,0,.79.06,1.49.41,2.14.85.04.03.05.1.08.15Z"/><path class="cls-3" d="m27.21,120.95h14.17c-.34.29-.61.53-.88.74-.08.06-.22.08-.33.08-3.89,0-7.78,0-11.68,0-.13,0-.28-.03-.39-.1-.31-.2-.61-.43-.92-.64,0-.02.01-.05.02-.07Z"/><path class="cls-3" d="m36.32,112.36h-9.88c.15-.47.68-.89,1.11-.89,2.55,0,5.11,0,7.66,0,.44,0,.97.42,1.11.89Z"/><path class="cls-3" d="m98.63,120.77h1.07s.03.06.04.09c-.7.86-1.41,1.71-2.11,2.57-.03-.02-.07-.03-.1-.05.18-.6.36-1.21.56-1.88-.3,0-.56,0-.82,0-.21,0-.25-.08-.18-.28.23-.6.46-1.2.67-1.81.07-.19.16-.28.36-.27.39.01.78,0,1.17,0,.08,0,.15.04.23.06-.03.08-.05.17-.09.25-.24.41-.49.81-.8,1.31Z"/><path class="cls-3" d="m78.69,119.23c-.3.5-.59.98-.94,1.55h1.08s.02.07.03.1c-.7.85-1.41,1.71-2.11,2.56-.03-.02-.07-.04-.1-.06.18-.6.36-1.2.56-1.87-.29,0-.54,0-.78,0-.23,0-.3-.07-.21-.3.23-.59.43-1.19.67-1.77.04-.11.18-.26.28-.27.44-.03.89-.01,1.33,0,.06,0,.11.04.19.07Z"/><path class="cls-3" d="m34.45,110.74c-2.03,0-4.05-.02-6.15.01.1-.09.17-.19.26-.22.56-.19,1.14-.33,1.69-.54.55-.21,1.1-.16,1.65-.12.84.06,1.65.32,2.41.71.07.04.11.13.14.16Z"/><path class="cls-3" d="m61.07,117.27c.13,0,.27-.04.37.01.14.07.32.2.34.33.03.2-.08.39-.34.4-.23,0-.46,0-.69,0-.24,0-.37-.14-.37-.38,0-.23.13-.37.38-.36.1,0,.21,0,.31,0h0Z"/><path class="cls-3" d="m123.72,117.27c.13,0,.28-.04.37.01.14.08.31.21.33.34.03.18-.09.37-.33.38-.25,0-.5.02-.75,0-.22-.02-.34-.17-.33-.38,0-.21.13-.35.36-.35.12,0,.23,0,.35,0h0Z"/><path class="cls-3" d="m79.04,114.21c0,.12.01.23,0,.35-.03.21-.14.35-.37.36-.23.01-.37-.11-.4-.32-.03-.25-.04-.51,0-.75.04-.3.3-.19.48-.21.17-.02.3.03.3.23,0,.12,0,.23,0,.35,0,0,0,0,0,0Z"/><path class="cls-3" d="m81.93,118c-.12,0-.23,0-.35,0-.22,0-.32-.15-.32-.35,0-.21.09-.37.33-.38.24,0,.48,0,.73,0,.24,0,.34.17.34.37,0,.21-.1.36-.35.36-.13,0-.25,0-.38,0Z"/><path class="cls-3" d="m102.84,118c-.12,0-.23,0-.35,0-.24,0-.35-.14-.35-.36,0-.23.1-.38.36-.38.23,0,.46,0,.69,0,.24,0,.34.16.34.37,0,.21-.1.36-.34.36-.12,0-.23,0-.35,0Z"/><path class="cls-3" d="m99.14,114.19c0-.05,0-.11,0-.16-.03-.29.07-.43.39-.41.38.02.41.04.41.42,0,.16.01.32,0,.47-.02.24-.14.4-.4.4-.26,0-.37-.17-.39-.41,0-.1,0-.21,0-.31,0,0,0,0,0,0Z"/><path class="cls-3" d="m80.82,115.73c-.34,0-.53-.3-.36-.53.16-.22.36-.41.57-.57.16-.12.36-.11.5.07.14.18.1.35-.06.5-.15.13-.28.28-.43.41-.08.06-.18.1-.22.12Z"/><path class="cls-3" d="m101.68,115.73c-.32,0-.51-.3-.35-.52.16-.22.36-.41.58-.58.16-.12.36-.12.51.07.14.18.1.35-.06.5-.15.13-.29.28-.44.41-.08.06-.18.09-.23.12Z"/><path class="cls-3" d="m96.9,114.57c.31,0,.92.56.9.77-.01.12-.09.27-.19.33-.09.05-.28.05-.37-.02-.2-.14-.37-.31-.53-.49-.07-.09-.12-.27-.08-.36.06-.12.21-.19.27-.23Z"/><path class="cls-3" d="m58.16,114.21c0,.13.02.25,0,.38-.03.19-.13.33-.36.33-.22,0-.37-.11-.4-.32-.03-.25-.03-.5,0-.75.03-.29.27-.19.44-.21.17-.01.32.01.33.23,0,.12,0,.23,0,.35,0,0,0,0,0,0Z"/><path class="cls-3" d="m120.81,114.2c0,.12.01.23,0,.35-.02.21-.11.36-.35.37-.23.01-.38-.1-.41-.31-.03-.26-.05-.53,0-.78.04-.29.31-.17.49-.19.17-.02.28.06.28.25,0,.11,0,.21,0,.32h0Z"/><path class="cls-3" d="m59.84,115.77c-.1-.09-.25-.15-.29-.26-.04-.1-.02-.28.05-.37.15-.19.32-.38.53-.49.12-.07.36-.05.47.03.16.12.18.33.01.5-.15.15-.3.3-.46.43-.08.06-.18.1-.31.16Z"/><path class="cls-3" d="m122.5,115.77c-.11-.09-.26-.16-.31-.27-.04-.1-.01-.27.06-.36.15-.19.33-.35.52-.5.16-.12.36-.13.5.05.13.17.15.34-.03.5-.15.13-.28.28-.44.41-.08.06-.18.1-.31.17Z"/><path class="cls-3" d="m76.07,114.52c.14.07.25.1.32.17.16.14.3.3.44.45.15.16.12.33-.02.48-.15.15-.31.17-.47.02-.17-.15-.35-.3-.5-.48-.07-.09-.13-.27-.09-.36.05-.12.21-.19.32-.29Z"/><path class="cls-3" d="m118.39,115.74c-.3,0-.94-.59-.92-.79.01-.12.1-.29.2-.32.13-.04.32-.03.43.05.19.13.36.3.49.49.06.09.07.27.03.37-.04.1-.19.17-.23.21Z"/><path class="cls-3" d="m55.7,115.78c-.12-.07-.22-.09-.28-.15-.16-.14-.31-.28-.46-.44-.15-.16-.21-.36-.02-.49.13-.08.38-.11.5-.04.21.12.38.33.54.53.06.08.06.25.01.35-.05.1-.19.17-.29.25Z"/><path class="cls-3" d="m37.37,80.62c0,6.63-2.46,10.29-6.78,10.29-3.81,0-6.39-3.57-6.45-10.02,0-6.54,2.82-10.14,6.78-10.14s6.45,3.66,6.45,9.87Zm-10.59.3c0,5.07,1.56,7.95,3.96,7.95,2.7,0,3.99-3.15,3.99-8.13s-1.23-7.95-3.96-7.95c-2.31,0-3.99,2.82-3.99,8.13Z"/><path class="cls-3" d="m51.44,73.3h-7.44l-.75,5.01c.45-.06.87-.12,1.59-.12,1.5,0,3,.33,4.2,1.05,1.53.87,2.79,2.55,2.79,5.01,0,3.81-3.03,6.66-7.26,6.66-2.13,0-3.93-.6-4.86-1.2l.66-2.01c.81.48,2.4,1.08,4.17,1.08,2.49,0,4.62-1.62,4.62-4.23-.03-2.52-1.71-4.32-5.61-4.32-1.11,0-1.98.12-2.7.21l1.26-9.36h9.33v2.22Z"/><path class="cls-3" d="m62.18,87.55c.75.48,2.49,1.23,4.32,1.23,3.39,0,4.44-2.16,4.41-3.78-.03-2.73-2.49-3.9-5.04-3.9h-1.47v-1.98h1.47c1.92,0,4.35-.99,4.35-3.3,0-1.56-.99-2.94-3.42-2.94-1.56,0-3.06.69-3.9,1.29l-.69-1.92c1.02-.75,3-1.5,5.1-1.5,3.84,0,5.58,2.28,5.58,4.65,0,2.01-1.2,3.72-3.6,4.59v.06c2.4.48,4.35,2.28,4.35,5.01,0,3.12-2.43,5.85-7.11,5.85-2.19,0-4.11-.69-5.07-1.32l.72-2.04Z"/><path class="cls-3" d="m82.67,73.54h-.06l-3.39,1.83-.51-2.01,4.26-2.28h2.25v19.5h-2.55v-17.04Z"/><path class="cls-3" d="m99.32,87.55c.75.48,2.49,1.23,4.32,1.23,3.39,0,4.44-2.16,4.41-3.78-.03-2.73-2.49-3.9-5.04-3.9h-1.47v-1.98h1.47c1.92,0,4.35-.99,4.35-3.3,0-1.56-.99-2.94-3.42-2.94-1.56,0-3.06.69-3.9,1.29l-.69-1.92c1.02-.75,3-1.5,5.1-1.5,3.84,0,5.58,2.28,5.58,4.65,0,2.01-1.2,3.72-3.6,4.59v.06c2.4.48,4.35,2.28,4.35,5.01,0,3.12-2.43,5.85-7.11,5.85-2.19,0-4.11-.69-5.07-1.32l.72-2.04Z"/><path class="cls-3" d="m125.21,72.94c-.54-.03-1.23,0-1.98.12-4.14.69-6.33,3.72-6.78,6.93h.09c.93-1.23,2.55-2.25,4.71-2.25,3.45,0,5.88,2.49,5.88,6.3,0,3.57-2.43,6.87-6.48,6.87s-6.9-3.24-6.9-8.31c0-3.84,1.38-6.87,3.3-8.79,1.62-1.59,3.78-2.58,6.24-2.88.78-.12,1.44-.15,1.92-.15v2.16Zm-.75,11.25c0-2.79-1.59-4.47-4.02-4.47-1.59,0-3.06.99-3.78,2.4-.18.3-.3.69-.3,1.17.06,3.21,1.53,5.58,4.29,5.58,2.28,0,3.81-1.89,3.81-4.68Z"/><text class="cls-5" transform="translate(51.98 127.41)"><tspan x="0" y="0" xml:space="preserve">91  82</tspan><tspan x="-1.26" y="4.8">Sund</tspan><tspan class="cls-7" x="7.39" y="4.8">a</tspan><tspan x="9.28" y="4.8">y</tspan></text><text class="cls-5" transform="translate(114.16 127.41)"><tspan x="0" y="0" xml:space="preserve">91  82</tspan><tspan class="cls-8" x="-4.73" y="4.8">W</tspan><tspan x="-1.47" y="4.8">ednesd</tspan><tspan class="cls-7" x="10.85" y="4.8">a</tspan><tspan x="12.74" y="4.8">y</tspan></text><text class="cls-5" transform="translate(72.39 127.41)"><tspan x="0" y="0" xml:space="preserve">93  81</tspan><tspan class="cls-6" x="-1.89" y="4.8">M</tspan><tspan x="1.35" y="4.8">ond</tspan><tspan class="cls-7" x="8.02" y="4.8">a</tspan><tspan x="9.91" y="4.8">y</tspan></text><text class="cls-5" transform="translate(93.26 127.41)"><tspan x="0" y="0" xml:space="preserve">93  81</tspan><tspan class="cls-1" x="-1.87" y="4.8">T</tspan><tspan x="-.06" y="4.8">uesd</tspan><tspan class="cls-7" x="7.99" y="4.8">a</tspan><tspan x="9.89" y="4.8">y</tspan></text><path class="cls-3" d="m30.67,135.24v-.8l.16.02s.07,0,.1,0c.1,0,.22-.01.37-.03.34-.05.64-.19.87-.4.21-.19.36-.43.46-.72-.24.16-.53.24-.85.24-.86,0-1.49-.65-1.49-1.54,0-.99.75-1.76,1.7-1.76,1,0,1.65.81,1.65,2.06,0,1.19-.45,1.87-.83,2.24-.36.36-.86.59-1.41.65-.17.03-.34.04-.47.04h-.25Zm1.26-4.22c-.44,0-.75.4-.75.96,0,.5.29.83.73.83.34,0,.62-.15.77-.41.02-.03.04-.07.04-.15,0-.37-.08-1.23-.79-1.23Z"/><path class="cls-3" d="m35.21,135.25c-.56,0-1.03-.18-1.26-.33l-.09-.06.26-.75.15.1c.14.09.52.26.93.26.31,0,.54-.08.7-.24.12-.13.2-.31.19-.5,0-.57-.54-.77-1.04-.77h-.48v-.75h.48c.35,0,.87-.17.87-.63,0-.35-.24-.54-.66-.54-.33,0-.65.15-.83.28l-.15.11-.26-.72.08-.06c.25-.19.75-.38,1.27-.38,1,0,1.44.62,1.44,1.23,0,.44-.22.81-.61,1.05.49.22.79.66.79,1.2,0,.75-.56,1.51-1.8,1.51Z"/><path class="cls-3" d="m29.27,141.04v-3.37h.47l1.08,1.71c.25.4.45.75.61,1.1h0c-.04-.46-.05-.87-.05-1.39v-1.41h.41v3.37h-.44l-1.07-1.71c-.24-.38-.46-.76-.63-1.13h-.01c.03.43.04.84.04,1.4v1.44h-.41Z"/><path class="cls-3" d="m34.74,139.8c0,.9-.62,1.29-1.21,1.29-.66,0-1.16-.48-1.16-1.25,0-.81.53-1.29,1.2-1.29s1.17.5,1.17,1.25Zm-1.92.03c0,.53.3.93.74.93s.74-.4.74-.94c0-.41-.21-.93-.73-.93s-.75.48-.75.94Z"/><path class="cls-3" d="m35.44,138.61l.32,1.23c.07.27.13.52.18.77h.01c.06-.25.14-.5.22-.77l.4-1.24h.37l.38,1.21c.09.29.16.55.22.79h.01c.04-.25.11-.5.19-.79l.34-1.22h.44l-.78,2.42h-.4l-.37-1.16c-.08-.27-.15-.51-.21-.8h0c-.06.29-.14.54-.22.8l-.39,1.15h-.4l-.73-2.42h.45Z"/><path class="cls-3" d="m61.29,101.17c.16.1.38.18.62.18.36,0,.56-.19.56-.46,0-.25-.14-.4-.51-.54-.44-.16-.71-.38-.71-.76,0-.42.35-.73.87-.73.28,0,.48.06.6.13l-.1.28c-.09-.05-.27-.13-.51-.13-.37,0-.51.22-.51.4,0,.25.16.38.54.52.46.18.69.4.69.79,0,.42-.31.78-.94.78-.26,0-.54-.08-.69-.17l.09-.29Z"/><path class="cls-3" d="m64.92,101.07c0,.2,0,.38.02.53h-.31l-.02-.32h0c-.09.16-.3.36-.64.36-.3,0-.67-.17-.67-.85v-1.13h.35v1.07c0,.37.11.62.43.62.24,0,.4-.16.46-.32.02-.05.03-.12.03-.18v-1.19h.35v1.41Z"/><path class="cls-3" d="m65.5,100.18c0-.2,0-.36-.02-.52h.31l.02.32h0c.1-.18.32-.36.64-.36.27,0,.68.16.68.82v1.16h-.35v-1.12c0-.31-.12-.57-.45-.57-.23,0-.41.16-.47.36-.02.04-.02.1-.02.16v1.16h-.35v-1.41Z"/><path class="cls-3" d="m69.39,98.76v2.34c0,.17,0,.37.02.5h-.32l-.02-.34h0c-.11.22-.34.38-.66.38-.47,0-.83-.4-.83-.98,0-.64.4-1.04.87-1.04.3,0,.5.14.58.3h0v-1.16h.35Zm-.35,1.69s0-.1-.02-.15c-.05-.22-.24-.41-.51-.41-.36,0-.58.32-.58.75,0,.39.19.72.57.72.24,0,.45-.16.52-.42.01-.05.02-.1.02-.15v-.34Z"/><path class="cls-3" d="m71.05,101.59l-.03-.24h-.01c-.11.15-.32.29-.59.29-.39,0-.59-.28-.59-.56,0-.47.42-.72,1.16-.72v-.04c0-.16-.04-.45-.44-.45-.18,0-.37.06-.5.14l-.08-.23c.16-.1.39-.17.63-.17.59,0,.74.4.74.79v.72c0,.17,0,.33.03.46h-.32Zm-.05-.99c-.38,0-.82.06-.82.44,0,.23.15.34.33.34.25,0,.41-.16.47-.32.01-.04.02-.08.02-.11v-.34Z"/><path class="cls-3" d="m72,99.66l.42,1.14c.04.13.09.28.12.4h0c.04-.12.08-.26.12-.4l.38-1.14h.37l-.53,1.38c-.25.66-.42,1-.66,1.21-.17.15-.34.21-.43.23l-.09-.3c.09-.03.2-.08.31-.17.1-.08.22-.21.3-.39.02-.04.03-.06.03-.08s0-.05-.02-.09l-.72-1.78h.38Z"/><path class="cls-3" d="m73.37,102.09c.09-.24.2-.66.24-.96l.39-.04c-.09.34-.27.78-.38.97l-.25.02Z"/><path class="cls-3" d="m75.24,101.17c.16.1.38.18.62.18.36,0,.56-.19.56-.46,0-.25-.14-.4-.51-.54-.44-.16-.71-.38-.71-.76,0-.42.35-.73.87-.73.28,0,.48.06.6.13l-.1.28c-.09-.05-.27-.13-.51-.13-.37,0-.51.22-.51.4,0,.25.16.38.54.52.46.18.69.4.69.79,0,.42-.31.78-.94.78-.26,0-.54-.08-.69-.17l.09-.29Z"/><path class="cls-3" d="m77.47,100.69c0,.48.31.67.66.67.25,0,.4-.04.54-.1l.06.25c-.12.06-.34.12-.64.12-.6,0-.95-.39-.95-.98s.34-1.04.91-1.04c.63,0,.8.56.8.91,0,.07,0,.13-.01.16h-1.36Zm1.03-.25c0-.22-.09-.57-.49-.57-.36,0-.51.33-.54.57h1.03Z"/><path class="cls-3" d="m79.28,100.29c0-.25,0-.45-.02-.63h.32l.02.33h0c.14-.24.37-.38.69-.38.47,0,.82.4.82.98,0,.7-.42,1.04-.88,1.04-.26,0-.48-.11-.6-.3h0v1.05h-.35v-2.09Zm.35.52c0,.05,0,.1.02.14.06.24.28.41.53.41.37,0,.59-.3.59-.75,0-.39-.2-.72-.58-.72-.24,0-.46.17-.53.44-.01.04-.02.1-.02.14v.33Z"/><path class="cls-3" d="m81.98,99.1v.56h.5v.27h-.5v1.04c0,.24.07.38.26.38.09,0,.16-.01.2-.02l.02.26c-.07.03-.18.05-.31.05-.16,0-.3-.05-.38-.15-.1-.1-.14-.28-.14-.5v-1.06h-.3v-.27h.3v-.46l.34-.09Z"/><path class="cls-3" d="m83.05,100.69c0,.48.31.67.66.67.25,0,.4-.04.54-.1l.06.25c-.12.06-.34.12-.64.12-.6,0-.95-.39-.95-.98s.34-1.04.91-1.04c.63,0,.8.56.8.91,0,.07,0,.13-.01.16h-1.36Zm1.03-.25c0-.22-.09-.57-.49-.57-.36,0-.51.33-.54.57h1.03Z"/><path class="cls-3" d="m84.86,100.18c0-.2,0-.36-.02-.52h.31l.02.31h.01c.11-.18.29-.36.61-.36.26,0,.46.16.55.39h0c.06-.11.14-.19.22-.25.12-.09.24-.14.43-.14.26,0,.64.17.64.84v1.14h-.34v-1.1c0-.37-.14-.6-.42-.6-.2,0-.36.15-.42.32-.02.05-.03.11-.03.18v1.2h-.34v-1.16c0-.31-.14-.53-.4-.53-.22,0-.38.18-.44.35-.02.05-.03.11-.03.17v1.17h-.34v-1.41Z"/><path class="cls-3" d="m88.18,101.59c0-.13.02-.33.02-.5v-2.34h.35v1.22h0c.12-.22.35-.36.66-.36.48,0,.82.4.82.99,0,.69-.44,1.04-.87,1.04-.28,0-.5-.11-.65-.36h-.01l-.02.32h-.3Zm.36-.78s0,.09.02.13c.07.24.27.41.53.41.37,0,.59-.3.59-.74,0-.39-.2-.72-.58-.72-.24,0-.46.16-.54.43,0,.04-.02.09-.02.14v.35Z"/><path class="cls-3" d="m90.67,100.69c0,.48.31.67.66.67.25,0,.4-.04.54-.1l.06.25c-.12.06-.34.12-.64.12-.6,0-.95-.39-.95-.98s.34-1.04.91-1.04c.63,0,.8.56.8.91,0,.07,0,.13-.01.16h-1.36Zm1.03-.25c0-.22-.09-.57-.49-.57-.36,0-.51.33-.54.57h1.03Z"/><path class="cls-3" d="m92.47,100.26c0-.23,0-.42-.02-.6h.31v.38h.03c.09-.26.3-.42.54-.42.04,0,.07,0,.1.01v.33s-.07-.01-.12-.01c-.25,0-.42.19-.47.45,0,.05-.02.1-.02.16v1.03h-.35v-1.33Z"/><path class="cls-3" d="m94.52,101.59v-.22l.28-.27c.66-.63.96-.97.97-1.36,0-.26-.13-.51-.52-.51-.24,0-.43.12-.55.22l-.11-.25c.18-.15.44-.26.74-.26.56,0,.8.38.8.76,0,.48-.35.87-.9,1.4l-.21.19h0s1.17,0,1.17,0v.29h-1.66Z"/></g></g></svg>