<?xml version="1.0" encoding="UTF-8"?><svg id="Layer_2" xmlns="http://www.w3.org/2000/svg" xmlns:xlink="http://www.w3.org/1999/xlink" viewBox="0 0 179.9 200"><defs><style>.cls-1{fill:#707071;}.cls-1,.cls-2{stroke-width:0px;}.cls-2{fill:url(#radial-gradient);}</style><radialGradient id="radial-gradient" cx="-5144.93" cy="4362.3" fx="-5144.93" fy="4362.3" r="1.05" gradientTransform="translate(924092.4 1188483.02) rotate(.06) scale(179.76 -272.2) skewX(-.04)" gradientUnits="userSpaceOnUse"><stop offset="0" stop-color="#fff"/><stop offset="1" stop-color="#b2b1b2"/></radialGradient></defs><g id="Layer_1-2"><g id="Group_996"><g id="Rectangle_512-2"><rect class="cls-2" x="0" width="179.76" height="200"/></g><path class="cls-1" d="m179.9,31.08v-1h-40.14V.03h-1v30.05h-38.28V.03h-1v30.05h-18.44V.03h-1v30.05h-38.28V.03h-1v30.05H0v1h40.75v33.65H0v1h40.75v33.62H0v1h40.75v69.03H0v1h40.75v29.4h1v-62.37h38.28v62.37h1v-62.37h18.44v62.37h1v-62.37h38.28v62.37h1v-29.4h40.05v-1h-40.05v-69.03h40.14v-1h-40.14v-33.62h40.06v-1h-40.06V31.08h40.14Zm-80.42,0v68.27h-18.44V31.08h18.44Zm-57.73,0h38.28v68.27h-38.28V31.08Zm0,105.33v-36.06h38.28v36.06h-38.28Zm39.28,0v-36.06h18.44v36.06h-18.44Zm57.73,0h-38.28v-36.06h38.28v36.06Zm0-37.06h-38.28V31.08h38.28v68.27Z"/></g></g></svg>