<svg xmlns="http://www.w3.org/2000/svg" viewBox="0 0 385.13 178.96"><defs><style>.cls-1{fill:#21a56e;}.cls-2{fill:#25ad7a;}.cls-3{fill:#191918;}.cls-4{fill:#fff;}.cls-5{fill:#0d542d;}</style></defs><g id="Layer_2" data-name="Layer 2"><g id="Layer_1-2" data-name="Layer 1"><path class="cls-1" d="M160.3,107.73h71.22v71.18H160.3ZM211.14,167l.23-.28-4.53-14L197.5,155l-.07-.22L220.78,138l-.14-.28h-1.37c-5.42,0-10.85,0-16.28,0a1.24,1.24,0,0,1-1.46-1.06c-.69-2.38-1.47-4.73-2.25-7.09-1.07-3.24-2.17-6.47-3.36-10-.19.47-.26.62-.31.77-1.79,5.41-3.62,10.8-5.33,16.24a1.38,1.38,0,0,1-1.65,1.16c-2.36,0-4.72,0-7.08,0H170.88a8.26,8.26,0,0,0,.62.67c4.53,3.27,9,6.56,13.6,9.78a1.53,1.53,0,0,1,.7,2.1c-.59,1.64-1.09,3.31-1.64,5L180.3,167a9.26,9.26,0,0,0,1.11-.53c4.59-3.34,9.17-6.71,13.78-10a1.46,1.46,0,0,1,1.33-.07c3.61,2.58,7.17,5.22,10.75,7.84C208.55,165.13,209.85,166.06,211.14,167Z"/><path class="cls-1" d="M385,179H314.1V107.78H385Zm-35.4-59.33a9.3,9.3,0,0,0-.48,1c-1.71,5.23-3.43,10.47-5.11,15.72a1.7,1.7,0,0,1-1.95,1.42c-5.43-.08-10.85,0-16.28,0h-1.54l15.56,11.25c-1.94,6-3.86,11.88-5.79,17.8l.29.16,15.2-11,15.22,11,.28-.26c-1.53-4.68-3.07-9.35-4.58-14L351.34,155l-.11-.31,23.61-17.06H355.58Z"/><path class="cls-1" d="M6.76,107.73H77.69v71.18H6.76ZM43.94,155l0-.32,23.62-17H66.35c-5.61,0-11.23,0-16.84,0a1.44,1.44,0,0,1-1.69-1.2c-1.1-3.65-2.3-7.26-3.49-10.89-.63-1.93-1.3-3.84-2-5.76l-.31,0c-1.94,5.91-3.89,11.82-5.88,17.88H17.08c5.08,3.65,10,7.15,14.78,10.7a1.49,1.49,0,0,1,.28,1.32c-1.69,5.39-3.45,10.76-5.18,16.14a11.14,11.14,0,0,0-.21,1.17c5.35-3.88,10.42-7.55,15.48-11.2l15.18,11,.3-.21c-1.49-4.64-3-9.28-4.51-14Z"/><path class="cls-1" d="M83.53,107.73h70.93v71.18H83.53Zm10.87,30-.16.28c.32.26.62.55,1,.8,4.41,3.19,8.8,6.42,13.25,9.55A1.19,1.19,0,0,1,109,150c-1.29,3.78-2.51,7.59-3.74,11.39-.58,1.78-1.13,3.58-1.81,5.71.79-.53,1.24-.83,1.69-1.15,4.34-3.12,8.71-6.22,13-9.4a1.27,1.27,0,0,1,1.73-.08c3.25,2.36,6.48,4.75,9.72,7.12,1.53,1.12,3.07,2.21,4.61,3.31l.32-.25c-1.52-4.64-3-9.29-4.54-13.91L120.76,155l-.08-.25L144,137.92c-6-.24-11.85-.25-17.7-.22a1.32,1.32,0,0,1-1.55-1.12c-1.15-3.73-2.43-7.42-3.66-11.13q-.93-2.82-1.84-5.63h-.36q-2.91,8.94-5.84,17.86Z"/><path class="cls-1" d="M308.3,107.77V179H237.36V107.77ZM274.55,155l-.11-.34L297.57,138l-.16-.3H278.74l-5.94-18.15a6.92,6.92,0,0,0-.4.63c-1.8,5.51-3.62,11-5.38,16.52a1.19,1.19,0,0,1-1.35,1c-3.07,0-6.14,0-9.21,0h-9L263,148.93q-2.87,8.87-5.75,17.72a22,22,0,0,0,4-2.45c3.51-2.54,7-5.13,10.54-7.64a1.64,1.64,0,0,1,1.46-.21c4.29,3.05,8.52,6.18,12.77,9.28.64.47,1.33.85,2.3,1.47l-4.71-14.41Z"/><path class="cls-2" d="M66.1,61.52S68.71,69.27,70,73.16c1.6,4.89,3.16,9.79,4.51,14.92-1.31-.92-2.63-1.82-3.93-2.76L53.4,72.85C51.19,71.24,49,69.69,46.79,68c-.55-.43-.87-.46-1.39-.08Q33.57,76.56,21.72,85.14A38.11,38.11,0,0,1,17.41,88c1-3,1.93-6.09,2.92-9.13,2.52-7.79,5-15.58,7.63-23.35a1.23,1.23,0,0,0-.48-1.64L.66,34.45A1.65,1.65,0,0,1,0,33.77H1.44c10.72,0,21.43,0,32.15,0a1.71,1.71,0,0,0,2-1.42Q39.5,20,43.51,7.68C44.25,5.36,45,3.05,45.76.73A5.22,5.22,0,0,1,46.19,0c3.47,10.74,6.93,21.3,10.28,31.9.46,1.43,1,1.93,2.56,1.92,11-.08,22,0,33.43,0-1.35,1-2.38,1.8-3.43,2.56q-8.52,6.21-17,12.41c-2.58,1.86-5.21,3.64-7.82,5.45C64.11,54.31,66.1,61.52,66.1,61.52Z"/><path class="cls-3" d="M258.59,47.12h7.23v4.37c3-4.92,7.65-5.89,12.5-5.47,7.47.64,12.11,4.41,14.06,12a24.19,24.19,0,0,1-1.59,17.41,13.92,13.92,0,0,1-15.28,7.36c-4.06-.71-5.81-1.31-9-4.59V94.84h-7.91Zm26.66,17.5c-.14-1.14-.19-2.31-.42-3.44-.89-4.51-3.92-9.24-10-8.74a7.94,7.94,0,0,0-6.41,3.45c-2.42,3.63-2.6,7.63-2,11.8.71,5,4.49,9.62,10.59,8.84a8.11,8.11,0,0,0,5.62-3.22C284.65,70.72,285.14,67.77,285.25,64.62Z"/><path class="cls-3" d="M326.93,64.45a19.89,19.89,0,0,1,3.51-11.83,14.82,14.82,0,0,1,8.95-6c5.62-1.36,11.05-.84,16,2.46,3.68,2.45,5.62,6,6.54,10.26a23.33,23.33,0,0,1-.66,12.83A15.35,15.35,0,0,1,350,82.43a19.62,19.62,0,0,1-14-1.35c-5.12-2.59-7.75-6.94-8.64-12.47C327.13,67.24,327.07,65.84,326.93,64.45Zm7.89.11a39.54,39.54,0,0,0,.77,4.48c1.38,4.76,4.81,8,10.19,7.51,3.9-.39,6.2-2.73,7.59-6.06a15.54,15.54,0,0,0,.6-10.27c-1.27-4.64-4.79-8.43-10.65-7.75a8,8,0,0,0-5.41,3A14.8,14.8,0,0,0,334.82,64.56Z"/><path class="cls-3" d="M199.61,70.63h7.83a5.85,5.85,0,0,0,5.09,5.69,12.49,12.49,0,0,0,8.63-1,3.34,3.34,0,0,0,0-5.84,35.79,35.79,0,0,0-6.94-2.31c-3.64-1-7.41-1.45-10.63-3.69-2.84-2-3.8-5.87-3.3-8.72.88-5.09,4.64-7.21,9.16-8.25a23.09,23.09,0,0,1,11.67.24c5,1.43,8.15,5.15,8.49,10.2-2.54,0-5.08,0-7.62,0-.28,0-.77-.32-.81-.55-.41-2.7-2.54-3.56-4.68-3.87a16.62,16.62,0,0,0-5.64.46c-1.84.39-2.72,1.52-2.74,2.82A3.86,3.86,0,0,0,210.84,59c3.33.93,6.72,1.65,10,2.59,2.72.77,5.37,1.63,7.55,3.68,2.69,2.53,2.86,7.74,1.66,10.34-1.87,4.07-5.4,6-9.57,6.86a28.91,28.91,0,0,1-7.06.56c-3.84-.19-7.57-1-10.49-3.79A10.15,10.15,0,0,1,199.61,70.63Z"/><path class="cls-3" d="M163.41,47.12h8.12v1.39c0,7.26-.07,14.52,0,21.79.05,2.91,1.16,5.2,4.16,6,5.16,1.41,10.51-1.5,10.53-7.6,0-7.16,0-14.32,0-21.56h8.14V82.1h-7.79V77.49a11.47,11.47,0,0,1-8.29,5.38c-6.13.79-13.3-1-14.42-9.2a60.19,60.19,0,0,1-.56-7.21c-.07-6.32,0-12.64,0-19A2,2,0,0,1,163.41,47.12Z"/><path class="cls-3" d="M116.34,41.14H101.08V33.86h39.21v7.23H125.12v41h-8.78Z"/><path class="cls-3" d="M370.12,53h-5.58v-5.9h5.53V36.69h8.22V47h6.76v6H378.4c0,.51-.06.92-.06,1.33q0,9.33,0,18.67c0,2,1,3,3,3h3.81c0,1.72,0,3.62,0,5.51,0,.24-.34.67-.54.68-3.59.27-7.18.81-10.65-.78a5.77,5.77,0,0,1-3.48-5.49c-.18-7.19-.22-14.38-.31-21.57C370.11,53.94,370.12,53.57,370.12,53Z"/><path class="cls-3" d="M238.39,53h-5.87V47.12h5.83V36.68h7.94V47.05h7v6h-7v4.74c0,4.85,0,9.71,0,14.57,0,3.14,1.34,3.9,3.62,3.66a32.85,32.85,0,0,1,3.45,0c0,1.63,0,3.51,0,5.38,0,.29-.44.8-.7.81-3.31.19-6.61.72-9.9-.46a5.61,5.61,0,0,1-4.07-5,47.1,47.1,0,0,1-.3-5.44C238.37,65.26,238.39,59.22,238.39,53Z"/><path class="cls-3" d="M313.54,33.81h7.77v48.3h-7.77Z"/><path class="cls-3" d="M159,53.86c-1.18-.09-2.28-.22-3.39-.26a8.85,8.85,0,0,0-8.16,5.72,17.91,17.91,0,0,0-1.14,6.76c0,5.32,0,10.64,0,16h-7.86V47.16h7.23v6c3-5.49,7.22-8,13.31-7Z"/><path class="cls-3" d="M306.58,82.16h-7.77v-35h7.77Z"/><path class="cls-3" d="M298.82,33.82h7.75V41h-7.75Z"/><path class="cls-4" d="M211.14,167c-1.29-.93-2.59-1.86-3.87-2.8-3.58-2.62-7.14-5.26-10.75-7.84a1.46,1.46,0,0,0-1.33.07c-4.61,3.31-9.19,6.68-13.78,10a9.26,9.26,0,0,1-1.11.53l3.86-11.77c.55-1.66,1.05-3.33,1.64-5a1.53,1.53,0,0,0-.7-2.1c-4.56-3.22-9.07-6.51-13.6-9.78a8.26,8.26,0,0,1-.62-.67h10.67c2.36,0,4.72,0,7.08,0a1.38,1.38,0,0,0,1.65-1.16c1.71-5.44,3.54-10.83,5.33-16.24,0-.15.12-.3.31-.77,1.19,3.55,2.29,6.78,3.36,10,.78,2.36,1.56,4.71,2.25,7.09A1.24,1.24,0,0,0,203,137.7c5.43,0,10.86,0,16.28,0h1.37l.14.28-23.35,16.86.07.22,9.34-2.32,4.53,14Z"/><path class="cls-4" d="M349.64,119.63l5.94,18h19.26l-23.61,17.06.11.31,9.12-2.34c1.51,4.64,3.05,9.31,4.58,14l-.28.26-15.22-11-15.2,11-.29-.16c1.93-5.92,3.85-11.83,5.79-17.8l-15.56-11.25h1.54c5.43,0,10.85,0,16.28,0a1.7,1.7,0,0,0,1.95-1.42c1.68-5.25,3.4-10.49,5.11-15.72A9.3,9.3,0,0,1,349.64,119.63Z"/><path class="cls-4" d="M43.94,155l9.26-2.28c1.52,4.69,3,9.33,4.51,14l-.3.21-15.18-11c-5.06,3.65-10.13,7.32-15.48,11.2a11.14,11.14,0,0,1,.21-1.17c1.73-5.38,3.49-10.75,5.18-16.14a1.49,1.49,0,0,0-.28-1.32c-4.83-3.55-9.7-7-14.78-10.7h19.1c2-6.06,3.94-12,5.88-17.88l.31,0c.66,1.92,1.33,3.83,2,5.76,1.19,3.63,2.39,7.24,3.49,10.89a1.44,1.44,0,0,0,1.69,1.2c5.61-.05,11.23,0,16.84,0h1.17l-23.62,17Z"/><path class="cls-4" d="M94.4,137.69h18.65q2.92-8.92,5.84-17.86h.36q.91,2.81,1.84,5.63c1.23,3.71,2.51,7.4,3.66,11.13a1.32,1.32,0,0,0,1.55,1.12c5.85,0,11.7,0,17.7.22l-23.32,16.85.08.25,9.24-2.28c1.51,4.62,3,9.27,4.54,13.91l-.32.25c-1.54-1.1-3.08-2.19-4.61-3.31-3.24-2.37-6.47-4.76-9.72-7.12a1.27,1.27,0,0,0-1.73.08c-4.3,3.18-8.67,6.28-13,9.4-.45.32-.9.62-1.69,1.15.68-2.13,1.23-3.93,1.81-5.71,1.23-3.8,2.45-7.61,3.74-11.39a1.19,1.19,0,0,0-.57-1.68c-4.45-3.13-8.84-6.36-13.25-9.55-.33-.25-.63-.54-1-.8Z"/><path class="cls-4" d="M274.55,155l9.09-2.34,4.71,14.41c-1-.62-1.66-1-2.3-1.47-4.25-3.1-8.48-6.23-12.77-9.28a1.64,1.64,0,0,0-1.46.21c-3.54,2.51-7,5.1-10.54,7.64a22,22,0,0,1-4,2.45L263,148.93l-15.55-11.25h9c3.07,0,6.14,0,9.21,0a1.19,1.19,0,0,0,1.35-1c1.76-5.52,3.58-11,5.38-16.52a6.92,6.92,0,0,1,.4-.63l5.94,18.15h18.67l.16.3-23.13,16.7Z"/><polygon class="cls-5" points="64.17 54.2 48.96 65.08 66.1 61.52 64.17 54.2"/></g></g></svg>