<?xml version="1.0" encoding="UTF-8"?><svg id="Layer_1" xmlns="http://www.w3.org/2000/svg" viewBox="0 0 385 94.8"><defs><style>.cls-1,.cls-2{fill:#fff;}.cls-2{isolation:isolate;opacity:.5;}</style></defs><path class="cls-1" d="m66.1,61.5s2.6,7.7,3.9,11.6c1.6,4.9,3.2,9.8,4.5,14.9-1.3-.9-2.6-1.8-3.9-2.8l-17.2-12.4c-2.2-1.6-4.4-3.2-6.6-4.8-.5-.4-.9-.5-1.4-.1-7.9,5.8-15.8,11.5-23.7,17.2-1.4,1-2.8,2-4.3,2.9,1-3,1.9-6.1,2.9-9.1,2.5-7.8,5-15.6,7.6-23.3.3-.6.1-1.3-.5-1.6L.7,34.4c-.3-.2-.5-.4-.7-.7h33.6c.9.2,1.8-.4,2-1.4h0c2.6-8.2,5.2-16.5,7.9-24.7.7-2.2,1.5-4.6,2.3-6.9.1-.2.2-.5.4-.7,3.5,10.7,6.9,21.3,10.3,31.9.5,1.4,1,1.9,2.6,1.9,11-.1,22,0,33.4,0-1.3,1-2.4,1.8-3.4,2.6-5.7,4.1-11.3,8.3-17,12.4-2.6,1.9-5.2,3.6-7.8,5.5,0,.1-4.5,3.2-15.2,10.9l17-3.7Z"/><path class="cls-1" d="m258.6,47.1h7.2v4.4c3-4.9,7.6-5.9,12.5-5.5,7.5.6,12.1,4.4,14.1,12,1.7,5.8,1.1,12-1.6,17.4-2.8,5.6-9.1,8.7-15.3,7.4-4.1-.7-5.8-1.3-9-4.6v16.6h-7.9v-47.7Zm26.6,17.5c-.1-1.1-.2-2.3-.4-3.4-.9-4.5-3.9-9.2-10-8.7-2.6,0-5,1.3-6.4,3.5-2.4,3.6-2.6,7.6-2,11.8.7,5,4.5,9.6,10.6,8.8,2.2-.2,4.3-1.4,5.6-3.2,2-2.7,2.5-5.6,2.6-8.8Z"/><path class="cls-1" d="m326.9,64.4c-.1-4.2,1.1-8.4,3.5-11.8,2.1-3.1,5.3-5.2,9-6,5.6-1.4,11-.8,16,2.5,3.7,2.5,5.6,6,6.5,10.3,1,4.3.8,8.7-.7,12.8-1.7,5.2-6,9.1-11.3,10.3-4.7,1.3-9.7.8-14-1.3-5.1-2.6-7.8-6.9-8.6-12.5-.2-1.5-.2-2.9-.4-4.3Zm7.9.2c.2,1.5.4,3,.8,4.5,1.4,4.8,4.8,8,10.2,7.5,3.9-.4,6.2-2.7,7.6-6.1,1.4-3.3,1.6-6.9.6-10.3-1.3-4.6-4.8-8.4-10.6-7.8-2.1.2-4.1,1.3-5.4,3-2.1,2.7-3.2,5.9-3.2,9.2Z"/><path class="cls-1" d="m199.6,70.6h7.8c.1,2.9,2.2,5.3,5.1,5.7,2.9.7,6,.4,8.6-1,1.6-.9,2.2-2.9,1.3-4.5-.3-.5-.8-1-1.3-1.3-2.2-1-4.6-1.8-6.9-2.3-3.6-1-7.4-1.4-10.6-3.7-2.8-2-3.8-5.9-3.3-8.7.9-5.1,4.6-7.2,9.2-8.2,3.8-.9,7.9-.8,11.7.2,5,1.4,8.1,5.2,8.5,10.2h-7.6c-.3,0-.8-.3-.8-.5-.4-2.7-2.5-3.6-4.7-3.9-1.9-.2-3.8,0-5.6.5-1.8.4-2.7,1.5-2.7,2.8.2,1.5,1.3,2.8,2.7,3.2,3.3.9,6.7,1.7,10,2.6,2.7.8,5.4,1.6,7.6,3.7,2.7,2.5,2.9,7.7,1.7,10.3-1.9,4.1-5.4,6-9.6,6.9-2.3.5-4.7.7-7.1.6-3.8-.2-7.6-1-10.5-3.8-2.6-2.3-3.8-5.5-3.5-8.8Z"/><path class="cls-1" d="m163.4,47.1h8.1v1.4c0,7.3-.1,14.5,0,21.8.1,2.9,1.2,5.2,4.2,6,5.2,1.4,10.5-1.5,10.5-7.6v-21.6h8.1v35h-7.8v-4.6c-1.8,3-4.9,4.9-8.3,5.4-6.1.8-13.3-1-14.4-9.2-.3-2.4-.5-4.8-.6-7.2-.1-6.3,0-12.6,0-19,.1-.2.2-.3.2-.4Z"/><path class="cls-1" d="m116.3,41.1h-15.3v-7.3h39.2v7.2h-15.2v41h-8.8l.1-40.9Z"/><path class="cls-1" d="m370.1,53h-5.6v-5.9h5.5v-10.4h8.2v10.3h6.8v6h-6.7c0,.5-.1.9-.1,1.3v18.7c0,2,1,3,3,3h3.8v5.5c0,.2-.3.7-.5.7-3.6.3-7.2.8-10.6-.8-2.2-.9-3.6-3.1-3.5-5.5-.2-7.2-.2-14.4-.3-21.6,0-.4,0-.7,0-1.3Z"/><path class="cls-1" d="m238.4,53h-5.9v-5.9h5.8v-10.4h7.9v10.3h7v6h-7v19.3c0,3.1,1.3,3.9,3.6,3.7,1.1-.1,2.3-.1,3.4,0v5.4c0,.3-.4.8-.7.8-3.3.2-6.6.7-9.9-.5-2.3-.6-3.9-2.6-4.1-5-.2-1.8-.3-3.6-.3-5.4.2-6,.2-12.1.2-18.3Z"/><path class="cls-1" d="m313.5,33.8h7.8v48.3h-7.8v-48.3Z"/><path class="cls-1" d="m159,53.9c-1.2-.1-2.3-.2-3.4-.3-3.6,0-6.9,2.3-8.2,5.7-.8,2.2-1.2,4.5-1.1,6.8v16h-7.9v-34.9h7.2v6c3-5.5,7.2-8,13.3-7l.1,7.7Z"/><path class="cls-1" d="m306.6,82.2h-7.8v-35h7.8v35Z"/><path class="cls-1" d="m298.8,33.8h7.8v7.2h-7.8v-7.2Z"/><g id="Layer_3"><polygon class="cls-2" points="64.2 54.2 49 65.1 66.1 61.5 64.2 54.2"/></g></svg>