<?xml version="1.0" encoding="UTF-8"?><svg id="Layer_1" xmlns="http://www.w3.org/2000/svg" viewBox="0 0 385.15 94.84"><defs><style>.cls-1{fill:#191918;}.cls-2{fill:#25ad7a;}.cls-3{fill:#0d542d;}</style></defs><path class="cls-2" d="m66.1,61.52s2.61,7.75,3.9,11.64c1.6,4.89,3.16,9.79,4.51,14.92-1.31-.92-2.63-1.82-3.93-2.76l-17.18-12.47c-2.21-1.61-4.4-3.16-6.61-4.85-.55-.43-.87-.46-1.39-.08-7.89,5.76-15.78,11.5-23.68,17.22-1.37,1.05-2.81,2.01-4.31,2.86,1-3,1.93-6.09,2.92-9.13,2.52-7.79,5-15.58,7.63-23.35.31-.59.1-1.31-.48-1.64L.66,34.45c-.28-.16-.51-.39-.66-.68h33.59c.93.17,1.82-.44,1.99-1.37,0-.02,0-.03,0-.05,2.61-8.23,5.25-16.46,7.92-24.67.74-2.32,1.49-4.63,2.25-6.95.12-.25.27-.5.43-.73,3.47,10.74,6.93,21.3,10.28,31.9.46,1.43,1,1.93,2.56,1.92,11-.08,22,0,33.43,0-1.35,1-2.38,1.8-3.43,2.56-5.68,4.14-11.35,8.28-17,12.41-2.58,1.86-5.21,3.64-7.82,5.45-.1.07,1.89,7.28,1.89,7.28Z"/><path class="cls-1" d="m258.59,47.12h7.23v4.37c3-4.92,7.65-5.89,12.5-5.47,7.47.64,12.11,4.41,14.06,12,1.66,5.8,1.09,12.01-1.59,17.41-2.84,5.63-9.11,8.65-15.28,7.36-4.06-.71-5.81-1.31-9-4.59v16.64h-7.91v-47.72Zm26.66,17.5c-.14-1.14-.19-2.31-.42-3.44-.89-4.51-3.92-9.24-10-8.74-2.57.05-4.96,1.33-6.41,3.45-2.42,3.63-2.6,7.63-2,11.8.71,5,4.49,9.62,10.59,8.84,2.24-.25,4.28-1.41,5.62-3.22,2.02-2.59,2.51-5.54,2.62-8.69Z"/><path class="cls-1" d="m326.93,64.45c-.11-4.22,1.12-8.36,3.51-11.83,2.12-3.05,5.32-5.19,8.95-6,5.62-1.36,11.05-.84,16,2.46,3.68,2.45,5.62,6,6.54,10.26.99,4.25.76,8.7-.66,12.83-1.67,5.18-5.96,9.08-11.27,10.26-4.67,1.3-9.66.81-14-1.35-5.12-2.59-7.75-6.94-8.64-12.47-.23-1.37-.29-2.77-.43-4.16Zm7.89.11c.17,1.51.43,3,.77,4.48,1.38,4.76,4.81,8,10.19,7.51,3.9-.39,6.2-2.73,7.59-6.06,1.36-3.26,1.57-6.88.6-10.27-1.27-4.64-4.79-8.43-10.65-7.75-2.13.23-4.08,1.32-5.41,3-2.01,2.6-3.1,5.8-3.09,9.09Z"/><path class="cls-1" d="m199.61,70.63h7.83c.05,2.89,2.22,5.31,5.09,5.69,2.9.71,5.97.36,8.63-1,1.61-.9,2.19-2.93,1.3-4.54-.3-.55-.75-1-1.3-1.3-2.23-1-4.55-1.78-6.94-2.31-3.64-1-7.41-1.45-10.63-3.69-2.84-2-3.8-5.87-3.3-8.72.88-5.09,4.64-7.21,9.16-8.25,3.85-.92,7.86-.84,11.67.24,5,1.43,8.15,5.15,8.49,10.2h-7.62c-.28,0-.77-.32-.81-.55-.41-2.7-2.54-3.56-4.68-3.87-1.89-.17-3.8-.01-5.64.46-1.84.39-2.72,1.52-2.74,2.82.2,1.51,1.26,2.75,2.72,3.19,3.33.93,6.72,1.65,10,2.59,2.72.77,5.37,1.63,7.55,3.68,2.69,2.53,2.86,7.74,1.66,10.34-1.87,4.07-5.4,6-9.57,6.86-2.32.48-4.69.66-7.06.56-3.84-.19-7.57-1-10.49-3.79-2.42-2.17-3.66-5.37-3.32-8.61Z"/><path class="cls-1" d="m163.41,47.12h8.12v1.39c0,7.26-.07,14.52,0,21.79.05,2.91,1.16,5.2,4.16,6,5.16,1.41,10.51-1.5,10.53-7.6v-21.56h8.14v34.96h-7.79v-4.61c-1.81,2.95-4.86,4.93-8.29,5.38-6.13.79-13.3-1-14.42-9.2-.33-2.39-.52-4.8-.56-7.21-.07-6.32,0-12.64,0-19,.03-.12.06-.23.11-.34Z"/><path class="cls-1" d="m116.34,41.14h-15.26v-7.28h39.21v7.23h-15.17v41h-8.78v-40.95Z"/><path class="cls-1" d="m370.12,53h-5.58v-5.9h5.53v-10.41h8.22v10.31h6.76v6h-6.65c0,.51-.06.92-.06,1.33v18.67c0,2,1,3,3,3h3.81v5.51c0,.24-.34.67-.54.68-3.59.27-7.18.81-10.65-.78-2.18-.94-3.56-3.12-3.48-5.49-.18-7.19-.22-14.38-.31-21.57-.06-.41-.05-.78-.05-1.35Z"/><path class="cls-1" d="m238.39,53h-5.87v-5.88h5.83v-10.44h7.94v10.37h7v6h-7v19.31c0,3.14,1.34,3.9,3.62,3.66,1.15-.06,2.3-.06,3.45,0v5.38c0,.29-.44.8-.7.81-3.31.19-6.61.72-9.9-.46-2.27-.64-3.9-2.64-4.07-5-.2-1.81-.31-3.62-.3-5.44-.02-6.05,0-12.09,0-18.31Z"/><path class="cls-1" d="m313.54,33.81h7.77v48.3h-7.77v-48.3Z"/><path class="cls-1" d="m159,53.86c-1.18-.09-2.28-.22-3.39-.26-3.64.05-6.87,2.32-8.16,5.72-.81,2.16-1.2,4.45-1.14,6.76v16h-7.86v-34.92h7.23v6c3-5.49,7.22-8,13.31-7v7.7Z"/><path class="cls-1" d="m306.58,82.16h-7.77v-35h7.77v35Z"/><path class="cls-1" d="m298.82,33.82h7.75v7.18h-7.75v-7.18Z"/><polygon class="cls-3" points="64.17 54.2 48.96 65.08 66.1 61.52 64.17 54.2"/></svg>